# Blender 4.1.1
# www.blender.org
mtllib mp5s.mtl
o MP5BodySilenced.004
v 0.754258 0.820131 0.207305
v 0.754258 0.539105 0.151066
v -1.189014 0.820131 0.207305
v -1.189014 0.421552 0.151066
v -1.017610 0.383338 0.151066
v -1.189014 0.619693 -0.000000
v -0.876622 0.132488 0.151066
v 0.754258 0.539589 -0.000000
v 0.652706 0.727897 0.151066
v 0.668765 0.275353 0.151066
v 0.314092 0.726967 0.151066
v 0.314092 0.132488 0.151066
v -0.996003 0.721140 0.151066
v 0.631766 0.507905 0.151066
v 0.754258 0.730560 0.151066
v -1.189014 0.721936 0.151066
v -1.189014 0.378600 -0.000000
v 0.754258 1.019541 0.000002
v -1.189014 1.019541 0.000002
v -1.032643 0.335018 -0.000000
v -0.996774 0.132488 -0.000000
v 0.668765 0.275353 -0.000000
v 0.314092 0.132488 -0.000000
v 0.631766 0.507905 -0.000000
v -0.502153 0.132488 0.151066
v -0.502126 0.132488 -0.000000
v -0.996774 0.132488 -0.000000
v -0.614374 0.132667 0.151066
v -0.502126 0.132488 -0.000000
v -1.328502 -0.594487 0.151066
v -1.426422 -0.540840 -0.000000
v -1.032800 -0.757267 0.151066
v -0.928568 -0.813378 -0.000000
v 0.696322 0.734150 0.285671
v 0.695160 1.018539 0.075710
v 2.617088 0.745504 0.279967
v 2.617088 1.018539 0.075710
v 0.695160 0.447503 -0.000000
v 0.695354 0.936007 -0.000000
v 2.617088 0.458857 -0.000000
v 2.617088 0.936007 -0.000000
v -1.185599 1.041324 0.110254
v 2.634285 1.041324 0.105542
v -1.185599 0.935193 -0.000000
v -1.185599 1.147455 0.000002
v 2.634285 0.935193 -0.000591
v 2.634285 1.147455 -0.000589
v 2.453040 0.743642 0.188271
v 4.046405 0.743642 0.189290
v 2.453040 0.537512 -0.000000
v 2.453040 0.949771 0.000002
v 4.046405 0.537512 -0.000000
v 4.046405 0.949771 0.000002
v 2.433552 0.921248 -0.000000
v 2.588540 0.921248 -0.000000
v 2.433552 0.921248 -0.000000
v 2.588540 0.921248 -0.000000
v 2.433552 1.040560 0.124114
v 2.588540 1.040560 0.124114
v 2.433552 1.040560 0.124114
v 2.588540 1.040560 0.124114
v 2.433552 1.160908 0.000002
v 2.588540 1.160908 0.000002
v 2.433552 1.160908 0.000002
v 2.588540 1.160908 0.000002
v 2.433552 1.195868 0.000002
v 2.588540 1.195868 0.000002
v 2.433552 1.195868 0.000002
v 2.588540 1.451042 0.000002
v 2.433552 1.451042 0.000002
v 2.433552 1.228007 0.000002
v 2.433552 1.314580 0.113576
v 2.588540 1.314580 0.113576
v 2.433586 1.314905 0.081774
v 2.588130 1.228007 0.000002
v 2.433552 1.411653 0.000002
v 2.588348 1.323568 0.005350
v 2.588348 1.323568 0.000002
v -0.611407 -0.107627 0.029437
v -0.448364 -0.198851 0.029437
v -0.643978 -0.180460 0.000001
v -0.453327 -0.257005 0.000001
v -0.119281 -0.190947 0.029437
v -0.065969 -0.244936 0.000001
v -0.004598 0.140429 0.029437
v 0.084793 0.140344 0.000001
v -0.963810 1.060769 0.088295
v -0.844610 1.342495 0.088295
v -0.827716 1.142643 0.000002
v -1.015297 1.143633 0.000002
v -0.762375 1.309825 0.000002
v -0.926845 1.375165 0.000002
v -0.954441 1.305669 0.000002
v -0.942717 1.337640 0.000002
v -0.933891 1.317157 0.019708
v -1.074787 1.063954 0.088295
v -1.129010 1.146819 0.000002
v -1.017248 1.203422 0.088295
v -1.069216 1.286287 0.000002
v -0.903583 1.203422 0.088295
v -0.962232 1.286287 0.000002
v 0.149392 -0.016268 0.037302
v 0.217419 0.139021 0.037302
v 0.149392 -0.016268 -0.036272
v 0.217419 0.139021 -0.036272
v 0.754258 0.820131 -0.207305
v 0.754258 0.539105 -0.151065
v -1.189014 0.820131 -0.207305
v -1.189014 0.421552 -0.151065
v -1.017610 0.383338 -0.151065
v -0.876622 0.132488 -0.151065
v 0.652706 0.727897 -0.151065
v 0.668765 0.275353 -0.151065
v 0.314092 0.726967 -0.151065
v 0.314092 0.132488 -0.151065
v -0.996003 0.721140 -0.151065
v 0.631766 0.507905 -0.151065
v 0.754258 0.730560 -0.151065
v -1.189014 0.721936 -0.151065
v -0.502153 0.132488 -0.151065
v -0.614374 0.132667 -0.151065
v -1.328502 -0.594487 -0.151065
v -1.032800 -0.757267 -0.151065
v 0.696322 0.734150 -0.285670
v 0.695160 1.018539 -0.075705
v 2.617088 0.745504 -0.279966
v 2.617088 1.018539 -0.075705
v -1.185599 1.041324 -0.110249
v 2.634285 1.041324 -0.105538
v 2.634285 0.935193 0.000592
v 2.634285 1.147455 0.000594
v 2.453040 0.743642 -0.188271
v 4.046405 0.743642 -0.189289
v 2.433552 1.040560 -0.124109
v 2.588540 1.040560 -0.124109
v 2.433552 1.040560 -0.124109
v 2.588540 1.040560 -0.124109
v 2.433552 1.314580 -0.113571
v 2.588540 1.314580 -0.113571
v 2.433586 1.314905 -0.081769
v 2.588163 1.314905 0.081774
v 2.588348 1.323568 -0.005345
v -0.611407 -0.107627 -0.029436
v -0.448364 -0.198851 -0.029436
v -0.119281 -0.190947 -0.029436
v -0.004598 0.140429 -0.029436
v -0.963810 1.060769 -0.088290
v -0.844610 1.342495 -0.088290
v -0.933891 1.317157 -0.019703
v -1.074787 1.063954 -0.088290
v -1.017248 1.203422 -0.088290
v -0.903583 1.203422 -0.088290
v 0.149392 -0.016268 -0.037301
v 0.217419 0.139021 -0.037301
v 0.149392 -0.016268 0.036272
v 0.217419 0.139021 0.036272
v 1.283971 1.210641 0.235806
v 1.283971 1.264682 0.187822
v 1.283971 1.065637 0.072497
v 1.283971 1.119679 0.024513
v 1.502365 1.210641 0.235806
v 1.502365 1.264682 0.187822
v 1.502365 1.065637 0.072497
v 1.502365 1.119679 0.024513
v 2.433552 1.160908 0.000002
v 2.588540 1.160908 0.000002
v 2.433552 1.195868 0.000002
v 2.588540 1.195868 0.000002
v 2.588130 1.411653 0.000002
v 2.588163 1.314905 -0.081769
vn 0.8360 -0.5488 -0.0000
vn 0.7908 -0.6121 -0.0000
vn 0.6368 -0.4950 0.5911
vn 0.4111 -0.2699 0.8707
vn 0.4097 0.5763 -0.7071
vn 0.1653 0.6792 0.7151
vn 0.9492 -0.2537 0.1863
vn -0.7392 -0.6735 -0.0000
vn -0.6806 -0.7326 -0.0000
vn -0.2690 -0.3378 0.9020
vn -0.6405 -0.4087 0.6502
vn -0.9316 -0.3634 -0.0000
vn -0.3709 -0.1447 0.9173
vn -0.0000 -0.0000 1.0000
vn 0.1418 -0.7317 0.6667
vn 0.7026 -0.3977 0.5901
vn 0.1903 -0.9817 -0.0000
vn 0.8703 -0.4926 -0.0000
vn -0.9475 -0.2529 0.1958
vn -1.0000 -0.0000 -0.0000
vn -0.1701 -0.4712 0.8654
vn -0.4097 0.5763 0.7071
vn -0.0006 -0.7071 0.7071
vn -0.0005 -1.0000 -0.0000
vn 0.9084 -0.4181 -0.0000
vn 0.5051 -0.2325 0.8311
vn 0.0293 -0.7148 0.6987
vn 0.4635 -0.8861 -0.0000
vn -0.9949 -0.1007 -0.0000
vn -0.6220 -0.3546 0.6981
vn -0.2835 0.1785 0.9422
vn -0.8463 0.5328 -0.0000
vn 0.5772 -0.8166 -0.0000
vn 0.9144 0.4047 -0.0000
vn 0.5687 0.8215 0.0424
vn 0.5873 -0.0545 0.8075
vn -0.5681 0.8218 0.0437
vn -0.5827 -0.0586 0.8106
vn -0.5767 -0.8169 -0.0000
vn -0.9144 0.4048 -0.0000
vn 0.4476 -0.6384 0.6262
vn 0.4476 0.6384 0.6262
vn 0.5812 -0.0000 0.8137
vn -0.5825 -0.8128 -0.0000
vn -0.5715 -0.0000 0.8206
vn -0.5825 0.8128 -0.0000
vn 0.5734 -0.8193 -0.0000
vn 0.5734 0.8193 -0.0000
vn 0.5814 -0.0000 0.8136
vn -0.0003 -1.0000 -0.0000
vn -0.0003 -0.0000 1.0000
vn -0.0003 1.0000 -0.0000
vn 0.2499 0.0394 0.9675
vn -0.0000 0.3002 0.9539
vn -0.0000 0.5832 0.8123
vn -0.0000 0.9209 0.3898
vn -0.0000 0.5848 0.8112
vn -0.0000 0.9762 0.2170
vn -0.0000 0.3496 -0.9369
vn -0.0223 0.5164 0.8561
vn -0.0000 0.9674 0.2531
vn -0.1709 -0.2309 0.9578
vn -0.7071 -0.0000 0.7071
vn -0.2706 -0.6533 -0.7071
vn -0.0000 1.0000 -0.0000
vn -0.2699 -0.9485 0.1658
vn 0.5783 -0.8158 -0.0000
vn 0.9894 -0.0049 0.1453
vn -0.0091 0.6426 0.7662
vn -0.0000 -0.6913 0.7226
vn -0.0000 0.9281 0.3724
vn -0.0001 0.7226 -0.6913
vn 0.5711 0.8209 -0.0000
vn -0.5684 0.8228 0.0003
vn -1.0000 0.0006 -0.0000
vn -0.8902 0.0122 -0.4553
vn -0.9114 0.4116 -0.0000
vn -0.9234 -0.3839 -0.0002
vn -1.0000 -0.0015 -0.0000
vn -0.3134 -0.4858 -0.8159
vn -0.1150 -0.4240 -0.8983
vn -0.7976 0.6031 -0.0000
vn 1.0000 -0.0063 -0.0046
vn -0.1828 -0.0797 -0.9799
vn -0.9682 -0.2502 -0.0000
vn -0.3565 0.1320 -0.9249
vn -0.6748 -0.7275 -0.1237
vn 0.7934 -0.6087 -0.0000
vn 0.9249 -0.3802 -0.0000
vn -0.0106 0.0016 0.9999
vn -0.2607 -0.8253 0.5009
vn -0.9268 0.3755 -0.0000
vn -0.6699 0.2714 0.6911
vn -0.0053 -1.0000 -0.0000
vn -0.0283 -0.9996 -0.0000
vn -0.0167 -0.5876 0.8089
vn -0.5281 -0.7499 0.3985
vn -0.9826 -0.1860 -0.0000
vn -0.2595 0.3823 0.8868
vn -0.5487 0.8360 -0.0000
vn -0.0000 0.3883 0.9215
vn -0.9160 0.4013 -0.0000
vn -0.0016 -1.0000 -0.0000
vn 0.4111 -0.2699 -0.8707
vn 0.6368 -0.4950 -0.5911
vn 0.9492 -0.2536 -0.1863
vn 0.1652 -0.4681 -0.8681
vn -0.6405 -0.4087 -0.6502
vn -0.2690 -0.3378 -0.9020
vn -0.3709 -0.1447 -0.9173
vn -0.0000 -0.0000 -1.0000
vn 0.7026 -0.3977 -0.5901
vn 0.1418 -0.7317 -0.6667
vn -0.9475 -0.2529 -0.1958
vn -0.1702 0.6815 -0.7118
vn -0.0006 -0.7071 -0.7071
vn 0.0293 -0.7148 -0.6987
vn 0.5051 -0.2325 -0.8311
vn -0.6220 -0.3546 -0.6981
vn -0.2835 0.1785 -0.9422
vn 0.5873 -0.0545 -0.8075
vn 0.5687 0.8215 -0.0424
vn -0.5827 -0.0586 -0.8106
vn -0.5681 0.8218 -0.0437
vn 0.4476 -0.6384 -0.6262
vn 0.5812 -0.0000 -0.8137
vn 0.4476 0.6384 -0.6262
vn -0.5715 -0.0000 -0.8206
vn 0.5814 -0.0000 -0.8136
vn -0.0003 -0.0000 -1.0000
vn 0.3973 0.1009 -0.9121
vn 0.6183 0.6504 0.4411
vn -0.1736 0.9568 -0.2333
vn 0.8623 0.4807 -0.1591
vn -0.0000 0.9209 -0.3899
vn -0.0000 -0.6913 -0.7226
vn -0.0092 0.6427 -0.7661
vn 0.1411 0.6074 -0.7818
vn -0.0000 0.9281 -0.3724
vn -0.0001 0.7226 0.6913
vn -0.8910 0.0113 0.4539
vn -0.3134 -0.4858 0.8159
vn -0.1318 -0.3987 0.9075
vn -0.1828 -0.0797 0.9799
vn -0.3565 0.1320 0.9249
vn -0.2607 -0.8253 -0.5009
vn -0.0106 0.0016 -0.9999
vn -0.6699 0.2714 -0.6911
vn -0.5281 -0.7499 -0.3985
vn -0.0167 -0.5876 -0.8089
vn -0.2595 0.3823 -0.8868
vn -0.0000 0.3883 -0.9215
vn 0.7071 -0.0000 0.7071
vn 0.2706 0.6533 0.7071
vn -0.0000 -0.7071 0.7071
vn 0.7071 0.7071 -0.0000
vn 0.9074 0.4202 -0.0000
vn 0.8861 0.0121 0.4633
vn 0.9202 -0.3915 -0.0000
vn 0.8865 0.0119 -0.4626
vn -0.5774 -0.0484 0.8151
vn -0.5774 0.8151 0.0484
vn -0.5774 0.0484 -0.8151
vn -0.5773 -0.8151 -0.0484
vn 0.5774 0.0484 -0.8151
vn 0.5774 -0.8151 -0.0484
vn 0.5773 0.8151 0.0484
vn 0.5774 -0.0484 0.8151
vt 0.635664 0.619631
vt 0.653065 0.630883
vt 0.653065 0.630712
vt 0.680349 0.655687
vt 0.680349 0.826140
vt 0.680349 0.755321
vt 0.680349 0.723509
vt 0.404290 0.606714
vt 0.431097 0.587955
vt 0.429623 0.608397
vt 0.404290 0.621969
vt 0.444067 0.514387
vt 0.448668 0.511106
vt 0.665922 0.722563
vt 0.617819 0.722233
vt 0.618147 0.525870
vt 0.660986 0.561024
vt 0.658354 0.644434
vt 0.630808 0.570325
vt 0.632770 0.653735
vt 0.679365 0.683404
vt 0.679365 0.751398
vt 0.664938 0.750452
vt 0.661963 0.672323
vt 0.680349 0.655515
vt 0.404290 0.720447
vt 0.404290 0.684135
vt 0.431708 0.720164
vt 0.404290 0.755321
vt 0.404290 0.826140
vt 0.416986 0.311601
vt 0.416987 0.311604
vt 0.465478 0.439925
vt 0.492353 0.511106
vt 0.476407 0.511169
vt 0.414328 0.228738
vt 0.424871 0.214549
vt 0.384028 0.283467
vt 0.434386 0.214549
vt 0.423843 0.228738
vt 0.393933 0.269901
vt 0.485922 0.511169
vt 0.501864 0.511106
vt 0.847566 0.738688
vt 0.892529 0.738628
vt 0.904253 0.738612
vt 0.862138 0.738668
vt 0.699990 0.228787
vt 0.699743 0.230099
vt 0.659828 0.525477
vt 0.660411 0.520952
vt 0.696938 0.250828
vt 0.660382 0.520972
vt 0.659770 0.525574
vt 0.696723 0.252259
vt 0.917577 0.796473
vt 0.680207 0.796473
vt 0.680207 0.825785
vt 0.917577 0.825785
vt 0.680207 0.656546
vt 0.680207 0.620116
vt 0.934401 0.809389
vt 0.934401 0.857331
vt 0.919519 0.832326
vt 0.404775 0.796184
vt 0.917039 0.796184
vt 0.917039 0.833876
vt 0.404775 0.833876
vt 0.917039 0.858445
vt 0.404775 0.858445
vt 0.404775 0.871569
vt 0.967156 0.340757
vt 0.821986 0.348429
vt 0.886979 0.268717
vt 0.701613 0.714594
vt 0.943126 0.723034
vt 0.943126 0.741032
vt 0.701613 0.739957
vt 0.943126 0.759029
vt 0.701613 0.765320
vt 0.918907 0.833605
vt 0.918907 0.876347
vt 0.918907 0.791232
vt 0.940925 0.791232
vt 0.940925 0.833605
vt 0.940925 0.876347
vt 0.940925 0.888762
vt 0.935456 0.833605
vt 0.935456 0.876347
vt 0.918907 0.888762
vt 0.934154 0.876347
vt 0.934154 0.888762
vt 0.933112 0.888762
vt 0.933112 0.930922
vt 0.918907 0.930922
vt 0.935977 0.930922
vt 0.928685 0.959855
vt 0.918647 0.959855
vt 0.918917 0.931023
vt 0.918907 0.900176
vt 0.919168 0.910089
vt 0.919168 0.958553
vt 0.919168 0.944565
vt 0.919168 0.910219
vt 0.922169 0.904121
vt 0.924552 0.890111
vt 0.427253 0.407086
vt 0.435575 0.395445
vt 0.435322 0.388025
vt 0.425591 0.397792
vt 0.452372 0.396454
vt 0.455093 0.389565
vt 0.458226 0.438739
vt 0.462789 0.438728
vt 0.454346 0.879298
vt 0.461482 0.924948
vt 0.452500 0.933870
vt 0.439481 0.856941
vt 0.443518 0.942791
vt 0.441785 0.932544
vt 0.442749 0.926951
vt 0.440504 0.923814
vt 0.433857 0.879568
vt 0.436282 0.840782
vt 0.428968 0.870211
vt 0.455615 0.869860
vt 0.420516 0.841914
vt 0.412814 0.871343
vt 0.421437 0.880438
vt 0.427359 0.857811
vt 0.433644 0.895894
vt 0.427968 0.918521
vt 0.446059 0.895894
vt 0.439653 0.918521
vt 0.576233 0.569890
vt 0.586225 0.639805
vt 0.472995 0.507825
vt 0.472991 0.507825
vt 0.460659 0.456065
vt 0.289154 0.664951
vt 0.310846 0.664951
vt 0.310846 0.686642
vt 0.289154 0.686642
vt 0.310846 0.708333
vt 0.289154 0.708333
vt 0.310846 0.730024
vt 0.289154 0.730024
vt 0.310846 0.751716
vt 0.289154 0.751716
vt 0.267463 0.708333
vt 0.267463 0.730024
vt 0.332537 0.708333
vt 0.332537 0.730024
s 1
usemtl Material.006
f 24/1/1 8/2/2 2/3/3 14/1/4
f 8/4/2 18/5/5 1/6/6 15/7/7
f 17/8/8 20/9/9 5/10/10 4/11/11
f 20/9/9 21/12/12 7/13/13 5/10/10
f 9/14/14 11/15/14 12/16/15 10/17/16 14/18/4
f 23/16/17 22/17/18 10/17/16 12/16/15
f 22/19/18 24/20/1 14/20/4 10/19/16
f 2/21/3 15/22/7 9/23/14 14/24/4
f 8/4/2 15/7/7 2/25/3
f 4/11/11 16/26/19 6/27/20 17/8/8
f 5/10/10 13/28/14 16/26/19 4/11/11
f 16/26/19 3/29/21 19/30/22 6/27/20
f 25/31/23 26/32/24 23/33/17 12/33/15
f 29/34/25 28/35/26 32/36/27 33/37/28
f 31/38/29 33/39/28 32/40/27 30/41/30
f 28/42/26 7/13/31 30/41/30 32/40/27
f 7/13/31 27/12/32 31/38/29 30/41/30
f 13/28/14 5/10/10 7/13/13 25/43/23 12/16/15 11/15/14
f 40/44/33 41/45/34 37/46/35 36/47/36
f 36/48/36 37/49/35 35/50/37 34/51/38
f 38/52/39 40/53/33 36/54/36 34/55/38
f 41/56/34 39/57/40 35/58/37 37/59/35
f 34/60/38 35/58/37 39/57/40 38/61/39
f 46/62/41 47/63/42 43/64/43
f 44/65/44 46/66/41 43/67/43 42/68/45
f 47/69/42 45/70/46 42/68/45 43/67/43
f 42/68/45 45/71/46 44/65/44
f 52/72/47 53/73/48 49/74/49
f 50/75/50 52/76/47 49/77/49 48/78/51
f 53/79/48 51/80/52 48/78/51 49/77/49
f 58/81/53 60/81/54 64/82/55 62/82/56
f 54/83/57 56/83/58 60/81/54 58/81/53
f 55/84/59 54/83/57 58/81/53 59/85/60
f 57/84/61 55/84/59 59/85/60 61/85/62
f 65/86/14 63/86/63 67/87/64
f 61/85/62 59/85/60 63/86/14 65/86/55
f 60/81/54 61/88/62 65/89/55 64/82/55
f 62/82/14 64/82/65 68/90/14 66/90/66
f 63/91/63 62/82/14 66/90/66 67/92/64
f 67/93/67 73/94/68 72/95/69 66/90/70
f 66/90/14 68/90/71 72/95/72
f 72/95/69 73/96/68 69/97/73 70/98/74
f 66/90/75 72/95/69 74/99/76 71/100/77
f 72/101/69 70/102/74 76/103/78 74/104/76
f 77/105/79 78/105/79 67/106/79
f 79/107/80 80/108/81 82/109/82 81/110/83
f 82/109/82 80/108/81 83/111/84 84/112/85
f 84/112/85 83/111/84 85/113/86 86/114/87
f 89/115/88 91/116/89 88/117/90 87/118/91
f 92/119/92 94/120/92 95/121/93 93/122/92 90/123/92 87/118/91 88/117/90
f 87/124/91 90/125/94 89/126/88
f 90/125/95 87/124/96 96/127/97 97/128/98
f 97/129/98 96/130/97 98/131/99 99/132/100
f 99/132/100 98/131/99 100/133/101 101/134/65
f 87/118/96 100/133/101 98/131/99 96/130/97
f 102/135/102 103/136/102 105/136/102 104/135/102
f 19/30/22 3/29/21 1/6/6 18/5/5
f 15/7/7 1/6/6 3/29/21 16/26/19
f 26/137/24 25/138/23 28/139/103
f 24/1/1 117/1/104 107/3/105 8/2/2
f 8/4/2 118/7/106 106/6/107 18/5/5
f 17/8/8 109/11/108 110/10/109 20/9/9
f 20/9/9 110/10/109 111/13/110 21/12/12
f 112/14/111 117/18/104 113/17/112 115/16/113 114/15/111
f 23/16/17 115/16/113 113/17/112 22/17/18
f 22/19/18 113/19/112 117/20/104 24/20/1
f 107/21/105 117/24/104 112/23/111 118/22/106
f 8/4/2 107/25/105 118/7/106
f 109/11/108 17/8/8 6/27/20 119/26/114
f 110/10/109 109/11/108 119/26/114 116/28/111
f 119/26/114 6/27/20 19/30/22 108/29/115
f 120/31/116 115/33/113 23/33/17 26/32/24
f 29/34/25 33/37/28 123/36/117 121/35/118
f 31/38/29 122/41/119 123/40/117 33/39/28
f 121/42/118 123/40/117 122/41/119 111/13/120
f 111/13/120 122/41/119 31/38/29 27/12/32
f 116/28/111 114/15/111 115/16/113 120/43/116 111/13/110 110/10/109
f 40/44/33 126/47/121 127/46/122 41/45/34
f 126/48/121 124/51/123 125/50/124 127/49/122
f 38/52/39 124/55/123 126/54/121 40/53/33
f 41/56/34 127/59/122 125/58/124 39/57/40
f 124/60/123 38/61/39 39/57/40 125/58/124
f 130/62/125 129/64/126 131/63/127
f 44/65/44 128/68/128 129/67/126 130/66/125
f 131/69/127 129/67/126 128/68/128 45/70/46
f 128/68/128 44/65/44 45/71/46
f 52/72/47 133/74/129 53/73/48
f 50/75/50 132/78/130 133/77/129 52/76/47
f 53/79/48 133/77/129 132/78/130 51/80/52
f 134/81/131 62/82/14 64/82/55 136/81/132
f 54/83/57 134/81/131 136/81/132 56/83/58
f 55/84/59 135/85/133 134/81/131 54/83/57
f 57/84/61 137/85/134 135/85/133 55/84/59
f 137/85/134 65/86/55 63/86/135 135/85/133
f 136/81/132 64/82/55 65/89/55 137/88/134
f 67/93/67 66/90/136 138/95/137 139/94/138
f 66/90/139 138/95/140 68/90/14
f 138/95/137 70/98/74 69/97/73 139/96/138
f 66/90/75 71/100/77 140/99/141 138/95/137
f 138/101/137 140/104/141 76/103/78 70/102/74
f 142/105/79 67/106/79 78/105/79
f 143/107/142 81/110/83 82/109/82 144/108/143
f 82/109/82 84/112/85 145/111/144 144/108/143
f 84/112/85 86/114/87 146/113/145 145/111/144
f 89/115/88 147/118/146 148/117/147 91/116/89
f 92/119/92 148/117/147 147/118/146 90/123/92 93/122/92 149/121/148 94/120/92
f 147/124/146 89/126/88 90/125/94
f 90/125/95 97/128/98 150/127/149 147/124/150
f 97/129/98 99/132/100 151/131/151 150/130/149
f 99/132/100 101/134/65 152/133/152 151/131/151
f 147/118/150 150/130/149 151/131/151 152/133/152
f 153/135/102 155/135/102 156/136/102 154/136/102
f 19/30/22 18/5/5 106/6/107 108/29/115
f 118/7/106 119/26/114 108/29/115 106/6/107
f 26/137/24 121/139/103 120/138/116
f 166/91/153 168/92/154 167/90/155 165/82/156
f 79/107/80 143/107/142 144/108/143 80/108/81
f 80/108/81 144/108/143 145/111/144 83/111/84
f 140/99/141 71/100/77 75/100/157 170/99/158
f 76/103/78 140/104/141 170/104/158 169/103/159
f 71/100/77 74/99/76 141/99/160 75/100/157
f 74/104/76 76/103/78 169/103/159 141/104/160
f 69/97/73 169/103/159 170/104/158 139/96/138
f 73/96/68 141/104/160 169/103/159 69/97/73
f 67/93/67 75/100/157 141/99/160 73/96/68
f 139/96/138 170/104/158 75/100/157 67/93/67
usemtl Material.007
f 157/140/161 158/141/162 160/142/163 159/143/164
f 159/143/164 160/142/163 164/144/165 163/145/166
f 163/145/166 164/144/165 162/146/167 161/147/168
f 161/147/168 162/146/167 158/148/162 157/149/161
f 159/150/164 163/145/166 161/147/168 157/151/161
f 164/144/165 160/152/163 158/153/162 162/146/167
l 85 146
o MP5Magazene.003
v 0.388752 -0.213720 0.105152
v 0.201779 0.669205 0.105152
v 0.709802 -0.068266 0.105152
v 0.527123 0.674828 0.105152
v 0.388752 -0.213720 -0.001924
v 0.219833 0.584884 -0.001924
v 0.709802 -0.068266 -0.001924
v 0.545177 0.590506 -0.001924
v 0.531887 -0.645866 0.105152
v 0.846258 -0.497319 0.105152
v 0.531887 -0.645866 -0.001924
v 0.846258 -0.497319 -0.001924
v 0.862585 -1.279889 0.105152
v 1.143246 -1.110931 0.105152
v 0.862585 -1.279889 -0.001924
v 1.143246 -1.110931 -0.001924
v 0.388752 -0.213720 -0.109000
v 0.201779 0.669205 -0.109000
v 0.709802 -0.068266 -0.109000
v 0.527123 0.674828 -0.108999
v 0.531887 -0.645866 -0.109000
v 0.846258 -0.497319 -0.109000
v 0.862585 -1.279889 -0.109000
v 1.143246 -1.110931 -0.109000
vn 0.9623 0.2719 -0.0000
vn 0.7901 0.6130 -0.0000
vn 0.4431 0.8094 0.3854
vn 0.6752 0.1908 0.7125
vn -0.6421 0.6847 0.3448
vn -0.6944 -0.1879 0.6946
vn -0.6671 -0.2823 0.6895
vn 0.6412 0.2556 0.7235
vn -0.9324 0.3614 -0.0000
vn -0.9653 -0.2611 -0.0000
vn -0.9209 -0.3897 -0.0000
vn 0.9289 0.3703 -0.0000
vn -0.2707 -0.9627 -0.0000
vn 0.9585 -0.2851 -0.0000
vn 0.7793 -0.2318 0.5823
vn -0.2216 -0.7881 0.5742
vn 0.6752 0.1908 -0.7125
vn 0.4431 0.8094 -0.3854
vn -0.6944 -0.1879 -0.6946
vn -0.6421 0.6847 -0.3448
vn 0.6412 0.2556 -0.7235
vn -0.6671 -0.2823 -0.6895
vn -0.2216 -0.7881 -0.5742
vn 0.7793 -0.2318 -0.5823
vt 0.680402 0.362141
vt 0.665390 0.478774
vt 0.662487 0.505620
vt 0.679924 0.361738
vt 0.625989 0.504281
vt 0.644299 0.321326
vt 0.660445 0.202071
vt 0.695172 0.243148
vt 0.629623 0.477428
vt 0.645451 0.322493
vt 0.661288 0.205482
vt 0.695361 0.245784
vt 0.697282 0.035820
vt 0.727497 0.081240
vt 0.727923 0.075480
vt 0.697132 0.029197
s 1
usemtl Material.037
f 177/154/169 178/155/170 174/156/171 173/157/172
f 173/157/172 174/156/171 172/158/173 171/159/174
f 173/157/172 171/159/174 179/160/175 180/161/176
f 178/155/170 176/162/177 172/158/173 174/156/171
f 171/159/174 172/158/173 176/162/177 175/163/178
f 171/159/174 175/163/178 181/164/179 179/160/175
f 177/154/169 173/157/172 180/161/176 182/165/180
f 185/166/181 186/167/182 184/168/183 183/169/184
f 180/161/176 179/160/175 183/169/184 184/168/183
f 182/165/180 180/161/176 184/168/183 186/167/182
f 179/160/175 181/164/179 185/166/181 183/169/184
f 177/154/169 189/157/185 190/156/186 178/155/170
f 189/157/185 187/159/187 188/158/188 190/156/186
f 189/157/185 192/161/189 191/160/190 187/159/187
f 178/155/170 190/156/186 188/158/188 176/162/177
f 187/159/187 175/163/178 176/162/177 188/158/188
f 187/159/187 191/160/190 181/164/179 175/163/178
f 177/154/169 182/165/180 192/161/189 189/157/185
f 185/166/181 193/169/191 194/168/192 186/167/182
f 192/161/189 194/168/192 193/169/191 191/160/190
f 182/165/180 186/167/182 194/168/192 192/161/189
f 191/160/190 193/169/191 185/166/181 181/164/179
o MP5SlidingStock
v -3.553678 0.114879 0.110187
v -3.553678 1.046024 0.108883
v -3.553678 0.114879 -0.000583
v -3.553678 1.046024 -0.000581
v -3.370033 0.114879 -0.000583
v -3.370033 1.046024 -0.000581
v -3.461855 1.046024 0.109401
v -3.461855 0.114879 0.110705
v -3.541408 0.875532 0.110153
v -1.101638 0.875532 0.110153
v -3.541408 0.701844 0.113065
v -1.101638 0.729919 0.113065
v -3.553678 0.114879 -0.111354
v -3.553678 1.046024 -0.110046
v -3.461855 1.046024 -0.110563
v -3.461855 0.114879 -0.111871
v -3.541408 0.875532 -0.111320
v -1.101638 0.875532 -0.111320
v -3.541408 0.701844 -0.114232
v -1.101638 0.729919 -0.114232
vn -0.7071 -0.7071 -0.0000
vn 0.8084 -0.5887 -0.0000
vn 0.3309 -0.6215 0.7101
vn -0.5788 -0.5773 0.5760
vn 0.8098 0.5868 -0.0000
vn -0.7071 0.7071 -0.0000
vn -0.5789 0.5780 0.5751
vn 0.3305 0.6232 0.7088
vn -0.0001 0.0182 0.9998
vn -0.5788 -0.5773 -0.5760
vn 0.3309 -0.6215 -0.7101
vn 0.3305 0.6232 -0.7088
vn -0.5789 0.5780 -0.5751
vn -0.0001 0.0182 -0.9998
vt 0.236148 0.661040
vt 0.252230 0.661040
vt 0.244189 0.669080
vt 0.236148 0.669080
vt 0.268311 0.661040
vt 0.284392 0.661040
vt 0.284392 0.669080
vt 0.276352 0.669080
vt 0.252230 0.677121
vt 0.268311 0.677121
vt 0.268311 0.685162
vt 0.252230 0.685162
vt 0.228108 0.620836
vt 0.228108 0.685162
vt 0.271012 0.743244
vt 0.271012 0.679294
vt 0.252230 0.620836
vt 0.268311 0.620836
vt 0.268311 0.628877
vt 0.252230 0.628877
s 1
usemtl Material.038
f 197/170/193 199/171/194 202/172/195 195/173/196
f 200/174/197 198/175/198 196/176/199 201/177/200
f 202/178/195 201/179/200 196/180/199 195/181/196
f 203/182/201 205/183/201 206/184/201 204/185/201
f 195/186/196 196/187/199 198/188/198 197/189/193
f 199/171/194 200/174/197 201/179/200 202/178/195
f 197/170/193 207/173/202 210/172/203 199/171/194
f 200/174/197 209/177/204 208/176/205 198/175/198
f 210/178/203 207/181/202 208/180/205 209/179/204
f 211/182/206 212/185/206 214/184/206 213/183/206
f 207/186/202 197/189/193 198/188/198 208/187/205
f 199/171/194 210/178/203 209/179/204 200/174/197
o Trigger.004
v -0.426494 -0.073962 0.000515
v -0.347209 -0.016971 0.000515
v -0.442350 0.283960 0.000515
v -0.241233 0.302897 0.000515
v -0.303236 -0.180788 0.000515
v -0.299813 -0.153430 0.000515
v -0.426494 -0.073962 0.000515
v -0.347209 -0.016971 0.000515
v -0.442350 0.283960 0.000515
v -0.241233 0.302897 0.000515
v -0.303236 -0.180788 0.000515
v -0.299813 -0.153430 0.000515
vn -0.0000 -0.0000 1.0000
vn -0.0000 -0.0000 -1.0000
vt 0.302037 0.745160
vt 0.230189 0.673932
vt 0.241585 0.602084
vt 0.313433 0.673312
s 1
usemtl Material.039
f 215/190/207 216/191/207 218/192/207 217/193/207
f 216/191/207 215/190/207 219/190/207 220/191/207
f 221/190/208 223/193/208 224/192/208 222/191/208
f 222/191/208 226/191/208 225/190/208 221/190/208
