# Blender 3.3.1
# www.blender.org
mtllib PuttyKnife.mtl
o PuttyKnife
v 0.194495 0.995340 -0.059336
v 0.253338 0.126939 -0.059336
v 0.194495 0.995340 0.060296
v 0.253338 0.126939 0.060296
v 0.060135 0.995340 0.060296
v 0.060135 0.995340 -0.059336
v 0.239231 -0.042360 -0.059336
v 0.239231 -0.042360 0.060296
v 0.060135 -0.100948 -0.059336
v 0.060135 -0.100948 0.060296
v 0.060135 1.075082 0.000974
v 0.168119 1.069561 0.000974
v -0.050206 1.060049 0.000000
v 0.169896 1.060049 0.000000
v -0.074225 0.995340 -0.059336
v -0.133068 0.126939 -0.059336
v -0.074225 0.995340 0.060296
v -0.133068 0.126939 0.060296
v -0.118960 -0.042360 -0.059336
v -0.118960 -0.042360 0.060296
v -0.047848 1.069561 0.000974
v 0.170477 1.060049 0.000000
v -0.049625 1.060049 0.000000
v 0.785032 2.366909 0.000000
v -0.683245 2.366909 0.000000
v 0.709480 1.739854 0.000000
v -0.598161 1.739854 0.000000
v 0.170477 1.060049 0.000000
v -0.049625 1.060049 0.000000
v 0.785032 2.366909 0.000000
v -0.683245 2.366909 0.000000
v 0.709480 1.739854 0.000000
v -0.598161 1.739854 0.000000
vn 0.9965 -0.0830 -0.0000
vn 0.9977 0.0676 -0.0000
vn 0.0141 0.6181 -0.7859
vn 0.3109 -0.9504 -0.0000
vn 0.0139 0.6118 0.7909
vn 0.9423 0.3349 -0.0000
vn -0.9965 -0.0830 -0.0000
vn -0.9977 0.0676 -0.0000
vn -0.0000 -0.0000 -1.0000
vn -0.0000 -0.0000 1.0000
vn -0.0141 0.6181 -0.7859
vn -0.3109 -0.9504 -0.0000
vn -0.0139 0.6118 0.7909
vn -0.9423 0.3349 -0.0000
vt 0.668442 0.402615
vt 0.705624 0.410890
vt 0.668442 0.242686
vt 0.725362 0.101599
vt 0.643687 0.402615
vt 0.705624 0.410890
vt 0.643687 0.242686
vt 0.725362 0.101599
vt 0.648433 0.410890
vt 0.648433 0.410890
vt 0.668442 0.211507
vt 0.670955 0.039891
vt 0.719357 0.037463
vt 0.643687 0.211507
vt 0.623337 0.039891
vt 0.719357 0.037463
vt 0.670955 0.019136
vt 0.647548 0.014481
vt 0.678787 0.014670
vt 0.623337 0.019136
vt 0.647548 0.014481
vt 0.628883 0.014670
vt 0.648433 0.441098
vt 0.694396 0.439007
vt 0.655962 0.416284
vt 0.591242 0.410890
vt 0.668442 0.402615
vt 0.668442 0.242686
vt 0.565311 0.100812
vt 0.591242 0.410890
vt 0.643687 0.402615
vt 0.643687 0.242686
vt 0.565311 0.100812
vt 0.668442 0.211507
vt 0.571316 0.036676
vt 0.678787 0.036421
vt 0.643687 0.211507
vt 0.571316 0.036676
vt 0.628883 0.036421
vt 0.602469 0.439007
vt 0.655962 0.416284
vt 0.698939 0.473201
vt 0.605252 0.473201
vt 0.956102 0.949380
vt 0.366799 0.949380
vt 0.923943 0.711833
vt 0.403015 0.711833
vt 0.398556 0.705880
vt 0.698939 0.473201
vt 0.605252 0.473201
vt 0.956102 0.949380
vt 0.366799 0.949380
vt 0.923943 0.711833
vt 0.403015 0.711833
vt 0.398556 0.705880
s 0
usemtl Material.012
f 2/3/1 4/7/1 8/14/1 7/11/1
f 2/3/2 1/1/2 3/5/2 4/7/2
f 1/2/3 6/10/3 11/23/3 12/24/3
f 9/17/4 7/12/4 8/15/4 10/20/4
f 12/24/5 11/23/5 5/9/5 3/6/5
f 3/5/6 1/1/6 12/25/6
f 16/28/7 19/34/7 20/37/7 18/32/7
f 16/28/8 18/32/8 17/31/8 15/27/8
f 2/4/9 7/13/9 9/18/9 19/35/9 16/29/9 15/26/9 6/10/9 1/2/9
f 10/21/10 8/16/10 4/8/10 3/6/10 5/9/10 17/30/10 18/33/10 20/38/10
f 15/26/11 21/40/11 11/23/11 6/10/11
f 9/19/12 10/22/12 20/39/12 19/36/12
f 21/40/13 17/30/13 5/9/13 11/23/13
f 17/31/14 21/41/14 15/27/14
f 26/46/10 24/44/10 25/45/10 27/47/10
f 22/42/10 26/46/10 27/48/10 23/43/10
f 32/53/9 33/54/9 31/52/9 30/51/9
f 28/49/9 29/50/9 33/55/9 32/53/9
l 13 14
