# Blender 3.3.1
# www.blender.org
mtllib Hammer.mtl
o Hammer
v -0.413111 3.071480 0.086059
v -0.108291 3.071480 0.109830
v -0.413111 2.985863 -0.001851
v -0.413111 3.166254 -0.001851
v -0.104610 2.950207 -0.001851
v -0.108291 3.201910 -0.001851
v -0.520521 3.071480 0.132378
v -0.543155 2.916384 -0.001851
v -0.543155 3.235733 -0.001851
v -0.413111 3.071480 -0.089761
v -0.108291 3.071480 -0.113531
v -0.519123 3.071480 -0.136080
v 0.058478 2.653743 0.151978
v 0.077468 0.071565 0.171068
v -0.093600 0.071565 -0.000000
v 0.201308 2.653743 -0.000000
v -0.084353 2.653743 -0.000000
v 0.248536 0.071565 -0.000000
v 0.058478 2.653743 -0.151978
v 0.077468 0.071565 -0.171068
v 0.057741 2.650646 0.153441
v -0.109492 2.981827 0.153441
v 0.055769 2.650646 -0.151243
v -0.109492 2.981827 -0.151243
v 0.198071 2.981827 0.153441
v 0.198071 2.981827 -0.151243
v -0.109492 3.237489 0.093636
v -0.109492 3.237489 -0.085008
v 0.198071 3.237489 0.093636
v 0.198071 3.237489 -0.085008
v 0.671236 2.846364 0.153441
v 0.671236 2.846364 -0.151243
v 0.403065 3.090306 0.000263
v -0.080237 2.650646 -0.003663
v -0.109492 2.981827 -0.003663
v 0.198071 2.981827 -0.001652
v 0.198071 2.650646 -0.003518
vn 0.9997 0.0146 0.0171
vn -0.0681 -0.6933 0.7174
vn -0.0678 0.6617 0.7467
vn -0.0000 -0.0000 -1.0000
vn -0.9861 -0.0000 0.1663
vn 0.3224 0.6323 0.7044
vn 0.3250 -0.6577 0.6796
vn 0.9997 0.0146 -0.0171
vn -0.0681 -0.6933 -0.7174
vn -0.0678 0.6617 -0.7467
vn -0.9843 -0.0000 -0.1762
vn 0.3242 0.6330 -0.7030
vn 0.3268 -0.6584 -0.6780
vn -0.0000 1.0000 -0.0000
vn -0.0000 -1.0000 -0.0000
vn 0.7171 0.0118 0.6968
vn -0.7172 0.0012 0.6969
vn 0.7171 0.0118 -0.6968
vn -0.7172 0.0012 -0.6969
vn -0.8836 -0.2621 0.3880
vn 0.8857 -0.1891 -0.4239
vn -0.0000 -0.0000 1.0000
vn 0.0716 0.2501 -0.9656
vn -1.0000 -0.0000 -0.0000
vn -0.0000 0.2278 0.9737
vn -0.0000 0.2508 -0.9680
vn 0.0651 0.2273 0.9717
vn 0.6153 0.7883 -0.0000
vn -0.0398 -0.9992 -0.0000
vn -0.8775 -0.2577 -0.4044
vn 0.8953 -0.1908 0.4026
vt 0.201449 0.931389
vt 0.175465 0.924445
vt 0.423612 0.921468
vt 0.376368 0.931389
vt 0.175465 0.899908
vt 0.201449 0.906853
vt 0.215623 0.896932
vt 0.175465 0.951605
vt 0.201449 0.958550
vt 0.215623 0.948629
vt 0.426123 0.886714
vt 0.378879 0.896635
vt 0.423612 0.958847
vt 0.376368 0.968768
vt 0.126889 0.921468
vt 0.086731 0.924445
vt 0.115078 0.881982
vt 0.126889 0.877021
vt 0.110353 0.966555
vt 0.126889 0.968540
vt 0.201449 0.931389
vt 0.215623 0.921468
vt 0.423612 0.921468
vt 0.376368 0.931389
vt 0.126889 0.921468
vt 0.537404 0.801753
vt 0.550361 0.061751
vt 0.457446 0.061751
vt 0.634862 0.801753
vt 0.622958 0.801753
vt 0.439945 0.801753
vt 0.463755 0.801753
vt 0.655182 0.061751
vt 0.537404 0.801753
vt 0.550361 0.061751
vt 0.536901 0.800866
vt 0.422792 0.895776
vt 0.535556 0.800866
vt 0.422792 0.895776
vt 0.632653 0.895776
vt 0.632653 0.895776
vt 0.422792 0.969043
vt 0.464177 0.980920
vt 0.422792 0.969043
vt 0.609046 0.981232
vt 0.632653 0.969043
vt 0.464928 0.919500
vt 0.632653 0.969043
vt 0.609797 0.919813
vt 0.466083 0.825009
vt 0.955510 0.856955
vt 0.610953 0.825321
vt 0.955510 0.856955
vt 0.538261 0.878720
vt 0.772528 0.926863
vt 0.442754 0.800866
vt 0.422792 0.895776
vt 0.632653 0.895776
vt 0.632653 0.800866
s 0
usemtl Material
f 5/11/1 6/13/1 2/3/1
f 3/6/2 5/12/2 2/4/2 1/1/2
f 6/14/3 4/9/3 1/1/3 2/4/3
f 4/10/4 3/7/4 8/18/4 9/20/4
f 7/15/5 9/20/5 8/18/5
f 1/2/6 4/8/6 9/19/6 7/16/6
f 3/5/7 1/2/7 7/16/7 8/17/7
f 5/11/8 11/23/8 6/13/8
f 3/6/9 10/21/9 11/24/9 5/12/9
f 6/14/10 11/24/10 10/21/10 4/9/10
f 12/25/11 8/18/11 9/20/11
f 10/22/12 12/25/12 9/20/12 4/10/12
f 3/7/13 8/18/13 12/25/13 10/22/13
f 16/29/14 17/31/14 13/26/14
f 15/28/15 18/33/15 14/27/15
f 18/33/16 16/30/16 13/26/16 14/27/16
f 14/27/17 13/26/17 17/32/17 15/28/17
f 16/29/14 19/34/14 17/31/14
f 15/28/15 20/35/15 18/33/15
f 18/33/18 20/35/18 19/34/18 16/30/18
f 20/35/19 15/28/19 17/32/19 19/34/19
f 21/36/20 22/37/20 35/57/20 34/56/20
f 23/38/4 24/39/4 26/41/4
f 23/38/21 26/41/21 36/58/21 37/59/21
f 21/36/22 25/40/22 22/37/22
f 23/38/15 37/59/15 21/36/15 34/56/15
f 26/41/23 30/48/23 32/53/23
f 24/39/24 35/57/24 22/37/24 27/42/24 28/44/24
f 22/37/25 25/40/25 29/46/25 27/42/25
f 26/41/26 24/39/26 28/44/26 30/48/26
f 29/46/27 25/40/27 31/51/27
f 30/49/14 28/45/14 27/43/14 29/47/14
f 30/49/28 29/47/28 31/50/28 33/54/28 32/52/28
f 25/40/29 36/58/29 26/41/29 32/53/29 33/55/29 31/51/29
f 34/56/30 35/57/30 24/39/30 23/38/30
f 37/59/31 36/58/31 25/40/31 21/36/31
l 25 33
l 26 33
