{
	"asset":{
		"generator":"Khronos glTF Blender I/O v4.1.63",
		"version":"2.0"
	},
	"extensionsUsed":[
		"KHR_lights_punctual"
	],
	"extensionsRequired":[
		"KHR_lights_punctual"
	],
	"extensions":{
		"KHR_lights_punctual":{
			"lights":[
				{
					"color":[
						1,
						1,
						1
					],
					"intensity":5435.141306588225,
					"type":"point",
					"name":"Lamp"
				}
			]
		}
	},
	"scene":0,
	"scenes":[
		{
			"name":"Scene",
			"nodes":[
				0,
				1,
				2,
				3,
				4,
				5,
				6
			]
		}
	],
	"nodes":[
		{
			"extensions":{
				"KHR_lights_punctual":{
					"light":0
				}
			},
			"name":"Lamp",
			"rotation":[
				-0.28416627645492554,
				0.7269423007965088,
				0.34203392267227173,
				0.5232754945755005
			],
			"translation":[
				2.5522453784942627,
				4.989461898803711,
				2.042546033859253
			]
		},
		{
			"camera":0,
			"name":"Camera",
			"rotation":[
				-0.20997299253940582,
				0.3857799470424652,
				0.09062844514846802,
				0.8937962055206299
			],
			"translation":[
				7.481131553649902,
				5.34366512298584,
				6.5076398849487305
			]
		},
		{
			"mesh":0,
			"name":"bike_vintage_wheel.001",
			"scale":[
				1.1082960367202759,
				1,
				1
			],
			"translation":[
				0,
				0,
				-1.1674199104309082
			]
		},
		{
			"mesh":1,
			"name":"bike_vintage_wheel.000",
			"scale":[
				1.1082960367202759,
				1,
				1
			],
			"translation":[
				0,
				0,
				-0.0012465715408325195
			]
		},
		{
			"mesh":2,
			"name":"bike_vintage_chrome",
			"translation":[
				0.0005329558625817299,
				0.3355420231819153,
				-0.684472918510437
			]
		},
		{
			"mesh":3,
			"name":"bike_vintage_gears",
			"translation":[
				0.0004132576286792755,
				-0.07562021166086197,
				-0.22411999106407166
			]
		},
		{
			"mesh":4,
			"name":"bike_vintage_frame",
			"translation":[
				0.0005329558625817299,
				0.3355420231819153,
				-0.684472918510437
			]
		}
	],
	"cameras":[
		{
			"name":"Camera",
			"perspective":{
				"aspectRatio":1.7777777777777777,
				"yfov":0.5033799372418416,
				"zfar":100,
				"znear":0.10000000149011612
			},
			"type":"perspective"
		}
	],
	"materials":[
		{
			"doubleSided":true,
			"name":"bike_silver",
			"pbrMetallicRoughness":{
				"baseColorFactor":[
					0.800000011920929,
					0.800000011920929,
					0.800000011920929,
					1
				],
				"metallicFactor":0,
				"roughnessFactor":0.5
			}
		},
		{
			"doubleSided":true,
			"name":"bike_color",
			"pbrMetallicRoughness":{
				"baseColorFactor":[
					0.800000011920929,
					0.800000011920929,
					0.800000011920929,
					1
				],
				"metallicFactor":0,
				"roughnessFactor":0.5
			}
		}
	],
	"meshes":[
		{
			"name":"Circle.002",
			"primitives":[
				{
					"attributes":{
						"POSITION":0,
						"NORMAL":1,
						"TEXCOORD_0":2
					},
					"indices":3
				}
			]
		},
		{
			"name":"Circle.000",
			"primitives":[
				{
					"attributes":{
						"POSITION":4,
						"NORMAL":5,
						"TEXCOORD_0":6
					},
					"indices":3
				}
			]
		},
		{
			"name":"Circle.010",
			"primitives":[
				{
					"attributes":{
						"POSITION":7,
						"NORMAL":8,
						"TEXCOORD_0":9
					},
					"indices":10,
					"material":0
				}
			]
		},
		{
			"name":"Circle.004",
			"primitives":[
				{
					"attributes":{
						"POSITION":11,
						"NORMAL":12,
						"TEXCOORD_0":13
					},
					"indices":14
				}
			]
		},
		{
			"name":"Circle.003",
			"primitives":[
				{
					"attributes":{
						"POSITION":15,
						"NORMAL":16,
						"TEXCOORD_0":17
					},
					"indices":18,
					"material":1
				}
			]
		}
	],
	"accessors":[
		{
			"bufferView":0,
			"componentType":5126,
			"count":288,
			"max":[
				0.009422508999705315,
				0.34225985407829285,
				0.34225985407829285
			],
			"min":[
				-0.009422507137060165,
				-0.34225985407829285,
				-0.34225985407829285
			],
			"type":"VEC3"
		},
		{
			"bufferView":1,
			"componentType":5126,
			"count":288,
			"type":"VEC3"
		},
		{
			"bufferView":2,
			"componentType":5126,
			"count":288,
			"type":"VEC2"
		},
		{
			"bufferView":3,
			"componentType":5123,
			"count":462,
			"type":"SCALAR"
		},
		{
			"bufferView":4,
			"componentType":5126,
			"count":288,
			"max":[
				0.009422508999705315,
				0.34225985407829285,
				0.34225985407829285
			],
			"min":[
				-0.009422507137060165,
				-0.34225985407829285,
				-0.34225985407829285
			],
			"type":"VEC3"
		},
		{
			"bufferView":5,
			"componentType":5126,
			"count":288,
			"type":"VEC3"
		},
		{
			"bufferView":6,
			"componentType":5126,
			"count":288,
			"type":"VEC2"
		},
		{
			"bufferView":7,
			"componentType":5126,
			"count":1240,
			"max":[
				0.23688700795173645,
				0.510391891002655,
				0.4222851097583771
			],
			"min":[
				-0.23813393712043762,
				0.09574039280414581,
				-0.3309370279312134
			],
			"type":"VEC3"
		},
		{
			"bufferView":8,
			"componentType":5126,
			"count":1240,
			"type":"VEC3"
		},
		{
			"bufferView":9,
			"componentType":5126,
			"count":1240,
			"type":"VEC2"
		},
		{
			"bufferView":10,
			"componentType":5123,
			"count":1932,
			"type":"SCALAR"
		},
		{
			"bufferView":11,
			"componentType":5126,
			"count":208,
			"max":[
				0.061124540865421295,
				0.11371631920337677,
				0.27098992466926575
			],
			"min":[
				-0.060655053704977036,
				-0.13618427515029907,
				-0.2934578061103821
			],
			"type":"VEC3"
		},
		{
			"bufferView":12,
			"componentType":5126,
			"count":208,
			"type":"VEC3"
		},
		{
			"bufferView":13,
			"componentType":5126,
			"count":208,
			"type":"VEC2"
		},
		{
			"bufferView":14,
			"componentType":5123,
			"count":360,
			"type":"SCALAR"
		},
		{
			"bufferView":15,
			"componentType":5126,
			"count":1204,
			"max":[
				0.06860819458961487,
				0.25646495819091797,
				1.044948697090149
			],
			"min":[
				-0.06251415610313416,
				-0.48773670196533203,
				-0.5059013366699219
			],
			"type":"VEC3"
		},
		{
			"bufferView":16,
			"componentType":5126,
			"count":1204,
			"type":"VEC3"
		},
		{
			"bufferView":17,
			"componentType":5126,
			"count":1204,
			"type":"VEC2"
		},
		{
			"bufferView":18,
			"componentType":5123,
			"count":1860,
			"type":"SCALAR"
		}
	],
	"bufferViews":[
		{
			"buffer":0,
			"byteLength":3456,
			"byteOffset":0,
			"target":34962
		},
		{
			"buffer":0,
			"byteLength":3456,
			"byteOffset":3456,
			"target":34962
		},
		{
			"buffer":0,
			"byteLength":2304,
			"byteOffset":6912,
			"target":34962
		},
		{
			"buffer":0,
			"byteLength":924,
			"byteOffset":9216,
			"target":34963
		},
		{
			"buffer":0,
			"byteLength":3456,
			"byteOffset":10140,
			"target":34962
		},
		{
			"buffer":0,
			"byteLength":3456,
			"byteOffset":13596,
			"target":34962
		},
		{
			"buffer":0,
			"byteLength":2304,
			"byteOffset":17052,
			"target":34962
		},
		{
			"buffer":0,
			"byteLength":14880,
			"byteOffset":19356,
			"target":34962
		},
		{
			"buffer":0,
			"byteLength":14880,
			"byteOffset":34236,
			"target":34962
		},
		{
			"buffer":0,
			"byteLength":9920,
			"byteOffset":49116,
			"target":34962
		},
		{
			"buffer":0,
			"byteLength":3864,
			"byteOffset":59036,
			"target":34963
		},
		{
			"buffer":0,
			"byteLength":2496,
			"byteOffset":62900,
			"target":34962
		},
		{
			"buffer":0,
			"byteLength":2496,
			"byteOffset":65396,
			"target":34962
		},
		{
			"buffer":0,
			"byteLength":1664,
			"byteOffset":67892,
			"target":34962
		},
		{
			"buffer":0,
			"byteLength":720,
			"byteOffset":69556,
			"target":34963
		},
		{
			"buffer":0,
			"byteLength":14448,
			"byteOffset":70276,
			"target":34962
		},
		{
			"buffer":0,
			"byteLength":14448,
			"byteOffset":84724,
			"target":34962
		},
		{
			"buffer":0,
			"byteLength":9632,
			"byteOffset":99172,
			"target":34962
		},
		{
			"buffer":0,
			"byteLength":3720,
			"byteOffset":108804,
			"target":34963
		}
	],
	"buffers":[
		{
			"byteLength":112524,
			"uri":"bike_vintage%20%28unfinished%29-5c25b88682f8527f923cb40aff9493e3.bin"
		}
	]
}
