{
	"asset":{
		"generator":"Khronos glTF Blender I/O v4.1.63",
		"version":"2.0"
	},
	"extensionsUsed":[
		"KHR_materials_specular",
		"KHR_materials_ior"
	],
	"scene":0,
	"scenes":[
		{
			"name":"Scene",
			"nodes":[
				2
			]
		}
	],
	"nodes":[
		{
			"extras":{
				"MaxHandle":1
			},
			"mesh":0,
			"name":"branches"
		},
		{
			"extras":{
				"MaxHandle":3
			},
			"mesh":1,
			"name":"flower"
		},
		{
			"children":[
				0,
				1
			],
			"extras":{
				"MaxHandle":2
			},
			"mesh":2,
			"name":"leaf",
			"scale":[
				0.009999999776482582,
				0.009999999776482582,
				0.009999999776482582
			]
		}
	],
	"materials":[
		{
			"alphaCutoff":0.5,
			"alphaMode":"MASK",
			"doubleSided":true,
			"extensions":{
				"KHR_materials_specular":{
					"specularFactor":0
				},
				"KHR_materials_ior":{
					"ior":1.4500000476837158
				}
			},
			"name":"_bush_02default.001",
			"pbrMetallicRoughness":{
				"baseColorTexture":{
					"index":0
				},
				"roughnessFactor":0.858578622341156
			}
		}
	],
	"meshes":[
		{
			"name":"Mesh.002",
			"primitives":[
				{
					"attributes":{
						"POSITION":0,
						"NORMAL":1,
						"TEXCOORD_0":2,
						"TANGENT":3
					},
					"indices":4,
					"material":0
				}
			]
		},
		{
			"name":"Mesh.004",
			"primitives":[
				{
					"attributes":{
						"POSITION":5,
						"NORMAL":6,
						"TEXCOORD_0":7,
						"TANGENT":8
					},
					"indices":9,
					"material":0
				}
			]
		},
		{
			"name":"Mesh.003",
			"primitives":[
				{
					"attributes":{
						"POSITION":10,
						"NORMAL":11,
						"TEXCOORD_0":12,
						"TANGENT":13
					},
					"indices":14,
					"material":0
				}
			]
		}
	],
	"textures":[
		{
			"sampler":0,
			"source":0
		}
	],
	"images":[
		{
			"mimeType":"image/png",
			"name":"bush_03.png",
			"uri":"../../Models/-%20Classic%2064%20Asset%20Pack%200.6/Nature/textures/bush_03.png"
		}
	],
	"accessors":[
		{
			"bufferView":0,
			"componentType":5126,
			"count":83,
			"max":[
				47.872318267822266,
				96.0416030883789,
				47.77751541137695
			],
			"min":[
				-47.39632034301758,
				-4.6631999015808105,
				-53.023536682128906
			],
			"type":"VEC3"
		},
		{
			"bufferView":1,
			"componentType":5126,
			"count":83,
			"type":"VEC3"
		},
		{
			"bufferView":2,
			"componentType":5126,
			"count":83,
			"type":"VEC2"
		},
		{
			"bufferView":3,
			"componentType":5126,
			"count":83,
			"type":"VEC4"
		},
		{
			"bufferView":4,
			"componentType":5123,
			"count":219,
			"type":"SCALAR"
		},
		{
			"bufferView":5,
			"componentType":5126,
			"count":190,
			"max":[
				42.922725677490234,
				86.59004211425781,
				20.556440353393555
			],
			"min":[
				-24.595048904418945,
				16.432819366455078,
				-50.03571319580078
			],
			"type":"VEC3"
		},
		{
			"bufferView":6,
			"componentType":5126,
			"count":190,
			"type":"VEC3"
		},
		{
			"bufferView":7,
			"componentType":5126,
			"count":190,
			"type":"VEC2"
		},
		{
			"bufferView":8,
			"componentType":5126,
			"count":190,
			"type":"VEC4"
		},
		{
			"bufferView":9,
			"componentType":5123,
			"count":258,
			"type":"SCALAR"
		},
		{
			"bufferView":10,
			"componentType":5126,
			"count":463,
			"max":[
				47.93231201171875,
				90.06157684326172,
				37.971805572509766
			],
			"min":[
				-36.48579025268555,
				9.386676788330078,
				-50.66130828857422
			],
			"type":"VEC3"
		},
		{
			"bufferView":11,
			"componentType":5126,
			"count":463,
			"type":"VEC3"
		},
		{
			"bufferView":12,
			"componentType":5126,
			"count":463,
			"type":"VEC2"
		},
		{
			"bufferView":13,
			"componentType":5126,
			"count":463,
			"type":"VEC4"
		},
		{
			"bufferView":14,
			"componentType":5123,
			"count":597,
			"type":"SCALAR"
		}
	],
	"bufferViews":[
		{
			"buffer":0,
			"byteLength":996,
			"byteOffset":0,
			"target":34962
		},
		{
			"buffer":0,
			"byteLength":996,
			"byteOffset":996,
			"target":34962
		},
		{
			"buffer":0,
			"byteLength":664,
			"byteOffset":1992,
			"target":34962
		},
		{
			"buffer":0,
			"byteLength":1328,
			"byteOffset":2656,
			"target":34962
		},
		{
			"buffer":0,
			"byteLength":438,
			"byteOffset":3984,
			"target":34963
		},
		{
			"buffer":0,
			"byteLength":2280,
			"byteOffset":4424,
			"target":34962
		},
		{
			"buffer":0,
			"byteLength":2280,
			"byteOffset":6704,
			"target":34962
		},
		{
			"buffer":0,
			"byteLength":1520,
			"byteOffset":8984,
			"target":34962
		},
		{
			"buffer":0,
			"byteLength":3040,
			"byteOffset":10504,
			"target":34962
		},
		{
			"buffer":0,
			"byteLength":516,
			"byteOffset":13544,
			"target":34963
		},
		{
			"buffer":0,
			"byteLength":5556,
			"byteOffset":14060,
			"target":34962
		},
		{
			"buffer":0,
			"byteLength":5556,
			"byteOffset":19616,
			"target":34962
		},
		{
			"buffer":0,
			"byteLength":3704,
			"byteOffset":25172,
			"target":34962
		},
		{
			"buffer":0,
			"byteLength":7408,
			"byteOffset":28876,
			"target":34962
		},
		{
			"buffer":0,
			"byteLength":1194,
			"byteOffset":36284,
			"target":34963
		}
	],
	"samplers":[
		{
			"magFilter":9728,
			"minFilter":9984
		}
	],
	"buffers":[
		{
			"byteLength":37480,
			"uri":"bush_03-6bfc7349d004d31fde75ede397691a2f.bin"
		}
	]
}
