{
	"asset":{
		"generator":"Khronos glTF Blender I/O v4.1.63",
		"version":"2.0"
	},
	"extensionsUsed":[
		"KHR_materials_specular",
		"KHR_materials_ior"
	],
	"scene":0,
	"scenes":[
		{
			"name":"Scene",
			"nodes":[
				0
			]
		}
	],
	"nodes":[
		{
			"extras":{
				"MaxHandle":1
			},
			"mesh":0,
			"name":"bush_01",
			"scale":[
				0.009999999776482582,
				0.009999999776482582,
				0.009999999776482582
			]
		}
	],
	"materials":[
		{
			"alphaCutoff":0.5,
			"alphaMode":"MASK",
			"doubleSided":true,
			"extensions":{
				"KHR_materials_specular":{
					"specularFactor":0
				},
				"KHR_materials_ior":{
					"ior":1.4500000476837158
				}
			},
			"name":"default",
			"pbrMetallicRoughness":{
				"baseColorTexture":{
					"index":0
				},
				"roughnessFactor":0.858578622341156
			}
		}
	],
	"meshes":[
		{
			"name":"Mesh",
			"primitives":[
				{
					"attributes":{
						"POSITION":0,
						"NORMAL":1,
						"TEXCOORD_0":2,
						"TANGENT":3
					},
					"indices":4,
					"material":0
				}
			]
		}
	],
	"textures":[
		{
			"sampler":0,
			"source":0
		}
	],
	"images":[
		{
			"mimeType":"image/png",
			"name":"bush_01.png.001",
			"uri":"../../Models/-%20Classic%2064%20Asset%20Pack%200.6/Nature/textures/bush_01.png"
		}
	],
	"accessors":[
		{
			"bufferView":0,
			"componentType":5126,
			"count":412,
			"max":[
				65.69770050048828,
				98.61799621582031,
				55.3218994140625
			],
			"min":[
				-58.89229965209961,
				-18.696800231933594,
				-60.02000045776367
			],
			"type":"VEC3"
		},
		{
			"bufferView":1,
			"componentType":5126,
			"count":412,
			"type":"VEC3"
		},
		{
			"bufferView":2,
			"componentType":5126,
			"count":412,
			"type":"VEC2"
		},
		{
			"bufferView":3,
			"componentType":5126,
			"count":412,
			"type":"VEC4"
		},
		{
			"bufferView":4,
			"componentType":5123,
			"count":1074,
			"type":"SCALAR"
		}
	],
	"bufferViews":[
		{
			"buffer":0,
			"byteLength":4944,
			"byteOffset":0,
			"target":34962
		},
		{
			"buffer":0,
			"byteLength":4944,
			"byteOffset":4944,
			"target":34962
		},
		{
			"buffer":0,
			"byteLength":3296,
			"byteOffset":9888,
			"target":34962
		},
		{
			"buffer":0,
			"byteLength":6592,
			"byteOffset":13184,
			"target":34962
		},
		{
			"buffer":0,
			"byteLength":2148,
			"byteOffset":19776,
			"target":34963
		}
	],
	"samplers":[
		{
			"magFilter":9728,
			"minFilter":9984
		}
	],
	"buffers":[
		{
			"byteLength":21924,
			"uri":"bush_01-4f181ade55026f6e2149952ea65a328d.bin"
		}
	]
}
