{
	"asset":{
		"generator":"Khronos glTF Blender I/O v4.1.63",
		"version":"2.0"
	},
	"extensionsUsed":[
		"KHR_materials_specular",
		"KHR_materials_ior"
	],
	"scene":0,
	"scenes":[
		{
			"name":"Scene",
			"nodes":[
				0
			]
		}
	],
	"nodes":[
		{
			"extras":{
				"MaxHandle":1
			},
			"mesh":0,
			"name":"bush_04",
			"scale":[
				0.009999999776482582,
				0.009999999776482582,
				0.009999999776482582
			]
		}
	],
	"materials":[
		{
			"alphaCutoff":0.5,
			"alphaMode":"MASK",
			"doubleSided":true,
			"extensions":{
				"KHR_materials_specular":{
					"specularFactor":0
				},
				"KHR_materials_ior":{
					"ior":1.4500000476837158
				}
			},
			"name":"_bush_04default",
			"pbrMetallicRoughness":{
				"baseColorTexture":{
					"index":0
				},
				"roughnessFactor":0.858578622341156
			}
		}
	],
	"meshes":[
		{
			"name":"Mesh.005",
			"primitives":[
				{
					"attributes":{
						"POSITION":0,
						"NORMAL":1,
						"TEXCOORD_0":2,
						"TANGENT":3
					},
					"indices":4,
					"material":0
				}
			]
		}
	],
	"textures":[
		{
			"sampler":0,
			"source":0
		}
	],
	"images":[
		{
			"mimeType":"image/png",
			"name":"bush_04.png",
			"uri":"../../Models/-%20Classic%2064%20Asset%20Pack%200.6/Nature/textures/bush_04.png"
		}
	],
	"accessors":[
		{
			"bufferView":0,
			"componentType":5126,
			"count":443,
			"max":[
				60.617698669433594,
				86.37079620361328,
				60.99100112915039
			],
			"min":[
				-50.35770034790039,
				-14.073599815368652,
				-48.748600006103516
			],
			"type":"VEC3"
		},
		{
			"bufferView":1,
			"componentType":5126,
			"count":443,
			"type":"VEC3"
		},
		{
			"bufferView":2,
			"componentType":5126,
			"count":443,
			"type":"VEC2"
		},
		{
			"bufferView":3,
			"componentType":5126,
			"count":443,
			"type":"VEC4"
		},
		{
			"bufferView":4,
			"componentType":5123,
			"count":1500,
			"type":"SCALAR"
		}
	],
	"bufferViews":[
		{
			"buffer":0,
			"byteLength":5316,
			"byteOffset":0,
			"target":34962
		},
		{
			"buffer":0,
			"byteLength":5316,
			"byteOffset":5316,
			"target":34962
		},
		{
			"buffer":0,
			"byteLength":3544,
			"byteOffset":10632,
			"target":34962
		},
		{
			"buffer":0,
			"byteLength":7088,
			"byteOffset":14176,
			"target":34962
		},
		{
			"buffer":0,
			"byteLength":3000,
			"byteOffset":21264,
			"target":34963
		}
	],
	"samplers":[
		{
			"magFilter":9728,
			"minFilter":9984
		}
	],
	"buffers":[
		{
			"byteLength":24264,
			"uri":"bush_04-5f58304686e503ba7427b84b18c32671.bin"
		}
	]
}
