{
	"asset":{
		"generator":"Khronos glTF Blender I/O v4.1.63",
		"version":"2.0"
	},
	"extensionsUsed":[
		"KHR_materials_specular",
		"KHR_materials_ior"
	],
	"scene":0,
	"scenes":[
		{
			"name":"Scene",
			"nodes":[
				0
			]
		}
	],
	"nodes":[
		{
			"mesh":0,
			"name":"car_ramp_01",
			"translation":[
				-0.009046596474945545,
				0.787975549697876,
				-1.7807785272598267
			]
		}
	],
	"materials":[
		{
			"doubleSided":true,
			"extensions":{
				"KHR_materials_specular":{
					"specularFactor":0.0731707215309143
				},
				"KHR_materials_ior":{
					"ior":1.4500000476837158
				}
			},
			"name":"road_02",
			"pbrMetallicRoughness":{
				"baseColorTexture":{
					"index":0
				},
				"metallicFactor":0,
				"roughnessFactor":0.4000000059604645
			}
		},
		{
			"doubleSided":true,
			"name":"concrete_floor_04",
			"pbrMetallicRoughness":{
				"baseColorTexture":{
					"index":1
				},
				"metallicFactor":0,
				"roughnessFactor":0.5
			}
		},
		{
			"doubleSided":true,
			"name":"caution_tape_3",
			"pbrMetallicRoughness":{
				"baseColorTexture":{
					"index":2
				},
				"metallicFactor":0,
				"roughnessFactor":0.5
			}
		}
	],
	"meshes":[
		{
			"name":"Cube",
			"primitives":[
				{
					"attributes":{
						"POSITION":0,
						"NORMAL":1,
						"TEXCOORD_0":2,
						"TANGENT":3
					},
					"indices":4,
					"material":0
				},
				{
					"attributes":{
						"POSITION":5,
						"NORMAL":6,
						"TEXCOORD_0":7,
						"TANGENT":8
					},
					"indices":9,
					"material":1
				},
				{
					"attributes":{
						"POSITION":10,
						"NORMAL":11,
						"TEXCOORD_0":12,
						"TANGENT":13
					},
					"indices":14,
					"material":2
				}
			]
		}
	],
	"textures":[
		{
			"sampler":0,
			"source":0
		},
		{
			"sampler":0,
			"source":1
		},
		{
			"sampler":0,
			"source":2
		}
	],
	"images":[
		{
			"mimeType":"image/png",
			"name":"road_02.png",
			"uri":"../../Models/-%20Classic%2064%20Asset%20Pack%200.6/Vehicles/textures/road_02.png"
		},
		{
			"mimeType":"image/jpeg",
			"name":"concrete_floor_04.jpg",
			"uri":"../../Models/-%20Classic%2064%20Asset%20Pack%200.6/Vehicles/textures/concrete_floor_04.jpg"
		},
		{
			"mimeType":"image/png",
			"name":"caution_tape_3.png",
			"uri":"../../Models/-%20Classic%2064%20Asset%20Pack%200.6/Vehicles/textures/caution_tape_3.png"
		}
	],
	"accessors":[
		{
			"bufferView":0,
			"componentType":5126,
			"count":4,
			"max":[
				1.4137942790985107,
				1.2224619388580322,
				2.780778408050537
			],
			"min":[
				-1.4318876266479492,
				-0.7775381803512573,
				-1.7937601804733276
			],
			"type":"VEC3"
		},
		{
			"bufferView":1,
			"componentType":5126,
			"count":4,
			"type":"VEC3"
		},
		{
			"bufferView":2,
			"componentType":5126,
			"count":4,
			"type":"VEC2"
		},
		{
			"bufferView":3,
			"componentType":5126,
			"count":4,
			"type":"VEC4"
		},
		{
			"bufferView":4,
			"componentType":5123,
			"count":6,
			"type":"SCALAR"
		},
		{
			"bufferView":5,
			"componentType":5126,
			"count":34,
			"max":[
				1.9577797651290894,
				1.1101527214050293,
				2.780778408050537
			],
			"min":[
				-1.93968665599823,
				-0.7775381803512573,
				-1.7937601804733276
			],
			"type":"VEC3"
		},
		{
			"bufferView":6,
			"componentType":5126,
			"count":34,
			"type":"VEC3"
		},
		{
			"bufferView":7,
			"componentType":5126,
			"count":34,
			"type":"VEC2"
		},
		{
			"bufferView":8,
			"componentType":5126,
			"count":34,
			"type":"VEC4"
		},
		{
			"bufferView":9,
			"componentType":5123,
			"count":60,
			"type":"SCALAR"
		},
		{
			"bufferView":10,
			"componentType":5126,
			"count":24,
			"max":[
				1.9577797651290894,
				1.2224619388580322,
				2.780778408050537
			],
			"min":[
				-1.93968665599823,
				-0.7775381803512573,
				-1.7937601804733276
			],
			"type":"VEC3"
		},
		{
			"bufferView":11,
			"componentType":5126,
			"count":24,
			"type":"VEC3"
		},
		{
			"bufferView":12,
			"componentType":5126,
			"count":24,
			"type":"VEC2"
		},
		{
			"bufferView":13,
			"componentType":5126,
			"count":24,
			"type":"VEC4"
		},
		{
			"bufferView":14,
			"componentType":5123,
			"count":42,
			"type":"SCALAR"
		}
	],
	"bufferViews":[
		{
			"buffer":0,
			"byteLength":48,
			"byteOffset":0,
			"target":34962
		},
		{
			"buffer":0,
			"byteLength":48,
			"byteOffset":48,
			"target":34962
		},
		{
			"buffer":0,
			"byteLength":32,
			"byteOffset":96,
			"target":34962
		},
		{
			"buffer":0,
			"byteLength":64,
			"byteOffset":128,
			"target":34962
		},
		{
			"buffer":0,
			"byteLength":12,
			"byteOffset":192,
			"target":34963
		},
		{
			"buffer":0,
			"byteLength":408,
			"byteOffset":204,
			"target":34962
		},
		{
			"buffer":0,
			"byteLength":408,
			"byteOffset":612,
			"target":34962
		},
		{
			"buffer":0,
			"byteLength":272,
			"byteOffset":1020,
			"target":34962
		},
		{
			"buffer":0,
			"byteLength":544,
			"byteOffset":1292,
			"target":34962
		},
		{
			"buffer":0,
			"byteLength":120,
			"byteOffset":1836,
			"target":34963
		},
		{
			"buffer":0,
			"byteLength":288,
			"byteOffset":1956,
			"target":34962
		},
		{
			"buffer":0,
			"byteLength":288,
			"byteOffset":2244,
			"target":34962
		},
		{
			"buffer":0,
			"byteLength":192,
			"byteOffset":2532,
			"target":34962
		},
		{
			"buffer":0,
			"byteLength":384,
			"byteOffset":2724,
			"target":34962
		},
		{
			"buffer":0,
			"byteLength":84,
			"byteOffset":3108,
			"target":34963
		}
	],
	"samplers":[
		{
			"magFilter":9728,
			"minFilter":9984
		}
	],
	"buffers":[
		{
			"byteLength":3192,
			"uri":"car_ramp_01-b2831849ef3d751e9428b3e76ef9248d.bin"
		}
	]
}
