{
	"asset":{
		"generator":"Khronos glTF Blender I/O v4.1.63",
		"version":"2.0"
	},
	"scene":0,
	"scenes":[
		{
			"name":"Scene",
			"nodes":[
				11
			]
		}
	],
	"nodes":[
		{
			"mesh":0,
			"name":"Commerical_Shelf_One_Side_Bottom",
			"translation":[
				0,
				-0.05080002546310425,
				0
			]
		},
		{
			"children":[
				0
			],
			"mesh":1,
			"name":"Commerical_Shelf_One_Side_Base",
			"translation":[
				0,
				-0.6400800943374634,
				0
			]
		},
		{
			"mesh":2,
			"name":"Commerical_Shelf_One_Side_Shelf_EndCap.001",
			"translation":[
				-0.45159900188446045,
				-0.023236870765686035,
				0.0003572404384613037
			]
		},
		{
			"mesh":3,
			"name":"Commerical_Shelf_One_Side_Shelf_EndCap.002",
			"translation":[
				0.4416252076625824,
				-0.023236870765686035,
				0.0003572404384613037
			]
		},
		{
			"children":[
				2,
				3
			],
			"mesh":4,
			"name":"Commerical_Shelf_One_Side_Shelf",
			"translation":[
				0.0014329383848235011,
				0.7265187501907349,
				-0.28575000166893005
			]
		},
		{
			"mesh":5,
			"name":"Commerical_Shelf_One_Side_Shelf_EndCap.003",
			"translation":[
				0.4416252076625824,
				-0.02323688566684723,
				0.0003572404384613037
			]
		},
		{
			"mesh":6,
			"name":"Commerical_Shelf_One_Side_Shelf_EndCap.004",
			"translation":[
				-0.45159900188446045,
				-0.02323688566684723,
				0.0003572404384613037
			]
		},
		{
			"children":[
				5,
				6
			],
			"mesh":7,
			"name":"Commerical_Shelf_One_Side_Shelf.001",
			"translation":[
				0.0014329383848235011,
				0.2717503309249878,
				-0.28575000166893005
			]
		},
		{
			"mesh":8,
			"name":"Commerical_Shelf_One_Side_Shelf_EndCap",
			"translation":[
				-0.45159900188446045,
				-0.02323688566684723,
				0.0003572404384613037
			]
		},
		{
			"mesh":9,
			"name":"Commerical_Shelf_One_Side_Shelf_EndCap.005",
			"translation":[
				0.4416252076625824,
				-0.02323688566684723,
				0.0003572404384613037
			]
		},
		{
			"children":[
				8,
				9
			],
			"mesh":10,
			"name":"Commerical_Shelf_One_Side_Shelf.002",
			"translation":[
				0.0014329383848235011,
				-0.21999111771583557,
				-0.2820526957511902
			]
		},
		{
			"children":[
				1,
				4,
				7,
				10
			],
			"mesh":11,
			"name":"Commerical_Shelf_One_Side"
		}
	],
	"materials":[
		{
			"doubleSided":true,
			"name":"Commerical_Shelf_Bottom",
			"pbrMetallicRoughness":{}
		},
		{
			"doubleSided":true,
			"name":"Commerical_Shelf",
			"pbrMetallicRoughness":{}
		},
		{
			"doubleSided":true,
			"name":"Color_OffWhite",
			"pbrMetallicRoughness":{}
		},
		{
			"doubleSided":true,
			"name":"Commerical_Shelf_Back",
			"pbrMetallicRoughness":{}
		}
	],
	"meshes":[
		{
			"name":"Cube.002",
			"primitives":[
				{
					"attributes":{
						"POSITION":0,
						"NORMAL":1,
						"TEXCOORD_0":2,
						"TANGENT":3
					},
					"indices":4,
					"material":0
				}
			]
		},
		{
			"name":"Cube.001",
			"primitives":[
				{
					"attributes":{
						"POSITION":5,
						"NORMAL":6,
						"TEXCOORD_0":7,
						"TANGENT":8
					},
					"indices":9,
					"material":1
				}
			]
		},
		{
			"name":"Cube.013",
			"primitives":[
				{
					"attributes":{
						"POSITION":10,
						"NORMAL":11,
						"TEXCOORD_0":12,
						"TANGENT":13
					},
					"indices":14,
					"material":2
				}
			]
		},
		{
			"name":"Cube.014",
			"primitives":[
				{
					"attributes":{
						"POSITION":15,
						"NORMAL":16,
						"TEXCOORD_0":17,
						"TANGENT":18
					},
					"indices":14,
					"material":2
				}
			]
		},
		{
			"name":"Cube.012",
			"primitives":[
				{
					"attributes":{
						"POSITION":19,
						"NORMAL":20,
						"TEXCOORD_0":21,
						"TANGENT":22
					},
					"indices":23,
					"material":1
				}
			]
		},
		{
			"name":"Cube.016",
			"primitives":[
				{
					"attributes":{
						"POSITION":24,
						"NORMAL":25,
						"TEXCOORD_0":26,
						"TANGENT":27
					},
					"indices":14,
					"material":2
				}
			]
		},
		{
			"name":"Cube.017",
			"primitives":[
				{
					"attributes":{
						"POSITION":28,
						"NORMAL":29,
						"TEXCOORD_0":30,
						"TANGENT":31
					},
					"indices":14,
					"material":2
				}
			]
		},
		{
			"name":"Cube.015",
			"primitives":[
				{
					"attributes":{
						"POSITION":32,
						"NORMAL":33,
						"TEXCOORD_0":34,
						"TANGENT":35
					},
					"indices":23,
					"material":1
				}
			]
		},
		{
			"name":"Cube.019",
			"primitives":[
				{
					"attributes":{
						"POSITION":36,
						"NORMAL":37,
						"TEXCOORD_0":38,
						"TANGENT":39
					},
					"indices":14,
					"material":2
				}
			]
		},
		{
			"name":"Cube.020",
			"primitives":[
				{
					"attributes":{
						"POSITION":40,
						"NORMAL":41,
						"TEXCOORD_0":42,
						"TANGENT":43
					},
					"indices":14,
					"material":2
				}
			]
		},
		{
			"name":"Cube.018",
			"primitives":[
				{
					"attributes":{
						"POSITION":44,
						"NORMAL":45,
						"TEXCOORD_0":46,
						"TANGENT":47
					},
					"indices":23,
					"material":1
				}
			]
		},
		{
			"name":"Cube",
			"primitives":[
				{
					"attributes":{
						"POSITION":48,
						"NORMAL":49,
						"TEXCOORD_0":50,
						"TANGENT":51
					},
					"indices":52,
					"material":3
				}
			]
		}
	],
	"accessors":[
		{
			"bufferView":0,
			"componentType":5126,
			"count":20,
			"max":[
				0.43116599321365356,
				0.030479997396469116,
				0.45673683285713196
			],
			"min":[
				-0.4311659336090088,
				-0.07156886160373688,
				-0.45673656463623047
			],
			"type":"VEC3"
		},
		{
			"bufferView":1,
			"componentType":5126,
			"count":20,
			"type":"VEC3"
		},
		{
			"bufferView":2,
			"componentType":5126,
			"count":20,
			"type":"VEC2"
		},
		{
			"bufferView":3,
			"componentType":5126,
			"count":20,
			"type":"VEC4"
		},
		{
			"bufferView":4,
			"componentType":5123,
			"count":30,
			"type":"SCALAR"
		},
		{
			"bufferView":5,
			"componentType":5126,
			"count":34,
			"max":[
				0.4572000205516815,
				0.030479997396469116,
				0.5672770142555237
			],
			"min":[
				-0.45719996094703674,
				-0.020319998264312744,
				-0.567277193069458
			],
			"type":"VEC3"
		},
		{
			"bufferView":6,
			"componentType":5126,
			"count":34,
			"type":"VEC3"
		},
		{
			"bufferView":7,
			"componentType":5126,
			"count":34,
			"type":"VEC2"
		},
		{
			"bufferView":8,
			"componentType":5126,
			"count":34,
			"type":"VEC4"
		},
		{
			"bufferView":9,
			"componentType":5123,
			"count":60,
			"type":"SCALAR"
		},
		{
			"bufferView":10,
			"componentType":5126,
			"count":24,
			"max":[
				0.01242164894938469,
				0.03593688830733299,
				0.24729278683662415
			],
			"min":[
				-0.004473675042390823,
				-0.05191938206553459,
				-0.27648627758026123
			],
			"type":"VEC3"
		},
		{
			"bufferView":11,
			"componentType":5126,
			"count":24,
			"type":"VEC3"
		},
		{
			"bufferView":12,
			"componentType":5126,
			"count":24,
			"type":"VEC2"
		},
		{
			"bufferView":13,
			"componentType":5126,
			"count":24,
			"type":"VEC4"
		},
		{
			"bufferView":14,
			"componentType":5123,
			"count":36,
			"type":"SCALAR"
		},
		{
			"bufferView":15,
			"componentType":5126,
			"count":24,
			"max":[
				0.01242164894938469,
				0.03593688830733299,
				0.24729278683662415
			],
			"min":[
				-0.004473675042390823,
				-0.05191938206553459,
				-0.27648627758026123
			],
			"type":"VEC3"
		},
		{
			"bufferView":16,
			"componentType":5126,
			"count":24,
			"type":"VEC3"
		},
		{
			"bufferView":17,
			"componentType":5126,
			"count":24,
			"type":"VEC2"
		},
		{
			"bufferView":18,
			"componentType":5126,
			"count":24,
			"type":"VEC4"
		},
		{
			"bufferView":19,
			"componentType":5126,
			"count":12,
			"max":[
				0.43715155124664307,
				0.01269999984651804,
				0.24765004217624664
			],
			"min":[
				-0.43917736411094666,
				-0.01269999984651804,
				-0.24765001237392426
			],
			"type":"VEC3"
		},
		{
			"bufferView":20,
			"componentType":5126,
			"count":12,
			"type":"VEC3"
		},
		{
			"bufferView":21,
			"componentType":5126,
			"count":12,
			"type":"VEC2"
		},
		{
			"bufferView":22,
			"componentType":5126,
			"count":12,
			"type":"VEC4"
		},
		{
			"bufferView":23,
			"componentType":5123,
			"count":18,
			"type":"SCALAR"
		},
		{
			"bufferView":24,
			"componentType":5126,
			"count":24,
			"max":[
				0.01242164894938469,
				0.03593688830733299,
				0.24729278683662415
			],
			"min":[
				-0.004473675042390823,
				-0.05191938206553459,
				-0.27648627758026123
			],
			"type":"VEC3"
		},
		{
			"bufferView":25,
			"componentType":5126,
			"count":24,
			"type":"VEC3"
		},
		{
			"bufferView":26,
			"componentType":5126,
			"count":24,
			"type":"VEC2"
		},
		{
			"bufferView":27,
			"componentType":5126,
			"count":24,
			"type":"VEC4"
		},
		{
			"bufferView":28,
			"componentType":5126,
			"count":24,
			"max":[
				0.01242164894938469,
				0.03593688830733299,
				0.24729278683662415
			],
			"min":[
				-0.004473675042390823,
				-0.05191938206553459,
				-0.27648627758026123
			],
			"type":"VEC3"
		},
		{
			"bufferView":29,
			"componentType":5126,
			"count":24,
			"type":"VEC3"
		},
		{
			"bufferView":30,
			"componentType":5126,
			"count":24,
			"type":"VEC2"
		},
		{
			"bufferView":31,
			"componentType":5126,
			"count":24,
			"type":"VEC4"
		},
		{
			"bufferView":32,
			"componentType":5126,
			"count":12,
			"max":[
				0.43715155124664307,
				0.01269999984651804,
				0.24765004217624664
			],
			"min":[
				-0.43917736411094666,
				-0.01269999984651804,
				-0.24765001237392426
			],
			"type":"VEC3"
		},
		{
			"bufferView":33,
			"componentType":5126,
			"count":12,
			"type":"VEC3"
		},
		{
			"bufferView":34,
			"componentType":5126,
			"count":12,
			"type":"VEC2"
		},
		{
			"bufferView":35,
			"componentType":5126,
			"count":12,
			"type":"VEC4"
		},
		{
			"bufferView":36,
			"componentType":5126,
			"count":24,
			"max":[
				0.01242164894938469,
				0.03593688830733299,
				0.24729278683662415
			],
			"min":[
				-0.004473675042390823,
				-0.05191938206553459,
				-0.27648627758026123
			],
			"type":"VEC3"
		},
		{
			"bufferView":37,
			"componentType":5126,
			"count":24,
			"type":"VEC3"
		},
		{
			"bufferView":38,
			"componentType":5126,
			"count":24,
			"type":"VEC2"
		},
		{
			"bufferView":39,
			"componentType":5126,
			"count":24,
			"type":"VEC4"
		},
		{
			"bufferView":40,
			"componentType":5126,
			"count":24,
			"max":[
				0.01242164894938469,
				0.03593688830733299,
				0.24729278683662415
			],
			"min":[
				-0.004473675042390823,
				-0.05191938206553459,
				-0.27648627758026123
			],
			"type":"VEC3"
		},
		{
			"bufferView":41,
			"componentType":5126,
			"count":24,
			"type":"VEC3"
		},
		{
			"bufferView":42,
			"componentType":5126,
			"count":24,
			"type":"VEC2"
		},
		{
			"bufferView":43,
			"componentType":5126,
			"count":24,
			"type":"VEC4"
		},
		{
			"bufferView":44,
			"componentType":5126,
			"count":12,
			"max":[
				0.43715155124664307,
				0.01269999984651804,
				0.24765004217624664
			],
			"min":[
				-0.43917736411094666,
				-0.01269999984651804,
				-0.24765001237392426
			],
			"type":"VEC3"
		},
		{
			"bufferView":45,
			"componentType":5126,
			"count":12,
			"type":"VEC3"
		},
		{
			"bufferView":46,
			"componentType":5126,
			"count":12,
			"type":"VEC2"
		},
		{
			"bufferView":47,
			"componentType":5126,
			"count":12,
			"type":"VEC4"
		},
		{
			"bufferView":48,
			"componentType":5126,
			"count":20,
			"max":[
				0.4572000205516815,
				0.914400041103363,
				0.03810000419616699
			],
			"min":[
				-0.45719996094703674,
				-0.6096000671386719,
				-0.038099996745586395
			],
			"type":"VEC3"
		},
		{
			"bufferView":49,
			"componentType":5126,
			"count":20,
			"type":"VEC3"
		},
		{
			"bufferView":50,
			"componentType":5126,
			"count":20,
			"type":"VEC2"
		},
		{
			"bufferView":51,
			"componentType":5126,
			"count":20,
			"type":"VEC4"
		},
		{
			"bufferView":52,
			"componentType":5123,
			"count":30,
			"type":"SCALAR"
		}
	],
	"bufferViews":[
		{
			"buffer":0,
			"byteLength":240,
			"byteOffset":0,
			"target":34962
		},
		{
			"buffer":0,
			"byteLength":240,
			"byteOffset":240,
			"target":34962
		},
		{
			"buffer":0,
			"byteLength":160,
			"byteOffset":480,
			"target":34962
		},
		{
			"buffer":0,
			"byteLength":320,
			"byteOffset":640,
			"target":34962
		},
		{
			"buffer":0,
			"byteLength":60,
			"byteOffset":960,
			"target":34963
		},
		{
			"buffer":0,
			"byteLength":408,
			"byteOffset":1020,
			"target":34962
		},
		{
			"buffer":0,
			"byteLength":408,
			"byteOffset":1428,
			"target":34962
		},
		{
			"buffer":0,
			"byteLength":272,
			"byteOffset":1836,
			"target":34962
		},
		{
			"buffer":0,
			"byteLength":544,
			"byteOffset":2108,
			"target":34962
		},
		{
			"buffer":0,
			"byteLength":120,
			"byteOffset":2652,
			"target":34963
		},
		{
			"buffer":0,
			"byteLength":288,
			"byteOffset":2772,
			"target":34962
		},
		{
			"buffer":0,
			"byteLength":288,
			"byteOffset":3060,
			"target":34962
		},
		{
			"buffer":0,
			"byteLength":192,
			"byteOffset":3348,
			"target":34962
		},
		{
			"buffer":0,
			"byteLength":384,
			"byteOffset":3540,
			"target":34962
		},
		{
			"buffer":0,
			"byteLength":72,
			"byteOffset":3924,
			"target":34963
		},
		{
			"buffer":0,
			"byteLength":288,
			"byteOffset":3996,
			"target":34962
		},
		{
			"buffer":0,
			"byteLength":288,
			"byteOffset":4284,
			"target":34962
		},
		{
			"buffer":0,
			"byteLength":192,
			"byteOffset":4572,
			"target":34962
		},
		{
			"buffer":0,
			"byteLength":384,
			"byteOffset":4764,
			"target":34962
		},
		{
			"buffer":0,
			"byteLength":144,
			"byteOffset":5148,
			"target":34962
		},
		{
			"buffer":0,
			"byteLength":144,
			"byteOffset":5292,
			"target":34962
		},
		{
			"buffer":0,
			"byteLength":96,
			"byteOffset":5436,
			"target":34962
		},
		{
			"buffer":0,
			"byteLength":192,
			"byteOffset":5532,
			"target":34962
		},
		{
			"buffer":0,
			"byteLength":36,
			"byteOffset":5724,
			"target":34963
		},
		{
			"buffer":0,
			"byteLength":288,
			"byteOffset":5760,
			"target":34962
		},
		{
			"buffer":0,
			"byteLength":288,
			"byteOffset":6048,
			"target":34962
		},
		{
			"buffer":0,
			"byteLength":192,
			"byteOffset":6336,
			"target":34962
		},
		{
			"buffer":0,
			"byteLength":384,
			"byteOffset":6528,
			"target":34962
		},
		{
			"buffer":0,
			"byteLength":288,
			"byteOffset":6912,
			"target":34962
		},
		{
			"buffer":0,
			"byteLength":288,
			"byteOffset":7200,
			"target":34962
		},
		{
			"buffer":0,
			"byteLength":192,
			"byteOffset":7488,
			"target":34962
		},
		{
			"buffer":0,
			"byteLength":384,
			"byteOffset":7680,
			"target":34962
		},
		{
			"buffer":0,
			"byteLength":144,
			"byteOffset":8064,
			"target":34962
		},
		{
			"buffer":0,
			"byteLength":144,
			"byteOffset":8208,
			"target":34962
		},
		{
			"buffer":0,
			"byteLength":96,
			"byteOffset":8352,
			"target":34962
		},
		{
			"buffer":0,
			"byteLength":192,
			"byteOffset":8448,
			"target":34962
		},
		{
			"buffer":0,
			"byteLength":288,
			"byteOffset":8640,
			"target":34962
		},
		{
			"buffer":0,
			"byteLength":288,
			"byteOffset":8928,
			"target":34962
		},
		{
			"buffer":0,
			"byteLength":192,
			"byteOffset":9216,
			"target":34962
		},
		{
			"buffer":0,
			"byteLength":384,
			"byteOffset":9408,
			"target":34962
		},
		{
			"buffer":0,
			"byteLength":288,
			"byteOffset":9792,
			"target":34962
		},
		{
			"buffer":0,
			"byteLength":288,
			"byteOffset":10080,
			"target":34962
		},
		{
			"buffer":0,
			"byteLength":192,
			"byteOffset":10368,
			"target":34962
		},
		{
			"buffer":0,
			"byteLength":384,
			"byteOffset":10560,
			"target":34962
		},
		{
			"buffer":0,
			"byteLength":144,
			"byteOffset":10944,
			"target":34962
		},
		{
			"buffer":0,
			"byteLength":144,
			"byteOffset":11088,
			"target":34962
		},
		{
			"buffer":0,
			"byteLength":96,
			"byteOffset":11232,
			"target":34962
		},
		{
			"buffer":0,
			"byteLength":192,
			"byteOffset":11328,
			"target":34962
		},
		{
			"buffer":0,
			"byteLength":240,
			"byteOffset":11520,
			"target":34962
		},
		{
			"buffer":0,
			"byteLength":240,
			"byteOffset":11760,
			"target":34962
		},
		{
			"buffer":0,
			"byteLength":160,
			"byteOffset":12000,
			"target":34962
		},
		{
			"buffer":0,
			"byteLength":320,
			"byteOffset":12160,
			"target":34962
		},
		{
			"buffer":0,
			"byteLength":60,
			"byteOffset":12480,
			"target":34963
		}
	],
	"buffers":[
		{
			"byteLength":12540,
			"uri":"commerical_shelf_one_side-b4ab838ef85b5907cc70e3ad7e19f8c3.bin"
		}
	]
}
