{
	"asset":{
		"generator":"Khronos glTF Blender I/O v4.1.63",
		"version":"2.0"
	},
	"scene":0,
	"scenes":[
		{
			"name":"Scene",
			"nodes":[
				0,
				1,
				2,
				3,
				4,
				5,
				6,
				51
			]
		}
	],
	"nodes":[
		{
			"name":"Empty",
			"rotation":[
				0.7071069478988647,
				0,
				0,
				0.7071066498756409
			],
			"scale":[
				1.9569090604782104,
				1.9569090604782104,
				1.9569090604782104
			],
			"translation":[
				-3.283322811126709,
				2.4831130504608154,
				-13.218339920043945
			]
		},
		{
			"name":"Empty.001",
			"rotation":[
				0.5000000596046448,
				-0.5,
				0.5,
				0.4999999701976776
			],
			"scale":[
				1.9569090604782104,
				1.9569090604782104,
				1.9569090604782104
			],
			"translation":[
				-13.24250602722168,
				2.4831130504608154,
				1.391384482383728
			]
		},
		{
			"name":"Empty.002",
			"rotation":[
				0.7070848345756531,
				0.005582808516919613,
				-0.0055828094482421875,
				0.7070847153663635
			],
			"scale":[
				1.9862664937973022,
				1.9862664937973022,
				1.9862666130065918
			],
			"translation":[
				-5.265317916870117,
				1.8577916622161865,
				-12.25583553314209
			]
		},
		{
			"name":"Empty.003",
			"rotation":[
				0.70710688829422,
				0,
				0,
				0.7071066498756409
			],
			"scale":[
				0.2751312553882599,
				0.2751312553882599,
				0.2751312553882599
			],
			"translation":[
				0.36250874400138855,
				4.659432411193848,
				-6.257458209991455
			]
		},
		{
			"name":"Empty.004",
			"rotation":[
				0.5000000596046448,
				0.5,
				-0.5,
				0.5
			],
			"scale":[
				0.24888670444488525,
				0.24888670444488525,
				0.24888670444488525
			],
			"translation":[
				-7.781946182250977,
				4.659432411193848,
				0.34437769651412964
			]
		},
		{
			"name":"Empty.005",
			"rotation":[
				0.70710688829422,
				0,
				0,
				0.7071066498756409
			],
			"scale":[
				2.0861825942993164,
				2.0861825942993164,
				2.0861825942993164
			],
			"translation":[
				9.67294979095459,
				1.6265678405761719,
				-11.31345272064209
			]
		},
		{
			"name":"Empty.006",
			"rotation":[
				0.70710688829422,
				0,
				0,
				0.7071066498756409
			],
			"scale":[
				0.48024559020996094,
				0.48024559020996094,
				0.48024559020996094
			],
			"translation":[
				1.6984249353408813,
				4.93196439743042,
				-4.083407878875732
			]
		},
		{
			"name":"palm.01.L.001",
			"rotation":[
				0.06975425034761429,
				-0.006851261015981436,
				-0.019793497398495674,
				0.9973443150520325
			],
			"scale":[
				1,
				0.9999998211860657,
				0.9999999403953552
			],
			"translation":[
				-7.450580596923828e-09,
				0.04161149635910988,
				-1.51805579662323e-07
			]
		},
		{
			"children":[
				7
			],
			"name":"palm.01.L",
			"rotation":[
				0.1268291473388672,
				0.7093437314033508,
				-0.14037542045116425,
				0.6789997816085815
			],
			"scale":[
				0.9999998211860657,
				0.9999996423721313,
				1
			],
			"translation":[
				0.00635330006480217,
				0.0767410546541214,
				0.032445818185806274
			]
		},
		{
			"name":"thumb.02.L",
			"rotation":[
				0.05503728613257408,
				-0.04568710923194885,
				0.0829482227563858,
				0.9939835071563721
			],
			"scale":[
				1,
				1,
				1.0000001192092896
			],
			"translation":[
				2.2817403078079224e-07,
				0.03801143914461136,
				-3.725290298461914e-09
			]
		},
		{
			"children":[
				9
			],
			"name":"thumb.01.L",
			"rotation":[
				-0.1554287225008011,
				-0.9782773852348328,
				-0.1310035139322281,
				0.040662311017513275
			],
			"scale":[
				1,
				1.0000001192092896,
				0.9999999403953552
			],
			"translation":[
				0.0038776546716690063,
				0.028506120666861534,
				0.045938290655612946
			]
		},
		{
			"name":"palm.02.L.001",
			"rotation":[
				0.07819125801324844,
				-0.0876355692744255,
				-0.017347943037748337,
				0.992927610874176
			],
			"scale":[
				0.9999998807907104,
				0.9999999403953552,
				0.9999998211860657
			],
			"translation":[
				1.862645149230957e-09,
				0.03672380745410919,
				4.889443516731262e-09
			]
		},
		{
			"children":[
				11
			],
			"name":"palm.02.L",
			"rotation":[
				0.11071664094924927,
				0.6892600655555725,
				-0.16385388374328613,
				0.6970037817955017
			],
			"scale":[
				0.9999999403953552,
				1.0000001192092896,
				1.0000001192092896
			],
			"translation":[
				-0.001974135870113969,
				0.0827546939253807,
				0.012358251959085464
			]
		},
		{
			"name":"palm.03.L.001",
			"rotation":[
				0.049629077315330505,
				2.325866432784096e-08,
				0.021024011075496674,
				0.9985464215278625
			],
			"scale":[
				1,
				0.9999997615814209,
				0.9999999403953552
			],
			"translation":[
				3.725290298461914e-09,
				0.033953290432691574,
				1.3737007975578308e-08
			]
		},
		{
			"children":[
				13
			],
			"name":"palm.03.L",
			"rotation":[
				0.1034386083483696,
				0.6603533625602722,
				-0.19469240307807922,
				0.7178640365600586
			],
			"scale":[
				1.0000001192092896,
				1.0000001192092896,
				1.0000001192092896
			],
			"translation":[
				-0.001975024351850152,
				0.08028202503919601,
				-0.011693381704390049
			]
		},
		{
			"name":"palm.04.L.001",
			"rotation":[
				0.12134318798780441,
				-0.040627479553222656,
				0.04055459052324295,
				0.9909493327140808
			],
			"scale":[
				0.9999999403953552,
				1.0000001192092896,
				1
			],
			"translation":[
				-4.6566128730773926e-09,
				0.03594144806265831,
				6.167101673781872e-08
			]
		},
		{
			"children":[
				15
			],
			"name":"palm.04.L",
			"rotation":[
				0.0579100176692009,
				0.6728101968765259,
				-0.15646375715732574,
				0.7207579016685486
			],
			"scale":[
				1,
				0.9999999403953552,
				1
			],
			"translation":[
				0.005879406351596117,
				0.06403252482414246,
				-0.033537738025188446
			]
		},
		{
			"children":[
				8,
				10,
				12,
				14,
				16
			],
			"name":"hand.L",
			"rotation":[
				0.03351053223013878,
				0.01807708665728569,
				-0.02317102439701557,
				0.9990062117576599
			],
			"scale":[
				1,
				0.9999998211860657,
				1
			],
			"translation":[
				-2.9310467652976513e-07,
				0.3633003234863281,
				9.313225746154785e-10
			]
		},
		{
			"children":[
				17
			],
			"name":"forearm.L",
			"rotation":[
				-0.03146748244762421,
				-0.0008066989830695093,
				-0.006614532321691513,
				0.9994825720787048
			],
			"scale":[
				1.0000001192092896,
				0.9999999403953552,
				1
			],
			"translation":[
				-5.420588422566652e-09,
				0.3012616038322449,
				-9.313225746154785e-10
			]
		},
		{
			"children":[
				18
			],
			"name":"upper_arm.L",
			"rotation":[
				0.12144824862480164,
				0.7314028739929199,
				-0.29217132925987244,
				0.604099452495575
			],
			"scale":[
				0.9999999403953552,
				1.0000001192092896,
				1
			],
			"translation":[
				0.00898693036288023,
				0.20407326519489288,
				-0.005803202278912067
			]
		},
		{
			"children":[
				19
			],
			"name":"shoulder.L",
			"rotation":[
				-0.6817820072174072,
				-0.2981433868408203,
				-0.3874282240867615,
				0.5442271828651428
			],
			"scale":[
				0.9999998807907104,
				0.9999998807907104,
				0.9999998807907104
			],
			"translation":[
				0.03644685819745064,
				0.17883236706256866,
				0.07734639197587967
			]
		},
		{
			"name":"palm.01.R.001",
			"rotation":[
				0.0697542205452919,
				0.006851255428045988,
				0.019793568179011345,
				0.9973443150520325
			],
			"scale":[
				0.9999999403953552,
				0.9999999403953552,
				1
			],
			"translation":[
				1.4901161193847656e-08,
				0.041611380875110626,
				2.8405338525772095e-08
			]
		},
		{
			"children":[
				21
			],
			"name":"palm.01.R",
			"rotation":[
				0.12682919204235077,
				-0.7093437314033508,
				0.14037540555000305,
				0.6789997220039368
			],
			"scale":[
				1,
				1.000000238418579,
				1.0000001192092896
			],
			"translation":[
				-0.006353271193802357,
				0.07674097269773483,
				0.032445795834064484
			]
		},
		{
			"name":"thumb.02.R",
			"rotation":[
				0.05503726378083229,
				0.045687127858400345,
				-0.08294811844825745,
				0.9939835071563721
			],
			"scale":[
				1,
				0.9999999403953552,
				1.000000238418579
			],
			"translation":[
				7.729977369308472e-08,
				0.03801129013299942,
				7.450580596923828e-09
			]
		},
		{
			"children":[
				23
			],
			"name":"thumb.01.R",
			"rotation":[
				-0.15542881190776825,
				0.978277325630188,
				0.1310035139322281,
				0.04066229611635208
			],
			"scale":[
				1,
				0.9999995827674866,
				1.0000001192092896
			],
			"translation":[
				-0.0038778046146035194,
				0.02850603312253952,
				0.04593827575445175
			]
		},
		{
			"name":"palm.02.R.001",
			"rotation":[
				0.07819131016731262,
				0.08763553947210312,
				0.017347954213619232,
				0.992927610874176
			],
			"scale":[
				0.9999999403953552,
				0.9999999403953552,
				1
			],
			"translation":[
				7.450580596923828e-09,
				0.036723751574754715,
				1.8347054719924927e-07
			]
		},
		{
			"children":[
				25
			],
			"name":"palm.02.R",
			"rotation":[
				0.11071661859750748,
				-0.6892600059509277,
				0.16385383903980255,
				0.6970038414001465
			],
			"scale":[
				1,
				0.9999999403953552,
				1
			],
			"translation":[
				0.001974104903638363,
				0.08275461196899414,
				0.012358233332633972
			]
		},
		{
			"name":"palm.03.R.001",
			"rotation":[
				0.04962902143597603,
				-5.327924768039338e-08,
				-0.02102399244904518,
				0.9985464215278625
			],
			"scale":[
				1.0000001192092896,
				0.9999996423721313,
				0.9999998807907104
			],
			"translation":[
				-1.862645149230957e-09,
				0.033953264355659485,
				1.3329554349184036e-08
			]
		},
		{
			"children":[
				27
			],
			"name":"palm.03.R",
			"rotation":[
				0.103438600897789,
				-0.660353422164917,
				0.19469241797924042,
				0.7178640365600586
			],
			"scale":[
				1.0000001192092896,
				1,
				1
			],
			"translation":[
				0.001974874408915639,
				0.08028193563222885,
				-0.011693387292325497
			]
		},
		{
			"name":"palm.04.R.001",
			"rotation":[
				0.12134324759244919,
				0.04062742367386818,
				-0.04055464267730713,
				0.9909493327140808
			],
			"scale":[
				0.9999999403953552,
				1,
				1.0000001192092896
			],
			"translation":[
				8.381903171539307e-09,
				0.035941511392593384,
				-5.823676474392414e-08
			]
		},
		{
			"children":[
				29
			],
			"name":"palm.04.R",
			"rotation":[
				0.057909972965717316,
				-0.6728102564811707,
				0.1564638316631317,
				0.7207578420639038
			],
			"scale":[
				1.0000001192092896,
				1.0000001192092896,
				1
			],
			"translation":[
				-0.005879555828869343,
				0.06403243541717529,
				-0.033537738025188446
			]
		},
		{
			"children":[
				22,
				24,
				26,
				28,
				30
			],
			"name":"hand.R",
			"rotation":[
				0.03351053223013878,
				-0.01807708851993084,
				0.02317100204527378,
				0.9990062117576599
			],
			"scale":[
				1,
				0.9999998807907104,
				0.9999998807907104
			],
			"translation":[
				1.1439260561019182e-07,
				0.3633001446723938,
				-9.313225746154785e-10
			]
		},
		{
			"children":[
				31
			],
			"name":"forearm.R",
			"rotation":[
				-0.0314674973487854,
				0.0008067586459219456,
				0.0066145677119493484,
				0.9994825720787048
			],
			"scale":[
				1,
				1,
				0.9999999403953552
			],
			"translation":[
				5.1597453420981765e-08,
				0.3012614846229553,
				1.0244548320770264e-08
			]
		},
		{
			"children":[
				32
			],
			"name":"upper_arm.R",
			"rotation":[
				0.12144828587770462,
				-0.7314029932022095,
				0.2921712398529053,
				0.6040993332862854
			],
			"scale":[
				1,
				0.9999999403953552,
				1
			],
			"translation":[
				-0.00898691639304161,
				0.2040732353925705,
				-0.005803199484944344
			]
		},
		{
			"children":[
				33
			],
			"name":"shoulder.R",
			"rotation":[
				-0.6827463507652283,
				0.2959468960762024,
				0.3891191780567169,
				0.5430092811584473
			],
			"scale":[
				1,
				1.0000001192092896,
				1.0000001192092896
			],
			"translation":[
				-0.03759066388010979,
				0.17859713733196259,
				0.0773424580693245
			]
		},
		{
			"name":"spine.005",
			"rotation":[
				0.018978441134095192,
				-0.0010562686948105693,
				-0.005697771441191435,
				0.9998031258583069
			],
			"scale":[
				1,
				0.9999999403953552,
				1.0000001192092896
			],
			"translation":[
				-1.2205493282735347e-09,
				0.04488063231110573,
				2.5612425513799053e-09
			]
		},
		{
			"children":[
				35
			],
			"name":"spine.004",
			"rotation":[
				-0.01049667876213789,
				0.0009466152987442911,
				0.009497578255832195,
				0.9998993277549744
			],
			"scale":[
				1.0000001192092896,
				1,
				1
			],
			"translation":[
				-3.152851313359406e-10,
				0.2237350195646286,
				-3.744411003481218e-09
			]
		},
		{
			"children":[
				20,
				34,
				36
			],
			"name":"spine.003",
			"rotation":[
				0.0058356039226055145,
				3.56684104190208e-05,
				-0.0015883806627243757,
				0.999981701374054
			],
			"scale":[
				0.9999999403953552,
				1,
				1.0000001192092896
			],
			"translation":[
				6.661338147750939e-16,
				0.1920318752527237,
				-2.7939677238464355e-09
			]
		},
		{
			"children":[
				37
			],
			"name":"spine.002",
			"rotation":[
				-0.08049874752759933,
				-3.898431870288238e-15,
				-1.919239700498565e-08,
				0.9967547655105591
			],
			"scale":[
				0.9999999403953552,
				0.9999998807907104,
				0.9999998211860657
			],
			"translation":[
				-2.220446049250313e-16,
				0.12713846564292908,
				-1.5832483768463135e-08
			]
		},
		{
			"children":[
				38
			],
			"name":"spine.001",
			"rotation":[
				-0.10390892624855042,
				2.790663970660698e-15,
				-2.477382032850528e-08,
				0.9945868253707886
			],
			"scale":[
				0.9999999403953552,
				0.9999999403953552,
				1
			],
			"translation":[
				-9.270362255620057e-15,
				0.11371589452028275,
				3.888271749019623e-08
			]
		},
		{
			"name":"toe.L",
			"rotation":[
				-0.001606688485480845,
				0.9697058200836182,
				-0.2432490438222885,
				0.022313375025987625
			],
			"scale":[
				1,
				1.0000001192092896,
				0.9999999403953552
			],
			"translation":[
				1.0244548320770264e-08,
				0.14181825518608093,
				9.778887033462524e-09
			]
		},
		{
			"children":[
				40
			],
			"name":"foot.L",
			"rotation":[
				-0.45904573798179626,
				0.007509179413318634,
				-0.001365478616207838,
				0.8883798718452454
			],
			"scale":[
				0.9999999403953552,
				1,
				1
			],
			"translation":[
				1.4551915228366852e-10,
				0.458355188369751,
				-5.238689482212067e-09
			]
		},
		{
			"children":[
				41
			],
			"name":"shin.L",
			"rotation":[
				-0.037168748676776886,
				0.00719533720985055,
				0.03036160208284855,
				0.9988217353820801
			],
			"scale":[
				1.0000001192092896,
				1,
				1
			],
			"translation":[
				-1.0099029168486595e-08,
				0.5329322814941406,
				-6.05359673500061e-09
			]
		},
		{
			"children":[
				42
			],
			"name":"thigh.L",
			"rotation":[
				0.9924224019050598,
				0.045451026409864426,
				-0.014248078688979149,
				0.11326482892036438
			],
			"scale":[
				0.9999999403953552,
				1,
				1.0000004768371582
			],
			"translation":[
				0.09799997508525848,
				0.0009695002809166908,
				0.06335580348968506
			]
		},
		{
			"name":"toe.R",
			"rotation":[
				-0.0016066792886704206,
				-0.9697062373161316,
				0.24324747920036316,
				0.022313380613923073
			],
			"scale":[
				1,
				1.0000001192092896,
				1
			],
			"translation":[
				-1.862645149230957e-09,
				0.1418190896511078,
				6.984919309616089e-09
			]
		},
		{
			"children":[
				44
			],
			"name":"foot.R",
			"rotation":[
				-0.45904621481895447,
				-0.007509131450206041,
				0.0013655071379616857,
				0.8883796334266663
			],
			"scale":[
				0.9999998807907104,
				0.9999999403953552,
				0.9999998807907104
			],
			"translation":[
				1.4042598195374012e-08,
				0.4583553075790405,
				-1.0477378964424133e-09
			]
		},
		{
			"children":[
				45
			],
			"name":"shin.R",
			"rotation":[
				-0.037169117480516434,
				-0.0071952505968511105,
				-0.030361613258719444,
				0.9988217353820801
			],
			"scale":[
				0.9999999403953552,
				0.9999999403953552,
				0.9999999403953552
			],
			"translation":[
				2.2177118808031082e-08,
				0.5329322814941406,
				7.2177499532699585e-09
			]
		},
		{
			"children":[
				46
			],
			"name":"thigh.R",
			"rotation":[
				0.9924224019050598,
				-0.04545116052031517,
				0.014246823266148567,
				0.1132652759552002
			],
			"scale":[
				0.9999987483024597,
				0.9999998211860657,
				0.9999936819076538
			],
			"translation":[
				-0.09800000488758087,
				0.0009695021435618401,
				0.06335576623678207
			]
		},
		{
			"children":[
				39,
				43,
				47
			],
			"name":"spine",
			"rotation":[
				0.1695374697446823,
				1.1748358730301334e-07,
				2.021043954414381e-08,
				0.9855237603187561
			],
			"translation":[
				0,
				1.1152411699295044,
				-0.04085567593574524
			]
		},
		{
			"mesh":0,
			"name":"Darlene Model",
			"skin":0
		},
		{
			"mesh":1,
			"name":"Darlene Model.001",
			"skin":0
		},
		{
			"children":[
				49,
				50,
				48
			],
			"name":"metarig.002",
			"scale":[
				2.3796305656433105,
				2.3796305656433105,
				2.3796305656433105
			]
		}
	],
	"materials":[
		{
			"doubleSided":true,
			"emissiveFactor":[
				1,
				1,
				1
			],
			"name":"Material",
			"pbrMetallicRoughness":{
				"baseColorFactor":[
					0,
					0,
					0,
					1
				]
			}
		}
	],
	"meshes":[
		{
			"name":"Cylinder",
			"primitives":[
				{
					"attributes":{
						"POSITION":0,
						"NORMAL":1,
						"TEXCOORD_0":2,
						"JOINTS_0":3,
						"JOINTS_1":4,
						"WEIGHTS_0":5,
						"WEIGHTS_1":6
					},
					"indices":7,
					"material":0
				}
			]
		},
		{
			"name":"Cylinder.001",
			"primitives":[
				{
					"attributes":{
						"POSITION":9,
						"NORMAL":10,
						"TEXCOORD_0":11,
						"TANGENT":12,
						"JOINTS_0":13,
						"JOINTS_1":14,
						"WEIGHTS_0":15,
						"WEIGHTS_1":16
					},
					"indices":17,
					"material":0
				}
			]
		}
	],
	"skins":[
		{
			"inverseBindMatrices":8,
			"joints":[
				48,
				39,
				38,
				37,
				20,
				19,
				18,
				17,
				8,
				7,
				10,
				9,
				12,
				11,
				14,
				13,
				16,
				15,
				34,
				33,
				32,
				31,
				22,
				21,
				24,
				23,
				26,
				25,
				28,
				27,
				30,
				29,
				36,
				35,
				43,
				42,
				41,
				40,
				47,
				46,
				45,
				44
			],
			"name":"metarig.002"
		}
	],
	"accessors":[
		{
			"bufferView":0,
			"componentType":5126,
			"count":3868,
			"max":[
				2.179696559906006,
				5.0330729484558105,
				0.4040507972240448
			],
			"min":[
				-2.179696559906006,
				-0.05307811126112938,
				-0.3344607651233673
			],
			"type":"VEC3"
		},
		{
			"bufferView":1,
			"componentType":5126,
			"count":3868,
			"type":"VEC3"
		},
		{
			"bufferView":2,
			"componentType":5126,
			"count":3868,
			"type":"VEC2"
		},
		{
			"bufferView":3,
			"componentType":5121,
			"count":3868,
			"type":"VEC4"
		},
		{
			"bufferView":4,
			"componentType":5121,
			"count":3868,
			"type":"VEC4"
		},
		{
			"bufferView":5,
			"componentType":5126,
			"count":3868,
			"type":"VEC4"
		},
		{
			"bufferView":6,
			"componentType":5126,
			"count":3868,
			"type":"VEC4"
		},
		{
			"bufferView":7,
			"componentType":5123,
			"count":5856,
			"type":"SCALAR"
		},
		{
			"bufferView":8,
			"componentType":5126,
			"count":42,
			"type":"MAT4"
		},
		{
			"bufferView":9,
			"componentType":5126,
			"count":1644,
			"max":[
				0.7152112126350403,
				4.3779449462890625,
				0.3557506501674652
			],
			"min":[
				-0.7152112126350403,
				2.1008636951446533,
				-0.42242878675460815
			],
			"type":"VEC3"
		},
		{
			"bufferView":10,
			"componentType":5126,
			"count":1644,
			"type":"VEC3"
		},
		{
			"bufferView":11,
			"componentType":5126,
			"count":1644,
			"type":"VEC2"
		},
		{
			"bufferView":12,
			"componentType":5126,
			"count":1644,
			"type":"VEC4"
		},
		{
			"bufferView":13,
			"componentType":5121,
			"count":1644,
			"type":"VEC4"
		},
		{
			"bufferView":14,
			"componentType":5121,
			"count":1644,
			"type":"VEC4"
		},
		{
			"bufferView":15,
			"componentType":5126,
			"count":1644,
			"type":"VEC4"
		},
		{
			"bufferView":16,
			"componentType":5126,
			"count":1644,
			"type":"VEC4"
		},
		{
			"bufferView":17,
			"componentType":5123,
			"count":2424,
			"type":"SCALAR"
		}
	],
	"bufferViews":[
		{
			"buffer":0,
			"byteLength":46416,
			"byteOffset":0,
			"target":34962
		},
		{
			"buffer":0,
			"byteLength":46416,
			"byteOffset":46416,
			"target":34962
		},
		{
			"buffer":0,
			"byteLength":30944,
			"byteOffset":92832,
			"target":34962
		},
		{
			"buffer":0,
			"byteLength":15472,
			"byteOffset":123776,
			"target":34962
		},
		{
			"buffer":0,
			"byteLength":15472,
			"byteOffset":139248,
			"target":34962
		},
		{
			"buffer":0,
			"byteLength":61888,
			"byteOffset":154720,
			"target":34962
		},
		{
			"buffer":0,
			"byteLength":61888,
			"byteOffset":216608,
			"target":34962
		},
		{
			"buffer":0,
			"byteLength":11712,
			"byteOffset":278496,
			"target":34963
		},
		{
			"buffer":0,
			"byteLength":2688,
			"byteOffset":290208
		},
		{
			"buffer":0,
			"byteLength":19728,
			"byteOffset":292896,
			"target":34962
		},
		{
			"buffer":0,
			"byteLength":19728,
			"byteOffset":312624,
			"target":34962
		},
		{
			"buffer":0,
			"byteLength":13152,
			"byteOffset":332352,
			"target":34962
		},
		{
			"buffer":0,
			"byteLength":26304,
			"byteOffset":345504,
			"target":34962
		},
		{
			"buffer":0,
			"byteLength":6576,
			"byteOffset":371808,
			"target":34962
		},
		{
			"buffer":0,
			"byteLength":6576,
			"byteOffset":378384,
			"target":34962
		},
		{
			"buffer":0,
			"byteLength":26304,
			"byteOffset":384960,
			"target":34962
		},
		{
			"buffer":0,
			"byteLength":26304,
			"byteOffset":411264,
			"target":34962
		},
		{
			"buffer":0,
			"byteLength":4848,
			"byteOffset":437568,
			"target":34963
		}
	],
	"buffers":[
		{
			"byteLength":442416,
			"uri":"DarleneModel2-6d3fd9502c82ad9f37c66a4e83c1c788.bin"
		}
	]
}
