{
	"asset":{
		"generator":"Khronos glTF Blender I/O v4.1.63",
		"version":"2.0"
	},
	"scene":0,
	"scenes":[
		{
			"name":"Scene",
			"nodes":[
				3
			]
		}
	],
	"nodes":[
		{
			"mesh":0,
			"name":"Door_Pushbar_EndCap_Large",
			"translation":[
				-0.3555998206138611,
				0,
				0
			]
		},
		{
			"mesh":1,
			"name":"Door_Pushbar_EndCap_Small",
			"translation":[
				0.3555997610092163,
				0,
				0
			]
		},
		{
			"mesh":2,
			"name":"Door_Pushbar_Handle",
			"translation":[
				-0.06551669538021088,
				0,
				0.04066658765077591
			]
		},
		{
			"children":[
				0,
				1,
				2
			],
			"mesh":3,
			"name":"Door_Pushbar",
			"translation":[
				-0.040551576763391495,
				0.04731440544128418,
				-0.014489668421447277
			]
		}
	],
	"materials":[
		{
			"doubleSided":true,
			"name":"color_silver",
			"pbrMetallicRoughness":{}
		},
		{
			"doubleSided":true,
			"name":"color_gold.png",
			"pbrMetallicRoughness":{}
		},
		{
			"doubleSided":true,
			"name":"metal_bar.png",
			"pbrMetallicRoughness":{}
		},
		{
			"doubleSided":true,
			"name":"metal_bar_2.png",
			"pbrMetallicRoughness":{}
		}
	],
	"meshes":[
		{
			"name":"Cube.001",
			"primitives":[
				{
					"attributes":{
						"POSITION":0,
						"NORMAL":1,
						"TEXCOORD_0":2,
						"TANGENT":3
					},
					"indices":4,
					"material":0
				}
			]
		},
		{
			"name":"Cube.003",
			"primitives":[
				{
					"attributes":{
						"POSITION":5,
						"NORMAL":6,
						"TEXCOORD_0":7,
						"TANGENT":8
					},
					"indices":9,
					"material":1
				}
			]
		},
		{
			"name":"Cube.002",
			"primitives":[
				{
					"attributes":{
						"POSITION":10,
						"NORMAL":11,
						"TEXCOORD_0":12,
						"TANGENT":13
					},
					"indices":14,
					"material":2
				}
			]
		},
		{
			"name":"Cube",
			"primitives":[
				{
					"attributes":{
						"POSITION":15,
						"NORMAL":16,
						"TEXCOORD_0":17,
						"TANGENT":18
					},
					"indices":19,
					"material":3
				}
			]
		}
	],
	"accessors":[
		{
			"bufferView":0,
			"componentType":5126,
			"count":36,
			"max":[
				1.2717239883386355e-07,
				0.0827116072177887,
				0.06551238149404526
			],
			"min":[
				-0.07240171730518341,
				-0.08271167427301407,
				-0.03175010904669762
			],
			"type":"VEC3"
		},
		{
			"bufferView":1,
			"componentType":5126,
			"count":36,
			"type":"VEC3"
		},
		{
			"bufferView":2,
			"componentType":5126,
			"count":36,
			"type":"VEC2"
		},
		{
			"bufferView":3,
			"componentType":5126,
			"count":36,
			"type":"VEC4"
		},
		{
			"bufferView":4,
			"componentType":5123,
			"count":66,
			"type":"SCALAR"
		},
		{
			"bufferView":5,
			"componentType":5126,
			"count":44,
			"max":[
				0.03772067651152611,
				0.053729210048913956,
				0.03749468922615051
			],
			"min":[
				-1.6956319370819983e-07,
				-0.053729210048913956,
				-0.031749993562698364
			],
			"type":"VEC3"
		},
		{
			"bufferView":6,
			"componentType":5126,
			"count":44,
			"type":"VEC3"
		},
		{
			"bufferView":7,
			"componentType":5126,
			"count":44,
			"type":"VEC2"
		},
		{
			"bufferView":8,
			"componentType":5126,
			"count":44,
			"type":"VEC4"
		},
		{
			"bufferView":9,
			"componentType":5123,
			"count":66,
			"type":"SCALAR"
		},
		{
			"bufferView":10,
			"componentType":5126,
			"count":24,
			"max":[
				0.27811700105667114,
				0.035488560795784,
				0.02764125168323517
			],
			"min":[
				-0.27811697125434875,
				-0.035488560795784,
				-0.009650824591517448
			],
			"type":"VEC3"
		},
		{
			"bufferView":11,
			"componentType":5126,
			"count":24,
			"type":"VEC3"
		},
		{
			"bufferView":12,
			"componentType":5126,
			"count":24,
			"type":"VEC2"
		},
		{
			"bufferView":13,
			"componentType":5126,
			"count":24,
			"type":"VEC4"
		},
		{
			"bufferView":14,
			"componentType":5123,
			"count":36,
			"type":"SCALAR"
		},
		{
			"bufferView":15,
			"componentType":5126,
			"count":12,
			"max":[
				0.3555999994277954,
				0.05079999938607216,
				0.03175000473856926
			],
			"min":[
				-0.35559993982315063,
				-0.05079999938607216,
				-0.03174999728798866
			],
			"type":"VEC3"
		},
		{
			"bufferView":16,
			"componentType":5126,
			"count":12,
			"type":"VEC3"
		},
		{
			"bufferView":17,
			"componentType":5126,
			"count":12,
			"type":"VEC2"
		},
		{
			"bufferView":18,
			"componentType":5126,
			"count":12,
			"type":"VEC4"
		},
		{
			"bufferView":19,
			"componentType":5123,
			"count":18,
			"type":"SCALAR"
		}
	],
	"bufferViews":[
		{
			"buffer":0,
			"byteLength":432,
			"byteOffset":0,
			"target":34962
		},
		{
			"buffer":0,
			"byteLength":432,
			"byteOffset":432,
			"target":34962
		},
		{
			"buffer":0,
			"byteLength":288,
			"byteOffset":864,
			"target":34962
		},
		{
			"buffer":0,
			"byteLength":576,
			"byteOffset":1152,
			"target":34962
		},
		{
			"buffer":0,
			"byteLength":132,
			"byteOffset":1728,
			"target":34963
		},
		{
			"buffer":0,
			"byteLength":528,
			"byteOffset":1860,
			"target":34962
		},
		{
			"buffer":0,
			"byteLength":528,
			"byteOffset":2388,
			"target":34962
		},
		{
			"buffer":0,
			"byteLength":352,
			"byteOffset":2916,
			"target":34962
		},
		{
			"buffer":0,
			"byteLength":704,
			"byteOffset":3268,
			"target":34962
		},
		{
			"buffer":0,
			"byteLength":132,
			"byteOffset":3972,
			"target":34963
		},
		{
			"buffer":0,
			"byteLength":288,
			"byteOffset":4104,
			"target":34962
		},
		{
			"buffer":0,
			"byteLength":288,
			"byteOffset":4392,
			"target":34962
		},
		{
			"buffer":0,
			"byteLength":192,
			"byteOffset":4680,
			"target":34962
		},
		{
			"buffer":0,
			"byteLength":384,
			"byteOffset":4872,
			"target":34962
		},
		{
			"buffer":0,
			"byteLength":72,
			"byteOffset":5256,
			"target":34963
		},
		{
			"buffer":0,
			"byteLength":144,
			"byteOffset":5328,
			"target":34962
		},
		{
			"buffer":0,
			"byteLength":144,
			"byteOffset":5472,
			"target":34962
		},
		{
			"buffer":0,
			"byteLength":96,
			"byteOffset":5616,
			"target":34962
		},
		{
			"buffer":0,
			"byteLength":192,
			"byteOffset":5712,
			"target":34962
		},
		{
			"buffer":0,
			"byteLength":36,
			"byteOffset":5904,
			"target":34963
		}
	],
	"buffers":[
		{
			"byteLength":5940,
			"uri":"door_pushbar-db71f42abcf4888657c133b01c1d7232.bin"
		}
	]
}
