{
	"asset":{
		"generator":"Khronos glTF Blender I/O v4.1.63",
		"version":"2.0"
	},
	"scene":0,
	"scenes":[
		{
			"name":"Scene",
			"nodes":[
				0,
				1,
				2,
				3,
				47
			]
		}
	],
	"nodes":[
		{
			"name":"Empty",
			"rotation":[
				0.70710688829422,
				0,
				0,
				0.7071066498756409
			],
			"translation":[
				1.3519624471664429,
				1.3257222175598145,
				-3.8554441928863525
			]
		},
		{
			"name":"Empty.001",
			"rotation":[
				0.5000000596046448,
				0.5,
				-0.5,
				0.5
			],
			"translation":[
				-4.599891185760498,
				1.3257222175598145,
				0
			]
		},
		{
			"name":"Empty.002",
			"rotation":[
				0.70710688829422,
				0,
				0,
				0.7071066498756409
			],
			"scale":[
				0.5166852474212646,
				0.5166852474212646,
				0.5166852474212646
			],
			"translation":[
				-1.5738966464996338,
				1.43809175491333,
				-3.4414937496185303
			]
		},
		{
			"name":"Empty.003",
			"rotation":[
				0.5,
				0.5,
				-0.5,
				0.5
			],
			"scale":[
				0.14632833003997803,
				0.14632833003997803,
				0.14632833003997803
			],
			"translation":[
				0.5399268865585327,
				0.23963619768619537,
				-0.07021188735961914
			]
		},
		{
			"name":"spine.005",
			"rotation":[
				-0.0007129735313355923,
				-0.00034776260145008564,
				0.0018052882514894009,
				0.9999980926513672
			],
			"scale":[
				1,
				0.9999999403953552,
				0.9999999403953552
			],
			"translation":[
				-4.5882674602550754e-24,
				0.06750932335853577,
				-1.3504177331924438e-08
			]
		},
		{
			"children":[
				4
			],
			"name":"spine.004",
			"rotation":[
				0.06438271701335907,
				-9.688677179327457e-18,
				-9.96944957618817e-18,
				0.9979252815246582
			],
			"scale":[
				1,
				0.9999999403953552,
				0.9999999403953552
			],
			"translation":[
				0,
				0.19257846474647522,
				-1.862645149230957e-09
			]
		},
		{
			"name":"f_index.01.L",
			"rotation":[
				0.14779768884181976,
				-0.025238800793886185,
				0.0313555970788002,
				0.9881982207298279
			],
			"translation":[
				-1.862645149230957e-09,
				0.05268607661128044,
				-2.561137080192566e-08
			]
		},
		{
			"children":[
				6
			],
			"name":"palm.01.L",
			"rotation":[
				0.16072477400302887,
				0.7303904891014099,
				-0.1845283955335617,
				0.6376884579658508
			],
			"scale":[
				1.0000001192092896,
				1.000000238418579,
				1.0000001192092896
			],
			"translation":[
				0.0008789731655269861,
				0.10688155889511108,
				0.03865624964237213
			]
		},
		{
			"name":"thumb.02.L",
			"rotation":[
				0.09542049467563629,
				-0.14980775117874146,
				0.15339793264865875,
				0.9720708131790161
			],
			"scale":[
				1,
				1.0000001192092896,
				1
			],
			"translation":[
				-2.7939677238464355e-08,
				0.04109100252389908,
				-4.470348358154297e-08
			]
		},
		{
			"children":[
				8
			],
			"name":"thumb.01.L",
			"rotation":[
				0.020901143550872803,
				-0.9517697691917419,
				-0.2481241226196289,
				0.17925353348255157
			],
			"scale":[
				1.0000001192092896,
				1.0000003576278687,
				1
			],
			"translation":[
				-0.006331451702862978,
				0.03350977599620819,
				0.04574774205684662
			]
		},
		{
			"name":"f_middle.01.L",
			"rotation":[
				0.21487383544445038,
				-0.0053658392280340195,
				0.03377535939216614,
				0.9760428667068481
			],
			"scale":[
				1,
				0.9999998211860657,
				0.9999999403953552
			],
			"translation":[
				5.587935447692871e-09,
				0.05409929156303406,
				-3.373133949935436e-08
			]
		},
		{
			"children":[
				10
			],
			"name":"palm.02.L",
			"rotation":[
				0.15860174596309662,
				0.7148152589797974,
				-0.1812424212694168,
				0.6565332412719727
			],
			"scale":[
				0.9999998807907104,
				1,
				1
			],
			"translation":[
				0.008090215735137463,
				0.10410469770431519,
				0.017338769510388374
			]
		},
		{
			"name":"f_ring.01.L",
			"rotation":[
				0.2768857777118683,
				0.030488869175314903,
				-0.048076726496219635,
				0.959214985370636
			],
			"scale":[
				0.9999998211860657,
				0.9999999403953552,
				0.9999999403953552
			],
			"translation":[
				1.3969838619232178e-09,
				0.060415152460336685,
				1.7083948478102684e-08
			]
		},
		{
			"children":[
				12
			],
			"name":"palm.03.L",
			"rotation":[
				0.1763133555650711,
				0.6279361248016357,
				-0.2130897492170334,
				0.7274631261825562
			],
			"scale":[
				0.9999999403953552,
				1,
				1
			],
			"translation":[
				0.004200540482997894,
				0.10749517381191254,
				-0.008870802819728851
			]
		},
		{
			"name":"f_pinky.01.L",
			"rotation":[
				0.20378483831882477,
				0.027144774794578552,
				0.013816636055707932,
				0.9785417318344116
			],
			"scale":[
				0.9999998807907104,
				0.9999997019767761,
				0.9999999403953552
			],
			"translation":[
				1.862645149230957e-09,
				0.05624842271208763,
				2.3748725652694702e-08
			]
		},
		{
			"children":[
				14
			],
			"name":"palm.04.L",
			"rotation":[
				0.12168306857347488,
				0.5756698250770569,
				-0.20296578109264374,
				0.7826892137527466
			],
			"scale":[
				1.0000001192092896,
				1.000000238418579,
				1.0000001192092896
			],
			"translation":[
				0.008976330980658531,
				0.10388665646314621,
				-0.02619953453540802
			]
		},
		{
			"children":[
				7,
				9,
				11,
				13,
				15
			],
			"name":"hand.L",
			"rotation":[
				0.015054738149046898,
				-0.0021497714333236217,
				-0.04939480125904083,
				0.9986635446548462
			],
			"scale":[
				1,
				0.9999999403953552,
				1
			],
			"translation":[
				6.752088665962219e-09,
				0.294815331697464,
				1.862645149230957e-09
			]
		},
		{
			"children":[
				16
			],
			"name":"forearm.L",
			"rotation":[
				0.07023423165082932,
				0.15044036507606506,
				-0.11260174214839935,
				0.9796712398529053
			],
			"scale":[
				1,
				0.9999999403953552,
				1
			],
			"translation":[
				3.3527612686157227e-08,
				0.30480748414993286,
				-5.587935447692871e-09
			]
		},
		{
			"children":[
				17
			],
			"name":"upper_arm.L",
			"rotation":[
				-0.3214331865310669,
				0.6357184648513794,
				-0.5111761689186096,
				0.48087596893310547
			],
			"scale":[
				1,
				1,
				0.9999999403953552
			],
			"translation":[
				0.011010595597326756,
				0.20625419914722443,
				-0.0022369064390659332
			]
		},
		{
			"children":[
				18
			],
			"name":"shoulder.L",
			"rotation":[
				-0.6051545739173889,
				-0.3458624482154846,
				-0.35613447427749634,
				0.6223627328872681
			],
			"scale":[
				1,
				1,
				0.9999998807907104
			],
			"translation":[
				0.018300000578165054,
				0.13722120225429535,
				0.0782509371638298
			]
		},
		{
			"name":"f_index.01.R",
			"rotation":[
				0.14779768884181976,
				0.025238800793886185,
				-0.0313555970788002,
				0.9881982207298279
			],
			"translation":[
				1.862645149230957e-09,
				0.05268607661128044,
				-2.561137080192566e-08
			]
		},
		{
			"children":[
				20
			],
			"name":"palm.01.R",
			"rotation":[
				0.16072477400302887,
				-0.7303904891014099,
				0.1845283955335617,
				0.6376884579658508
			],
			"scale":[
				1.0000001192092896,
				1.000000238418579,
				1.0000001192092896
			],
			"translation":[
				-0.0008789731655269861,
				0.10688155889511108,
				0.03865624964237213
			]
		},
		{
			"name":"thumb.02.R",
			"rotation":[
				0.09542049467563629,
				0.14980775117874146,
				-0.15339793264865875,
				0.9720708131790161
			],
			"scale":[
				1,
				1.0000001192092896,
				1
			],
			"translation":[
				2.7939677238464355e-08,
				0.04109100252389908,
				-4.470348358154297e-08
			]
		},
		{
			"children":[
				22
			],
			"name":"thumb.01.R",
			"rotation":[
				0.020901143550872803,
				0.9517697691917419,
				0.2481241226196289,
				0.17925353348255157
			],
			"scale":[
				1.0000001192092896,
				1.0000003576278687,
				1
			],
			"translation":[
				0.006331451702862978,
				0.03350977599620819,
				0.04574774205684662
			]
		},
		{
			"name":"f_middle.01.R",
			"rotation":[
				0.21487383544445038,
				0.0053658392280340195,
				-0.03377535939216614,
				0.9760428667068481
			],
			"scale":[
				1,
				0.9999998211860657,
				0.9999999403953552
			],
			"translation":[
				-5.587935447692871e-09,
				0.05409929156303406,
				-3.373133949935436e-08
			]
		},
		{
			"children":[
				24
			],
			"name":"palm.02.R",
			"rotation":[
				0.15860174596309662,
				-0.7148152589797974,
				0.1812424212694168,
				0.6565332412719727
			],
			"scale":[
				0.9999998807907104,
				1,
				1
			],
			"translation":[
				-0.008090215735137463,
				0.10410469770431519,
				0.017338769510388374
			]
		},
		{
			"name":"f_ring.01.R",
			"rotation":[
				0.2768857777118683,
				-0.030488869175314903,
				0.048076726496219635,
				0.959214985370636
			],
			"scale":[
				0.9999998211860657,
				0.9999999403953552,
				0.9999999403953552
			],
			"translation":[
				-1.3969838619232178e-09,
				0.060415152460336685,
				1.7083948478102684e-08
			]
		},
		{
			"children":[
				26
			],
			"name":"palm.03.R",
			"rotation":[
				0.1763133555650711,
				-0.6279361248016357,
				0.2130897492170334,
				0.7274631261825562
			],
			"scale":[
				0.9999999403953552,
				1,
				1
			],
			"translation":[
				-0.004200540482997894,
				0.10749517381191254,
				-0.008870802819728851
			]
		},
		{
			"name":"f_pinky.01.R",
			"rotation":[
				0.20378483831882477,
				-0.027144774794578552,
				-0.013816636055707932,
				0.9785417318344116
			],
			"scale":[
				0.9999998807907104,
				0.9999997019767761,
				0.9999999403953552
			],
			"translation":[
				-1.862645149230957e-09,
				0.05624842271208763,
				2.3748725652694702e-08
			]
		},
		{
			"children":[
				28
			],
			"name":"palm.04.R",
			"rotation":[
				0.12168306857347488,
				-0.5756698250770569,
				0.20296578109264374,
				0.7826892137527466
			],
			"scale":[
				1.0000001192092896,
				1.000000238418579,
				1.0000001192092896
			],
			"translation":[
				-0.008976330980658531,
				0.10388665646314621,
				-0.02619953453540802
			]
		},
		{
			"children":[
				21,
				23,
				25,
				27,
				29
			],
			"name":"hand.R",
			"rotation":[
				0.015054738149046898,
				0.0021497714333236217,
				0.04939480125904083,
				0.9986635446548462
			],
			"scale":[
				1,
				0.9999999403953552,
				1
			],
			"translation":[
				-6.752088665962219e-09,
				0.294815331697464,
				1.862645149230957e-09
			]
		},
		{
			"children":[
				30
			],
			"name":"forearm.R",
			"rotation":[
				0.07023423165082932,
				-0.15044036507606506,
				0.11260174214839935,
				0.9796712398529053
			],
			"scale":[
				1,
				0.9999999403953552,
				1
			],
			"translation":[
				-3.3527612686157227e-08,
				0.30480748414993286,
				-5.587935447692871e-09
			]
		},
		{
			"children":[
				31
			],
			"name":"upper_arm.R",
			"rotation":[
				-0.3214331865310669,
				-0.6357184648513794,
				0.5111761689186096,
				0.48087596893310547
			],
			"scale":[
				1,
				1,
				0.9999999403953552
			],
			"translation":[
				-0.011010595597326756,
				0.20625419914722443,
				-0.0022369064390659332
			]
		},
		{
			"children":[
				32
			],
			"name":"shoulder.R",
			"rotation":[
				-0.6051545739173889,
				0.3458624482154846,
				0.35613447427749634,
				0.6223627328872681
			],
			"scale":[
				1,
				1,
				0.9999998807907104
			],
			"translation":[
				-0.018300000578165054,
				0.13722120225429535,
				0.0782509371638298
			]
		},
		{
			"children":[
				5,
				19,
				33
			],
			"name":"spine.003",
			"rotation":[
				0.0016271473141387105,
				0,
				0,
				0.9999986886978149
			],
			"scale":[
				1,
				1,
				1.0000001192092896
			],
			"translation":[
				0,
				0.17288774251937866,
				-4.656612873077393e-10
			]
		},
		{
			"children":[
				34
			],
			"name":"spine.002",
			"rotation":[
				-0.07746414840221405,
				0,
				0,
				0.9969951510429382
			],
			"scale":[
				1,
				0.9999999403953552,
				0.9999999403953552
			],
			"translation":[
				0,
				0.13663677871227264,
				2.6193447411060333e-09
			]
		},
		{
			"children":[
				35
			],
			"name":"spine.001",
			"rotation":[
				-0.0644763931632042,
				0,
				0,
				0.9979192614555359
			],
			"translation":[
				0,
				0.1522194743156433,
				-1.4901161193847656e-08
			]
		},
		{
			"name":"toe.L",
			"rotation":[
				-0.021450378000736237,
				-0.9996286034584045,
				-0.007143741473555565,
				0.015217073261737823
			],
			"scale":[
				1,
				0.9999995231628418,
				0.9999999403953552
			],
			"translation":[
				2.1100277081131935e-10,
				0.18002331256866455,
				4.716298462881241e-10
			]
		},
		{
			"children":[
				37
			],
			"name":"foot.L",
			"rotation":[
				-0.674645721912384,
				-0.028654880821704865,
				0.009107201360166073,
				0.7375290393829346
			],
			"scale":[
				1,
				1,
				1.0000001192092896
			],
			"translation":[
				-2.0139850676059723e-08,
				0.5440642237663269,
				-1.894449042083579e-09
			]
		},
		{
			"children":[
				38
			],
			"name":"shin.L",
			"rotation":[
				0.03549353778362274,
				0.0013582383980974555,
				-0.017107678577303886,
				0.9992225766181946
			],
			"scale":[
				1,
				1,
				0.9999998807907104
			],
			"translation":[
				3.5774974094238132e-09,
				0.43920373916625977,
				2.6439010980539024e-09
			]
		},
		{
			"children":[
				39
			],
			"name":"thigh.L",
			"rotation":[
				0.992708146572113,
				0.010203692130744457,
				-0.001254621078260243,
				0.1201033964753151
			],
			"scale":[
				0.9999999403953552,
				0.9999999403953552,
				0.9999990463256836
			],
			"translation":[
				0.10251499712467194,
				-0.0035065049305558205,
				0.04510337486863136
			]
		},
		{
			"name":"toe.R",
			"rotation":[
				-0.021450378000736237,
				0.9996286034584045,
				0.007143741473555565,
				0.015217073261737823
			],
			"scale":[
				1,
				0.9999995231628418,
				0.9999999403953552
			],
			"translation":[
				-2.1100277081131935e-10,
				0.18002331256866455,
				4.716298462881241e-10
			]
		},
		{
			"children":[
				41
			],
			"name":"foot.R",
			"rotation":[
				-0.674645721912384,
				0.028654880821704865,
				-0.009107201360166073,
				0.7375290393829346
			],
			"scale":[
				1,
				1,
				1.0000001192092896
			],
			"translation":[
				2.0139850676059723e-08,
				0.5440642237663269,
				-1.894449042083579e-09
			]
		},
		{
			"children":[
				42
			],
			"name":"shin.R",
			"rotation":[
				0.03549353778362274,
				-0.0013582383980974555,
				0.017107678577303886,
				0.9992225766181946
			],
			"scale":[
				1,
				1,
				0.9999998807907104
			],
			"translation":[
				-3.5774974094238132e-09,
				0.43920373916625977,
				2.6439010980539024e-09
			]
		},
		{
			"children":[
				43
			],
			"name":"thigh.R",
			"rotation":[
				0.992708146572113,
				-0.010203692130744457,
				0.001254621078260243,
				0.1201033964753151
			],
			"scale":[
				0.9999999403953552,
				0.9999999403953552,
				0.9999990463256836
			],
			"translation":[
				-0.10251499712467194,
				-0.0035065049305558205,
				0.04510337486863136
			]
		},
		{
			"children":[
				36,
				40,
				44
			],
			"name":"spine",
			"rotation":[
				0.1258196234703064,
				0,
				0,
				0.9920531511306763
			],
			"scale":[
				1,
				0.9999999403953552,
				0.9999998807907104
			],
			"translation":[
				0,
				1.0098999738693237,
				-0.05519999563694
			]
		},
		{
			"mesh":0,
			"name":"Cylinder",
			"skin":0
		},
		{
			"children":[
				46,
				45
			],
			"name":"metarig",
			"scale":[
				1.4020121097564697,
				1.4020121097564697,
				1.4020121097564697
			]
		}
	],
	"materials":[
		{
			"doubleSided":true,
			"emissiveFactor":[
				1,
				1,
				1
			],
			"name":"Material",
			"pbrMetallicRoughness":{
				"baseColorFactor":[
					0,
					0,
					0,
					1
				]
			}
		}
	],
	"meshes":[
		{
			"name":"Cylinder.001",
			"primitives":[
				{
					"attributes":{
						"POSITION":0,
						"NORMAL":1,
						"TEXCOORD_0":2,
						"JOINTS_0":3,
						"JOINTS_1":4,
						"WEIGHTS_0":5,
						"WEIGHTS_1":6
					},
					"indices":7,
					"material":0
				}
			]
		}
	],
	"skins":[
		{
			"inverseBindMatrices":8,
			"joints":[
				45,
				36,
				35,
				34,
				5,
				4,
				19,
				18,
				17,
				16,
				7,
				6,
				9,
				8,
				11,
				10,
				13,
				12,
				15,
				14,
				33,
				32,
				31,
				30,
				21,
				20,
				23,
				22,
				25,
				24,
				27,
				26,
				29,
				28,
				40,
				39,
				38,
				37,
				44,
				43,
				42,
				41
			],
			"name":"metarig"
		}
	],
	"accessors":[
		{
			"bufferView":0,
			"componentType":5126,
			"count":4176,
			"max":[
				0.4740630090236664,
				2.838521718978882,
				0.29152387380599976
			],
			"min":[
				-0.4740630090236664,
				-0.05585882440209389,
				-0.2489674836397171
			],
			"type":"VEC3"
		},
		{
			"bufferView":1,
			"componentType":5126,
			"count":4176,
			"type":"VEC3"
		},
		{
			"bufferView":2,
			"componentType":5126,
			"count":4176,
			"type":"VEC2"
		},
		{
			"bufferView":3,
			"componentType":5121,
			"count":4176,
			"type":"VEC4"
		},
		{
			"bufferView":4,
			"componentType":5121,
			"count":4176,
			"type":"VEC4"
		},
		{
			"bufferView":5,
			"componentType":5126,
			"count":4176,
			"type":"VEC4"
		},
		{
			"bufferView":6,
			"componentType":5126,
			"count":4176,
			"type":"VEC4"
		},
		{
			"bufferView":7,
			"componentType":5123,
			"count":6372,
			"type":"SCALAR"
		},
		{
			"bufferView":8,
			"componentType":5126,
			"count":42,
			"type":"MAT4"
		}
	],
	"bufferViews":[
		{
			"buffer":0,
			"byteLength":50112,
			"byteOffset":0,
			"target":34962
		},
		{
			"buffer":0,
			"byteLength":50112,
			"byteOffset":50112,
			"target":34962
		},
		{
			"buffer":0,
			"byteLength":33408,
			"byteOffset":100224,
			"target":34962
		},
		{
			"buffer":0,
			"byteLength":16704,
			"byteOffset":133632,
			"target":34962
		},
		{
			"buffer":0,
			"byteLength":16704,
			"byteOffset":150336,
			"target":34962
		},
		{
			"buffer":0,
			"byteLength":66816,
			"byteOffset":167040,
			"target":34962
		},
		{
			"buffer":0,
			"byteLength":66816,
			"byteOffset":233856,
			"target":34962
		},
		{
			"buffer":0,
			"byteLength":12744,
			"byteOffset":300672,
			"target":34963
		},
		{
			"buffer":0,
			"byteLength":2688,
			"byteOffset":313416
		}
	],
	"buffers":[
		{
			"byteLength":316104,
			"uri":"EliotModel-0afa61888922fa1b32b30fb155aa7366.bin"
		}
	]
}
