{
	"asset":{
		"generator":"Khronos glTF Blender I/O v4.1.63",
		"version":"2.0"
	},
	"scene":0,
	"scenes":[
		{
			"name":"Scene",
			"nodes":[
				0,
				1
			]
		}
	],
	"nodes":[
		{
			"mesh":0,
			"name":"garbage_bag_1"
		},
		{
			"mesh":1,
			"name":"garbage_bag_2",
			"translation":[
				3.72530198097229,
				0,
				0
			]
		}
	],
	"materials":[
		{
			"alphaCutoff":0.5,
			"alphaMode":"MASK",
			"doubleSided":true,
			"name":"garbage_bag",
			"pbrMetallicRoughness":{
				"baseColorTexture":{
					"index":0
				},
				"metallicFactor":0,
				"roughnessFactor":0.5
			}
		}
	],
	"meshes":[
		{
			"name":"Cube",
			"primitives":[
				{
					"attributes":{
						"POSITION":0,
						"NORMAL":1,
						"TEXCOORD_0":2,
						"TANGENT":3
					},
					"indices":4,
					"material":0
				}
			]
		},
		{
			"name":"Cube.001",
			"primitives":[
				{
					"attributes":{
						"POSITION":5,
						"NORMAL":6,
						"TEXCOORD_0":7,
						"TANGENT":8
					},
					"indices":4,
					"material":0
				}
			]
		}
	],
	"textures":[
		{
			"sampler":0,
			"source":0
		}
	],
	"images":[
		{
			"mimeType":"image/png",
			"name":"garbage_bag",
			"uri":"../../Models/-%20Classic%2064%20Asset%20Pack%200.6/Misc/Materials/garbage_bag_full.png"
		}
	],
	"accessors":[
		{
			"bufferView":0,
			"componentType":5126,
			"count":83,
			"max":[
				1.0841537714004517,
				2.328822374343872,
				1.2146974802017212
			],
			"min":[
				-1.7432096004486084,
				-0.9411777853965759,
				-1.0960155725479126
			],
			"type":"VEC3"
		},
		{
			"bufferView":1,
			"componentType":5126,
			"count":83,
			"type":"VEC3"
		},
		{
			"bufferView":2,
			"componentType":5126,
			"count":83,
			"type":"VEC2"
		},
		{
			"bufferView":3,
			"componentType":5126,
			"count":83,
			"type":"VEC4"
		},
		{
			"bufferView":4,
			"componentType":5123,
			"count":216,
			"type":"SCALAR"
		},
		{
			"bufferView":5,
			"componentType":5126,
			"count":83,
			"max":[
				0.9207435846328735,
				1.5617910623550415,
				1.375461220741272
			],
			"min":[
				-1.571293830871582,
				-0.9411777853965759,
				-0.7701409459114075
			],
			"type":"VEC3"
		},
		{
			"bufferView":6,
			"componentType":5126,
			"count":83,
			"type":"VEC3"
		},
		{
			"bufferView":7,
			"componentType":5126,
			"count":83,
			"type":"VEC2"
		},
		{
			"bufferView":8,
			"componentType":5126,
			"count":83,
			"type":"VEC4"
		}
	],
	"bufferViews":[
		{
			"buffer":0,
			"byteLength":996,
			"byteOffset":0,
			"target":34962
		},
		{
			"buffer":0,
			"byteLength":996,
			"byteOffset":996,
			"target":34962
		},
		{
			"buffer":0,
			"byteLength":664,
			"byteOffset":1992,
			"target":34962
		},
		{
			"buffer":0,
			"byteLength":1328,
			"byteOffset":2656,
			"target":34962
		},
		{
			"buffer":0,
			"byteLength":432,
			"byteOffset":3984,
			"target":34963
		},
		{
			"buffer":0,
			"byteLength":996,
			"byteOffset":4416,
			"target":34962
		},
		{
			"buffer":0,
			"byteLength":996,
			"byteOffset":5412,
			"target":34962
		},
		{
			"buffer":0,
			"byteLength":664,
			"byteOffset":6408,
			"target":34962
		},
		{
			"buffer":0,
			"byteLength":1328,
			"byteOffset":7072,
			"target":34962
		}
	],
	"samplers":[
		{
			"magFilter":9728,
			"minFilter":9984
		}
	],
	"buffers":[
		{
			"byteLength":8400,
			"uri":"Garbage%20Bag-a0997094990a551c6c70c95201e930b7.bin"
		}
	]
}
