{
	"asset":{
		"generator":"Khronos glTF Blender I/O v4.1.63",
		"version":"2.0"
	},
	"scene":0,
	"scenes":[
		{
			"name":"Scene",
			"nodes":[
				0,
				1,
				2
			]
		}
	],
	"nodes":[
		{
			"mesh":0,
			"name":"Gen01",
			"scale":[
				1.5286370515823364,
				1.213760256767273,
				1
			]
		},
		{
			"mesh":1,
			"name":"Gen02",
			"rotation":[
				-0.7071068286895752,
				0,
				0,
				0.7071068286895752
			],
			"scale":[
				0.8005509376525879,
				0.8005509376525879,
				0.8005509376525879
			],
			"translation":[
				0,
				-0.004051307216286659,
				-1.800550937652588
			]
		},
		{
			"mesh":2,
			"name":"Gen03",
			"scale":[
				1.025800347328186,
				1,
				2.698939800262451
			],
			"translation":[
				0.0024208277463912964,
				0,
				-6.211977005004883
			]
		}
	],
	"materials":[
		{
			"doubleSided":true,
			"name":"Gen01",
			"pbrMetallicRoughness":{
				"metallicFactor":0,
				"roughnessFactor":0.5
			}
		},
		{
			"doubleSided":true,
			"name":"Gen02",
			"pbrMetallicRoughness":{
				"metallicFactor":0,
				"roughnessFactor":0.5
			}
		},
		{
			"doubleSided":true,
			"name":"Gen03",
			"pbrMetallicRoughness":{
				"metallicFactor":0,
				"roughnessFactor":0.5
			}
		}
	],
	"meshes":[
		{
			"name":"Cube",
			"primitives":[
				{
					"attributes":{
						"POSITION":0,
						"NORMAL":1,
						"TEXCOORD_0":2,
						"TANGENT":3
					},
					"indices":4,
					"material":0
				}
			]
		},
		{
			"name":"Cylinder",
			"primitives":[
				{
					"attributes":{
						"POSITION":5,
						"NORMAL":6,
						"TEXCOORD_0":7
					},
					"indices":8,
					"material":1
				}
			]
		},
		{
			"name":"Cube.001",
			"primitives":[
				{
					"attributes":{
						"POSITION":9,
						"NORMAL":10,
						"TEXCOORD_0":11,
						"TANGENT":12
					},
					"indices":13,
					"material":2
				}
			]
		}
	],
	"accessors":[
		{
			"bufferView":0,
			"componentType":5126,
			"count":80,
			"max":[
				1,
				1.7782005071640015,
				1
			],
			"min":[
				-1,
				-1,
				-1
			],
			"type":"VEC3"
		},
		{
			"bufferView":1,
			"componentType":5126,
			"count":80,
			"type":"VEC3"
		},
		{
			"bufferView":2,
			"componentType":5126,
			"count":80,
			"type":"VEC2"
		},
		{
			"bufferView":3,
			"componentType":5126,
			"count":80,
			"type":"VEC4"
		},
		{
			"bufferView":4,
			"componentType":5123,
			"count":120,
			"type":"SCALAR"
		},
		{
			"bufferView":5,
			"componentType":5126,
			"count":516,
			"max":[
				1.2273567914962769,
				2.139134407043457,
				1.169859766960144
			],
			"min":[
				-1.2273569107055664,
				-1,
				-1.1698596477508545
			],
			"type":"VEC3"
		},
		{
			"bufferView":6,
			"componentType":5126,
			"count":516,
			"type":"VEC3"
		},
		{
			"bufferView":7,
			"componentType":5126,
			"count":516,
			"type":"VEC2"
		},
		{
			"bufferView":8,
			"componentType":5123,
			"count":810,
			"type":"SCALAR"
		},
		{
			"bufferView":9,
			"componentType":5126,
			"count":200,
			"max":[
				1,
				1.0395337343215942,
				1
			],
			"min":[
				-1,
				-1.6116528511047363,
				-1
			],
			"type":"VEC3"
		},
		{
			"bufferView":10,
			"componentType":5126,
			"count":200,
			"type":"VEC3"
		},
		{
			"bufferView":11,
			"componentType":5126,
			"count":200,
			"type":"VEC2"
		},
		{
			"bufferView":12,
			"componentType":5126,
			"count":200,
			"type":"VEC4"
		},
		{
			"bufferView":13,
			"componentType":5123,
			"count":300,
			"type":"SCALAR"
		}
	],
	"bufferViews":[
		{
			"buffer":0,
			"byteLength":960,
			"byteOffset":0,
			"target":34962
		},
		{
			"buffer":0,
			"byteLength":960,
			"byteOffset":960,
			"target":34962
		},
		{
			"buffer":0,
			"byteLength":640,
			"byteOffset":1920,
			"target":34962
		},
		{
			"buffer":0,
			"byteLength":1280,
			"byteOffset":2560,
			"target":34962
		},
		{
			"buffer":0,
			"byteLength":240,
			"byteOffset":3840,
			"target":34963
		},
		{
			"buffer":0,
			"byteLength":6192,
			"byteOffset":4080,
			"target":34962
		},
		{
			"buffer":0,
			"byteLength":6192,
			"byteOffset":10272,
			"target":34962
		},
		{
			"buffer":0,
			"byteLength":4128,
			"byteOffset":16464,
			"target":34962
		},
		{
			"buffer":0,
			"byteLength":1620,
			"byteOffset":20592,
			"target":34963
		},
		{
			"buffer":0,
			"byteLength":2400,
			"byteOffset":22212,
			"target":34962
		},
		{
			"buffer":0,
			"byteLength":2400,
			"byteOffset":24612,
			"target":34962
		},
		{
			"buffer":0,
			"byteLength":1600,
			"byteOffset":27012,
			"target":34962
		},
		{
			"buffer":0,
			"byteLength":3200,
			"byteOffset":28612,
			"target":34962
		},
		{
			"buffer":0,
			"byteLength":600,
			"byteOffset":31812,
			"target":34963
		}
	],
	"buffers":[
		{
			"byteLength":32412,
			"uri":"generator_02%20%28unfinished%29-6b254177bcf1c3db43adaff8528a217c.bin"
		}
	]
}
