{
	"asset":{
		"generator":"Khronos glTF Blender I/O v4.1.63",
		"version":"2.0"
	},
	"scene":0,
	"scenes":[
		{
			"name":"Scene",
			"nodes":[
				0
			]
		}
	],
	"nodes":[
		{
			"mesh":0,
			"name":"generator"
		}
	],
	"materials":[
		{
			"doubleSided":true,
			"name":"generator",
			"pbrMetallicRoughness":{}
		}
	],
	"meshes":[
		{
			"name":"Cube",
			"primitives":[
				{
					"attributes":{
						"POSITION":0,
						"NORMAL":1,
						"TEXCOORD_0":2,
						"TANGENT":3
					},
					"indices":4,
					"material":0
				}
			]
		}
	],
	"accessors":[
		{
			"bufferView":0,
			"componentType":5126,
			"count":52,
			"max":[
				1.1430000066757202,
				0.6096000075340271,
				0.5334000587463379
			],
			"min":[
				-1.1430000066757202,
				-0.6081414222717285,
				-0.5333999395370483
			],
			"type":"VEC3"
		},
		{
			"bufferView":1,
			"componentType":5126,
			"count":52,
			"type":"VEC3"
		},
		{
			"bufferView":2,
			"componentType":5126,
			"count":52,
			"type":"VEC2"
		},
		{
			"bufferView":3,
			"componentType":5126,
			"count":52,
			"type":"VEC4"
		},
		{
			"bufferView":4,
			"componentType":5123,
			"count":78,
			"type":"SCALAR"
		}
	],
	"bufferViews":[
		{
			"buffer":0,
			"byteLength":624,
			"byteOffset":0,
			"target":34962
		},
		{
			"buffer":0,
			"byteLength":624,
			"byteOffset":624,
			"target":34962
		},
		{
			"buffer":0,
			"byteLength":416,
			"byteOffset":1248,
			"target":34962
		},
		{
			"buffer":0,
			"byteLength":832,
			"byteOffset":1664,
			"target":34962
		},
		{
			"buffer":0,
			"byteLength":156,
			"byteOffset":2496,
			"target":34963
		}
	],
	"buffers":[
		{
			"byteLength":2652,
			"uri":"generator-82ba8234083dbb94c4fa4857cf392d04.bin"
		}
	]
}
