{
	"asset":{
		"generator":"Khronos glTF Blender I/O v4.1.63",
		"version":"2.0"
	},
	"scene":0,
	"scenes":[
		{
			"name":"Scene",
			"nodes":[
				0,
				1,
				2
			]
		}
	],
	"nodes":[
		{
			"name":"Guardrail_Curve",
			"scale":[
				28.797969818115234,
				28.797969818115234,
				28.797969818115234
			],
			"translation":[
				-1.716613531112671,
				0.9527013301849365,
				22.827274322509766
			]
		},
		{
			"mesh":0,
			"name":"Guardrail"
		},
		{
			"mesh":1,
			"name":"Guardrail_Example",
			"translation":[
				1.2315105199813843,
				0,
				21.997928619384766
			]
		}
	],
	"materials":[
		{
			"doubleSided":true,
			"name":"Guardrail.001",
			"pbrMetallicRoughness":{
				"baseColorTexture":{
					"index":0
				},
				"metallicFactor":0,
				"roughnessFactor":0.4000000059604645
			}
		},
		{
			"doubleSided":true,
			"name":"Guardrail",
			"pbrMetallicRoughness":{
				"baseColorTexture":{
					"index":1
				},
				"metallicFactor":0,
				"roughnessFactor":0.4000000059604645
			}
		}
	],
	"meshes":[
		{
			"name":"Cube.001",
			"primitives":[
				{
					"attributes":{
						"POSITION":0,
						"NORMAL":1,
						"TEXCOORD_0":2
					},
					"indices":3,
					"material":0
				},
				{
					"attributes":{
						"POSITION":4,
						"NORMAL":5,
						"TEXCOORD_0":6
					},
					"indices":7,
					"material":1
				}
			]
		},
		{
			"name":"Cube.002",
			"primitives":[
				{
					"attributes":{
						"POSITION":8,
						"NORMAL":9,
						"TEXCOORD_0":10
					},
					"indices":11,
					"material":0
				},
				{
					"attributes":{
						"POSITION":12,
						"NORMAL":13,
						"TEXCOORD_0":14
					},
					"indices":15,
					"material":1
				}
			]
		}
	],
	"textures":[
		{
			"sampler":0,
			"source":0
		},
		{
			"sampler":0,
			"source":1
		}
	],
	"images":[
		{
			"mimeType":"image/png",
			"name":"metal_galvanized_silver.png",
			"uri":"../../Models/-%20Classic%2064%20Asset%20Pack%200.6/Industrial/textures/metal_galvanized_silver.png"
		},
		{
			"mimeType":"image/png",
			"name":"guard_rail.png",
			"uri":"../../Models/-%20Classic%2064%20Asset%20Pack%200.6/Industrial/textures/guard_rail.png"
		}
	],
	"accessors":[
		{
			"bufferView":0,
			"componentType":5126,
			"count":188,
			"max":[
				-1.6446284055709839,
				1.3504892587661743,
				0.24759051203727722
			],
			"min":[
				-2.236354112625122,
				-2.8067686557769775,
				-0.7668905258178711
			],
			"type":"VEC3"
		},
		{
			"bufferView":1,
			"componentType":5126,
			"count":188,
			"type":"VEC3"
		},
		{
			"bufferView":2,
			"componentType":5126,
			"count":188,
			"type":"VEC2"
		},
		{
			"bufferView":3,
			"componentType":5123,
			"count":294,
			"type":"SCALAR"
		},
		{
			"bufferView":4,
			"componentType":5126,
			"count":144,
			"max":[
				6.387593746185303,
				1.1756553649902344,
				0.2900691628456116
			],
			"min":[
				-2.274536371231079,
				-0.8243446946144104,
				-0.24067607522010803
			],
			"type":"VEC3"
		},
		{
			"bufferView":5,
			"componentType":5126,
			"count":144,
			"type":"VEC3"
		},
		{
			"bufferView":6,
			"componentType":5126,
			"count":144,
			"type":"VEC2"
		},
		{
			"bufferView":7,
			"componentType":5123,
			"count":348,
			"type":"SCALAR"
		},
		{
			"bufferView":8,
			"componentType":5126,
			"count":3008,
			"max":[
				56.24850082397461,
				1.3504893779754639,
				73.73961639404297
			],
			"min":[
				-31.033655166625977,
				-2.806769609451294,
				-0.7664157152175903
			],
			"type":"VEC3"
		},
		{
			"bufferView":9,
			"componentType":5126,
			"count":3008,
			"type":"VEC3"
		},
		{
			"bufferView":10,
			"componentType":5126,
			"count":3008,
			"type":"VEC2"
		},
		{
			"bufferView":11,
			"componentType":5123,
			"count":4704,
			"type":"SCALAR"
		},
		{
			"bufferView":12,
			"componentType":5126,
			"count":3232,
			"max":[
				55.838993072509766,
				1.175655484199524,
				81.7663803100586
			],
			"min":[
				-31.072139739990234,
				-0.8243452310562134,
				-0.2402266263961792
			],
			"type":"VEC3"
		},
		{
			"bufferView":13,
			"componentType":5126,
			"count":3232,
			"type":"VEC3"
		},
		{
			"bufferView":14,
			"componentType":5126,
			"count":3232,
			"type":"VEC2"
		},
		{
			"bufferView":15,
			"componentType":5123,
			"count":5568,
			"type":"SCALAR"
		}
	],
	"bufferViews":[
		{
			"buffer":0,
			"byteLength":2256,
			"byteOffset":0,
			"target":34962
		},
		{
			"buffer":0,
			"byteLength":2256,
			"byteOffset":2256,
			"target":34962
		},
		{
			"buffer":0,
			"byteLength":1504,
			"byteOffset":4512,
			"target":34962
		},
		{
			"buffer":0,
			"byteLength":588,
			"byteOffset":6016,
			"target":34963
		},
		{
			"buffer":0,
			"byteLength":1728,
			"byteOffset":6604,
			"target":34962
		},
		{
			"buffer":0,
			"byteLength":1728,
			"byteOffset":8332,
			"target":34962
		},
		{
			"buffer":0,
			"byteLength":1152,
			"byteOffset":10060,
			"target":34962
		},
		{
			"buffer":0,
			"byteLength":696,
			"byteOffset":11212,
			"target":34963
		},
		{
			"buffer":0,
			"byteLength":36096,
			"byteOffset":11908,
			"target":34962
		},
		{
			"buffer":0,
			"byteLength":36096,
			"byteOffset":48004,
			"target":34962
		},
		{
			"buffer":0,
			"byteLength":24064,
			"byteOffset":84100,
			"target":34962
		},
		{
			"buffer":0,
			"byteLength":9408,
			"byteOffset":108164,
			"target":34963
		},
		{
			"buffer":0,
			"byteLength":38784,
			"byteOffset":117572,
			"target":34962
		},
		{
			"buffer":0,
			"byteLength":38784,
			"byteOffset":156356,
			"target":34962
		},
		{
			"buffer":0,
			"byteLength":25856,
			"byteOffset":195140,
			"target":34962
		},
		{
			"buffer":0,
			"byteLength":11136,
			"byteOffset":220996,
			"target":34963
		}
	],
	"samplers":[
		{
			"magFilter":9728,
			"minFilter":9984
		}
	],
	"buffers":[
		{
			"byteLength":232132,
			"uri":"guard_rail-677d006b6f2d2293fe4bef32e06206fa.bin"
		}
	]
}
