{
	"asset":{
		"generator":"Khronos glTF Blender I/O v4.1.63",
		"version":"2.0"
	},
	"scene":0,
	"scenes":[
		{
			"name":"Scene",
			"nodes":[
				2
			]
		}
	],
	"nodes":[
		{
			"mesh":0,
			"name":"metal_rack_stackable_rack"
		},
		{
			"children":[
				0
			],
			"mesh":1,
			"name":"metal_rack_stackable_shelf"
		},
		{
			"children":[
				1
			],
			"mesh":2,
			"name":"metal_rack_stackable",
			"translation":[
				0.00948873907327652,
				0.0583476647734642,
				-0.028538301587104797
			]
		}
	],
	"materials":[
		{
			"doubleSided":true,
			"name":"metal_rack_stackable",
			"pbrMetallicRoughness":{}
		}
	],
	"meshes":[
		{
			"name":"Plane",
			"primitives":[
				{
					"attributes":{
						"POSITION":0,
						"NORMAL":1,
						"TEXCOORD_0":2,
						"TANGENT":3
					},
					"indices":4,
					"material":0
				}
			]
		},
		{
			"name":"Cylinder.007",
			"primitives":[
				{
					"attributes":{
						"POSITION":5,
						"NORMAL":6,
						"TEXCOORD_0":7
					},
					"indices":8,
					"material":0
				}
			]
		},
		{
			"name":"Cylinder.016",
			"primitives":[
				{
					"attributes":{
						"POSITION":9,
						"NORMAL":10,
						"TEXCOORD_0":11
					},
					"indices":12,
					"material":0
				}
			]
		}
	],
	"accessors":[
		{
			"bufferView":0,
			"componentType":5126,
			"count":4,
			"max":[
				0.7052798867225647,
				0,
				0.2655654549598694
			],
			"min":[
				-0.7052798867225647,
				0,
				-0.2655654549598694
			],
			"type":"VEC3"
		},
		{
			"bufferView":1,
			"componentType":5126,
			"count":4,
			"type":"VEC3"
		},
		{
			"bufferView":2,
			"componentType":5126,
			"count":4,
			"type":"VEC2"
		},
		{
			"bufferView":3,
			"componentType":5126,
			"count":4,
			"type":"VEC4"
		},
		{
			"bufferView":4,
			"componentType":5123,
			"count":6,
			"type":"SCALAR"
		},
		{
			"bufferView":5,
			"componentType":5126,
			"count":184,
			"max":[
				0.7213555574417114,
				0.025861656293272972,
				0.2933870553970337
			],
			"min":[
				-0.7297520637512207,
				-0.025923391804099083,
				-0.29363271594047546
			],
			"type":"VEC3"
		},
		{
			"bufferView":6,
			"componentType":5126,
			"count":184,
			"type":"VEC3"
		},
		{
			"bufferView":7,
			"componentType":5126,
			"count":184,
			"type":"VEC2"
		},
		{
			"bufferView":8,
			"componentType":5123,
			"count":432,
			"type":"SCALAR"
		},
		{
			"bufferView":9,
			"componentType":5126,
			"count":224,
			"max":[
				0.7254680395126343,
				0.6252152919769287,
				0.2930099368095398
			],
			"min":[
				-0.7256394624710083,
				-0.4415847361087799,
				-0.29400983452796936
			],
			"type":"VEC3"
		},
		{
			"bufferView":10,
			"componentType":5126,
			"count":224,
			"type":"VEC3"
		},
		{
			"bufferView":11,
			"componentType":5126,
			"count":224,
			"type":"VEC2"
		},
		{
			"bufferView":12,
			"componentType":5123,
			"count":432,
			"type":"SCALAR"
		}
	],
	"bufferViews":[
		{
			"buffer":0,
			"byteLength":48,
			"byteOffset":0,
			"target":34962
		},
		{
			"buffer":0,
			"byteLength":48,
			"byteOffset":48,
			"target":34962
		},
		{
			"buffer":0,
			"byteLength":32,
			"byteOffset":96,
			"target":34962
		},
		{
			"buffer":0,
			"byteLength":64,
			"byteOffset":128,
			"target":34962
		},
		{
			"buffer":0,
			"byteLength":12,
			"byteOffset":192,
			"target":34963
		},
		{
			"buffer":0,
			"byteLength":2208,
			"byteOffset":204,
			"target":34962
		},
		{
			"buffer":0,
			"byteLength":2208,
			"byteOffset":2412,
			"target":34962
		},
		{
			"buffer":0,
			"byteLength":1472,
			"byteOffset":4620,
			"target":34962
		},
		{
			"buffer":0,
			"byteLength":864,
			"byteOffset":6092,
			"target":34963
		},
		{
			"buffer":0,
			"byteLength":2688,
			"byteOffset":6956,
			"target":34962
		},
		{
			"buffer":0,
			"byteLength":2688,
			"byteOffset":9644,
			"target":34962
		},
		{
			"buffer":0,
			"byteLength":1792,
			"byteOffset":12332,
			"target":34962
		},
		{
			"buffer":0,
			"byteLength":864,
			"byteOffset":14124,
			"target":34963
		}
	],
	"buffers":[
		{
			"byteLength":14988,
			"uri":"metal_rack_stackable-7ff4eada3d72602cfec0cfd18bf1fdb2.bin"
		}
	]
}
