{
	"asset":{
		"generator":"Khronos glTF Blender I/O v4.1.63",
		"version":"2.0"
	},
	"scene":0,
	"scenes":[
		{
			"name":"Scene",
			"nodes":[
				1
			]
		}
	],
	"nodes":[
		{
			"mesh":0,
			"name":"Electrical_Panel_Door",
			"translation":[
				0,
				0,
				0.05702117085456848
			]
		},
		{
			"children":[
				0
			],
			"mesh":1,
			"name":"Electrical_Panel"
		}
	],
	"materials":[
		{
			"doubleSided":true,
			"name":"Electrical_Panel_Door_B",
			"pbrMetallicRoughness":{}
		},
		{
			"doubleSided":true,
			"name":"Electrical_Panel",
			"pbrMetallicRoughness":{}
		}
	],
	"meshes":[
		{
			"name":"Cube.002",
			"primitives":[
				{
					"attributes":{
						"POSITION":0,
						"NORMAL":1,
						"TEXCOORD_0":2,
						"TANGENT":3
					},
					"indices":4,
					"material":0
				}
			]
		},
		{
			"name":"Cube",
			"primitives":[
				{
					"attributes":{
						"POSITION":5,
						"NORMAL":6,
						"TEXCOORD_0":7,
						"TANGENT":8
					},
					"indices":9,
					"material":1
				}
			]
		}
	],
	"accessors":[
		{
			"bufferView":0,
			"componentType":5126,
			"count":4,
			"max":[
				0.09143997728824615,
				0.22860001027584076,
				0.0039388202130794525
			],
			"min":[
				-0.09143996238708496,
				-0.22859999537467957,
				0.0039387717843055725
			],
			"type":"VEC3"
		},
		{
			"bufferView":1,
			"componentType":5126,
			"count":4,
			"type":"VEC3"
		},
		{
			"bufferView":2,
			"componentType":5126,
			"count":4,
			"type":"VEC2"
		},
		{
			"bufferView":3,
			"componentType":5126,
			"count":4,
			"type":"VEC4"
		},
		{
			"bufferView":4,
			"componentType":5123,
			"count":6,
			"type":"SCALAR"
		},
		{
			"bufferView":5,
			"componentType":5126,
			"count":20,
			"max":[
				0.09143999963998795,
				0.22860001027584076,
				0.06095999479293823
			],
			"min":[
				-0.09143998473882675,
				-0.22860001027584076,
				-0.04064000025391579
			],
			"type":"VEC3"
		},
		{
			"bufferView":6,
			"componentType":5126,
			"count":20,
			"type":"VEC3"
		},
		{
			"bufferView":7,
			"componentType":5126,
			"count":20,
			"type":"VEC2"
		},
		{
			"bufferView":8,
			"componentType":5126,
			"count":20,
			"type":"VEC4"
		},
		{
			"bufferView":9,
			"componentType":5123,
			"count":30,
			"type":"SCALAR"
		}
	],
	"bufferViews":[
		{
			"buffer":0,
			"byteLength":48,
			"byteOffset":0,
			"target":34962
		},
		{
			"buffer":0,
			"byteLength":48,
			"byteOffset":48,
			"target":34962
		},
		{
			"buffer":0,
			"byteLength":32,
			"byteOffset":96,
			"target":34962
		},
		{
			"buffer":0,
			"byteLength":64,
			"byteOffset":128,
			"target":34962
		},
		{
			"buffer":0,
			"byteLength":12,
			"byteOffset":192,
			"target":34963
		},
		{
			"buffer":0,
			"byteLength":240,
			"byteOffset":204,
			"target":34962
		},
		{
			"buffer":0,
			"byteLength":240,
			"byteOffset":444,
			"target":34962
		},
		{
			"buffer":0,
			"byteLength":160,
			"byteOffset":684,
			"target":34962
		},
		{
			"buffer":0,
			"byteLength":320,
			"byteOffset":844,
			"target":34962
		},
		{
			"buffer":0,
			"byteLength":60,
			"byteOffset":1164,
			"target":34963
		}
	],
	"buffers":[
		{
			"byteLength":1224,
			"uri":"panel_electrical_closed-8a127e9014a0366b75aad952b249656e.bin"
		}
	]
}
