{
	"asset":{
		"generator":"Khronos glTF Blender I/O v4.1.63",
		"version":"2.0"
	},
	"scene":0,
	"scenes":[
		{
			"name":"Scene",
			"nodes":[
				2
			]
		}
	],
	"nodes":[
		{
			"mesh":0,
			"name":"Electrical_Panel_Door",
			"translation":[
				0.08723694086074829,
				0.22861361503601074,
				0.06554390490055084
			]
		},
		{
			"mesh":1,
			"name":"Electrical_Panel_Inside",
			"translation":[
				0,
				0,
				0.05702117085456848
			]
		},
		{
			"children":[
				0,
				1
			],
			"mesh":2,
			"name":"Electrical_Panel",
			"translation":[
				0,
				0,
				-0.010159991681575775
			]
		}
	],
	"materials":[
		{
			"doubleSided":true,
			"name":"Electrical_Panel_Door_B",
			"pbrMetallicRoughness":{}
		},
		{
			"doubleSided":true,
			"name":"Electrical_Panel_Door_A",
			"pbrMetallicRoughness":{}
		},
		{
			"doubleSided":true,
			"name":"Electrical_Panel_Inside",
			"pbrMetallicRoughness":{}
		},
		{
			"doubleSided":true,
			"name":"Electrical_Panel",
			"pbrMetallicRoughness":{}
		}
	],
	"meshes":[
		{
			"name":"Cube.001",
			"primitives":[
				{
					"attributes":{
						"POSITION":0,
						"NORMAL":1,
						"TEXCOORD_0":2,
						"TANGENT":3
					},
					"indices":4,
					"material":0
				},
				{
					"attributes":{
						"POSITION":5,
						"NORMAL":6,
						"TEXCOORD_0":7,
						"TANGENT":8
					},
					"indices":9,
					"material":1
				}
			]
		},
		{
			"name":"Cube.002",
			"primitives":[
				{
					"attributes":{
						"POSITION":10,
						"NORMAL":11,
						"TEXCOORD_0":12,
						"TANGENT":13
					},
					"indices":14,
					"material":2
				}
			]
		},
		{
			"name":"Cube",
			"primitives":[
				{
					"attributes":{
						"POSITION":15,
						"NORMAL":16,
						"TEXCOORD_0":17,
						"TANGENT":18
					},
					"indices":19,
					"material":3
				}
			]
		}
	],
	"accessors":[
		{
			"bufferView":0,
			"componentType":5126,
			"count":20,
			"max":[
				0.13936400413513184,
				-1.3598370969702955e-05,
				0.11889570951461792
			],
			"min":[
				-0.006169375963509083,
				-0.4572136402130127,
				-0.006200084462761879
			],
			"type":"VEC3"
		},
		{
			"bufferView":1,
			"componentType":5126,
			"count":20,
			"type":"VEC3"
		},
		{
			"bufferView":2,
			"componentType":5126,
			"count":20,
			"type":"VEC2"
		},
		{
			"bufferView":3,
			"componentType":5126,
			"count":20,
			"type":"VEC4"
		},
		{
			"bufferView":4,
			"componentType":5123,
			"count":30,
			"type":"SCALAR"
		},
		{
			"bufferView":5,
			"componentType":5126,
			"count":4,
			"max":[
				0.1334550529718399,
				-1.3598370969702955e-05,
				0.11889570951461792
			],
			"min":[
				-0.006169375963509083,
				-0.4572136402130127,
				0.0007851987611502409
			],
			"type":"VEC3"
		},
		{
			"bufferView":6,
			"componentType":5126,
			"count":4,
			"type":"VEC3"
		},
		{
			"bufferView":7,
			"componentType":5126,
			"count":4,
			"type":"VEC2"
		},
		{
			"bufferView":8,
			"componentType":5126,
			"count":4,
			"type":"VEC4"
		},
		{
			"bufferView":9,
			"componentType":5123,
			"count":6,
			"type":"SCALAR"
		},
		{
			"bufferView":10,
			"componentType":5126,
			"count":36,
			"max":[
				0.09143997728824615,
				0.22860001027584076,
				0.0039388202130794525
			],
			"min":[
				-0.09143996238708496,
				-0.22859999537467957,
				-0.01205935887992382
			],
			"type":"VEC3"
		},
		{
			"bufferView":11,
			"componentType":5126,
			"count":36,
			"type":"VEC3"
		},
		{
			"bufferView":12,
			"componentType":5126,
			"count":36,
			"type":"VEC2"
		},
		{
			"bufferView":13,
			"componentType":5126,
			"count":36,
			"type":"VEC4"
		},
		{
			"bufferView":14,
			"componentType":5123,
			"count":54,
			"type":"SCALAR"
		},
		{
			"bufferView":15,
			"componentType":5126,
			"count":20,
			"max":[
				0.09143999963998795,
				0.22860001027584076,
				0.06095999479293823
			],
			"min":[
				-0.09143998473882675,
				-0.22860001027584076,
				-0.04064000025391579
			],
			"type":"VEC3"
		},
		{
			"bufferView":16,
			"componentType":5126,
			"count":20,
			"type":"VEC3"
		},
		{
			"bufferView":17,
			"componentType":5126,
			"count":20,
			"type":"VEC2"
		},
		{
			"bufferView":18,
			"componentType":5126,
			"count":20,
			"type":"VEC4"
		},
		{
			"bufferView":19,
			"componentType":5123,
			"count":30,
			"type":"SCALAR"
		}
	],
	"bufferViews":[
		{
			"buffer":0,
			"byteLength":240,
			"byteOffset":0,
			"target":34962
		},
		{
			"buffer":0,
			"byteLength":240,
			"byteOffset":240,
			"target":34962
		},
		{
			"buffer":0,
			"byteLength":160,
			"byteOffset":480,
			"target":34962
		},
		{
			"buffer":0,
			"byteLength":320,
			"byteOffset":640,
			"target":34962
		},
		{
			"buffer":0,
			"byteLength":60,
			"byteOffset":960,
			"target":34963
		},
		{
			"buffer":0,
			"byteLength":48,
			"byteOffset":1020,
			"target":34962
		},
		{
			"buffer":0,
			"byteLength":48,
			"byteOffset":1068,
			"target":34962
		},
		{
			"buffer":0,
			"byteLength":32,
			"byteOffset":1116,
			"target":34962
		},
		{
			"buffer":0,
			"byteLength":64,
			"byteOffset":1148,
			"target":34962
		},
		{
			"buffer":0,
			"byteLength":12,
			"byteOffset":1212,
			"target":34963
		},
		{
			"buffer":0,
			"byteLength":432,
			"byteOffset":1224,
			"target":34962
		},
		{
			"buffer":0,
			"byteLength":432,
			"byteOffset":1656,
			"target":34962
		},
		{
			"buffer":0,
			"byteLength":288,
			"byteOffset":2088,
			"target":34962
		},
		{
			"buffer":0,
			"byteLength":576,
			"byteOffset":2376,
			"target":34962
		},
		{
			"buffer":0,
			"byteLength":108,
			"byteOffset":2952,
			"target":34963
		},
		{
			"buffer":0,
			"byteLength":240,
			"byteOffset":3060,
			"target":34962
		},
		{
			"buffer":0,
			"byteLength":240,
			"byteOffset":3300,
			"target":34962
		},
		{
			"buffer":0,
			"byteLength":160,
			"byteOffset":3540,
			"target":34962
		},
		{
			"buffer":0,
			"byteLength":320,
			"byteOffset":3700,
			"target":34962
		},
		{
			"buffer":0,
			"byteLength":60,
			"byteOffset":4020,
			"target":34963
		}
	],
	"buffers":[
		{
			"byteLength":4080,
			"uri":"panel_electrical_open-ed6262f7494933f61d5c4c564cfbc647.bin"
		}
	]
}
