{
	"asset":{
		"generator":"Khronos glTF Blender I/O v4.1.63",
		"version":"2.0"
	},
	"scene":0,
	"scenes":[
		{
			"name":"Scene",
			"nodes":[
				0,
				1
			]
		}
	],
	"nodes":[
		{
			"mesh":0,
			"name":"panel_electric"
		},
		{
			"mesh":1,
			"name":"panel_electric_handle",
			"translation":[
				0.2099507600069046,
				0.06268049031496048,
				-0.00987220462411642
			]
		}
	],
	"materials":[
		{
			"doubleSided":true,
			"name":"panel_electric",
			"pbrMetallicRoughness":{}
		}
	],
	"meshes":[
		{
			"name":"Cube",
			"primitives":[
				{
					"attributes":{
						"POSITION":0,
						"NORMAL":1,
						"TEXCOORD_0":2,
						"TANGENT":3
					},
					"indices":4,
					"material":0
				}
			]
		},
		{
			"name":"Cube.001",
			"primitives":[
				{
					"attributes":{
						"POSITION":5,
						"NORMAL":6,
						"TEXCOORD_0":7,
						"TANGENT":8
					},
					"indices":9,
					"material":0
				}
			]
		}
	],
	"accessors":[
		{
			"bufferView":0,
			"componentType":5126,
			"count":88,
			"max":[
				0.2055053561925888,
				0.42671999335289,
				0.14332808554172516
			],
			"min":[
				-0.2055053561925888,
				-0.42671999335289,
				-0.100275918841362
			],
			"type":"VEC3"
		},
		{
			"bufferView":1,
			"componentType":5126,
			"count":88,
			"type":"VEC3"
		},
		{
			"bufferView":2,
			"componentType":5126,
			"count":88,
			"type":"VEC2"
		},
		{
			"bufferView":3,
			"componentType":5126,
			"count":88,
			"type":"VEC4"
		},
		{
			"bufferView":4,
			"componentType":5123,
			"count":204,
			"type":"SCALAR"
		},
		{
			"bufferView":5,
			"componentType":5126,
			"count":76,
			"max":[
				0.01370359305292368,
				0.35656750202178955,
				0.26230984926223755
			],
			"min":[
				-0.016568269580602646,
				-0.03232630342245102,
				-0.03381500393152237
			],
			"type":"VEC3"
		},
		{
			"bufferView":6,
			"componentType":5126,
			"count":76,
			"type":"VEC3"
		},
		{
			"bufferView":7,
			"componentType":5126,
			"count":76,
			"type":"VEC2"
		},
		{
			"bufferView":8,
			"componentType":5126,
			"count":76,
			"type":"VEC4"
		},
		{
			"bufferView":9,
			"componentType":5123,
			"count":120,
			"type":"SCALAR"
		}
	],
	"bufferViews":[
		{
			"buffer":0,
			"byteLength":1056,
			"byteOffset":0,
			"target":34962
		},
		{
			"buffer":0,
			"byteLength":1056,
			"byteOffset":1056,
			"target":34962
		},
		{
			"buffer":0,
			"byteLength":704,
			"byteOffset":2112,
			"target":34962
		},
		{
			"buffer":0,
			"byteLength":1408,
			"byteOffset":2816,
			"target":34962
		},
		{
			"buffer":0,
			"byteLength":408,
			"byteOffset":4224,
			"target":34963
		},
		{
			"buffer":0,
			"byteLength":912,
			"byteOffset":4632,
			"target":34962
		},
		{
			"buffer":0,
			"byteLength":912,
			"byteOffset":5544,
			"target":34962
		},
		{
			"buffer":0,
			"byteLength":608,
			"byteOffset":6456,
			"target":34962
		},
		{
			"buffer":0,
			"byteLength":1216,
			"byteOffset":7064,
			"target":34962
		},
		{
			"buffer":0,
			"byteLength":240,
			"byteOffset":8280,
			"target":34963
		}
	],
	"buffers":[
		{
			"byteLength":8520,
			"uri":"panel_electric-8036e38c94e8c03d1fc37afb9f5c215a.bin"
		}
	]
}
