{
	"asset":{
		"generator":"Khronos glTF Blender I/O v4.1.63",
		"version":"2.0"
	},
	"extensionsUsed":[
		"KHR_materials_specular",
		"KHR_materials_ior"
	],
	"scene":0,
	"scenes":[
		{
			"extras":{
				"sprytile_data":{
					"auto_reload":0,
					"world_pixels":32
				}
			},
			"name":"Scene",
			"nodes":[
				46
			]
		}
	],
	"nodes":[
		{
			"name":"Little4.R",
			"rotation":[
				-0.020980168133974075,
				0.00024610324180684984,
				-0.011621838435530663,
				0.999712347984314
			],
			"scale":[
				0.9999999403953552,
				0.9999998807907104,
				0.9999998807907104
			],
			"translation":[
				-1.30385160446167e-08,
				0.8415496945381165,
				1.664739102125168e-08
			]
		},
		{
			"children":[
				0
			],
			"name":"Little3.R",
			"rotation":[
				0.02024363912642002,
				0.05867980420589447,
				0.05450813099741936,
				0.9965820908546448
			],
			"scale":[
				0.9999998807907104,
				0.9999999403953552,
				0.9999998807907104
			],
			"translation":[
				-1.4901161193847656e-08,
				0.9291809797286987,
				-1.6577541828155518e-07
			]
		},
		{
			"children":[
				1
			],
			"name":"Little2.R",
			"rotation":[
				0.1502579152584076,
				-0.04671071842312813,
				-0.02602267824113369,
				0.9871998429298401
			],
			"scale":[
				0.9999998807907104,
				1.0000001192092896,
				1
			],
			"translation":[
				-3.725290298461914e-09,
				3.5194251537323,
				3.025634214282036e-07
			]
		},
		{
			"children":[
				2
			],
			"name":"Little1.R",
			"rotation":[
				-0.1338493525981903,
				-0.007532883435487747,
				-0.044233717024326324,
				0.9899854063987732
			],
			"scale":[
				1,
				0.9999999403953552,
				1
			],
			"translation":[
				-3.706302820205565e-08,
				2.3540444374084473,
				-2.4641273910219752e-08
			]
		},
		{
			"name":"Ring4.R",
			"rotation":[
				0.00808629859238863,
				-0.0004158976371400058,
				-0.0492362380027771,
				0.9987543821334839
			],
			"scale":[
				1,
				1,
				0.9999999403953552
			],
			"translation":[
				7.008202373981476e-08,
				0.9167147278785706,
				3.841705620288849e-09
			]
		},
		{
			"children":[
				4
			],
			"name":"Ring3.R",
			"rotation":[
				-0.005644096992909908,
				0.00035421730717644095,
				0.03870128095149994,
				0.9992348551750183
			],
			"scale":[
				0.9999998807907104,
				0.9999999403953552,
				0.9999999403953552
			],
			"translation":[
				-3.3760443329811096e-08,
				1.4048035144805908,
				2.0605511963367462e-08
			]
		},
		{
			"children":[
				5
			],
			"name":"Ring2.R",
			"rotation":[
				0.05870950594544411,
				0.001942765200510621,
				0.05381254851818085,
				0.9968218207359314
			],
			"scale":[
				1.0000001192092896,
				0.9999999403953552,
				0.9999999403953552
			],
			"translation":[
				7.078051567077637e-08,
				3.5337297916412354,
				-5.2619725465774536e-08
			]
		},
		{
			"children":[
				6
			],
			"name":"Ring1.R",
			"rotation":[
				-0.048326846212148666,
				-0.007801958825439215,
				-0.0608273446559906,
				0.996947169303894
			],
			"translation":[
				-3.706302820205565e-08,
				2.3540444374084473,
				-2.4641273910219752e-08
			]
		},
		{
			"name":"Middle4.R",
			"rotation":[
				-0.002350970869883895,
				9.172480349661782e-05,
				-0.04587934538722038,
				0.9989442825317383
			],
			"scale":[
				0.9999999403953552,
				0.9999998211860657,
				0.9999999403953552
			],
			"translation":[
				1.6787089407444e-07,
				0.9821141362190247,
				-4.773028194904327e-09
			]
		},
		{
			"children":[
				8
			],
			"name":"Middle3.R",
			"rotation":[
				0.0012093393597751856,
				-5.053737186244689e-05,
				0.037196576595306396,
				0.9993072748184204
			],
			"scale":[
				0.9999998807907104,
				0.9999998807907104,
				1
			],
			"translation":[
				-1.1175870895385742e-08,
				1.7001776695251465,
				1.0943040251731873e-08
			]
		},
		{
			"children":[
				9
			],
			"name":"Middle2.R",
			"rotation":[
				-0.018176903948187828,
				-0.0007082934025675058,
				0.05555305629968643,
				0.9982900023460388
			],
			"scale":[
				0.9999999403953552,
				0.9999998807907104,
				1
			],
			"translation":[
				-2.9377406463027e-07,
				3.5110104084014893,
				-5.3085386753082275e-08
			]
		},
		{
			"children":[
				10
			],
			"name":"Middle1.R",
			"rotation":[
				0.032061800360679626,
				-0.005871384404599667,
				-0.06384675949811935,
				0.9974272847175598
			],
			"scale":[
				1,
				1,
				0.9999999403953552
			],
			"translation":[
				-3.706302820205565e-08,
				2.3540444374084473,
				-2.4641273910219752e-08
			]
		},
		{
			"name":"Index4.R",
			"rotation":[
				0.004478603135794401,
				-0.000270379357971251,
				-0.054680317640304565,
				0.9984938502311707
			],
			"scale":[
				1,
				1,
				0.9999999403953552
			],
			"translation":[
				2.491287887096405e-07,
				0.8253025412559509,
				7.08969309926033e-08
			]
		},
		{
			"children":[
				12
			],
			"name":"Index3.R",
			"rotation":[
				0.0003561644407454878,
				7.079501074258587e-08,
				0.04192587733268738,
				0.9991207122802734
			],
			"scale":[
				1,
				0.9999998211860657,
				0.9999999403953552
			],
			"translation":[
				8.940696716308594e-08,
				1.162023663520813,
				2.514570951461792e-08
			]
		},
		{
			"children":[
				13
			],
			"name":"Index2.R",
			"rotation":[
				-0.11133841425180435,
				-0.0034160290379077196,
				0.05656633898615837,
				0.9921655058860779
			],
			"scale":[
				0.9999998807907104,
				0.9999998211860657,
				0.9999999403953552
			],
			"translation":[
				4.936009645462036e-08,
				3.614861011505127,
				1.885928213596344e-08
			]
		},
		{
			"children":[
				14
			],
			"name":"Index1.R",
			"rotation":[
				0.11942266672849655,
				-0.003989705350250006,
				-0.06010187044739723,
				0.9910146594047546
			],
			"scale":[
				1.0000001192092896,
				1,
				1.000000238418579
			],
			"translation":[
				-3.706302820205565e-08,
				2.3540444374084473,
				-2.4641273910219752e-08
			]
		},
		{
			"name":"Thumb3.R",
			"rotation":[
				-0.18689724802970886,
				0.006028617732226849,
				-0.029669305309653282,
				0.9819128513336182
			],
			"translation":[
				1.4901161193847656e-08,
				0.4221908748149872,
				-1.284060999751091e-06
			]
		},
		{
			"children":[
				16
			],
			"name":"Thumb2.R",
			"rotation":[
				0.20708590745925903,
				0.0028064895886927843,
				0.07417257130146027,
				0.9755029678344727
			],
			"scale":[
				1,
				1,
				0.9999999403953552
			],
			"translation":[
				-4.470348358154297e-08,
				2.10945200920105,
				5.3551048040390015e-08
			]
		},
		{
			"children":[
				17
			],
			"name":"Thumb1.R",
			"rotation":[
				0.413775235414505,
				0.004235291853547096,
				-0.05842733755707741,
				0.908492386341095
			],
			"scale":[
				1,
				1.0000001192092896,
				1.0000001192092896
			],
			"translation":[
				-3.706302820205565e-08,
				2.3540444374084473,
				-2.4641273910219752e-08
			]
		},
		{
			"children":[
				3,
				7,
				11,
				15,
				18
			],
			"name":"Wrist.R",
			"rotation":[
				-0.011759478598833084,
				0.0061216759495437145,
				0.022506296634674072,
				0.9996588230133057
			],
			"scale":[
				0.9999998807907104,
				0.9999999403953552,
				0.9999998211860657
			],
			"translation":[
				1.1350493878126144e-09,
				4.504570960998535,
				1.1408701539039612e-08
			]
		},
		{
			"children":[
				19
			],
			"name":"LowArm.R",
			"rotation":[
				0.00401952164247632,
				-0.0030341115780174732,
				-0.005376953165978193,
				0.9999728202819824
			],
			"scale":[
				1,
				0.9999999403953552,
				1
			],
			"translation":[
				4.342931044084772e-14,
				5.109811782836914,
				1.743731840777446e-14
			]
		},
		{
			"children":[
				20
			],
			"name":"UpperArm.R",
			"rotation":[
				-1.1923444276362716e-07,
				1.1923444276362716e-07,
				0.7071067690849304,
				0.7071067690849304
			],
			"translation":[
				-0.05211663246154785,
				4.808252924703993e-07,
				-4.808252924703993e-07
			]
		},
		{
			"name":"Little4.L",
			"rotation":[
				-0.020980173721909523,
				-0.000246102805249393,
				0.011621840298175812,
				0.999712347984314
			],
			"scale":[
				0.9999999403953552,
				1,
				0.9999999403953552
			],
			"translation":[
				-2.0489096641540527e-08,
				0.841549813747406,
				-1.1292286217212677e-07
			]
		},
		{
			"children":[
				22
			],
			"name":"Little3.L",
			"rotation":[
				0.016905270516872406,
				-0.0001880752679426223,
				-0.03466743975877762,
				0.999255895614624
			],
			"scale":[
				1,
				0.9999998807907104,
				0.9999998211860657
			],
			"translation":[
				-4.7963112592697144e-08,
				0.9265705347061157,
				-9.557697921991348e-08
			]
		},
		{
			"children":[
				23
			],
			"name":"Little2.L",
			"rotation":[
				0.1518392413854599,
				-0.008524259552359581,
				-0.00893898494541645,
				0.9883280396461487
			],
			"scale":[
				1,
				0.9999999403953552,
				0.9999999403953552
			],
			"translation":[
				2.253800630569458e-07,
				3.521790027618408,
				-4.698522388935089e-07
			]
		},
		{
			"children":[
				24
			],
			"name":"Little1.L",
			"rotation":[
				-0.13384145498275757,
				0.008270489983260632,
				0.049701862037181854,
				0.9897210597991943
			],
			"scale":[
				1,
				1.0000001192092896,
				1.0000001192092896
			],
			"translation":[
				-7.901533649601333e-08,
				2.3540453910827637,
				-2.8252486572455382e-08
			]
		},
		{
			"name":"Ring4.L",
			"rotation":[
				0.008086306974291801,
				0.00041577848605811596,
				0.0492362380027771,
				0.9987543225288391
			],
			"scale":[
				0.9999999403953552,
				1,
				0.9999998807907104
			],
			"translation":[
				1.394655555486679e-07,
				0.9167147278785706,
				-5.878973752260208e-08
			]
		},
		{
			"children":[
				26
			],
			"name":"Ring3.L",
			"rotation":[
				-0.005644102115184069,
				-0.00035420467611402273,
				-0.038701266050338745,
				0.9992348551750183
			],
			"scale":[
				0.9999998807907104,
				0.9999999403953552,
				0.9999999403953552
			],
			"translation":[
				7.171183824539185e-08,
				1.404801607131958,
				5.4016709327697754e-08
			]
		},
		{
			"children":[
				27
			],
			"name":"Ring2.L",
			"rotation":[
				0.05870949849486351,
				-0.001942776725627482,
				-0.053812555968761444,
				0.9968218207359314
			],
			"scale":[
				1.0000001192092896,
				0.9999999403953552,
				0.9999999403953552
			],
			"translation":[
				8.707866072654724e-08,
				3.5337297916412354,
				7.916241884231567e-09
			]
		},
		{
			"children":[
				28
			],
			"name":"Ring1.L",
			"rotation":[
				-0.04832683131098747,
				0.00780196487903595,
				0.0608273446559906,
				0.996947169303894
			],
			"translation":[
				-7.901533649601333e-08,
				2.3540453910827637,
				-2.8252486572455382e-08
			]
		},
		{
			"name":"Middle4.L",
			"rotation":[
				-0.002350987633690238,
				-9.17587021831423e-05,
				0.04587944224476814,
				0.9989442229270935
			],
			"scale":[
				0.9999999403953552,
				0.9999998807907104,
				0.9999999403953552
			],
			"translation":[
				-2.942979335784912e-07,
				0.9821102023124695,
				1.594889909029007e-08
			]
		},
		{
			"children":[
				30
			],
			"name":"Middle3.L",
			"rotation":[
				0.0012093611294403672,
				5.056319059804082e-05,
				-0.03719666972756386,
				0.9993072748184204
			],
			"scale":[
				0.9999998807907104,
				0.9999999403953552,
				1
			],
			"translation":[
				7.217749953269958e-08,
				1.700181484222412,
				9.546056389808655e-09
			]
		},
		{
			"children":[
				31
			],
			"name":"Middle2.L",
			"rotation":[
				-0.018176903948187828,
				0.0007083025993779302,
				-0.05555305257439613,
				0.9982900023460388
			],
			"scale":[
				0.9999999403953552,
				0.9999998807907104,
				0.9999999403953552
			],
			"translation":[
				3.832392394542694e-07,
				3.511009454727173,
				1.7229467630386353e-08
			]
		},
		{
			"children":[
				32
			],
			"name":"Middle1.L",
			"rotation":[
				0.03206180781126022,
				0.005871390458196402,
				0.06384676694869995,
				0.9974272847175598
			],
			"scale":[
				1,
				1,
				0.9999999403953552
			],
			"translation":[
				-7.901533649601333e-08,
				2.3540453910827637,
				-2.8252486572455382e-08
			]
		},
		{
			"name":"Index4.L",
			"rotation":[
				0.004478610586374998,
				0.00027050255448557436,
				0.054680317640304565,
				0.9984938502311707
			],
			"scale":[
				1.0000001192092896,
				1,
				1.0000001192092896
			],
			"translation":[
				-1.5925616025924683e-07,
				0.8253024220466614,
				1.648440957069397e-07
			]
		},
		{
			"children":[
				34
			],
			"name":"Index3.L",
			"rotation":[
				0.00035615937667898834,
				-1.9483955782106932e-07,
				-0.041925881057977676,
				0.9991207122802734
			],
			"scale":[
				1,
				0.9999999403953552,
				1
			],
			"translation":[
				3.306195139884949e-08,
				1.1620254516601562,
				-3.4924596548080444e-08
			]
		},
		{
			"children":[
				35
			],
			"name":"Index2.L",
			"rotation":[
				-0.11133842915296555,
				0.0034161533694714308,
				-0.056566327810287476,
				0.9921655058860779
			],
			"scale":[
				0.9999998211860657,
				1.0000001192092896,
				0.9999998807907104
			],
			"translation":[
				-3.5390257835388184e-08,
				3.614861011505127,
				-2.1909363567829132e-07
			]
		},
		{
			"children":[
				36
			],
			"name":"Index1.L",
			"rotation":[
				0.11942271143198013,
				0.003989588003605604,
				0.06010187044739723,
				0.9910146594047546
			],
			"scale":[
				1.0000001192092896,
				0.9999998807907104,
				1.000000238418579
			],
			"translation":[
				-7.901533649601333e-08,
				2.3540453910827637,
				-2.8252486572455382e-08
			]
		},
		{
			"name":"Thumb3.L",
			"rotation":[
				-0.18693438172340393,
				-0.013700924813747406,
				0.07005228847265244,
				0.9797757267951965
			],
			"scale":[
				0.9999999403953552,
				1,
				0.9999997615814209
			],
			"translation":[
				-4.470348358154297e-08,
				0.42590031027793884,
				7.64383003115654e-07
			]
		},
		{
			"children":[
				38
			],
			"name":"Thumb2.L",
			"rotation":[
				0.20746706426143646,
				0.005683915689587593,
				-0.1142500713467598,
				0.9715307950973511
			],
			"scale":[
				1.0000001192092896,
				1,
				0.9999998807907104
			],
			"translation":[
				-3.2782554626464844e-07,
				2.109450340270996,
				1.8937280401587486e-06
			]
		},
		{
			"children":[
				39
			],
			"name":"Thumb1.L",
			"rotation":[
				0.4137752056121826,
				-0.004235454834997654,
				0.058427270501852036,
				0.908492386341095
			],
			"scale":[
				1,
				1.0000001192092896,
				0.9999999403953552
			],
			"translation":[
				-7.901533649601333e-08,
				2.3540453910827637,
				-2.8252486572455382e-08
			]
		},
		{
			"children":[
				25,
				29,
				33,
				37,
				40
			],
			"name":"Wrist.L",
			"rotation":[
				-0.011759482324123383,
				-0.006121680606156588,
				-0.02250629849731922,
				0.9996588230133057
			],
			"scale":[
				0.9999998807907104,
				0.9999999403953552,
				0.9999998211860657
			],
			"translation":[
				-9.240466170012951e-09,
				4.504573345184326,
				-1.0099029168486595e-08
			]
		},
		{
			"children":[
				41
			],
			"name":"LowArm.L",
			"rotation":[
				0.004019521176815033,
				0.0030341101810336113,
				0.005376951768994331,
				0.9999728202819824
			],
			"scale":[
				1,
				0.9999999403953552,
				1
			],
			"translation":[
				5.764018548484046e-14,
				5.109810829162598,
				4.42655216951679e-14
			]
		},
		{
			"children":[
				42
			],
			"name":"UpperArm.L",
			"rotation":[
				-1.1923445697448187e-07,
				-1.1923445697448187e-07,
				-0.7071067690849304,
				0.7071067690849304
			],
			"translation":[
				4.052117347717285,
				-6.556708740390604e-07,
				6.556708740390604e-07
			]
		},
		{
			"mesh":0,
			"name":"Cube.001",
			"skin":0
		},
		{
			"mesh":1,
			"name":"Cube.002",
			"skin":0
		},
		{
			"children":[
				44,
				45,
				21,
				43
			],
			"name":"Armature.001",
			"rotation":[
				0,
				0.7071068286895752,
				0,
				0.7071068286895752
			],
			"scale":[
				0.2931293249130249,
				0.2931293249130249,
				0.2931293249130249
			],
			"translation":[
				0,
				0,
				0.5823985934257507
			]
		}
	],
	"materials":[
		{
			"doubleSided":true,
			"extensions":{
				"KHR_materials_specular":{
					"specularFactor":0
				},
				"KHR_materials_ior":{
					"ior":1.4500000476837158
				}
			},
			"name":"HandMaterial",
			"pbrMetallicRoughness":{
				"baseColorTexture":{
					"index":0
				},
				"metallicFactor":0,
				"roughnessFactor":0
			}
		}
	],
	"meshes":[
		{
			"name":"Cube.002",
			"primitives":[
				{
					"attributes":{
						"POSITION":0,
						"NORMAL":1,
						"TEXCOORD_0":2,
						"TANGENT":3,
						"JOINTS_0":4,
						"JOINTS_1":5,
						"WEIGHTS_0":6,
						"WEIGHTS_1":7
					},
					"indices":8,
					"material":0
				}
			]
		},
		{
			"name":"Cube.001",
			"primitives":[
				{
					"attributes":{
						"POSITION":10,
						"NORMAL":11,
						"TEXCOORD_0":12,
						"TANGENT":13,
						"JOINTS_0":14,
						"JOINTS_1":15,
						"WEIGHTS_0":16,
						"WEIGHTS_1":17
					},
					"indices":18,
					"material":0
				}
			]
		}
	],
	"textures":[
		{
			"sampler":0,
			"source":0
		}
	],
	"images":[
		{
			"mimeType":"image/png",
			"name":"PlayerArms.png.001",
			"uri":"../../Models/Arms/PlayerArms.png"
		}
	],
	"skins":[
		{
			"inverseBindMatrices":9,
			"joints":[
				21,
				20,
				19,
				3,
				2,
				1,
				0,
				7,
				6,
				5,
				4,
				11,
				10,
				9,
				8,
				15,
				14,
				13,
				12,
				18,
				17,
				16,
				43,
				42,
				41,
				25,
				24,
				23,
				22,
				29,
				28,
				27,
				26,
				33,
				32,
				31,
				30,
				37,
				36,
				35,
				34,
				40,
				39,
				38
			],
			"name":"Armature.001"
		}
	],
	"accessors":[
		{
			"bufferView":0,
			"componentType":5126,
			"count":1521,
			"max":[
				0.9463962912559509,
				0.29792144894599915,
				6.158595561981201
			],
			"min":[
				-0.42693397402763367,
				-0.297921359539032,
				0.8906205296516418
			],
			"type":"VEC3"
		},
		{
			"bufferView":1,
			"componentType":5126,
			"count":1521,
			"type":"VEC3"
		},
		{
			"bufferView":2,
			"componentType":5126,
			"count":1521,
			"type":"VEC2"
		},
		{
			"bufferView":3,
			"componentType":5126,
			"count":1521,
			"type":"VEC4"
		},
		{
			"bufferView":4,
			"componentType":5121,
			"count":1521,
			"type":"VEC4"
		},
		{
			"bufferView":5,
			"componentType":5121,
			"count":1521,
			"type":"VEC4"
		},
		{
			"bufferView":6,
			"componentType":5126,
			"count":1521,
			"type":"VEC4"
		},
		{
			"bufferView":7,
			"componentType":5126,
			"count":1521,
			"type":"VEC4"
		},
		{
			"bufferView":8,
			"componentType":5123,
			"count":2274,
			"type":"SCALAR"
		},
		{
			"bufferView":9,
			"componentType":5126,
			"count":44,
			"type":"MAT4"
		},
		{
			"bufferView":10,
			"componentType":5126,
			"count":1517,
			"max":[
				0.9463958740234375,
				0.29792144894599915,
				-0.9015268683433533
			],
			"min":[
				-0.42693403363227844,
				-0.297921359539032,
				-6.169501781463623
			],
			"type":"VEC3"
		},
		{
			"bufferView":11,
			"componentType":5126,
			"count":1517,
			"type":"VEC3"
		},
		{
			"bufferView":12,
			"componentType":5126,
			"count":1517,
			"type":"VEC2"
		},
		{
			"bufferView":13,
			"componentType":5126,
			"count":1517,
			"type":"VEC4"
		},
		{
			"bufferView":14,
			"componentType":5121,
			"count":1517,
			"type":"VEC4"
		},
		{
			"bufferView":15,
			"componentType":5121,
			"count":1517,
			"type":"VEC4"
		},
		{
			"bufferView":16,
			"componentType":5126,
			"count":1517,
			"type":"VEC4"
		},
		{
			"bufferView":17,
			"componentType":5126,
			"count":1517,
			"type":"VEC4"
		},
		{
			"bufferView":18,
			"componentType":5123,
			"count":2274,
			"type":"SCALAR"
		}
	],
	"bufferViews":[
		{
			"buffer":0,
			"byteLength":18252,
			"byteOffset":0,
			"target":34962
		},
		{
			"buffer":0,
			"byteLength":18252,
			"byteOffset":18252,
			"target":34962
		},
		{
			"buffer":0,
			"byteLength":12168,
			"byteOffset":36504,
			"target":34962
		},
		{
			"buffer":0,
			"byteLength":24336,
			"byteOffset":48672,
			"target":34962
		},
		{
			"buffer":0,
			"byteLength":6084,
			"byteOffset":73008,
			"target":34962
		},
		{
			"buffer":0,
			"byteLength":6084,
			"byteOffset":79092,
			"target":34962
		},
		{
			"buffer":0,
			"byteLength":24336,
			"byteOffset":85176,
			"target":34962
		},
		{
			"buffer":0,
			"byteLength":24336,
			"byteOffset":109512,
			"target":34962
		},
		{
			"buffer":0,
			"byteLength":4548,
			"byteOffset":133848,
			"target":34963
		},
		{
			"buffer":0,
			"byteLength":2816,
			"byteOffset":138396
		},
		{
			"buffer":0,
			"byteLength":18204,
			"byteOffset":141212,
			"target":34962
		},
		{
			"buffer":0,
			"byteLength":18204,
			"byteOffset":159416,
			"target":34962
		},
		{
			"buffer":0,
			"byteLength":12136,
			"byteOffset":177620,
			"target":34962
		},
		{
			"buffer":0,
			"byteLength":24272,
			"byteOffset":189756,
			"target":34962
		},
		{
			"buffer":0,
			"byteLength":6068,
			"byteOffset":214028,
			"target":34962
		},
		{
			"buffer":0,
			"byteLength":6068,
			"byteOffset":220096,
			"target":34962
		},
		{
			"buffer":0,
			"byteLength":24272,
			"byteOffset":226164,
			"target":34962
		},
		{
			"buffer":0,
			"byteLength":24272,
			"byteOffset":250436,
			"target":34962
		},
		{
			"buffer":0,
			"byteLength":4548,
			"byteOffset":274708,
			"target":34963
		}
	],
	"samplers":[
		{
			"magFilter":9728,
			"minFilter":9984
		}
	],
	"buffers":[
		{
			"byteLength":279256,
			"uri":"Player_Arms-988107eb3a97637deca252a0969aa43b.bin"
		}
	]
}
