{
	"asset":{
		"generator":"Khronos glTF Blender I/O v4.1.63",
		"version":"2.0"
	},
	"extensionsUsed":[
		"KHR_materials_specular",
		"KHR_materials_ior"
	],
	"scene":0,
	"scenes":[
		{
			"name":"Scene",
			"nodes":[
				6
			]
		}
	],
	"nodes":[
		{
			"mesh":0,
			"name":"panel_electric_handle",
			"rotation":[
				0.7616650462150574,
				0,
				0,
				0.647970974445343
			],
			"translation":[
				0.209950789809227,
				0.06268072128295898,
				-0.00987194012850523
			]
		},
		{
			"children":[
				0
			],
			"mesh":1,
			"name":"panel_electric",
			"rotation":[
				0,
				0.7071068286895752,
				0,
				0.7071068286895752
			],
			"scale":[
				0.40201810002326965,
				0.40201810002326965,
				0.40201810002326965
			],
			"translation":[
				-0.8108776807785034,
				0.969829261302948,
				-0.09719890356063843
			]
		},
		{
			"mesh":2,
			"name":"panel_electric_handle.001",
			"rotation":[
				0,
				0.7071068286895752,
				0,
				0.7071068286895752
			],
			"scale":[
				0.40201810002326965,
				0.40201810002326965,
				0.40201810002326965
			],
			"translation":[
				-0.8148464560508728,
				0.9950279593467712,
				-0.005649968981742859
			]
		},
		{
			"children":[
				2
			],
			"mesh":3,
			"name":"panel_electric.001"
		},
		{
			"mesh":4,
			"name":"pump_station_electrical_pipes"
		},
		{
			"children":[
				1,
				3,
				4
			],
			"mesh":5,
			"name":"pump_station_electrical_bracket"
		},
		{
			"children":[
				5
			],
			"mesh":6,
			"name":"pump_station"
		}
	],
	"materials":[
		{
			"doubleSided":true,
			"extensions":{
				"KHR_materials_specular":{
					"specularFactor":0.3454545736312866
				},
				"KHR_materials_ior":{
					"ior":1.4500000476837158
				}
			},
			"name":"panel_electric",
			"pbrMetallicRoughness":{
				"baseColorTexture":{
					"index":0
				},
				"metallicFactor":0,
				"roughnessFactor":0.5
			}
		},
		{
			"doubleSided":true,
			"extensions":{
				"KHR_materials_specular":{
					"specularFactor":0.4272727370262146
				},
				"KHR_materials_ior":{
					"ior":1.4500000476837158
				}
			},
			"name":"metal_painted_gray",
			"pbrMetallicRoughness":{
				"baseColorTexture":{
					"index":1
				},
				"metallicFactor":0,
				"roughnessFactor":0.5
			}
		},
		{
			"doubleSided":true,
			"extensions":{
				"KHR_materials_specular":{
					"specularFactor":0.30000001192092896
				},
				"KHR_materials_ior":{
					"ior":1.4500000476837158
				}
			},
			"name":"Concrete",
			"pbrMetallicRoughness":{
				"baseColorTexture":{
					"index":2
				},
				"metallicFactor":0,
				"roughnessFactor":0.5
			}
		},
		{
			"doubleSided":true,
			"name":"Manhole",
			"pbrMetallicRoughness":{
				"baseColorTexture":{
					"index":3
				},
				"metallicFactor":0,
				"roughnessFactor":0.5
			}
		}
	],
	"meshes":[
		{
			"name":"Cube.002",
			"primitives":[
				{
					"attributes":{
						"POSITION":0,
						"NORMAL":1,
						"TEXCOORD_0":2,
						"TANGENT":3
					},
					"indices":4,
					"material":0
				}
			]
		},
		{
			"name":"Cube.003",
			"primitives":[
				{
					"attributes":{
						"POSITION":5,
						"NORMAL":6,
						"TEXCOORD_0":7,
						"TANGENT":8
					},
					"indices":9,
					"material":0
				}
			]
		},
		{
			"name":"Cube.005",
			"primitives":[
				{
					"attributes":{
						"POSITION":10,
						"NORMAL":11,
						"TEXCOORD_0":12,
						"TANGENT":13
					},
					"indices":4,
					"material":0
				}
			]
		},
		{
			"name":"Cube.004",
			"primitives":[
				{
					"attributes":{
						"POSITION":14,
						"NORMAL":15,
						"TEXCOORD_0":16,
						"TANGENT":17
					},
					"indices":18,
					"material":0
				}
			]
		},
		{
			"name":"NurbsPath",
			"primitives":[
				{
					"attributes":{
						"POSITION":19,
						"NORMAL":20,
						"TEXCOORD_0":21
					},
					"indices":22,
					"material":1
				}
			]
		},
		{
			"name":"Cube.001",
			"primitives":[
				{
					"attributes":{
						"POSITION":23,
						"NORMAL":24,
						"TEXCOORD_0":25,
						"TANGENT":26
					},
					"indices":27,
					"material":1
				}
			]
		},
		{
			"name":"Cylinder",
			"primitives":[
				{
					"attributes":{
						"POSITION":28,
						"NORMAL":29,
						"TEXCOORD_0":30
					},
					"indices":31,
					"material":2
				},
				{
					"attributes":{
						"POSITION":32,
						"NORMAL":33,
						"TEXCOORD_0":34
					},
					"indices":35,
					"material":3
				}
			]
		}
	],
	"textures":[
		{
			"sampler":0,
			"source":0
		},
		{
			"sampler":0,
			"source":1
		},
		{
			"sampler":0,
			"source":2
		},
		{
			"sampler":0,
			"source":3
		}
	],
	"images":[
		{
			"mimeType":"image/png",
			"name":"panel_electric.png",
			"uri":"../../Models/-%20Classic%2064%20Asset%20Pack%200.6/Industrial/textures/panel_electric.png"
		},
		{
			"mimeType":"image/png",
			"name":"metal_painted_gray.png",
			"uri":"../../Models/-%20Classic%2064%20Asset%20Pack%200.6/Industrial/textures/metal_painted_gray.png"
		},
		{
			"mimeType":"image/png",
			"name":"concrete_5.png",
			"uri":"../../Models/-%20Classic%2064%20Asset%20Pack%200.6/Industrial/textures/concrete_5.png"
		},
		{
			"mimeType":"image/png",
			"name":"metal_manhole.png",
			"uri":"../../Models/-%20Classic%2064%20Asset%20Pack%200.6/Industrial/textures/metal_manhole.png"
		}
	],
	"accessors":[
		{
			"bufferView":0,
			"componentType":5126,
			"count":76,
			"max":[
				0.01370359305292368,
				0.35656750202178955,
				0.26230984926223755
			],
			"min":[
				-0.016568269580602646,
				-0.03232630342245102,
				-0.03381500393152237
			],
			"type":"VEC3"
		},
		{
			"bufferView":1,
			"componentType":5126,
			"count":76,
			"type":"VEC3"
		},
		{
			"bufferView":2,
			"componentType":5126,
			"count":76,
			"type":"VEC2"
		},
		{
			"bufferView":3,
			"componentType":5126,
			"count":76,
			"type":"VEC4"
		},
		{
			"bufferView":4,
			"componentType":5123,
			"count":120,
			"type":"SCALAR"
		},
		{
			"bufferView":5,
			"componentType":5126,
			"count":88,
			"max":[
				0.2055053561925888,
				0.42671999335289,
				0.14332808554172516
			],
			"min":[
				-0.2055053561925888,
				-0.42671999335289,
				-0.100275918841362
			],
			"type":"VEC3"
		},
		{
			"bufferView":6,
			"componentType":5126,
			"count":88,
			"type":"VEC3"
		},
		{
			"bufferView":7,
			"componentType":5126,
			"count":88,
			"type":"VEC2"
		},
		{
			"bufferView":8,
			"componentType":5126,
			"count":88,
			"type":"VEC4"
		},
		{
			"bufferView":9,
			"componentType":5123,
			"count":204,
			"type":"SCALAR"
		},
		{
			"bufferView":10,
			"componentType":5126,
			"count":76,
			"max":[
				0.01370359305292368,
				0.35656750202178955,
				0.26230984926223755
			],
			"min":[
				-0.016568269580602646,
				-0.03232630342245102,
				-0.03381500393152237
			],
			"type":"VEC3"
		},
		{
			"bufferView":11,
			"componentType":5126,
			"count":76,
			"type":"VEC3"
		},
		{
			"bufferView":12,
			"componentType":5126,
			"count":76,
			"type":"VEC2"
		},
		{
			"bufferView":13,
			"componentType":5126,
			"count":76,
			"type":"VEC4"
		},
		{
			"bufferView":14,
			"componentType":5126,
			"count":88,
			"max":[
				-0.7532572150230408,
				1.141378402709961,
				0.1613709032535553
			],
			"min":[
				-0.8511903882026672,
				0.7982801198959351,
				-0.003862835466861725
			],
			"type":"VEC3"
		},
		{
			"bufferView":15,
			"componentType":5126,
			"count":88,
			"type":"VEC3"
		},
		{
			"bufferView":16,
			"componentType":5126,
			"count":88,
			"type":"VEC2"
		},
		{
			"bufferView":17,
			"componentType":5126,
			"count":88,
			"type":"VEC4"
		},
		{
			"bufferView":18,
			"componentType":5123,
			"count":204,
			"type":"SCALAR"
		},
		{
			"bufferView":19,
			"componentType":5126,
			"count":392,
			"max":[
				-0.8434627056121826,
				1.0413906574249268,
				0.06998603045940399
			],
			"min":[
				-1.034834623336792,
				-0.9787492156028748,
				-0.16535598039627075
			],
			"type":"VEC3"
		},
		{
			"bufferView":20,
			"componentType":5126,
			"count":392,
			"type":"VEC3"
		},
		{
			"bufferView":21,
			"componentType":5126,
			"count":392,
			"type":"VEC2"
		},
		{
			"bufferView":22,
			"componentType":5123,
			"count":1344,
			"type":"SCALAR"
		},
		{
			"bufferView":23,
			"componentType":5126,
			"count":128,
			"max":[
				-0.8321036696434021,
				1.1505250930786133,
				0.2456456869840622
			],
			"min":[
				-0.8992226719856262,
				0.25412797927856445,
				-0.26360470056533813
			],
			"type":"VEC3"
		},
		{
			"bufferView":24,
			"componentType":5126,
			"count":128,
			"type":"VEC3"
		},
		{
			"bufferView":25,
			"componentType":5126,
			"count":128,
			"type":"VEC2"
		},
		{
			"bufferView":26,
			"componentType":5126,
			"count":128,
			"type":"VEC4"
		},
		{
			"bufferView":27,
			"componentType":5123,
			"count":228,
			"type":"SCALAR"
		},
		{
			"bufferView":28,
			"componentType":5126,
			"count":238,
			"max":[
				1,
				0.29156190156936646,
				1
			],
			"min":[
				-1,
				-0.9931304454803467,
				-1
			],
			"type":"VEC3"
		},
		{
			"bufferView":29,
			"componentType":5126,
			"count":238,
			"type":"VEC3"
		},
		{
			"bufferView":30,
			"componentType":5126,
			"count":238,
			"type":"VEC2"
		},
		{
			"bufferView":31,
			"componentType":5123,
			"count":396,
			"type":"SCALAR"
		},
		{
			"bufferView":32,
			"componentType":5126,
			"count":4,
			"max":[
				0.3981855809688568,
				0.2888396382331848,
				0.3998979330062866
			],
			"min":[
				-0.3963463604450226,
				0.2888396382331848,
				-0.3946341872215271
			],
			"type":"VEC3"
		},
		{
			"bufferView":33,
			"componentType":5126,
			"count":4,
			"type":"VEC3"
		},
		{
			"bufferView":34,
			"componentType":5126,
			"count":4,
			"type":"VEC2"
		},
		{
			"bufferView":35,
			"componentType":5123,
			"count":6,
			"type":"SCALAR"
		}
	],
	"bufferViews":[
		{
			"buffer":0,
			"byteLength":912,
			"byteOffset":0,
			"target":34962
		},
		{
			"buffer":0,
			"byteLength":912,
			"byteOffset":912,
			"target":34962
		},
		{
			"buffer":0,
			"byteLength":608,
			"byteOffset":1824,
			"target":34962
		},
		{
			"buffer":0,
			"byteLength":1216,
			"byteOffset":2432,
			"target":34962
		},
		{
			"buffer":0,
			"byteLength":240,
			"byteOffset":3648,
			"target":34963
		},
		{
			"buffer":0,
			"byteLength":1056,
			"byteOffset":3888,
			"target":34962
		},
		{
			"buffer":0,
			"byteLength":1056,
			"byteOffset":4944,
			"target":34962
		},
		{
			"buffer":0,
			"byteLength":704,
			"byteOffset":6000,
			"target":34962
		},
		{
			"buffer":0,
			"byteLength":1408,
			"byteOffset":6704,
			"target":34962
		},
		{
			"buffer":0,
			"byteLength":408,
			"byteOffset":8112,
			"target":34963
		},
		{
			"buffer":0,
			"byteLength":912,
			"byteOffset":8520,
			"target":34962
		},
		{
			"buffer":0,
			"byteLength":912,
			"byteOffset":9432,
			"target":34962
		},
		{
			"buffer":0,
			"byteLength":608,
			"byteOffset":10344,
			"target":34962
		},
		{
			"buffer":0,
			"byteLength":1216,
			"byteOffset":10952,
			"target":34962
		},
		{
			"buffer":0,
			"byteLength":1056,
			"byteOffset":12168,
			"target":34962
		},
		{
			"buffer":0,
			"byteLength":1056,
			"byteOffset":13224,
			"target":34962
		},
		{
			"buffer":0,
			"byteLength":704,
			"byteOffset":14280,
			"target":34962
		},
		{
			"buffer":0,
			"byteLength":1408,
			"byteOffset":14984,
			"target":34962
		},
		{
			"buffer":0,
			"byteLength":408,
			"byteOffset":16392,
			"target":34963
		},
		{
			"buffer":0,
			"byteLength":4704,
			"byteOffset":16800,
			"target":34962
		},
		{
			"buffer":0,
			"byteLength":4704,
			"byteOffset":21504,
			"target":34962
		},
		{
			"buffer":0,
			"byteLength":3136,
			"byteOffset":26208,
			"target":34962
		},
		{
			"buffer":0,
			"byteLength":2688,
			"byteOffset":29344,
			"target":34963
		},
		{
			"buffer":0,
			"byteLength":1536,
			"byteOffset":32032,
			"target":34962
		},
		{
			"buffer":0,
			"byteLength":1536,
			"byteOffset":33568,
			"target":34962
		},
		{
			"buffer":0,
			"byteLength":1024,
			"byteOffset":35104,
			"target":34962
		},
		{
			"buffer":0,
			"byteLength":2048,
			"byteOffset":36128,
			"target":34962
		},
		{
			"buffer":0,
			"byteLength":456,
			"byteOffset":38176,
			"target":34963
		},
		{
			"buffer":0,
			"byteLength":2856,
			"byteOffset":38632,
			"target":34962
		},
		{
			"buffer":0,
			"byteLength":2856,
			"byteOffset":41488,
			"target":34962
		},
		{
			"buffer":0,
			"byteLength":1904,
			"byteOffset":44344,
			"target":34962
		},
		{
			"buffer":0,
			"byteLength":792,
			"byteOffset":46248,
			"target":34963
		},
		{
			"buffer":0,
			"byteLength":48,
			"byteOffset":47040,
			"target":34962
		},
		{
			"buffer":0,
			"byteLength":48,
			"byteOffset":47088,
			"target":34962
		},
		{
			"buffer":0,
			"byteLength":32,
			"byteOffset":47136,
			"target":34962
		},
		{
			"buffer":0,
			"byteLength":12,
			"byteOffset":47168,
			"target":34963
		}
	],
	"samplers":[
		{
			"magFilter":9728,
			"minFilter":9984
		}
	],
	"buffers":[
		{
			"byteLength":47180,
			"uri":"pump_station-d2c9c504e0bbcb7a3a55eca54c3e7f9f.bin"
		}
	]
}
