{
	"asset":{
		"generator":"Khronos glTF Blender I/O v4.1.63",
		"version":"2.0"
	},
	"extensionsUsed":[
		"KHR_materials_specular",
		"KHR_materials_ior"
	],
	"scene":0,
	"scenes":[
		{
			"name":"Scene",
			"nodes":[
				1
			]
		}
	],
	"nodes":[
		{
			"mesh":0,
			"name":"pvc_pipe_wood_pallet"
		},
		{
			"children":[
				0
			],
			"mesh":1,
			"name":"pvc_pipe"
		}
	],
	"materials":[
		{
			"doubleSided":true,
			"extensions":{
				"KHR_materials_specular":{
					"specularFactor":0.23636364936828613
				},
				"KHR_materials_ior":{
					"ior":1.4500000476837158
				}
			},
			"name":"pvc_pipe_wood_pallet",
			"pbrMetallicRoughness":{
				"baseColorTexture":{
					"index":0
				},
				"metallicFactor":0,
				"roughnessFactor":0.5
			}
		},
		{
			"doubleSided":true,
			"name":"pvc_pipe",
			"pbrMetallicRoughness":{
				"baseColorTexture":{
					"index":1
				},
				"metallicFactor":0,
				"roughnessFactor":0.4000000059604645
			}
		}
	],
	"meshes":[
		{
			"name":"Cylinder.001",
			"primitives":[
				{
					"attributes":{
						"POSITION":0,
						"NORMAL":1,
						"TEXCOORD_0":2,
						"TANGENT":3
					},
					"indices":4,
					"material":0
				}
			]
		},
		{
			"name":"Cylinder",
			"primitives":[
				{
					"attributes":{
						"POSITION":5,
						"NORMAL":6,
						"TEXCOORD_0":7,
						"TANGENT":8
					},
					"indices":9,
					"material":1
				}
			]
		}
	],
	"textures":[
		{
			"sampler":0,
			"source":0
		},
		{
			"sampler":0,
			"source":1
		}
	],
	"images":[
		{
			"mimeType":"image/png",
			"name":"wood_planks_5.png",
			"uri":"../../Models/-%20Classic%2064%20Asset%20Pack%200.6/Misc/textures/wood_planks_5.png"
		},
		{
			"mimeType":"image/png",
			"name":"plastic_pipe.png",
			"uri":"../../Models/-%20Classic%2064%20Asset%20Pack%200.6/Misc/textures/plastic_pipe.png"
		}
	],
	"accessors":[
		{
			"bufferView":0,
			"componentType":5126,
			"count":312,
			"max":[
				0.8871109485626221,
				0.5936689972877502,
				1.4767765998840332
			],
			"min":[
				-0.12153550982475281,
				-0.23829764127731323,
				-1.4799643754959106
			],
			"type":"VEC3"
		},
		{
			"bufferView":1,
			"componentType":5126,
			"count":312,
			"type":"VEC3"
		},
		{
			"bufferView":2,
			"componentType":5126,
			"count":312,
			"type":"VEC2"
		},
		{
			"bufferView":3,
			"componentType":5126,
			"count":312,
			"type":"VEC4"
		},
		{
			"bufferView":4,
			"componentType":5123,
			"count":468,
			"type":"SCALAR"
		},
		{
			"bufferView":5,
			"componentType":5126,
			"count":1728,
			"max":[
				0.8381995558738708,
				0.5334000587463379,
				1.5240000486373901
			],
			"min":[
				-0.07620000839233398,
				-0.07620000839233398,
				-1.5240000486373901
			],
			"type":"VEC3"
		},
		{
			"bufferView":6,
			"componentType":5126,
			"count":1728,
			"type":"VEC3"
		},
		{
			"bufferView":7,
			"componentType":5126,
			"count":1728,
			"type":"VEC2"
		},
		{
			"bufferView":8,
			"componentType":5126,
			"count":1728,
			"type":"VEC4"
		},
		{
			"bufferView":9,
			"componentType":5123,
			"count":4608,
			"type":"SCALAR"
		}
	],
	"bufferViews":[
		{
			"buffer":0,
			"byteLength":3744,
			"byteOffset":0,
			"target":34962
		},
		{
			"buffer":0,
			"byteLength":3744,
			"byteOffset":3744,
			"target":34962
		},
		{
			"buffer":0,
			"byteLength":2496,
			"byteOffset":7488,
			"target":34962
		},
		{
			"buffer":0,
			"byteLength":4992,
			"byteOffset":9984,
			"target":34962
		},
		{
			"buffer":0,
			"byteLength":936,
			"byteOffset":14976,
			"target":34963
		},
		{
			"buffer":0,
			"byteLength":20736,
			"byteOffset":15912,
			"target":34962
		},
		{
			"buffer":0,
			"byteLength":20736,
			"byteOffset":36648,
			"target":34962
		},
		{
			"buffer":0,
			"byteLength":13824,
			"byteOffset":57384,
			"target":34962
		},
		{
			"buffer":0,
			"byteLength":27648,
			"byteOffset":71208,
			"target":34962
		},
		{
			"buffer":0,
			"byteLength":9216,
			"byteOffset":98856,
			"target":34963
		}
	],
	"samplers":[
		{
			"magFilter":9728,
			"minFilter":9984
		}
	],
	"buffers":[
		{
			"byteLength":108072,
			"uri":"pvc_pipe_pallet-842fe2490eafba9b72ec58bfa9520bcc.bin"
		}
	]
}
