{
	"asset":{
		"generator":"Khronos glTF Blender I/O v4.1.63",
		"version":"2.0"
	},
	"scene":0,
	"scenes":[
		{
			"name":"Scene",
			"nodes":[
				0
			]
		}
	],
	"nodes":[
		{
			"mesh":0,
			"name":"rock_2"
		}
	],
	"materials":[
		{
			"doubleSided":true,
			"name":"rock_2",
			"pbrMetallicRoughness":{}
		}
	],
	"meshes":[
		{
			"name":"Cube.014",
			"primitives":[
				{
					"attributes":{
						"POSITION":0,
						"NORMAL":1,
						"TEXCOORD_0":2,
						"TANGENT":3
					},
					"indices":4,
					"material":0
				}
			]
		}
	],
	"accessors":[
		{
			"bufferView":0,
			"componentType":5126,
			"count":43,
			"max":[
				0.6641205549240112,
				0.9706584215164185,
				0.4470524489879608
			],
			"min":[
				-0.6234052181243896,
				-0.9929565787315369,
				-0.3625032901763916
			],
			"type":"VEC3"
		},
		{
			"bufferView":1,
			"componentType":5126,
			"count":43,
			"type":"VEC3"
		},
		{
			"bufferView":2,
			"componentType":5126,
			"count":43,
			"type":"VEC2"
		},
		{
			"bufferView":3,
			"componentType":5126,
			"count":43,
			"type":"VEC4"
		},
		{
			"bufferView":4,
			"componentType":5123,
			"count":114,
			"type":"SCALAR"
		}
	],
	"bufferViews":[
		{
			"buffer":0,
			"byteLength":516,
			"byteOffset":0,
			"target":34962
		},
		{
			"buffer":0,
			"byteLength":516,
			"byteOffset":516,
			"target":34962
		},
		{
			"buffer":0,
			"byteLength":344,
			"byteOffset":1032,
			"target":34962
		},
		{
			"buffer":0,
			"byteLength":688,
			"byteOffset":1376,
			"target":34962
		},
		{
			"buffer":0,
			"byteLength":228,
			"byteOffset":2064,
			"target":34963
		}
	],
	"buffers":[
		{
			"byteLength":2292,
			"uri":"rock_handpainted_2-7c457a4f16125ef16c7bd065f53ed372.bin"
		}
	]
}
