{
	"asset":{
		"generator":"Khronos glTF Blender I/O v4.1.63",
		"version":"2.0"
	},
	"extensionsUsed":[
		"KHR_materials_specular",
		"KHR_materials_ior"
	],
	"scene":0,
	"scenes":[
		{
			"name":"Scene",
			"nodes":[
				0,
				1,
				2,
				3,
				4,
				5,
				6,
				7
			]
		}
	],
	"nodes":[
		{
			"mesh":0,
			"name":"tool chest"
		},
		{
			"mesh":1,
			"name":"tool chest top",
			"translation":[
				0,
				2.0915682315826416,
				0
			]
		},
		{
			"mesh":2,
			"name":"drawers",
			"translation":[
				0,
				-1.5409433841705322,
				0.8417131900787354
			]
		},
		{
			"mesh":3,
			"name":"wheel 1",
			"rotation":[
				0.5953658819198608,
				0.5953658819198608,
				0.3814963698387146,
				0.381496399641037
			],
			"scale":[
				0.12815029919147491,
				0.12815029919147491,
				0.12815029919147491
			],
			"translation":[
				-1.385352373123169,
				-2.393540382385254,
				0.8594771027565002
			]
		},
		{
			"mesh":3,
			"name":"wheel 3",
			"rotation":[
				0.39900004863739014,
				0.39900001883506775,
				0.5837799310684204,
				0.5837799310684204
			],
			"scale":[
				0.12815029919147491,
				0.12815028429031372,
				0.12815028429031372
			],
			"translation":[
				1.458592176437378,
				-2.393540382385254,
				0.8594771027565002
			]
		},
		{
			"mesh":3,
			"name":"wheel 2",
			"rotation":[
				0.3685431480407715,
				0.3685431182384491,
				0.6034699082374573,
				0.603469967842102
			],
			"scale":[
				0.12815029919147491,
				0.12815029919147491,
				0.12815029919147491
			],
			"translation":[
				-1.385352373123169,
				-2.393540382385254,
				-0.7183920741081238
			]
		},
		{
			"mesh":3,
			"name":"wheel 4",
			"rotation":[
				0.6576517820358276,
				0.6576517820358276,
				0.2597963511943817,
				0.2597963809967041
			],
			"scale":[
				0.12815029919147491,
				0.12815029919147491,
				0.12815029919147491
			],
			"translation":[
				1.458592176437378,
				-2.393540382385254,
				-0.7183920741081238
			]
		},
		{
			"mesh":4,
			"name":"drawer handles",
			"translation":[
				0,
				-1.5409433841705322,
				0.8417131900787354
			]
		}
	],
	"materials":[
		{
			"doubleSided":true,
			"extensions":{
				"KHR_materials_specular":{
					"specularFactor":0.6000000238418579
				},
				"KHR_materials_ior":{
					"ior":1.4500000476837158
				}
			},
			"name":"rolling tool cart",
			"pbrMetallicRoughness":{
				"baseColorTexture":{
					"index":0
				},
				"metallicFactor":0,
				"roughnessFactor":0.5
			}
		},
		{
			"doubleSided":true,
			"name":"Material",
			"pbrMetallicRoughness":{}
		},
		{
			"doubleSided":true,
			"name":"Material.002",
			"pbrMetallicRoughness":{
				"baseColorTexture":{
					"index":1
				},
				"metallicFactor":0,
				"roughnessFactor":0.5
			}
		},
		{
			"doubleSided":true,
			"name":"Material.001",
			"pbrMetallicRoughness":{
				"baseColorTexture":{
					"index":2
				},
				"metallicFactor":0,
				"roughnessFactor":0.5
			}
		},
		{
			"doubleSided":true,
			"name":"Material.004",
			"pbrMetallicRoughness":{
				"baseColorTexture":{
					"index":3
				},
				"metallicFactor":0,
				"roughnessFactor":0.5
			}
		},
		{
			"doubleSided":true,
			"name":"Material.003",
			"pbrMetallicRoughness":{
				"baseColorTexture":{
					"index":4
				},
				"metallicFactor":0,
				"roughnessFactor":0.5
			}
		}
	],
	"meshes":[
		{
			"name":"Cube",
			"primitives":[
				{
					"attributes":{
						"POSITION":0,
						"NORMAL":1,
						"TEXCOORD_0":2,
						"TANGENT":3
					},
					"indices":4,
					"material":0
				}
			]
		},
		{
			"name":"Cube.001",
			"primitives":[
				{
					"attributes":{
						"POSITION":5,
						"NORMAL":6,
						"TEXCOORD_0":7,
						"TANGENT":8
					},
					"indices":9,
					"material":1
				}
			]
		},
		{
			"name":"Cube.005",
			"primitives":[
				{
					"attributes":{
						"POSITION":10,
						"NORMAL":11,
						"TEXCOORD_0":12,
						"TANGENT":13
					},
					"indices":14,
					"material":2
				},
				{
					"attributes":{
						"POSITION":15,
						"NORMAL":16,
						"TEXCOORD_0":17,
						"TANGENT":18
					},
					"indices":19,
					"material":3
				}
			]
		},
		{
			"name":"Plane.002",
			"primitives":[
				{
					"attributes":{
						"POSITION":20,
						"NORMAL":21,
						"TEXCOORD_0":22
					},
					"indices":23,
					"material":4
				}
			]
		},
		{
			"name":"Cube.009",
			"primitives":[
				{
					"attributes":{
						"POSITION":24,
						"NORMAL":25,
						"TEXCOORD_0":26
					},
					"indices":27,
					"material":5
				}
			]
		}
	],
	"textures":[
		{
			"sampler":0,
			"source":0
		},
		{
			"sampler":1,
			"source":0
		},
		{
			"sampler":0,
			"source":0
		},
		{
			"sampler":1,
			"source":0
		},
		{
			"sampler":1,
			"source":0
		}
	],
	"images":[
		{
			"mimeType":"image/png",
			"name":"rolling tool cart",
			"uri":"../../Models/-%20Classic%2064%20Asset%20Pack%200.6/Tools/textures/rolling_tool_chest_red.png"
		}
	],
	"accessors":[
		{
			"bufferView":0,
			"componentType":5126,
			"count":76,
			"max":[
				1.75,
				2,
				1
			],
			"min":[
				-1.75,
				-2,
				-1
			],
			"type":"VEC3"
		},
		{
			"bufferView":1,
			"componentType":5126,
			"count":76,
			"type":"VEC3"
		},
		{
			"bufferView":2,
			"componentType":5126,
			"count":76,
			"type":"VEC2"
		},
		{
			"bufferView":3,
			"componentType":5126,
			"count":76,
			"type":"VEC4"
		},
		{
			"bufferView":4,
			"componentType":5123,
			"count":186,
			"type":"SCALAR"
		},
		{
			"bufferView":5,
			"componentType":5126,
			"count":40,
			"max":[
				1.867089033126831,
				0.06573882699012756,
				1.1157119274139404
			],
			"min":[
				-1.867089033126831,
				-0.09769495576620102,
				-1.1157119274139404
			],
			"type":"VEC3"
		},
		{
			"bufferView":6,
			"componentType":5126,
			"count":40,
			"type":"VEC3"
		},
		{
			"bufferView":7,
			"componentType":5126,
			"count":40,
			"type":"VEC2"
		},
		{
			"bufferView":8,
			"componentType":5126,
			"count":40,
			"type":"VEC4"
		},
		{
			"bufferView":9,
			"componentType":5123,
			"count":60,
			"type":"SCALAR"
		},
		{
			"bufferView":10,
			"componentType":5126,
			"count":36,
			"max":[
				1.5476897954940796,
				2.340275287628174,
				0.03759224712848663
			],
			"min":[
				-1.5476897954940796,
				-0.21804974973201752,
				-0.037592172622680664
			],
			"type":"VEC3"
		},
		{
			"bufferView":11,
			"componentType":5126,
			"count":36,
			"type":"VEC3"
		},
		{
			"bufferView":12,
			"componentType":5126,
			"count":36,
			"type":"VEC2"
		},
		{
			"bufferView":13,
			"componentType":5126,
			"count":36,
			"type":"VEC4"
		},
		{
			"bufferView":14,
			"componentType":5123,
			"count":54,
			"type":"SCALAR"
		},
		{
			"bufferView":15,
			"componentType":5126,
			"count":12,
			"max":[
				1.5476897954940796,
				3.2205872535705566,
				0.03759224712848663
			],
			"min":[
				-1.5476897954940796,
				2.449568748474121,
				-0.03759210556745529
			],
			"type":"VEC3"
		},
		{
			"bufferView":16,
			"componentType":5126,
			"count":12,
			"type":"VEC3"
		},
		{
			"bufferView":17,
			"componentType":5126,
			"count":12,
			"type":"VEC2"
		},
		{
			"bufferView":18,
			"componentType":5126,
			"count":12,
			"type":"VEC4"
		},
		{
			"bufferView":19,
			"componentType":5123,
			"count":18,
			"type":"SCALAR"
		},
		{
			"bufferView":20,
			"componentType":5126,
			"count":66,
			"max":[
				3.0576236248016357,
				0,
				2.276132583618164
			],
			"min":[
				-2.318368673324585,
				-1.2123878002166748,
				-2.437116861343384
			],
			"type":"VEC3"
		},
		{
			"bufferView":21,
			"componentType":5126,
			"count":66,
			"type":"VEC3"
		},
		{
			"bufferView":22,
			"componentType":5126,
			"count":66,
			"type":"VEC2"
		},
		{
			"bufferView":23,
			"componentType":5123,
			"count":114,
			"type":"SCALAR"
		},
		{
			"bufferView":24,
			"componentType":5126,
			"count":104,
			"max":[
				1.5476897954940796,
				3.30918550491333,
				0.13426288962364197
			],
			"min":[
				-1.5476897954940796,
				0.5529689192771912,
				0.037592172622680664
			],
			"type":"VEC3"
		},
		{
			"bufferView":25,
			"componentType":5126,
			"count":104,
			"type":"VEC3"
		},
		{
			"bufferView":26,
			"componentType":5126,
			"count":104,
			"type":"VEC2"
		},
		{
			"bufferView":27,
			"componentType":5123,
			"count":168,
			"type":"SCALAR"
		}
	],
	"bufferViews":[
		{
			"buffer":0,
			"byteLength":912,
			"byteOffset":0,
			"target":34962
		},
		{
			"buffer":0,
			"byteLength":912,
			"byteOffset":912,
			"target":34962
		},
		{
			"buffer":0,
			"byteLength":608,
			"byteOffset":1824,
			"target":34962
		},
		{
			"buffer":0,
			"byteLength":1216,
			"byteOffset":2432,
			"target":34962
		},
		{
			"buffer":0,
			"byteLength":372,
			"byteOffset":3648,
			"target":34963
		},
		{
			"buffer":0,
			"byteLength":480,
			"byteOffset":4020,
			"target":34962
		},
		{
			"buffer":0,
			"byteLength":480,
			"byteOffset":4500,
			"target":34962
		},
		{
			"buffer":0,
			"byteLength":320,
			"byteOffset":4980,
			"target":34962
		},
		{
			"buffer":0,
			"byteLength":640,
			"byteOffset":5300,
			"target":34962
		},
		{
			"buffer":0,
			"byteLength":120,
			"byteOffset":5940,
			"target":34963
		},
		{
			"buffer":0,
			"byteLength":432,
			"byteOffset":6060,
			"target":34962
		},
		{
			"buffer":0,
			"byteLength":432,
			"byteOffset":6492,
			"target":34962
		},
		{
			"buffer":0,
			"byteLength":288,
			"byteOffset":6924,
			"target":34962
		},
		{
			"buffer":0,
			"byteLength":576,
			"byteOffset":7212,
			"target":34962
		},
		{
			"buffer":0,
			"byteLength":108,
			"byteOffset":7788,
			"target":34963
		},
		{
			"buffer":0,
			"byteLength":144,
			"byteOffset":7896,
			"target":34962
		},
		{
			"buffer":0,
			"byteLength":144,
			"byteOffset":8040,
			"target":34962
		},
		{
			"buffer":0,
			"byteLength":96,
			"byteOffset":8184,
			"target":34962
		},
		{
			"buffer":0,
			"byteLength":192,
			"byteOffset":8280,
			"target":34962
		},
		{
			"buffer":0,
			"byteLength":36,
			"byteOffset":8472,
			"target":34963
		},
		{
			"buffer":0,
			"byteLength":792,
			"byteOffset":8508,
			"target":34962
		},
		{
			"buffer":0,
			"byteLength":792,
			"byteOffset":9300,
			"target":34962
		},
		{
			"buffer":0,
			"byteLength":528,
			"byteOffset":10092,
			"target":34962
		},
		{
			"buffer":0,
			"byteLength":228,
			"byteOffset":10620,
			"target":34963
		},
		{
			"buffer":0,
			"byteLength":1248,
			"byteOffset":10848,
			"target":34962
		},
		{
			"buffer":0,
			"byteLength":1248,
			"byteOffset":12096,
			"target":34962
		},
		{
			"buffer":0,
			"byteLength":832,
			"byteOffset":13344,
			"target":34962
		},
		{
			"buffer":0,
			"byteLength":336,
			"byteOffset":14176,
			"target":34963
		}
	],
	"samplers":[
		{
			"magFilter":9728,
			"minFilter":9984
		},
		{
			"magFilter":9729,
			"minFilter":9987
		}
	],
	"buffers":[
		{
			"byteLength":14512,
			"uri":"rolling%20tool%20chest-1e892f4c2d8615e89786ca047c543afe.bin"
		}
	]
}
