{
	"asset":{
		"generator":"Khronos glTF Blender I/O v4.1.63",
		"version":"2.0"
	},
	"scene":0,
	"scenes":[
		{
			"name":"Scene",
			"nodes":[
				0
			]
		}
	],
	"nodes":[
		{
			"mesh":0,
			"name":"sapling.033"
		}
	],
	"materials":[
		{
			"doubleSided":true,
			"name":"nature_sapling",
			"pbrMetallicRoughness":{}
		}
	],
	"meshes":[
		{
			"name":"Plane.041",
			"primitives":[
				{
					"attributes":{
						"POSITION":0,
						"NORMAL":1,
						"TEXCOORD_0":2,
						"TANGENT":3
					},
					"indices":4,
					"material":0
				}
			]
		}
	],
	"accessors":[
		{
			"bufferView":0,
			"componentType":5126,
			"count":536,
			"max":[
				0.8983031511306763,
				1.3126404285430908,
				0.5525040626525879
			],
			"min":[
				-0.6591428518295288,
				-0.014758170582354069,
				-0.4590274691581726
			],
			"type":"VEC3"
		},
		{
			"bufferView":1,
			"componentType":5126,
			"count":536,
			"type":"VEC3"
		},
		{
			"bufferView":2,
			"componentType":5126,
			"count":536,
			"type":"VEC2"
		},
		{
			"bufferView":3,
			"componentType":5126,
			"count":536,
			"type":"VEC4"
		},
		{
			"bufferView":4,
			"componentType":5123,
			"count":834,
			"type":"SCALAR"
		}
	],
	"bufferViews":[
		{
			"buffer":0,
			"byteLength":6432,
			"byteOffset":0,
			"target":34962
		},
		{
			"buffer":0,
			"byteLength":6432,
			"byteOffset":6432,
			"target":34962
		},
		{
			"buffer":0,
			"byteLength":4288,
			"byteOffset":12864,
			"target":34962
		},
		{
			"buffer":0,
			"byteLength":8576,
			"byteOffset":17152,
			"target":34962
		},
		{
			"buffer":0,
			"byteLength":1668,
			"byteOffset":25728,
			"target":34963
		}
	],
	"buffers":[
		{
			"byteLength":27396,
			"uri":"sapling-0bbb63d03a9bfe2d0819dc35eecc254d.bin"
		}
	]
}
