{
	"asset":{
		"generator":"Khronos glTF Blender I/O v4.1.63",
		"version":"2.0"
	},
	"scene":0,
	"scenes":[
		{
			"name":"Scene",
			"nodes":[
				0,
				1,
				2,
				3,
				4
			]
		}
	],
	"nodes":[
		{
			"mesh":0,
			"name":"Shed_01",
			"translation":[
				0,
				3.501053810119629,
				0
			]
		},
		{
			"mesh":1,
			"name":"Cube.001",
			"translation":[
				0,
				3.501053810119629,
				0
			]
		},
		{
			"mesh":2,
			"name":"Shed_01_Roof",
			"translation":[
				0,
				3.501053810119629,
				0
			]
		},
		{
			"mesh":3,
			"name":"Cube.002",
			"translation":[
				0,
				3.501053810119629,
				0
			]
		},
		{
			"mesh":4,
			"name":"Shed_01.001",
			"translation":[
				0,
				4.995985507965088,
				0
			]
		}
	],
	"materials":[
		{
			"doubleSided":true,
			"name":"Material",
			"pbrMetallicRoughness":{
				"baseColorFactor":[
					0.800000011920929,
					0.800000011920929,
					0.800000011920929,
					1
				],
				"metallicFactor":0,
				"roughnessFactor":0.4000000059604645
			}
		}
	],
	"meshes":[
		{
			"name":"Cube",
			"primitives":[
				{
					"attributes":{
						"POSITION":0,
						"NORMAL":1,
						"TEXCOORD_0":2,
						"TANGENT":3
					},
					"indices":4,
					"material":0
				}
			]
		},
		{
			"name":"Cube.001",
			"primitives":[
				{
					"attributes":{
						"POSITION":5,
						"NORMAL":6,
						"TEXCOORD_0":7,
						"TANGENT":8
					},
					"indices":9,
					"material":0
				}
			]
		},
		{
			"name":"Cube.002",
			"primitives":[
				{
					"attributes":{
						"POSITION":10,
						"NORMAL":11,
						"TEXCOORD_0":12,
						"TANGENT":13
					},
					"indices":14,
					"material":0
				}
			]
		},
		{
			"name":"Cube.003",
			"primitives":[
				{
					"attributes":{
						"POSITION":15,
						"NORMAL":16,
						"TEXCOORD_0":17,
						"TANGENT":18
					},
					"indices":19,
					"material":0
				}
			]
		},
		{
			"name":"Cube.004",
			"primitives":[
				{
					"attributes":{
						"POSITION":20,
						"NORMAL":21,
						"TEXCOORD_0":22,
						"TANGENT":23
					},
					"indices":24,
					"material":0
				}
			]
		}
	],
	"accessors":[
		{
			"bufferView":0,
			"componentType":5126,
			"count":196,
			"max":[
				4.5,
				5.5,
				6.439120292663574
			],
			"min":[
				-5.065908432006836,
				-3.5,
				-6
			],
			"type":"VEC3"
		},
		{
			"bufferView":1,
			"componentType":5126,
			"count":196,
			"type":"VEC3"
		},
		{
			"bufferView":2,
			"componentType":5126,
			"count":196,
			"type":"VEC2"
		},
		{
			"bufferView":3,
			"componentType":5126,
			"count":196,
			"type":"VEC4"
		},
		{
			"bufferView":4,
			"componentType":5123,
			"count":396,
			"type":"SCALAR"
		},
		{
			"bufferView":5,
			"componentType":5126,
			"count":4,
			"max":[
				4.5,
				2.0341880321502686,
				2
			],
			"min":[
				4.5,
				-3.5,
				0
			],
			"type":"VEC3"
		},
		{
			"bufferView":6,
			"componentType":5126,
			"count":4,
			"type":"VEC3"
		},
		{
			"bufferView":7,
			"componentType":5126,
			"count":4,
			"type":"VEC2"
		},
		{
			"bufferView":8,
			"componentType":5126,
			"count":4,
			"type":"VEC4"
		},
		{
			"bufferView":9,
			"componentType":5123,
			"count":6,
			"type":"SCALAR"
		},
		{
			"bufferView":10,
			"componentType":5126,
			"count":60,
			"max":[
				5.19201135635376,
				5.772784233093262,
				6.569920539855957
			],
			"min":[
				-5.065908432006836,
				3.192758321762085,
				-6.498661994934082
			],
			"type":"VEC3"
		},
		{
			"bufferView":11,
			"componentType":5126,
			"count":60,
			"type":"VEC3"
		},
		{
			"bufferView":12,
			"componentType":5126,
			"count":60,
			"type":"VEC2"
		},
		{
			"bufferView":13,
			"componentType":5126,
			"count":60,
			"type":"VEC4"
		},
		{
			"bufferView":14,
			"componentType":5123,
			"count":108,
			"type":"SCALAR"
		},
		{
			"bufferView":15,
			"componentType":5126,
			"count":4,
			"max":[
				4.5,
				2.0341880321502686,
				0
			],
			"min":[
				4.5,
				-3.5,
				-2
			],
			"type":"VEC3"
		},
		{
			"bufferView":16,
			"componentType":5126,
			"count":4,
			"type":"VEC3"
		},
		{
			"bufferView":17,
			"componentType":5126,
			"count":4,
			"type":"VEC2"
		},
		{
			"bufferView":18,
			"componentType":5126,
			"count":4,
			"type":"VEC4"
		},
		{
			"bufferView":19,
			"componentType":5123,
			"count":6,
			"type":"SCALAR"
		},
		{
			"bufferView":20,
			"componentType":5126,
			"count":24,
			"max":[
				4.5,
				-4.994931697845459,
				6
			],
			"min":[
				-4.5,
				-5.194931507110596,
				-6
			],
			"type":"VEC3"
		},
		{
			"bufferView":21,
			"componentType":5126,
			"count":24,
			"type":"VEC3"
		},
		{
			"bufferView":22,
			"componentType":5126,
			"count":24,
			"type":"VEC2"
		},
		{
			"bufferView":23,
			"componentType":5126,
			"count":24,
			"type":"VEC4"
		},
		{
			"bufferView":24,
			"componentType":5123,
			"count":36,
			"type":"SCALAR"
		}
	],
	"bufferViews":[
		{
			"buffer":0,
			"byteLength":2352,
			"byteOffset":0,
			"target":34962
		},
		{
			"buffer":0,
			"byteLength":2352,
			"byteOffset":2352,
			"target":34962
		},
		{
			"buffer":0,
			"byteLength":1568,
			"byteOffset":4704,
			"target":34962
		},
		{
			"buffer":0,
			"byteLength":3136,
			"byteOffset":6272,
			"target":34962
		},
		{
			"buffer":0,
			"byteLength":792,
			"byteOffset":9408,
			"target":34963
		},
		{
			"buffer":0,
			"byteLength":48,
			"byteOffset":10200,
			"target":34962
		},
		{
			"buffer":0,
			"byteLength":48,
			"byteOffset":10248,
			"target":34962
		},
		{
			"buffer":0,
			"byteLength":32,
			"byteOffset":10296,
			"target":34962
		},
		{
			"buffer":0,
			"byteLength":64,
			"byteOffset":10328,
			"target":34962
		},
		{
			"buffer":0,
			"byteLength":12,
			"byteOffset":10392,
			"target":34963
		},
		{
			"buffer":0,
			"byteLength":720,
			"byteOffset":10404,
			"target":34962
		},
		{
			"buffer":0,
			"byteLength":720,
			"byteOffset":11124,
			"target":34962
		},
		{
			"buffer":0,
			"byteLength":480,
			"byteOffset":11844,
			"target":34962
		},
		{
			"buffer":0,
			"byteLength":960,
			"byteOffset":12324,
			"target":34962
		},
		{
			"buffer":0,
			"byteLength":216,
			"byteOffset":13284,
			"target":34963
		},
		{
			"buffer":0,
			"byteLength":48,
			"byteOffset":13500,
			"target":34962
		},
		{
			"buffer":0,
			"byteLength":48,
			"byteOffset":13548,
			"target":34962
		},
		{
			"buffer":0,
			"byteLength":32,
			"byteOffset":13596,
			"target":34962
		},
		{
			"buffer":0,
			"byteLength":64,
			"byteOffset":13628,
			"target":34962
		},
		{
			"buffer":0,
			"byteLength":12,
			"byteOffset":13692,
			"target":34963
		},
		{
			"buffer":0,
			"byteLength":288,
			"byteOffset":13704,
			"target":34962
		},
		{
			"buffer":0,
			"byteLength":288,
			"byteOffset":13992,
			"target":34962
		},
		{
			"buffer":0,
			"byteLength":192,
			"byteOffset":14280,
			"target":34962
		},
		{
			"buffer":0,
			"byteLength":384,
			"byteOffset":14472,
			"target":34962
		},
		{
			"buffer":0,
			"byteLength":72,
			"byteOffset":14856,
			"target":34963
		}
	],
	"buffers":[
		{
			"byteLength":14928,
			"uri":"shed_01-e2003defbef24f043af9a365d947dc8f.bin"
		}
	]
}
