{
	"asset":{
		"generator":"Khronos glTF Blender I/O v4.1.63",
		"version":"2.0"
	},
	"scene":0,
	"scenes":[
		{
			"name":"Scene",
			"nodes":[
				0
			]
		}
	],
	"nodes":[
		{
			"mesh":0,
			"name":"nature_tree_trunk",
			"scale":[
				1.5,
				1.5,
				1.5
			]
		}
	],
	"materials":[
		{
			"doubleSided":true,
			"name":"nature_tree_trunk",
			"pbrMetallicRoughness":{}
		}
	],
	"meshes":[
		{
			"name":"Cylinder",
			"primitives":[
				{
					"attributes":{
						"POSITION":0,
						"NORMAL":1,
						"TEXCOORD_0":2
					},
					"indices":3,
					"material":0
				}
			]
		}
	],
	"accessors":[
		{
			"bufferView":0,
			"componentType":5126,
			"count":47,
			"max":[
				0.37528368830680847,
				0.13342878222465515,
				0.27597543597221375
			],
			"min":[
				-0.36524125933647156,
				-0.212421253323555,
				-0.3002297878265381
			],
			"type":"VEC3"
		},
		{
			"bufferView":1,
			"componentType":5126,
			"count":47,
			"type":"VEC3"
		},
		{
			"bufferView":2,
			"componentType":5126,
			"count":47,
			"type":"VEC2"
		},
		{
			"bufferView":3,
			"componentType":5123,
			"count":156,
			"type":"SCALAR"
		}
	],
	"bufferViews":[
		{
			"buffer":0,
			"byteLength":564,
			"byteOffset":0,
			"target":34962
		},
		{
			"buffer":0,
			"byteLength":564,
			"byteOffset":564,
			"target":34962
		},
		{
			"buffer":0,
			"byteLength":376,
			"byteOffset":1128,
			"target":34962
		},
		{
			"buffer":0,
			"byteLength":312,
			"byteOffset":1504,
			"target":34963
		}
	],
	"buffers":[
		{
			"byteLength":1816,
			"uri":"tree_trunk-05cd6b15fc28dc3c43d331ea337af6c0.bin"
		}
	]
}
