{
	"asset":{
		"generator":"Khronos glTF Blender I/O v4.1.63",
		"version":"2.0"
	},
	"extensionsUsed":[
		"KHR_materials_specular",
		"KHR_materials_ior"
	],
	"scene":0,
	"scenes":[
		{
			"name":"Scene",
			"nodes":[
				0
			]
		}
	],
	"nodes":[
		{
			"mesh":0,
			"name":"Plane",
			"rotation":[
				-0.7071064710617065,
				0.7071065306663513,
				0.00065734883537516,
				0.0006576242158189416
			],
			"scale":[
				-1.8136141300201416,
				-1.813614010810852,
				-1.8136141300201416
			]
		}
	],
	"materials":[
		{
			"doubleSided":true,
			"extensions":{
				"KHR_materials_specular":{
					"specularFactor":0
				},
				"KHR_materials_ior":{
					"ior":1.4500000476837158
				}
			},
			"name":"Material",
			"pbrMetallicRoughness":{
				"baseColorTexture":{
					"index":0
				},
				"metallicFactor":0,
				"roughnessFactor":0.4000000059604645
			}
		}
	],
	"meshes":[
		{
			"name":"Plane",
			"primitives":[
				{
					"attributes":{
						"POSITION":0,
						"NORMAL":1,
						"TEXCOORD_0":2
					},
					"indices":3,
					"material":0
				}
			]
		}
	],
	"textures":[
		{
			"sampler":0,
			"source":0
		}
	],
	"images":[
		{
			"mimeType":"image/jpeg",
			"name":"volvo.jpg",
			"uri":"../../Models/-%20Classic%2064%20Asset%20Pack%200.6/Vehicles/textures/volvo.jpg"
		}
	],
	"accessors":[
		{
			"bufferView":0,
			"componentType":5126,
			"count":1106,
			"max":[
				3.6170763969421387,
				2.217452049255371,
				5.064384460449219
			],
			"min":[
				0.29697394371032715,
				-2.217452049255371,
				-7.206418514251709
			],
			"type":"VEC3"
		},
		{
			"bufferView":1,
			"componentType":5126,
			"count":1106,
			"type":"VEC3"
		},
		{
			"bufferView":2,
			"componentType":5126,
			"count":1106,
			"type":"VEC2"
		},
		{
			"bufferView":3,
			"componentType":5123,
			"count":2466,
			"type":"SCALAR"
		}
	],
	"bufferViews":[
		{
			"buffer":0,
			"byteLength":13272,
			"byteOffset":0,
			"target":34962
		},
		{
			"buffer":0,
			"byteLength":13272,
			"byteOffset":13272,
			"target":34962
		},
		{
			"buffer":0,
			"byteLength":8848,
			"byteOffset":26544,
			"target":34962
		},
		{
			"buffer":0,
			"byteLength":4932,
			"byteOffset":35392,
			"target":34963
		}
	],
	"samplers":[
		{
			"magFilter":9728,
			"minFilter":9984
		}
	],
	"buffers":[
		{
			"byteLength":40324,
			"uri":"volvo-6d00e6dbb6342adc47529fb3355353cd.bin"
		}
	]
}
