{
	"asset":{
		"generator":"Khronos glTF Blender I/O v4.1.63",
		"version":"2.0"
	},
	"scene":0,
	"scenes":[
		{
			"name":"Scene",
			"nodes":[
				0,
				1,
				2,
				3
			]
		}
	],
	"nodes":[
		{
			"mesh":0,
			"name":"wood_plank_2_door.001",
			"rotation":[
				0,
				0,
				-1,
				0
			],
			"scale":[
				-1.5000004768371582,
				-2,
				-1.000000238418579
			],
			"translation":[
				0,
				0.00015082549361977726,
				-0.08888179063796997
			]
		},
		{
			"mesh":1,
			"name":"wood_plank_2.001",
			"scale":[
				1.5000004768371582,
				2,
				1
			],
			"translation":[
				-2.098623514175415,
				0.00015082549361977726,
				-0.06351763755083084
			]
		},
		{
			"mesh":2,
			"name":"wood_plank_2_end",
			"rotation":[
				0,
				0.7071068286895752,
				0,
				0.7071068286895752
			],
			"scale":[
				1.4776904582977295,
				2,
				1.4999998807907104
			],
			"translation":[
				2.81769061088562,
				-0.010876450687646866,
				-0.2163674235343933
			]
		},
		{
			"mesh":3,
			"name":"wood_plank_2_door",
			"scale":[
				1.5000004768371582,
				2,
				1
			],
			"translation":[
				0,
				0.00015082549361977726,
				-0.06351763755083084
			]
		}
	],
	"materials":[
		{
			"doubleSided":true,
			"name":"wood_plank_2",
			"pbrMetallicRoughness":{}
		}
	],
	"meshes":[
		{
			"name":"Cube.012",
			"primitives":[
				{
					"attributes":{
						"POSITION":0,
						"NORMAL":1,
						"TEXCOORD_0":2,
						"TANGENT":3
					},
					"indices":4,
					"material":0
				}
			]
		},
		{
			"name":"Cube.010",
			"primitives":[
				{
					"attributes":{
						"POSITION":5,
						"NORMAL":6,
						"TEXCOORD_0":7,
						"TANGENT":8
					},
					"indices":9,
					"material":0
				}
			]
		},
		{
			"name":"Cube.007",
			"primitives":[
				{
					"attributes":{
						"POSITION":10,
						"NORMAL":11,
						"TEXCOORD_0":12,
						"TANGENT":13
					},
					"indices":14,
					"material":0
				}
			]
		},
		{
			"name":"Cube.001",
			"primitives":[
				{
					"attributes":{
						"POSITION":15,
						"NORMAL":16,
						"TEXCOORD_0":17,
						"TANGENT":18
					},
					"indices":4,
					"material":0
				}
			]
		}
	],
	"accessors":[
		{
			"bufferView":0,
			"componentType":5126,
			"count":168,
			"max":[
				0.6095998883247375,
				0.6094492077827454,
				0.014518840238451958
			],
			"min":[
				-0.6095998287200928,
				-0.6097508072853088,
				-0.012682359665632248
			],
			"type":"VEC3"
		},
		{
			"bufferView":1,
			"componentType":5126,
			"count":168,
			"type":"VEC3"
		},
		{
			"bufferView":2,
			"componentType":5126,
			"count":168,
			"type":"VEC2"
		},
		{
			"bufferView":3,
			"componentType":5126,
			"count":168,
			"type":"VEC4"
		},
		{
			"bufferView":4,
			"componentType":5123,
			"count":264,
			"type":"SCALAR"
		},
		{
			"bufferView":5,
			"componentType":5126,
			"count":84,
			"max":[
				0.6095998883247375,
				0.6094492077827454,
				0.014518840238451958
			],
			"min":[
				-0.6095998287200928,
				-0.6097508072853088,
				-0.012682359665632248
			],
			"type":"VEC3"
		},
		{
			"bufferView":6,
			"componentType":5126,
			"count":84,
			"type":"VEC3"
		},
		{
			"bufferView":7,
			"componentType":5126,
			"count":84,
			"type":"VEC2"
		},
		{
			"bufferView":8,
			"componentType":5126,
			"count":84,
			"type":"VEC4"
		},
		{
			"bufferView":9,
			"componentType":5123,
			"count":126,
			"type":"SCALAR"
		},
		{
			"bufferView":10,
			"componentType":5126,
			"count":168,
			"max":[
				1.1243431568145752,
				0.6204764246940613,
				0.10548237711191177
			],
			"min":[
				-0.11326384544372559,
				-0.5987235903739929,
				-1.113717794418335
			],
			"type":"VEC3"
		},
		{
			"bufferView":11,
			"componentType":5126,
			"count":168,
			"type":"VEC3"
		},
		{
			"bufferView":12,
			"componentType":5126,
			"count":168,
			"type":"VEC2"
		},
		{
			"bufferView":13,
			"componentType":5126,
			"count":168,
			"type":"VEC4"
		},
		{
			"bufferView":14,
			"componentType":5123,
			"count":252,
			"type":"SCALAR"
		},
		{
			"bufferView":15,
			"componentType":5126,
			"count":168,
			"max":[
				0.6095998883247375,
				0.6094492077827454,
				0.014518840238451958
			],
			"min":[
				-0.6095998287200928,
				-0.6097508072853088,
				-0.012682359665632248
			],
			"type":"VEC3"
		},
		{
			"bufferView":16,
			"componentType":5126,
			"count":168,
			"type":"VEC3"
		},
		{
			"bufferView":17,
			"componentType":5126,
			"count":168,
			"type":"VEC2"
		},
		{
			"bufferView":18,
			"componentType":5126,
			"count":168,
			"type":"VEC4"
		}
	],
	"bufferViews":[
		{
			"buffer":0,
			"byteLength":2016,
			"byteOffset":0,
			"target":34962
		},
		{
			"buffer":0,
			"byteLength":2016,
			"byteOffset":2016,
			"target":34962
		},
		{
			"buffer":0,
			"byteLength":1344,
			"byteOffset":4032,
			"target":34962
		},
		{
			"buffer":0,
			"byteLength":2688,
			"byteOffset":5376,
			"target":34962
		},
		{
			"buffer":0,
			"byteLength":528,
			"byteOffset":8064,
			"target":34963
		},
		{
			"buffer":0,
			"byteLength":1008,
			"byteOffset":8592,
			"target":34962
		},
		{
			"buffer":0,
			"byteLength":1008,
			"byteOffset":9600,
			"target":34962
		},
		{
			"buffer":0,
			"byteLength":672,
			"byteOffset":10608,
			"target":34962
		},
		{
			"buffer":0,
			"byteLength":1344,
			"byteOffset":11280,
			"target":34962
		},
		{
			"buffer":0,
			"byteLength":252,
			"byteOffset":12624,
			"target":34963
		},
		{
			"buffer":0,
			"byteLength":2016,
			"byteOffset":12876,
			"target":34962
		},
		{
			"buffer":0,
			"byteLength":2016,
			"byteOffset":14892,
			"target":34962
		},
		{
			"buffer":0,
			"byteLength":1344,
			"byteOffset":16908,
			"target":34962
		},
		{
			"buffer":0,
			"byteLength":2688,
			"byteOffset":18252,
			"target":34962
		},
		{
			"buffer":0,
			"byteLength":504,
			"byteOffset":20940,
			"target":34963
		},
		{
			"buffer":0,
			"byteLength":2016,
			"byteOffset":21444,
			"target":34962
		},
		{
			"buffer":0,
			"byteLength":2016,
			"byteOffset":23460,
			"target":34962
		},
		{
			"buffer":0,
			"byteLength":1344,
			"byteOffset":25476,
			"target":34962
		},
		{
			"buffer":0,
			"byteLength":2688,
			"byteOffset":26820,
			"target":34962
		}
	],
	"buffers":[
		{
			"byteLength":29508,
			"uri":"wall_pieces_wood_planks_2-9fa049ffaf2ec1687f962c9a14fc20d8.bin"
		}
	]
}
