{
	"asset":{
		"generator":"Khronos glTF Blender I/O v4.1.63",
		"version":"2.0"
	},
	"scene":0,
	"scenes":[
		{
			"name":"Scene",
			"nodes":[
				0
			]
		}
	],
	"nodes":[
		{
			"mesh":0,
			"name":"Window_Boarded"
		}
	],
	"materials":[
		{
			"doubleSided":true,
			"name":"Window_Boarded",
			"pbrMetallicRoughness":{}
		}
	],
	"meshes":[
		{
			"name":"Cube",
			"primitives":[
				{
					"attributes":{
						"POSITION":0,
						"NORMAL":1,
						"TEXCOORD_0":2,
						"TANGENT":3
					},
					"indices":4,
					"material":0
				}
			]
		}
	],
	"accessors":[
		{
			"bufferView":0,
			"componentType":5126,
			"count":86,
			"max":[
				0.38100001215934753,
				0.5715000033378601,
				0.025400003418326378
			],
			"min":[
				-0.38099995255470276,
				-0.5715000033378601,
				-0.037420257925987244
			],
			"type":"VEC3"
		},
		{
			"bufferView":1,
			"componentType":5126,
			"count":86,
			"type":"VEC3"
		},
		{
			"bufferView":2,
			"componentType":5126,
			"count":86,
			"type":"VEC2"
		},
		{
			"bufferView":3,
			"componentType":5126,
			"count":86,
			"type":"VEC4"
		},
		{
			"bufferView":4,
			"componentType":5123,
			"count":156,
			"type":"SCALAR"
		}
	],
	"bufferViews":[
		{
			"buffer":0,
			"byteLength":1032,
			"byteOffset":0,
			"target":34962
		},
		{
			"buffer":0,
			"byteLength":1032,
			"byteOffset":1032,
			"target":34962
		},
		{
			"buffer":0,
			"byteLength":688,
			"byteOffset":2064,
			"target":34962
		},
		{
			"buffer":0,
			"byteLength":1376,
			"byteOffset":2752,
			"target":34962
		},
		{
			"buffer":0,
			"byteLength":312,
			"byteOffset":4128,
			"target":34963
		}
	],
	"buffers":[
		{
			"byteLength":4440,
			"uri":"window_boarded-85370ec058cd1f21ab16a3f5b956916a.bin"
		}
	]
}
