# Blender 3.3.1
# www.blender.org
mtllib PackCigaretteStandardOpenCigPulled.mtl
o packCigaretteStandardOpenCig
v 0.067544 1.308387 0.250154
v 0.119897 1.308387 0.302506
v 0.119897 1.308387 0.197801
v 0.067544 1.164895 0.250154
v 0.119897 1.164895 0.197801
v 0.119897 1.164895 0.302506
v 0.172250 1.308387 0.250154
v 0.172250 1.164895 0.250154
v -0.103325 -0.009387 0.305116
v -0.103325 1.165613 0.305116
v -0.103325 -0.009387 -0.471885
v -0.103325 1.165613 -0.471885
v 0.182071 -0.009387 0.305116
v 0.182071 1.165613 0.305116
v 0.182071 -0.009387 -0.471885
v 0.182071 1.165613 -0.471885
v -0.104267 1.124628 0.305116
v -0.226371 1.162440 0.305116
v -0.104267 1.124628 -0.471885
v -0.226371 1.162440 -0.471885
v 0.153978 1.343423 0.305116
v -0.141946 1.435064 0.305116
v 0.153978 1.343423 -0.471885
v -0.141946 1.435064 -0.471885
v -0.105038 1.126020 0.305116
v -0.223461 1.163832 0.305116
v -0.105038 1.126020 -0.471885
v -0.223461 1.163832 -0.471885
v 0.151136 1.340969 0.305116
v -0.141107 1.432610 0.305116
v 0.151136 1.340969 -0.471885
v -0.141107 1.432610 -0.471885
vn -0.7071 -0.0000 -0.7071
vn -0.7071 -0.0000 0.7071
vn 0.7071 -0.0000 -0.7071
vn 0.7071 -0.0000 0.7071
vn -0.0000 1.0000 -0.0000
vn -1.0000 -0.0000 -0.0000
vn -0.0000 -0.0000 -1.0000
vn 1.0000 -0.0000 -0.0000
vn -0.0000 -0.0000 1.0000
vn -0.0000 -1.0000 -0.0000
vn -0.2958 -0.9552 -0.0000
vn 0.2958 0.9552 -0.0000
vn -0.9552 0.2958 -0.0000
vn 0.3042 0.9526 -0.0000
vn -0.2992 -0.9542 -0.0000
vn 0.9561 -0.2930 -0.0000
vt 0.155858 0.494222
vt 0.646374 0.065157
vt 0.292640 0.494222
vt 0.649261 0.483411
vt 0.019075 0.494222
vt 0.363977 0.057958
vt 0.155858 0.022302
vt 0.019075 0.022302
vt 0.292640 0.022302
vt 0.155858 0.494222
vt 0.369707 0.483260
vt 0.155858 0.022302
vt 0.998637 0.008074
vt 0.443510 0.004816
vt 0.725515 0.864952
vt 0.998637 0.999943
vt 0.443510 1.000115
vt 0.551740 1.000103
vt 0.664680 0.008074
vt 0.443596 0.005765
vt 0.725515 0.730511
vt 0.664680 0.999943
vt 0.443596 0.999947
vt 0.551669 0.353216
vt -0.000246 0.006030
vt 0.343352 0.004816
vt 0.859955 0.864952
vt -0.000246 1.000265
vt 0.343352 1.000115
vt 0.449128 0.998802
vt 0.343406 0.005765
vt 0.335840 0.006030
vt 0.859955 0.730511
vt 0.343406 0.999947
vt 0.335840 1.000265
vt 0.449629 0.353386
vt 0.998788 0.941607
vt 0.689685 0.833333
vt 0.998788 0.999935
vt 0.939685 0.833333
vt 0.558314 0.356951
vt 0.664663 0.941607
vt 0.751457 0.703174
vt 0.664663 0.999935
vt 0.863927 0.703174
vt 0.558314 0.998862
vt 0.664558 0.739691
vt 0.689685 0.733871
vt 0.664156 0.999822
vt 0.939685 0.733871
vt 0.659512 0.356951
vt 0.751457 0.815644
vt 0.998765 0.740102
vt 0.863927 0.815644
vt 0.998362 1.000233
vt 0.659512 0.998862
vt 0.998788 0.752091
vt 0.689685 0.833333
vt 0.998788 0.810419
vt 0.939685 0.833333
vt 0.558314 0.774962
vt 0.664663 0.752091
vt 0.751457 0.703174
vt 0.664663 0.810419
vt 0.863927 0.703174
vt 0.558314 0.998862
vt 0.664558 0.739691
vt 0.689685 0.733871
vt 0.664156 0.999822
vt 0.939685 0.733871
vt 0.659512 0.774962
vt 0.751457 0.815644
vt 0.998765 0.740102
vt 0.863927 0.815644
vt 0.998362 1.000233
vt 0.659512 0.998862
s 0
usemtl Material.059
f 1/1/1 3/5/1 5/8/1 4/7/1
f 2/3/2 1/1/2 4/7/2 6/9/2
f 7/10/3 8/12/3 5/8/3 3/5/3
f 2/3/4 6/9/4 8/12/4 7/10/4
f 1/2/5 2/4/5 7/11/5 3/6/5
usemtl Material.060
f 9/13/6 10/16/6 12/22/6 11/19/6
f 11/20/7 12/23/7 16/34/7 15/31/7
f 15/32/8 16/35/8 14/28/8 13/25/8
f 13/26/9 14/29/9 10/17/9 9/14/9
f 11/21/10 15/33/10 13/27/10 9/15/10
f 16/36/5 12/24/5 10/18/5 14/30/5
f 17/37/11 18/39/11 20/44/11 19/42/11
f 19/43/9 23/52/9 24/54/9 20/45/9
f 23/53/12 24/55/12 22/49/12 21/47/12
f 21/48/7 17/38/7 18/40/7 22/50/7
f 24/56/13 20/46/13 18/41/13 22/51/13
f 25/57/14 27/62/14 28/64/14 26/59/14
f 27/63/7 28/65/7 32/74/7 31/72/7
f 31/73/15 29/67/15 30/69/15 32/75/15
f 29/68/9 30/70/9 26/60/9 25/58/9
f 32/76/16 30/71/16 26/61/16 28/66/16
