# Blender 3.3.1
# www.blender.org
mtllib AdjustableWrench.mtl
o AWrench
v 0.112482 2.336604 -0.071706
v 0.170824 0.196987 -0.089030
v 0.112482 2.336604 0.070132
v 0.170824 0.196987 0.078340
v -0.130713 2.336604 -0.071706
v -0.189055 0.196987 -0.089030
v -0.130713 2.336604 0.070132
v -0.189055 0.196987 0.078340
v 0.039397 0.055037 -0.086788
v 0.039397 0.055037 0.076483
v -0.057627 0.055037 -0.086788
v -0.057627 0.055037 0.076483
v 0.381254 2.885978 -0.071707
v 0.381254 2.885978 0.070132
v -0.400507 2.804918 -0.071707
v -0.400507 2.804918 0.070132
v 0.381254 3.129582 -0.072186
v 0.381254 3.129582 0.070721
v 0.060177 2.996239 -0.072187
v 0.060177 2.996239 0.070720
v 0.046986 3.343269 -0.072186
v 0.046986 3.343269 0.070721
v 0.139547 3.110715 -0.072186
v 0.139547 3.110715 0.070721
v -0.340226 2.825022 -0.072187
v -0.340226 2.825022 0.070720
v -0.207557 3.251138 -0.072186
v -0.207557 3.251138 0.070721
v -0.102240 3.006924 -0.072187
v -0.102240 3.006924 0.070720
v 0.015288 2.976397 -0.072187
v 0.015288 2.976397 0.070720
v 0.238584 3.309102 -0.072186
v 0.238627 3.309151 0.070721
v -0.311889 3.126768 -0.072186
v -0.311889 3.126768 0.070721
vn -0.0000 0.0035 1.0000
vn -0.0000 0.0036 1.0000
vn 0.0001 -0.0006 1.0000
vn 0.0009 -0.0036 1.0000
vn -0.0000 0.0038 1.0000
vn -0.9996 0.0273 -0.0000
vn -0.0000 -0.0131 0.9999
vn 0.9996 0.0273 -0.0000
vn -0.0000 0.0081 -1.0000
vn -0.0000 0.0076 -1.0000
vn -0.0000 -1.0000 -0.0000
vn -0.7338 -0.6794 -0.0000
vn 0.7338 -0.6794 -0.0000
vn -0.0000 -0.0158 -0.9999
vn -0.0000 -0.0000 1.0000
vn -0.8665 -0.4992 -0.0000
vn 0.8983 -0.4395 -0.0000
vn 0.0007 -0.0029 -1.0000
vn 0.0001 -0.0004 -1.0000
vn 1.0000 -0.0000 -0.0000
vn -0.3836 0.9235 -0.0000
vn 0.0012 -0.0047 1.0000
vn 0.0010 -0.0038 -1.0000
vn -0.0000 -0.0000 -1.0000
vn 0.7830 0.6221 -0.0002
vn -0.8218 0.5698 -0.0000
vn -0.9291 -0.3698 -0.0000
vn 0.2514 0.9679 -0.0000
vn 0.9183 0.3960 -0.0000
vn -0.7661 0.6427 -0.0000
vn 0.1754 0.9845 -0.0002
vn -0.9956 0.0935 -0.0000
vt 0.579977 0.679212
vt 0.676227 0.771106
vt 0.591425 0.699055
vt 0.644823 0.132079
vt 0.587131 0.133329
vt 0.649631 0.159579
vt 0.591425 0.699055
vt 0.565175 0.675462
vt 0.613727 0.767356
vt 0.649631 0.159579
vt 0.628189 0.129807
vt 0.649631 0.139579
vt 0.311432 0.699055
vt 0.259282 0.158791
vt 0.311432 0.699055
vt 0.259282 0.158791
vt 0.626306 0.043138
vt 0.510922 0.118138
vt 0.510922 0.118138
vt 0.626306 0.043138
vt 0.404050 0.118138
vt 0.404050 0.118138
vt 0.829784 0.840140
vt 0.817817 0.838279
vt 0.887477 0.856390
vt 0.724015 0.831390
vt 0.887477 0.856784
vt 0.887477 0.856390
vt 0.026368 0.826089
vt 0.026368 0.826089
vt 0.786017 0.917888
vt 0.887477 0.926156
vt 0.845075 0.918281
vt 0.851133 0.922219
vt 0.887477 0.926156
vt 0.864762 0.923006
vt 0.864762 0.924975
vt 0.876876 0.924581
vt 0.838985 0.924681
vt 0.602342 0.895968
vt 0.561455 0.892030
vt 0.561455 0.892030
vt 0.610923 0.900056
vt 0.519280 0.987353
vt 0.555624 0.985778
vt 0.519280 0.987353
vt 0.563196 0.975542
vt 0.662123 0.924690
vt 0.621236 0.920753
vt 0.621236 0.920753
vt 0.667299 0.921197
vt 0.092768 0.831846
vt 0.203429 0.844744
vt 0.262561 0.853134
vt 0.092768 0.831846
vt 0.203429 0.844744
vt 0.262561 0.853134
vt 0.353377 0.965928
vt 0.353377 0.965928
vt 0.354908 0.891028
vt 0.438857 0.900950
vt 0.404126 0.881267
vt 0.354908 0.891028
vt 0.438857 0.900950
vt 0.472271 0.892882
vt 0.484366 0.882285
vt 0.530156 0.888238
vt 0.474038 0.876546
vt 0.484366 0.882285
vt 0.530156 0.888238
vt 0.542183 0.888161
vt 0.651332 0.964339
vt 0.695248 0.971426
vt 0.692107 0.971949
vt 0.675450 0.958168
vt 0.263110 0.920490
vt 0.263110 0.920490
s 1
usemtl Material.008
f 7/15/1 3/7/2 14/28/3 16/30/4
f 4/10/5 3/7/2 7/15/1 8/16/5
f 8/16/6 7/15/6 5/13/6 6/14/6
f 4/10/7 8/16/7 12/22/7 10/19/7
f 2/4/8 1/1/8 3/8/8 4/11/8
f 6/14/9 5/13/10 1/3/10 2/6/9
f 11/21/11 9/18/11 10/19/11 12/22/11
f 8/16/12 6/14/12 11/21/12 12/22/12
f 2/5/13 4/12/13 10/20/13 9/17/13
f 6/14/14 2/6/14 9/18/14 11/21/14
f 19/40/15 17/32/15 23/48/15
f 5/13/16 7/15/16 16/30/16 15/29/16
f 3/9/17 1/2/17 13/23/17 14/26/17
f 1/3/10 5/13/10 15/29/18 13/25/19
f 14/27/20 13/24/20 17/31/20 18/34/20
f 15/29/21 16/30/21 26/55/21 20/42/21 18/35/21 17/32/21 19/41/21 25/52/21
f 14/28/3 18/36/22 20/42/22 26/55/22 16/30/4
f 15/29/18 25/52/23 19/41/23 17/32/23 13/25/19
f 19/41/24 23/49/24 21/44/24 33/73/24 17/32/24
f 18/37/15 34/74/15 22/46/15 24/50/15 20/42/15
f 17/33/25 33/72/25 34/74/25 18/38/25
f 23/49/26 19/41/26 20/42/26 24/50/26
f 22/46/27 21/44/27 23/49/27 24/50/27
f 31/66/28 29/60/28 30/63/28 32/69/28
f 29/61/29 27/58/29 28/59/29 30/64/29
f 27/58/30 35/76/30 36/77/30 28/59/30
f 26/56/15 32/70/15 30/64/15 28/59/15 36/77/15
f 25/53/24 35/76/24 27/58/24 29/61/24 31/67/24
f 33/73/31 21/45/31 22/47/31 34/75/31
f 35/76/32 25/53/32 26/56/32 36/77/32
f 24/51/15 20/43/15 18/39/15
f 30/65/24 32/71/24 26/57/24
f 25/54/24 29/62/24 31/68/24
