# Blender 3.3.1
# www.blender.org
mtllib ToolBoxClosed.mtl
o ToolBox
v -0.981551 1.559121 0.316138
v -0.981551 2.074122 0.316138
v -0.981551 1.559121 -0.316138
v -0.981551 2.074122 -0.316138
v 0.967878 1.559121 0.316138
v 0.967878 2.074122 0.316138
v 0.967878 1.559121 -0.316138
v 0.967878 2.074122 -0.316138
v -0.113367 2.599998 -0.000032
v 0.129113 2.600106 -0.000032
v -0.113290 2.574660 -0.025306
v 0.129190 2.574768 -0.025306
v -0.113290 2.574724 0.025306
v 0.129189 2.574832 0.025306
v -0.113214 2.549386 0.000032
v 0.129266 2.549494 0.000032
v -0.113367 2.599998 -0.000032
v -0.113290 2.574660 -0.025306
v -0.113290 2.574724 0.025306
v -0.113214 2.549386 0.000032
v -0.192891 2.547179 -0.000032
v -0.192814 2.521841 -0.025306
v -0.192814 2.521905 0.025306
v -0.192738 2.496567 0.000032
v -0.266406 2.439968 -0.000032
v -0.266330 2.391883 -0.025306
v -0.266330 2.391947 0.025306
v -0.266254 2.392167 0.000032
v 0.222840 2.542169 -0.000032
v 0.222917 2.516832 -0.025306
v 0.222917 2.516896 0.025306
v 0.222993 2.491558 0.000032
v 0.288364 2.437454 -0.000032
v 0.288441 2.391411 -0.025306
v 0.288441 2.391475 0.025306
v 0.288517 2.391696 0.000032
v 0.334890 2.437699 -0.000032
v 0.369415 2.391679 -0.025306
v 0.369415 2.391984 0.025306
v 0.369491 2.391941 0.000032
v -0.317061 2.439678 -0.000032
v -0.362033 2.391593 -0.025306
v -0.362033 2.391658 0.025306
v -0.361956 2.391878 0.000032
v -0.981551 2.074122 0.316138
v -0.981551 2.074122 -0.316138
v 0.967878 2.074122 0.316138
v 0.967878 2.074122 -0.316138
v -0.981551 2.391932 0.151293
v -0.981551 2.391932 -0.140772
v 0.967878 2.391932 0.151293
v 0.967878 2.391932 -0.140772
v -0.059758 1.785876 0.322316
v 0.059758 1.785876 0.322316
v -0.059758 2.074194 0.322299
v 0.059758 2.074194 0.322299
vn -1.0000 -0.0000 -0.0000
vn -0.0000 -0.0000 -1.0000
vn 1.0000 -0.0000 -0.0000
vn -0.0000 -0.0000 1.0000
vn -0.0000 -1.0000 -0.0000
vn -0.0003 0.7062 -0.7080
vn 0.0003 -0.7080 -0.7062
vn 0.0003 -0.7062 0.7080
vn -0.0003 0.7080 0.7062
vn -0.0000 1.0000 -0.0000
vn -0.4012 -0.6491 -0.6463
vn 0.4243 -0.6388 0.6417
vn -0.6752 0.4186 0.6074
vn -0.4243 0.6388 -0.6417
vn -0.4252 0.6402 0.6398
vn 0.4252 -0.6402 -0.6398
vn 0.8189 -0.5138 -0.2558
vn 0.8185 -0.5135 0.2576
vn -0.6741 0.4179 -0.6091
vn -0.8391 -0.4881 0.2400
vn -0.4004 -0.6477 0.6482
vn 0.4004 0.6477 -0.6482
vn 0.4012 0.6491 0.6463
vn -0.0028 0.4829 0.8757
vn 0.7132 0.4061 -0.5713
vn 0.7142 0.4067 0.5697
vn -0.8395 -0.4883 -0.2383
vn 0.7976 0.6031 -0.0036
vn -0.0019 0.4807 -0.8769
vn -0.7289 0.6846 -0.0009
vn -0.0018 0.4659 -0.8848
vn -0.0018 0.4673 0.8841
vn -0.0000 0.4831 -0.8756
vn -0.0000 0.4604 0.8877
vn -0.0000 0.0001 1.0000
vt 0.574187 0.585159
vt 0.151715 0.573099
vt 0.227500 0.436391
vt 0.574187 0.714111
vt 0.151715 0.713520
vt 0.727453 0.585159
vt 0.151715 0.573099
vt 0.227500 0.384615
vt 0.727453 0.714111
vt 0.151715 0.713520
vt 0.574187 0.585159
vt 0.466183 0.573099
vt 0.602500 0.436391
vt 0.574187 0.714111
vt 0.466183 0.713520
vt 0.466183 0.573099
vt 0.727453 0.585159
vt 0.602500 0.384615
vt 0.466183 0.713520
vt 0.727453 0.714111
vt 0.642487 0.690203
vt 0.719858 0.690243
vt 0.642511 0.680635
vt 0.719882 0.680675
vt 0.642511 0.680659
vt 0.719882 0.680700
vt 0.642536 0.671091
vt 0.719906 0.671132
vt 0.642487 0.690203
vt 0.642511 0.680635
vt 0.642511 0.680659
vt 0.642536 0.671091
vt 0.617112 0.670257
vt 0.617137 0.660690
vt 0.617137 0.660714
vt 0.617161 0.651146
vt 0.593655 0.629773
vt 0.593679 0.611616
vt 0.593679 0.611640
vt 0.593704 0.611723
vt 0.749764 0.668366
vt 0.749789 0.658798
vt 0.601039 0.599627
vt 0.601039 0.599651
vt 0.749789 0.658822
vt 0.749813 0.649254
vt 0.601063 0.590083
vt 0.770672 0.628824
vt 0.621946 0.552267
vt 0.770696 0.611438
vt 0.621946 0.552291
vt 0.770696 0.611462
vt 0.621970 0.552374
vt 0.785517 0.628917
vt 0.796533 0.611539
vt 0.796533 0.611654
vt 0.796558 0.611638
vt 0.577492 0.629664
vt 0.563142 0.611507
vt 0.563142 0.611531
vt 0.563167 0.611614
vt 0.574187 0.714111
vt 0.156869 0.718938
vt 0.553022 0.724676
vt 0.727453 0.714111
vt 0.574187 0.714111
vt 0.473365 0.718938
vt 0.838742 0.724676
vt 0.727453 0.714111
vt 0.216715 0.369302
vt 0.614146 0.805281
vt 0.156869 0.857733
vt 0.553022 0.823551
vt 0.216715 0.291810
vt 0.684944 0.805281
vt 0.735561 0.369302
vt 0.614146 0.805281
vt 0.473365 0.857733
vt 0.838742 0.823551
vt 0.735561 0.291810
vt 0.684944 0.805281
vt 0.476200 0.601274
vt 0.532030 0.601274
vt 0.476200 0.746571
vt 0.532030 0.746571
s 0
usemtl Material.001
f 1/1/1 2/4/1 4/9/1 3/6/1
f 3/7/2 4/10/2 8/19/2 7/16/2
f 7/17/3 8/20/3 6/14/3 5/11/3
f 5/12/4 6/15/4 2/5/4 1/2/4
f 3/8/5 7/18/5 5/13/5 1/3/5
f 9/21/6 10/22/6 12/24/6 11/23/6
f 11/23/7 12/24/7 16/28/7 15/27/7
f 15/27/8 16/28/8 14/26/8 13/25/8
f 13/25/9 14/26/9 10/22/9 9/21/9
f 13/25/10 9/21/10 17/29/10 19/31/10
f 16/28/11 12/24/11 30/42/11 32/46/11
f 20/32/12 19/31/12 23/35/12 24/36/12
f 11/23/10 15/27/10 20/32/10 18/30/10
f 9/21/10 11/23/10 18/30/10 17/29/10
f 15/27/10 13/25/10 19/31/10 20/32/10
f 23/35/13 21/33/13 25/37/13 27/39/13
f 17/29/14 18/30/14 22/34/14 21/33/14
f 19/31/15 17/29/15 21/33/15 23/35/15
f 18/30/16 20/32/16 24/36/16 22/34/16
f 22/34/17 24/36/17 28/40/17 26/38/17
f 24/36/18 23/35/18 27/39/18 28/40/18
f 21/33/19 22/34/19 26/38/19 25/37/19
f 31/44/20 32/47/20 36/53/20 35/51/20
f 14/26/21 16/28/21 32/46/21 31/45/21
f 12/24/22 10/22/22 29/41/22 30/42/22
f 10/22/23 14/26/23 31/45/23 29/41/23
f 33/48/24 35/52/24 39/56/24 37/54/24
f 30/42/25 29/41/25 33/48/25 34/50/25
f 29/41/26 31/45/26 35/52/26 33/48/26
f 32/47/27 30/43/27 34/49/27 36/53/27
f 40/57/28 38/55/28 37/54/28 39/56/28
f 34/50/29 33/48/29 37/54/29 38/55/29
f 42/59/30 44/61/30 43/60/30 41/58/30
f 25/37/31 26/38/31 42/59/31 41/58/31
f 27/39/32 25/37/32 41/58/32 43/60/32
f 48/68/33 46/64/33 50/73/33 52/79/33
f 52/80/10 50/74/10 49/70/10 51/76/10
f 47/66/3 48/69/3 52/81/3 51/77/3
f 46/65/1 45/62/1 49/71/1 50/75/1
f 45/63/34 47/67/34 51/78/34 49/72/34
f 53/82/35 54/83/35 56/85/35 55/84/35
