# Blender 3.3.1
# www.blender.org
mtllib CigaretteFull.mtl
o CigaretteFull
v -0.052353 1.192369 0.000000
v -0.052353 0.078521 -0.000000
v 0.000000 1.192369 0.052353
v 0.000000 0.078521 0.052353
v 0.000000 1.192369 -0.052353
v 0.000000 0.078521 -0.052353
v -0.052353 0.878825 0.000000
v 0.000000 0.878825 -0.052353
v 0.000000 0.878825 0.052353
v 0.052353 1.192369 0.000000
v 0.052353 0.078521 -0.000000
v 0.052353 0.878825 0.000000
vn -0.7071 -0.0000 0.7071
vn -0.0000 -1.0000 -0.0000
vn -0.7071 -0.0000 -0.7071
vn 0.7071 -0.0000 0.7071
vn 0.7071 -0.0000 -0.7071
vn -0.0000 1.0000 -0.0000
vt 0.155858 0.494222
vt 0.646374 0.065157
vt 0.317859 0.987932
vt 0.830853 0.532296
vt 0.292640 0.494222
vt 0.649261 0.483411
vt 0.323975 0.517446
vt 0.986441 0.532296
vt 0.019075 0.494222
vt 0.363977 0.057958
vt 0.004597 0.993629
vt 0.675266 0.532296
vt 0.830853 0.980000
vt 0.155858 0.022302
vt 0.675266 0.980000
vt 0.019075 0.022302
vt 0.986441 0.980000
vt 0.292640 0.022302
vt 0.155858 0.494222
vt 0.369707 0.483260
vt 0.005605 0.517567
vt 0.830853 0.532296
vt 0.830853 0.980000
vt 0.155858 0.022302
s 0
usemtl Material.062
f 9/17/1 7/13/1 2/4/1 4/8/1
f 2/3/2 6/11/2 11/21/2 4/7/2
f 7/13/3 8/15/3 6/12/3 2/4/3
f 1/1/3 5/9/3 8/16/3 7/14/3
f 3/5/1 1/1/1 7/14/1 9/18/1
f 9/17/4 4/8/4 11/22/4 12/23/4
f 12/23/5 11/22/5 6/12/5 8/15/5
f 10/19/5 12/24/5 8/16/5 5/9/5
f 3/5/4 9/18/4 12/24/4 10/19/4
f 1/2/6 3/6/6 10/20/6 5/10/6
