# Blender 3.3.1
# www.blender.org
mtllib Chisel.mtl
o Cube
v -0.033991 0.327056 0.000281
v -0.054871 0.744934 0.000355
v 0.044972 0.327056 -0.079243
v 0.044897 0.744934 -0.100124
v 0.045534 0.327056 0.079243
v 0.045608 0.744934 0.100124
v 0.124496 0.327056 -0.000281
v 0.145377 0.744934 -0.000355
v -0.033069 1.080696 0.000278
v 0.044975 1.080696 -0.078321
v 0.045531 1.080696 0.078321
v 0.123574 1.080696 -0.000278
v -0.033924 1.110060 0.000281
v 0.044972 1.110060 -0.079177
v 0.045534 1.110060 0.079177
v 0.124429 1.110060 -0.000281
v -0.026479 1.371470 0.023111
v -0.026479 2.009056 0.023111
v -0.070997 1.371470 -0.020464
v -0.070997 2.070109 -0.020464
v 0.119463 1.371470 0.023111
v 0.119463 2.009056 0.023111
v 0.160802 1.371470 -0.020464
v 0.160802 2.070109 -0.020464
v 0.020675 1.311823 0.015481
v 0.020675 1.311823 -0.014511
v 0.069129 1.311823 0.015481
v 0.069129 1.311823 -0.014511
v 0.011839 1.107788 0.024317
v 0.011839 1.107788 -0.023347
v 0.077965 1.107788 0.024317
v 0.077965 1.107788 -0.023347
vn -0.7092 -0.0353 -0.7042
vn 0.7042 -0.0353 -0.7092
vn 0.7092 -0.0353 0.7042
vn -0.7042 -0.0353 0.7092
vn -0.0000 -1.0000 -0.0000
vn -0.7039 0.0459 0.7089
vn 0.7095 -0.0206 0.7044
vn 0.7039 0.0459 -0.7089
vn 0.7089 0.0459 0.7039
vn -0.7089 0.0459 -0.7039
vn -0.0000 1.0000 -0.0000
vn -0.7095 -0.0206 -0.7044
vn -0.7044 -0.0206 0.7095
vn 0.7044 -0.0206 -0.7095
vn -0.6995 -0.0000 0.7146
vn -0.0000 -0.0000 -1.0000
vn 0.7255 -0.0000 0.6882
vn -0.0000 -0.0000 1.0000
vn -0.0000 -0.1269 0.9919
vn -0.0000 0.5809 0.8140
vn 0.9991 0.0433 -0.0000
vn -0.0000 -0.0993 -0.9951
vn -0.6041 -0.7081 0.3656
vn 0.6028 -0.7224 0.3387
vn -0.9991 0.0433 -0.0000
vn -0.0000 0.0433 0.9991
vn -0.0000 0.0433 -0.9991
vt 0.970951 0.084590
vt 0.885142 0.032512
vt 0.879384 0.034263
vt 0.802834 0.256557
vt 0.682112 0.189367
vt 0.804535 0.077777
vt 0.804521 0.077664
vt 0.933338 0.051335
vt 0.904540 0.076923
vt 0.746964 0.217522
vt 0.870447 0.096016
vt 0.933125 0.051407
vt 0.944193 0.040022
vt 0.746820 0.217331
vt 0.870479 0.096178
vt 0.884915 0.032622
vt 0.971112 0.084619
vt 0.968235 0.083726
vt 0.682176 0.189355
vt 0.802688 0.256935
vt 0.921524 0.142605
vt 0.921579 0.142972
vt 0.676260 0.205297
vt 0.676042 0.205057
vt 0.535553 0.342457
vt 0.539807 0.347038
vt 0.729742 0.230406
vt 0.584521 0.368992
vt 0.729244 0.230493
vt 0.595353 0.360987
vt 0.628392 0.396405
vt 0.776045 0.261512
vt 0.775643 0.261229
vt 0.633837 0.395715
vt 0.547295 0.363960
vt 0.520979 0.355270
vt 0.526734 0.357859
vt 0.578001 0.372068
vt 0.570482 0.382094
vt 0.570834 0.382285
vt 0.582722 0.372377
vt 0.616654 0.407973
vt 0.601540 0.391062
vt 0.620337 0.409110
vt 0.399194 0.472334
vt 0.400685 0.474456
vt 0.115629 0.738260
vt 0.107827 0.749432
vt 0.108597 0.761216
vt 0.375737 0.462504
vt 0.304810 0.577148
vt 0.391984 0.489195
vt 0.372753 0.459320
vt 0.061494 0.753552
vt 0.126970 0.743163
vt 0.059325 0.771662
vt 0.492255 0.524077
vt 0.199397 0.800113
vt 0.199397 0.799052
vt 0.187587 0.804019
vt 0.382255 0.619115
vt 0.512225 0.538132
vt 0.478075 0.535846
vt 0.518193 0.538132
vt 0.204415 0.785129
vt 0.196149 0.841413
vt 0.184785 0.839646
vt 0.476689 0.467054
vt 0.458786 0.463871
vt 0.442910 0.491888
vt 0.458786 0.463871
vt 0.489188 0.480346
vt 0.459349 0.462307
vt 0.460906 0.501640
vt 0.489188 0.480346
vt 0.556747 0.395282
vt 0.550779 0.369815
vt 0.522433 0.381487
vt 0.550779 0.369815
vt 0.575859 0.406092
vt 0.592270 0.392298
vt 0.554972 0.390176
vt 0.592270 0.392298
s 0
usemtl Material.001
f 1/1/1 2/4/1 4/10/1 3/8/1
f 3/8/2 4/10/2 8/19/2 7/16/2
f 7/17/3 8/20/3 6/14/3 5/12/3
f 5/12/4 6/14/4 2/5/4 1/2/4
f 3/9/5 7/18/5 5/13/5 1/3/5
f 2/6/6 6/15/6 11/29/6 9/23/6
f 11/30/7 12/31/7 16/42/7 15/41/7
f 8/21/8 4/11/8 10/27/8 12/32/8
f 6/15/9 8/22/9 12/33/9 11/29/9
f 4/11/10 2/7/10 9/24/10 10/27/10
f 16/43/11 14/38/11 13/35/11 15/40/11
f 10/28/12 9/25/12 13/36/12 14/39/12
f 9/26/13 11/30/13 15/41/13 13/37/13
f 12/34/14 10/28/14 14/39/14 16/44/14
f 17/45/15 18/47/15 20/54/15 19/50/15
f 19/51/16 20/55/16 24/65/16 23/61/16
f 23/62/17 24/66/17 22/58/17 21/57/17
f 21/57/18 22/59/18 18/48/18 17/46/18
f 21/57/19 17/46/19 25/69/19 27/72/19
f 24/67/20 20/56/20 18/49/20 22/60/20
f 28/73/21 27/72/21 31/80/21 32/82/21
f 19/52/22 23/63/22 28/74/22 26/70/22
f 17/46/23 19/53/23 26/71/23 25/69/23
f 23/64/24 21/57/24 27/72/24 28/75/24
f 25/68/25 26/71/25 30/78/25 29/76/25
f 27/72/26 25/69/26 29/77/26 31/81/26
f 26/71/27 28/75/27 32/83/27 30/79/27
