# Blender 3.3.1
# www.blender.org
mtllib PipeWrench.mtl
o PipeWrench
v -0.158548 1.341101 0.062812
v -0.158548 1.429995 0.062812
v -0.252749 1.341101 0.000000
v -0.252749 1.429995 0.000000
v -0.064346 1.341101 0.000000
v -0.064346 1.429995 0.000000
v -0.158548 1.341101 -0.062812
v -0.158548 1.429995 -0.062812
v -0.041988 1.202164 0.036866
v -0.041988 1.202164 -0.035612
v 0.107183 1.202164 0.036866
v 0.107183 1.202164 -0.035612
v -0.060424 0.201770 0.036296
v -0.060424 0.201770 -0.035042
v 0.112332 0.201770 0.036296
v 0.112332 0.201770 -0.035042
v -0.029237 0.106641 0.040000
v -0.029237 0.106641 -0.031785
v 0.085030 0.106641 0.040000
v 0.085030 0.106641 -0.031785
v -0.141593 1.325271 0.036866
v -0.141593 1.325271 -0.035612
v 0.107183 1.325271 0.036866
v 0.107183 1.325271 -0.035612
v -0.021906 1.325271 0.036866
v -0.021906 1.325271 -0.035612
v 0.107183 1.439425 0.036866
v 0.107183 1.439425 -0.035612
v -0.021906 1.439425 0.036866
v -0.021906 1.439425 -0.035612
v 0.126057 1.603282 0.036866
v 0.126057 1.603282 -0.035612
v -0.223354 1.462927 0.036866
v -0.223354 1.462927 -0.035612
v 0.133127 1.663736 0.036866
v 0.133127 1.663736 -0.035612
v -0.299903 1.559691 0.036866
v -0.299903 1.559691 -0.035612
v 0.136065 1.711130 0.036866
v 0.136065 1.711130 -0.035612
v -0.219244 1.692575 0.036866
v -0.219244 1.692575 -0.035612
v -0.075163 1.701852 0.036866
v -0.075163 1.701852 -0.035612
v -0.043934 1.742144 0.036866
v -0.043934 1.742144 -0.035612
v -0.215517 1.089110 0.016090
v -0.215517 1.895032 0.016090
v -0.215517 1.089110 -0.015667
v -0.215517 1.895032 -0.015667
v -0.101416 1.089110 0.016090
v -0.101416 1.836743 0.016090
v -0.101416 1.089110 -0.015667
v -0.101416 1.836743 -0.015673
v -0.158467 1.064220 0.015922
v -0.158467 1.064220 -0.015620
v 0.102418 1.897428 0.016090
v 0.102418 1.897428 -0.015667
v 0.133360 1.839139 0.036789
v 0.133360 1.839139 -0.036509
v -0.098981 1.965788 0.016090
v -0.098981 1.965788 -0.015667
v -0.022839 1.968184 0.016090
v -0.022839 1.968184 -0.015667
vn 0.5548 -0.0000 0.8320
vn -0.0000 -1.0000 -0.0000
vn -0.5548 -0.0000 0.8320
vn 0.5548 -0.0000 -0.8320
vn -0.5548 -0.0000 -0.8320
vn -0.0000 -0.0006 -1.0000
vn 1.0000 0.0051 -0.0000
vn -0.0000 -0.0006 1.0000
vn -0.0000 -0.0000 -1.0000
vn 0.9612 -0.2759 -0.0000
vn -0.9502 -0.3115 -0.0000
vn -0.0000 0.0389 0.9992
vn -0.0000 -0.0342 -0.9994
vn -0.0000 1.0000 -0.0000
vn -0.4896 -0.0000 -0.8720
vn -0.7774 -0.6290 -0.0000
vn -0.0000 -0.0000 1.0000
vn 0.9934 -0.1149 -0.0000
vn -0.1159 -0.9933 -0.0000
vn -0.8548 0.5189 -0.0000
vn -0.7843 -0.6204 -0.0000
vn -0.0522 0.9986 -0.0000
vn 0.9981 -0.0619 -0.0000
vn 0.1698 0.9855 -0.0000
vn -0.7904 0.6126 -0.0000
vn -1.0000 -0.0000 -0.0000
vn 1.0000 -0.0000 -0.0000
vn -0.0000 -0.0019 -1.0000
vn -0.3999 -0.9166 -0.0000
vn 0.3999 -0.9166 -0.0000
vn -0.0000 -0.0067 1.0000
vn 0.8833 0.4689 -0.0000
vn -0.0382 0.1284 0.9910
vn -0.0315 0.9995 -0.0000
vn 0.4918 0.8707 -0.0000
vn -0.5190 0.8548 -0.0000
vn 0.0102 -0.9999 -0.0000
vn -0.9998 0.0184 -0.0000
vn -0.0385 0.1293 -0.9909
vt 0.590898 0.706102
vt 0.584881 0.700708
vt 0.629649 0.740842
vt 0.623632 0.735448
vt 0.560425 0.741502
vt 0.548419 0.741404
vt 0.547163 0.745891
vt 0.593187 0.781538
vt 0.591930 0.786025
vt 0.593159 0.770848
vt 0.621371 0.670702
vt 0.623159 0.659063
vt 0.667926 0.699197
vt 0.654105 0.700048
vt 0.590898 0.706102
vt 0.584881 0.700708
vt 0.629649 0.740842
vt 0.623632 0.735448
vt 0.568769 0.575415
vt 0.566478 0.578076
vt 0.990292 0.816451
vt 0.568769 0.575415
vt 0.566478 0.578076
vt 0.975400 0.803929
vt 0.901994 0.718724
vt 0.630181 0.504074
vt 0.632472 0.501412
vt 0.866418 0.706138
vt 0.630181 0.504074
vt 0.866852 0.696537
vt 0.632472 0.501412
vt 0.896687 0.727190
vt 0.076895 0.127588
vt 0.069474 0.135894
vt 0.028763 0.087817
vt 0.896584 0.920315
vt 0.076895 0.127588
vt 0.069474 0.135894
vt 0.028763 0.087817
vt 0.878167 0.916066
vt 0.828877 0.829058
vt 0.132437 0.054132
vt 0.126957 0.056266
vt 0.090116 0.022749
vt 0.132437 0.054132
vt 0.793964 0.807017
vt 0.126957 0.056266
vt 0.090116 0.022749
vt 0.020407 0.076917
vt 0.017895 0.052558
vt 0.020407 0.076917
vt 0.017895 0.052558
vt 0.070960 0.018191
vt 0.053372 0.017550
vt 0.070960 0.018191
vt 0.053372 0.017550
vt 0.584410 0.684848
vt 0.592720 0.675156
vt 0.592720 0.675156
vt 0.584410 0.684848
vt 0.694470 0.556993
vt 0.831378 0.758606
vt 0.694470 0.556993
vt 0.861647 0.779659
vt 0.637360 0.623336
vt 0.637360 0.623336
vt 0.867707 0.699961
vt 0.751958 0.608531
vt 0.750771 0.609338
vt 0.798886 0.807259
vt 0.901725 0.723620
vt 0.751958 0.608531
vt 0.829155 0.828312
vt 0.694849 0.674874
vt 0.694849 0.674874
vt 0.815293 0.778445
vt 0.839861 0.676367
vt 0.849310 0.802105
vt 0.841048 0.675559
vt 0.617563 0.789017
vt 0.973907 0.896280
vt 0.617563 0.789016
vt 0.958013 0.883200
vt 0.795955 0.807401
vt 0.873889 0.704161
vt 0.875214 0.697276
vt 0.829973 0.831061
vt 0.873889 0.704161
vt 0.876401 0.696469
vt 0.959634 0.918418
vt 0.632428 0.872045
vt 0.941151 0.902812
vt 0.632428 0.872045
vt 0.899056 0.724049
vt 0.900381 0.717164
vt 0.901568 0.716356
vt 0.899056 0.724049
vt 0.901568 0.716356
vt 0.932503 0.946434
vt 0.735034 0.890585
vt 0.917220 0.933032
vt 0.735034 0.890585
vt 0.803448 0.820725
vt 0.803448 0.820725
vt 0.837555 0.822867
vt 0.837555 0.822867
vt 0.435406 0.613159
vt 0.432773 0.616218
vt 0.838641 0.980076
vt 0.435406 0.613159
vt 0.432773 0.616218
vt 0.833893 0.955847
vt 0.838641 0.980076
vt 0.481996 0.562705
vt 0.480620 0.560636
vt 0.483253 0.557577
vt 0.868471 0.902791
vt 0.859766 0.895118
vt 0.480620 0.560636
vt 0.481996 0.562705
vt 0.483253 0.557577
vt 0.859766 0.895118
vt 0.868471 0.902791
vt 0.445478 0.575660
vt 0.445478 0.575660
vt 0.983644 0.828015
vt 0.974682 0.884301
vt 0.980504 0.817759
vt 0.951737 0.863630
vt 0.964710 0.871073
vt 0.980504 0.817759
vt 0.970970 0.801060
vt 0.972752 0.786039
vt 0.964838 0.775540
vt 0.930088 0.851938
vt 0.964838 0.775540
vt 0.972752 0.786039
vt 0.888427 0.965756
vt 0.917917 0.974742
vt 0.925831 0.952128
vt 0.885436 0.950493
vt 0.925831 0.952128
vt 0.935308 0.953363
vt 0.916689 0.956415
vt 0.960723 0.914078
vt 0.960723 0.914078
vt 0.932317 0.939117
vt 0.902730 0.950309
s 0
usemtl Material.008
f 5/12/1 6/13/1 2/3/1 1/2/1
f 3/5/2 7/15/2 5/11/2 1/1/2
f 1/2/3 2/3/3 4/8/3 3/6/3
f 5/12/4 7/16/4 8/17/4 6/13/4
f 7/16/5 3/7/5 4/9/5 8/17/5
f 12/29/6 16/45/6 14/37/6 10/22/6
f 11/25/7 15/41/7 16/46/7 12/30/7
f 9/19/8 13/33/8 15/42/8 11/26/8
f 12/31/9 10/23/9 22/59/9 26/66/9 24/63/9
f 16/47/10 15/43/10 19/53/10 20/55/10
f 18/51/2 20/55/2 19/53/2 17/49/2
f 13/34/11 14/38/11 18/51/11 17/49/11
f 15/44/12 13/35/12 17/50/12 19/54/12
f 14/39/13 16/48/13 20/56/13 18/52/13
f 21/57/14 25/65/14 26/66/14 22/60/14
f 25/65/15 29/74/15 30/75/15 28/72/15 24/63/15 26/66/15
f 10/23/16 9/20/16 21/57/16 22/60/16
f 9/20/17 11/27/17 23/61/17 25/65/17 21/58/17
f 31/76/18 27/67/18 28/71/18 32/78/18 36/87/18 35/84/18
f 23/61/17 27/68/17 29/74/17 25/65/17
f 31/77/17 35/86/17 37/91/17 33/80/17
f 27/69/17 31/77/17 33/80/17 29/74/17
f 30/75/9 34/82/9 32/79/9 28/72/9
f 29/74/19 33/80/19 34/82/19 30/75/19
f 37/90/20 41/99/20 42/101/20 38/92/20
f 34/82/9 38/93/9 36/89/9 32/79/9
f 33/81/21 37/90/21 38/92/21 34/83/21
f 41/100/22 43/103/22 39/96/22 40/98/22 44/104/22 42/102/22
f 36/88/23 40/97/23 39/94/23 35/85/23
f 35/86/17 39/95/17 43/103/17 41/100/17 37/91/17
f 38/93/9 42/102/9 44/104/9 40/98/9 36/89/9
f 40/98/9 44/104/9 46/106/9
f 46/106/24 45/105/24 39/96/24 40/98/24
f 44/104/25 43/103/25 45/105/25 46/106/25
f 43/103/17 39/96/17 45/105/17
f 47/108/26 48/109/26 50/113/26 49/111/26
f 49/110/9 50/113/9 54/122/9 53/119/9
f 53/120/27 54/122/27 52/118/27 51/114/27
f 51/115/17 52/118/17 48/109/17 47/107/17
f 49/111/28 53/121/28 56/125/28
f 47/108/29 49/111/29 56/125/29 55/124/29
f 53/121/30 51/116/30 55/124/30 56/125/30
f 51/116/31 47/108/31 55/124/31
f 60/135/32 58/129/32 57/126/32 59/132/32
f 58/131/9 50/113/9 62/142/9 64/146/9
f 48/109/33 52/117/33 59/133/33 57/128/33
f 62/141/34 61/138/34 63/143/34 64/147/34
f 57/127/35 58/130/35 64/148/35 63/144/35
f 50/112/36 48/109/36 61/139/36 62/142/36
f 48/109/17 57/128/17 63/145/17 61/140/17
f 60/136/37 59/134/37 52/118/37 54/122/37
f 10/24/38 14/40/38 13/36/38 9/21/38
f 54/123/39 50/113/39 58/131/39 60/137/39
f 6/14/14 8/18/14 4/10/14 2/4/14
f 23/62/27 11/28/27 12/32/27 24/64/27 28/73/27 27/70/27
