# Blender 3.3.1
# www.blender.org
mtllib Awl.mtl
o Cube
v -0.041433 0.774857 0.000000
v -0.126218 0.206207 0.000000
v 0.148523 0.205618 0.000000
v 0.055523 0.774857 0.000000
v 0.009165 0.774857 0.052708
v 0.007480 0.230786 0.090804
v -0.075026 0.395343 0.000000
v 0.092070 0.397463 0.000000
v 0.008689 0.394283 0.080434
v -0.050973 0.555194 0.000000
v 0.069303 0.555194 0.000000
v 0.009165 0.555194 0.052708
v 0.011307 0.156189 0.000000
v -0.145309 0.306329 0.000000
v 0.163639 0.306329 0.000000
v 0.008436 0.309158 0.091876
v 0.008588 0.775262 0.020990
v 0.008588 1.380996 0.000000
v -0.014450 0.775262 0.000000
v 0.031625 0.775262 0.000000
v 0.009165 0.774857 -0.052707
v 0.007480 0.230786 -0.090803
v 0.008689 0.394283 -0.080434
v 0.009165 0.555194 -0.052707
v 0.008436 0.309158 -0.091876
v 0.008588 0.775262 -0.020990
vn -0.0000 1.0000 -0.0000
vn -0.6894 0.0150 0.7242
vn -0.2724 -0.7491 0.6039
vn 0.7033 0.0221 0.7105
vn 0.5621 0.2780 0.7789
vn -0.5652 0.2799 0.7760
vn 0.6746 0.1107 0.7298
vn -0.6743 0.1146 0.7295
vn -0.5314 -0.0591 0.8450
vn 0.2663 -0.7393 0.6185
vn 0.5206 -0.0518 0.8522
vn 0.6733 0.0256 0.7390
vn -0.6733 0.0256 0.7390
vn -0.6894 0.0150 -0.7242
vn -0.2724 -0.7491 -0.6039
vn 0.7033 0.0221 -0.7105
vn 0.5621 0.2780 -0.7789
vn -0.5652 0.2799 -0.7760
vn 0.6746 0.1107 -0.7298
vn -0.6743 0.1146 -0.7295
vn -0.5314 -0.0591 -0.8450
vn 0.2663 -0.7393 -0.6185
vn 0.5206 -0.0518 -0.8522
vn 0.6733 0.0256 -0.7390
vn -0.6733 0.0256 -0.7390
vt 0.470324 0.526156
vt 0.474054 0.523676
vt 0.383156 0.233449
vt 0.249948 0.250701
vt 0.365623 0.273923
vt 0.397587 0.208539
vt 0.566927 0.492501
vt 0.490662 0.473593
vt 0.520737 0.508593
vt 0.369108 0.258328
vt 0.317612 0.269910
vt 0.374809 0.222026
vt 0.362394 0.218326
vt 0.264019 0.255148
vt 0.246213 0.284375
vt 0.406347 0.229762
vt 0.329129 0.243473
vt 0.232348 0.242011
vt 0.321610 0.256598
vt 0.355110 0.381939
vt 0.349889 0.380451
vt 0.465996 0.342174
vt 0.406077 0.363049
vt 0.390495 0.261638
vt 0.400205 0.233740
vt 0.263372 0.290526
vt 0.209248 0.264363
vt 0.430086 0.144536
vt 0.405307 0.265858
vt 0.292753 0.214408
vt 0.212801 0.258135
vt 0.285296 0.300896
vt 0.364588 0.256205
vt 0.516614 0.511561
vt 0.804601 0.907907
vt 0.499387 0.517563
vt 0.533842 0.505559
vt 0.490662 0.473593
vt 0.520737 0.508593
vt 0.369108 0.258328
vt 0.317612 0.269910
vt 0.374809 0.222026
vt 0.362394 0.218326
vt 0.329129 0.243473
vt 0.232348 0.242011
vt 0.321610 0.256598
vt 0.406077 0.363049
vt 0.292753 0.214408
vt 0.212801 0.258135
vt 0.285296 0.300896
vt 0.364588 0.256205
vt 0.516614 0.511561
s 0
usemtl Material.002
f 4/7/1 1/1/1 5/8/1
f 12/23/2 5/9/2 1/2/2 10/20/2
f 2/3/3 13/24/3 6/10/3
f 11/22/4 4/7/4 5/9/4 12/23/4
f 15/28/5 8/16/5 9/17/5 16/30/5
f 16/31/6 9/18/6 7/14/6 14/26/6
f 8/16/7 11/22/7 12/23/7 9/19/7
f 9/19/8 12/23/8 10/21/8 7/15/8
f 6/11/9 16/32/9 14/27/9 2/4/9
f 6/12/10 13/25/10 3/5/10
f 3/6/11 15/29/11 16/33/11 6/13/11
f 20/37/12 18/35/12 17/34/12
f 17/34/13 18/35/13 19/36/13
f 4/7/1 21/38/1 1/1/1
f 24/47/14 10/20/14 1/2/14 21/39/14
f 2/3/15 22/40/15 13/24/15
f 11/22/16 24/47/16 21/39/16 4/7/16
f 15/28/17 25/48/17 23/44/17 8/16/17
f 25/49/18 14/26/18 7/14/18 23/45/18
f 8/16/19 23/46/19 24/47/19 11/22/19
f 23/46/20 7/15/20 10/21/20 24/47/20
f 22/41/21 2/4/21 14/27/21 25/50/21
f 22/42/22 3/5/22 13/25/22
f 3/6/23 22/43/23 25/51/23 15/29/23
f 20/37/24 26/52/24 18/35/24
f 26/52/25 19/36/25 18/35/25
