# Blender 4.1.1
# www.blender.org
mtllib snubnise.mtl
o SnubNoseBody
v -0.712798 0.874300 -0.000396
v -0.654321 0.074735 -0.000396
v 0.553974 1.355748 0.092332
v 0.470013 0.845793 0.092332
v -0.746333 0.199028 0.099270
v -0.672380 0.795493 0.090987
v -0.902584 0.403840 0.099271
v -0.885845 0.194680 0.099270
v -0.992453 0.069509 -0.000396
v 0.553974 1.384274 -0.000396
v -0.998981 0.431382 -0.000396
v 0.511934 0.798073 -0.000396
v -0.592971 0.447831 -0.000396
v -0.619479 0.612262 0.101132
v -0.655772 1.099640 0.051329
v -0.669923 1.095784 -0.000396
v -0.460224 0.709479 -0.000396
v -0.501731 0.748036 0.099271
v -0.452254 1.157944 -0.000396
v -0.451962 1.156954 0.066715
v -0.347004 0.791871 0.089026
v -0.327877 1.266328 -0.000396
v -0.347004 0.743907 -0.000396
v -0.327877 1.266328 0.089026
v -0.291318 0.843030 0.092332
v -0.208411 1.406358 -0.000396
v -0.291317 0.790455 -0.000396
v -0.214493 1.370093 0.092332
v 0.392451 0.870988 0.092332
v 0.451495 1.408716 -0.000396
v 0.392451 1.344198 0.092332
v 0.392451 1.382845 0.092332
v -0.117315 1.338727 0.092332
v -0.116377 1.382845 0.092332
v -0.124377 0.864608 0.092332
v -0.115777 1.405841 -0.000396
v 0.556065 1.068062 0.092332
v 0.556065 1.068062 -0.000396
v -0.995717 0.250446 -0.000396
v -0.337441 1.005118 0.089026
v 0.392451 0.943085 0.092332
v -0.122461 0.940268 0.092332
v 0.392451 1.344198 -0.000396
v -0.117315 1.338727 -0.000396
v 0.392451 0.943085 -0.000396
v -0.122461 0.940268 -0.000396
v -0.128388 0.476996 0.019893
v 0.138278 0.493834 0.019893
v -0.146514 0.451603 -0.000396
v 0.142446 0.462916 -0.000396
v 0.254753 0.606207 0.019893
v 0.283909 0.595106 -0.000396
v 0.259529 0.742818 0.019893
v 0.288685 0.731717 -0.000396
v -0.213123 0.663164 0.019893
v -0.243290 0.655206 -0.000396
v -0.196083 0.857825 0.013542
v -0.354526 0.748777 -0.000396
v 0.187216 0.805178 0.019893
v 0.347730 0.798059 -0.000396
v 0.556185 1.118127 -0.000396
v 0.666201 1.118127 -0.000396
v 0.556185 1.170794 -0.000396
v 0.666201 1.170794 -0.000396
v 0.385033 1.280499 0.088282
v 0.921172 1.280499 0.088282
v 0.385033 1.192182 -0.000396
v 0.385033 1.368817 -0.000396
v 0.921172 1.192182 -0.000396
v 0.921172 1.368817 -0.000396
v 0.688216 1.155830 0.039261
v 0.781714 1.155830 0.039261
v 0.688216 1.116533 -0.000396
v 0.688216 1.195127 -0.000396
v 0.760664 1.116533 -0.000396
v 0.833851 1.195127 -0.000396
v 0.553974 1.355748 -0.093124
v 0.470013 0.845793 -0.093124
v -0.746333 0.199028 -0.100064
v -0.672380 0.795493 -0.091779
v -0.902584 0.403840 -0.100064
v -0.885845 0.194680 -0.100064
v -0.619479 0.612262 -0.101924
v -0.655772 1.099640 -0.052121
v -0.501731 0.748036 -0.100064
v -0.451962 1.156954 -0.067507
v -0.347004 0.791871 -0.089819
v -0.327877 1.266328 -0.089819
v -0.291318 0.843030 -0.093124
v -0.214493 1.370093 -0.093124
v 0.392451 0.870988 -0.093124
v 0.392451 1.344198 -0.093124
v 0.392451 1.382845 -0.093124
v -0.117315 1.338727 -0.093124
v -0.116377 1.382845 -0.093124
v -0.124377 0.864608 -0.093124
v 0.556065 1.068062 -0.093124
v -0.337441 1.005118 -0.089819
v 0.392451 0.943085 -0.093124
v -0.122461 0.940268 -0.093124
v -0.128388 0.476996 -0.020685
v 0.138278 0.493834 -0.020685
v 0.254753 0.606207 -0.020685
v 0.259529 0.742818 -0.020685
v -0.213123 0.663164 -0.020685
v -0.196083 0.857825 -0.014334
v 0.187216 0.805178 -0.020685
v 0.385033 1.280499 -0.089073
v 0.921172 1.280499 -0.089073
v 0.688216 1.155830 -0.040052
v 0.781714 1.155830 -0.040052
v 0.795121 1.368404 0.000002
v 0.920911 1.369301 0.000002
v 0.823686 1.426594 0.000002
v 0.897281 1.425263 0.000002
v 0.823685 1.426596 0.009922
v 0.897077 1.425437 0.009922
v 0.823685 1.426596 -0.010059
v 0.897077 1.425437 -0.010059
v 0.795124 1.368954 0.009922
v 0.795124 1.368954 -0.010059
v 0.556185 1.118127 -0.000396
v 0.666201 1.118127 -0.000396
v 0.556185 1.170794 -0.000396
v 0.666201 1.170794 -0.000396
v 0.795121 1.368404 0.000002
v 0.920911 1.369301 0.000002
v 0.823686 1.426594 0.000002
v 0.897281 1.425263 0.000002
vn -0.6283 0.3954 0.6700
vn 0.0125 -0.6246 0.7808
vn 0.0053 -0.8017 0.5977
vn 1.0000 0.0069 0.0011
vn -0.2730 0.9620 0.0100
vn -0.0662 0.0419 0.9969
vn -0.7019 -0.0360 0.7113
vn -0.9008 0.1331 0.4132
vn 0.7191 -0.1737 0.6729
vn -0.6594 0.7518 0.0060
vn 0.6549 -0.4098 0.6349
vn -0.7193 0.6855 0.1125
vn 0.2663 -0.8530 0.4488
vn -0.0610 0.9514 0.3018
vn 0.6019 -0.6991 0.3859
vn -0.0000 -0.0000 1.0000
vn 0.1809 0.9267 0.3294
vn -1.0000 -0.0000 -0.0000
vn 0.9999 -0.0129 -0.0000
vn -0.0026 0.9672 0.2540
vn -0.6752 -0.0122 0.7375
vn 0.9299 -0.2459 0.2735
vn -0.0155 0.0136 0.9998
vn -0.0603 0.0957 0.9936
vn -0.0428 0.0041 0.9991
vn -0.1117 0.8645 -0.4901
vn -0.0055 1.0000 -0.0000
vn 0.0107 -0.9999 -0.0000
vn 0.0299 -0.5892 0.8074
vn 0.4162 -0.4389 0.7963
vn 0.5660 -0.0198 0.8242
vn -0.5205 -0.2424 0.8187
vn -0.1601 -0.0306 0.9866
vn 0.2112 0.0218 0.9772
vn 1.0000 -0.0000 -0.0000
vn -0.0000 -0.7085 0.7057
vn -0.0000 0.7085 0.7057
vn 0.7035 -0.6551 0.2757
vn -0.0000 -0.7103 0.7039
vn -0.0000 0.7103 0.7039
vn -0.6283 0.3954 -0.6700
vn 0.0125 -0.6246 -0.7808
vn 0.0053 -0.8017 -0.5977
vn 1.0000 0.0069 -0.0011
vn -0.2730 0.9620 -0.0100
vn -0.0662 0.0419 -0.9969
vn -0.7019 -0.0360 -0.7113
vn -0.9008 0.1331 -0.4132
vn 0.7191 -0.1737 -0.6729
vn -0.6594 0.7518 -0.0060
vn 0.6549 -0.4098 -0.6349
vn -0.7193 0.6855 -0.1125
vn 0.2663 -0.8530 -0.4488
vn -0.0610 0.9514 -0.3018
vn 0.6019 -0.6991 -0.3859
vn -0.0000 -0.0000 -1.0000
vn 0.1809 0.9267 -0.3294
vn -0.0026 0.9672 -0.2540
vn -0.6752 -0.0122 -0.7375
vn 0.9299 -0.2459 -0.2735
vn -0.0155 0.0136 -0.9998
vn -0.0603 0.0957 -0.9936
vn -0.0428 0.0041 -0.9991
vn -0.1117 0.8645 0.4901
vn 0.0299 -0.5892 -0.8074
vn 0.4162 -0.4389 -0.7963
vn 0.5660 -0.0198 -0.8242
vn -0.5205 -0.2424 -0.8187
vn -0.1601 -0.0306 -0.9866
vn 0.2112 0.0218 -0.9772
vn -0.0000 -0.7085 -0.7057
vn -0.0000 0.7085 -0.7057
vn 0.7035 -0.6551 -0.2757
vn -0.0000 -0.7103 -0.7039
vn -0.0000 0.7103 -0.7039
vn 0.0158 0.9999 -0.0000
vn -0.8960 0.4440 -0.0000
vn 0.9962 -0.0872 -0.0000
vn 0.9102 0.4143 -0.0000
vn -0.0630 0.9980 -0.0000
vn -0.6943 0.7197 -0.0000
vn -0.9994 0.0349 -0.0000
vn -0.6531 -0.7573 -0.0000
vt 0.141966 0.550751
vt 0.029868 0.383275
vt 0.061722 0.373579
vt 0.151474 0.526276
vt 0.026684 0.243231
vt 0.147056 0.244747
vt 0.122641 0.293727
vt 0.068248 0.292032
vt 0.300042 0.524312
vt 0.613212 0.527282
vt 0.596868 0.545887
vt 0.566628 0.555710
vt 0.365128 0.553223
vt 0.300042 0.544810
vt 0.621048 0.602754
vt 0.621110 0.745953
vt 0.582360 0.748078
vt 0.580824 0.598809
vt 0.291119 0.620531
vt 0.242057 0.606520
vt 0.245247 0.607389
vt 0.291185 0.620307
vt 0.288412 0.698033
vt 0.240035 0.655391
vt 0.218006 0.507774
vt 0.278331 0.524864
vt 0.025411 0.313774
vt 0.169358 0.624926
vt 0.158371 0.564532
vt 0.161317 0.528901
vt 0.174875 0.626430
vt 0.169933 0.400626
vt 0.172098 0.454838
vt 0.318852 0.650681
vt 0.290818 0.626252
vt 0.290884 0.626029
vt 0.169933 0.412084
vt 0.215439 0.506804
vt 0.218006 0.519232
vt 0.172098 0.466297
vt 0.304669 0.494599
vt 0.336893 0.527490
vt 0.316084 0.544787
vt 0.288347 0.515135
vt 0.234189 0.496022
vt 0.278331 0.506164
vt 0.198735 0.510378
vt 0.223016 0.627427
vt 0.207345 0.620037
vt 0.209246 0.613427
vt 0.224772 0.623499
vt 0.630418 0.632545
vt 0.629603 0.744708
vt 0.566628 0.755272
vt 0.566628 0.740204
vt 0.566628 0.583819
vt 0.337760 0.677851
vt 0.318497 0.673703
vt 0.310623 0.664572
vt 0.340063 0.673039
vt 0.332049 0.532933
vt 0.329624 0.686097
vt 0.307409 0.681715
vt 0.308873 0.539959
vt 0.249514 0.557694
vt 0.248606 0.538822
vt 0.334170 0.510153
vt 0.336627 0.527427
vt 0.566628 0.576601
vt 0.365875 0.575503
vt 0.603513 0.630577
vt 0.594838 0.535157
vt 0.608763 0.626639
vt 0.578494 0.553762
vt 0.158470 0.634961
vt 0.237931 0.657307
vt 0.500000 0.893906
vt 0.625000 0.893906
vt 0.231094 0.750000
vt 0.368248 0.755272
vt 0.329994 0.750301
vt 0.289725 0.695408
vt 0.250881 0.750000
vt 0.271742 0.750000
vt 0.250881 0.624422
vt 0.235678 0.568804
vt 0.354246 0.572128
vt 0.350140 0.585995
vt 0.240505 0.583102
vt 0.340150 0.586065
vt 0.236510 0.610441
vt 0.231292 0.598063
vt 0.333043 0.574725
vt 0.367882 0.738072
vt 0.270555 0.583166
vt 0.267700 0.579168
vt 0.313200 0.580949
vt 0.312544 0.585817
vt 0.335475 0.601764
vt 0.330884 0.603512
vt 0.336227 0.623275
vt 0.331636 0.625022
vt 0.257212 0.612480
vt 0.252462 0.611227
vt 0.330528 0.474684
vt 0.337172 0.550578
vt 0.283252 0.515090
vt 0.322487 0.476955
vt 0.526172 0.501412
vt 0.547952 0.534304
vt 0.486612 0.530053
vt 0.514805 0.505739
vt 0.630465 0.650632
vt 0.779857 0.650632
vt 0.779857 0.667260
vt 0.630465 0.667260
vt 0.768334 0.247710
vt 0.768700 0.342178
vt 0.721895 0.294595
vt 0.642040 0.680937
vt 0.981300 0.680937
vt 0.981300 0.715370
vt 0.642040 0.715370
vt 0.981300 0.749803
vt 0.644124 0.749803
vt 0.644124 0.715370
vt 0.800234 0.296126
vt 0.755307 0.344283
vt 0.757902 0.250249
vt 0.839006 0.651443
vt 0.867540 0.682085
vt 0.847213 0.666764
vt 0.796314 0.643569
vt 0.846881 0.643569
vt 0.855088 0.658889
vt 0.796314 0.658889
vt 0.871477 0.680772
vt 0.796314 0.674210
vt 0.833458 0.687818
vt 0.833458 0.740174
vt 0.728746 0.740174
vt 0.269504 0.586170
vt 0.330496 0.586170
vt 0.330496 0.647163
vt 0.269504 0.647163
vt 0.496163 0.510101
s 0
usemtl Material.025
f 1/1/1 11/2/1 7/3/1 6/4/1
f 9/5/2 2/6/2 5/7/2 8/8/2
f 27/9/3 12/10/3 4/11/3 29/12/3 35/13/3 25/14/3
f 38/15/4 10/16/4 3/17/4 37/18/4
f 19/19/5 16/20/5 15/21/5 20/22/5
f 24/23/6 20/24/6 18/25/6 21/26/6
f 8/8/7 7/3/7 11/2/7 39/27/7
f 16/28/8 1/29/8 6/30/8 15/31/8
f 2/6/9 13/32/9 14/33/9 5/7/9
f 22/34/10 19/35/10 20/36/10 24/34/10
f 13/37/11 17/38/11 18/39/11 14/40/11
f 26/41/12 22/42/12 24/43/12 28/44/12
f 17/45/13 23/46/13 21/26/13 18/47/13
f 36/48/14 26/49/14 28/50/14 34/51/14
f 23/46/15 27/9/15 25/14/15 21/26/15
f 37/52/16 3/53/16 32/54/16 31/55/16 41/56/16
f 10/57/17 30/58/17 32/59/17 3/60/17
f 41/61/18 31/62/18 43/63/18 45/64/18
f 42/65/19 46/66/19 44/67/19 33/68/19
f 30/58/20 36/48/20 34/51/20 32/59/20
f 29/12/16 41/69/16 42/70/16 35/13/16
f 4/11/16 37/71/16 41/56/16 29/12/16
f 8/8/21 39/27/21 9/5/21
f 12/72/22 38/73/22 37/73/22 4/74/22
f 14/33/23 6/4/23 7/3/23 8/8/23 5/7/23
f 15/75/24 6/4/24 14/33/24 18/25/24 20/76/24
f 40/77/16 24/78/16 21/79/16
f 34/80/16 28/81/16 25/14/16 35/13/16
f 25/14/25 28/81/25 24/82/25 21/26/25
f 25/83/26 35/84/26 27/85/26
f 42/86/27 41/87/27 45/88/27 46/89/27
f 31/90/28 33/91/28 44/92/28 43/93/28
f 32/54/16 34/80/16 33/94/16 31/55/16
f 47/95/29 49/96/29 50/97/29 48/98/29
f 50/97/30 52/99/30 51/100/30 48/98/30
f 52/99/31 54/101/31 53/102/31 51/100/31
f 47/95/32 55/103/32 56/104/32 49/96/32
f 55/105/33 57/106/33 58/107/33 56/108/33
f 54/109/34 60/110/34 59/111/34 53/112/34
f 61/113/16 62/114/16 64/115/16 63/116/16
f 69/117/35 70/118/35 66/119/35
f 67/120/36 69/121/36 66/122/36 65/123/36
f 70/124/37 68/125/37 65/126/37 66/122/37
f 65/127/18 68/128/18 67/129/18
f 75/130/38 76/131/38 72/132/38
f 73/133/39 75/134/39 72/135/39 71/136/39
f 76/137/40 74/138/40 71/136/40 72/135/40
f 71/139/18 74/140/18 73/141/18
f 1/1/41 80/4/41 81/3/41 11/2/41
f 9/5/42 82/8/42 79/7/42 2/6/42
f 27/9/43 89/14/43 96/13/43 91/12/43 78/11/43 12/10/43
f 38/15/44 97/18/44 77/17/44 10/16/44
f 19/19/45 86/22/45 84/21/45 16/20/45
f 88/23/46 87/26/46 85/25/46 86/24/46
f 82/8/47 39/27/47 11/2/47 81/3/47
f 16/28/48 84/31/48 80/30/48 1/29/48
f 2/6/49 79/7/49 83/33/49 13/32/49
f 22/34/50 88/34/50 86/36/50 19/35/50
f 13/37/51 83/40/51 85/39/51 17/38/51
f 26/41/52 90/44/52 88/43/52 22/42/52
f 17/45/53 85/47/53 87/26/53 23/46/53
f 36/48/54 95/51/54 90/50/54 26/49/54
f 23/46/55 87/26/55 89/14/55 27/9/55
f 97/52/56 99/56/56 92/55/56 93/54/56 77/53/56
f 10/57/57 77/60/57 93/59/57 30/58/57
f 99/61/18 45/64/18 43/63/18 92/62/18
f 100/65/19 94/68/19 44/67/19 46/66/19
f 30/58/58 93/59/58 95/51/58 36/48/58
f 91/12/56 96/13/56 100/70/56 99/69/56
f 78/11/56 91/12/56 99/56/56 97/71/56
f 82/8/59 9/5/59 39/27/59
f 12/72/60 78/74/60 97/73/60 38/73/60
f 83/33/61 79/7/61 82/8/61 81/3/61 80/4/61
f 84/75/62 86/76/62 85/25/62 83/33/62 80/4/62
f 98/77/56 87/79/56 88/78/56
f 95/80/56 96/13/56 89/14/56 90/81/56
f 89/14/63 87/26/63 88/82/63 90/81/63
f 89/83/64 27/85/64 96/84/64
f 100/86/27 46/89/27 45/88/27 99/87/27
f 92/90/28 43/93/28 44/92/28 94/91/28
f 93/54/56 92/55/56 94/94/56 95/80/56
f 101/95/65 102/98/65 50/97/65 49/96/65
f 50/97/66 102/98/66 103/100/66 52/99/66
f 52/99/67 103/100/67 104/102/67 54/101/67
f 101/95/68 49/96/68 56/104/68 105/103/68
f 105/105/69 56/108/69 58/107/69 106/106/69
f 54/109/70 104/112/70 107/111/70 60/110/70
f 69/117/35 109/119/35 70/118/35
f 67/120/71 108/123/71 109/122/71 69/121/71
f 70/124/72 109/122/72 108/126/72 68/125/72
f 108/127/18 67/129/18 68/128/18
f 75/130/73 111/132/73 76/131/73
f 73/133/74 110/136/74 111/135/74 75/134/74
f 76/137/75 111/135/75 110/136/75 74/138/75
f 110/139/18 73/141/18 74/140/18
f 112/142/16 113/143/16 115/144/16 114/145/16
f 116/142/76 117/143/76 119/144/76 118/145/76
f 116/142/77 118/145/77 121/145/77 120/142/77
f 122/113/56 124/116/56 125/115/56 123/114/56
f 126/142/56 128/145/56 129/144/56 127/143/56
f 57/106/78 55/105/78 105/105/78 106/106/78
f 55/105/79 47/95/79 101/95/79 105/105/79
f 48/98/80 102/98/80 101/95/80 47/95/80
f 103/100/81 102/98/81 48/98/81 51/100/81
f 53/102/82 104/102/82 103/100/82 51/100/82
f 59/111/83 107/111/83 104/112/83 53/146/83
o SnubNoseCylinder
v -0.102436 1.059563 0.170478
v -0.102436 1.244119 0.170478
v 0.373746 1.059563 0.170478
v 0.373746 1.244119 0.170478
v -0.102436 0.958458 -0.001154
v -0.102436 1.337242 -0.001154
v 0.373746 0.958458 -0.001154
v 0.373746 1.337242 -0.001154
v -0.102436 1.059563 -0.172786
v -0.102436 1.244119 -0.172786
v 0.373746 1.059563 -0.172786
v 0.373746 1.244119 -0.172786
vn 1.0000 -0.0000 -0.0000
vn -0.0000 -0.0000 1.0000
vn -0.0000 -0.8616 0.5076
vn -0.0000 0.8790 0.4769
vn -1.0000 -0.0000 -0.0000
vn -0.0000 -0.0000 -1.0000
vn -0.0000 -0.8616 -0.5076
vn -0.0000 0.8790 -0.4769
vt 0.107566 0.546828
vt 0.408713 0.948676
vt 0.152511 0.986400
vt 0.005782 0.790606
vt 0.967003 0.677796
vt 0.967003 0.841220
vt 0.662013 0.841220
vt 0.662013 0.677796
vt 0.662013 0.588267
vt 0.967003 0.588267
vt 0.967003 0.923680
vt 0.662013 0.923680
vt 0.393928 0.025841
vt 0.508236 0.239077
vt 0.367198 0.452754
vt 0.132591 0.015107
vt -0.003503 0.238007
vt 0.110805 0.451243
s 0
usemtl Material.026
f 136/147/84 137/148/84 133/149/84 132/150/84
f 132/151/85 133/152/85 131/153/85 130/154/85
f 134/155/86 136/156/86 132/151/86 130/154/86
f 137/157/87 135/158/87 131/153/87 133/152/87
f 130/159/88 131/160/88 135/161/88 134/162/88
f 136/147/84 140/150/84 141/149/84 137/148/84
f 140/151/89 138/154/89 139/153/89 141/152/89
f 134/155/90 138/154/90 140/151/90 136/156/90
f 137/157/91 141/152/91 139/153/91 135/158/91
f 138/163/88 134/162/88 135/161/88 139/164/88
o SnubNoseTrigger&Hammer
v -0.032881 0.614661 -0.000752
v 0.011468 0.662809 -0.000752
v -0.159710 0.810821 0.001896
v 0.076240 0.922799 -0.000752
v -0.047050 0.719067 -0.000752
v 0.056178 0.746955 -0.000752
v 0.112836 0.518014 -0.000752
v -0.522909 1.111012 0.003839
v -0.326093 1.345334 0.004041
v -0.330257 1.160646 0.003840
v -0.274842 1.334258 0.004041
v -0.401661 1.229170 0.003839
v -0.401661 1.229170 -0.015883
v -0.522909 1.111012 -0.015883
v -0.326093 1.345334 -0.015883
v -0.330257 1.160646 -0.015883
v -0.274842 1.334258 -0.015883
v -0.388611 1.271866 -0.015883
v -0.388611 1.271866 0.003839
v -0.535788 1.310124 0.003840
v -0.535788 1.310124 -0.015883
v -0.468083 1.313362 -0.015883
v -0.468083 1.313362 0.003356
v -0.032881 0.614661 -0.000752
v 0.011468 0.662809 -0.000752
v -0.159710 0.810821 0.001896
v 0.076240 0.922799 -0.000752
v -0.047050 0.719067 -0.000752
v 0.056178 0.746955 -0.000752
v 0.112836 0.518014 -0.000752
vn 0.0104 -0.0063 0.9999
vn -0.0000 -0.0000 1.0000
vn 0.9526 -0.3041 -0.0000
vn -0.0006 -0.0005 1.0000
vn 0.2112 0.9774 -0.0000
vn 0.0019 0.0072 1.0000
vn -0.4628 -0.8864 -0.0000
vn 0.5167 0.8561 -0.0000
vn 0.0478 -0.9989 -0.0000
vn -0.7616 0.6481 -0.0000
vn -0.0000 -0.0000 -1.0000
vn -0.6979 0.7162 -0.0000
vn -0.0104 0.0063 -0.9999
vt 0.419589 0.699444
vt 0.479910 0.699444
vt 0.479910 0.715941
vt 0.419589 0.715941
vt 0.421673 0.678537
vt 0.481994 0.678537
vt 0.375000 0.624139
vt 0.625000 0.624139
vt 0.625000 0.750000
vt 0.375000 0.750000
vt 0.373181 0.677421
vt 0.537574 0.677421
vt 0.537574 0.713690
vt 0.488485 0.713690
vt 0.463834 0.713690
vt 0.373181 0.713690
vt 0.509525 0.699331
vt 0.510249 0.700160
vt 0.510107 0.693552
vt 0.509399 0.693389
vt 0.459102 0.643648
vt 0.444907 0.644005
vt 0.440380 0.672156
vt 0.448166 0.692258
vt 0.480167 0.701019
vt 0.480086 0.694034
vt 0.484825 0.692510
vt 0.484968 0.703289
vt 0.000000 0.000000
vt 0.464523 0.694168
vt 0.464568 0.701081
vt 0.471376 0.705861
vt 0.471299 0.697047
vt 0.416453 0.632531
vt 0.414641 0.615953
vt 0.472596 0.615212
vt 0.506947 0.668347
vt 0.398480 0.703302
vt 0.398604 0.695148
s 0
usemtl Material.043
f 146/165/92 147/166/92 145/167/92 144/168/92
f 142/169/93 143/170/93 147/166/93 146/165/93
f 143/170/93 142/169/93 148/170/93
f 157/171/94 158/172/94 152/173/94 151/174/94
f 151/175/95 152/176/95 150/177/95 160/178/95 153/179/95 149/180/95
f 158/181/96 156/182/96 150/183/96 152/184/96
f 153/185/97 160/186/97 164/187/97 161/188/97
f 159/189/98 160/190/98 164/191/98 163/192/98
f 154/193/93 159/193/93 163/193/93 162/193/93
f 153/194/99 154/195/99 162/196/99 161/197/99
f 163/192/100 164/191/100 161/197/100 162/196/100
f 160/190/101 150/183/101 156/182/101 159/189/101
f 156/198/102 158/199/102 157/200/102 159/186/102
f 157/200/102 155/201/102 154/185/102 159/186/102
f 155/202/103 149/203/103 153/194/103 154/195/103
f 169/165/104 167/168/104 168/167/104 170/166/104
f 165/169/102 169/165/102 170/166/102 166/170/102
f 166/170/102 171/170/102 165/169/102
