# Blender 4.1.1
# www.blender.org
mtllib m16.mtl
o M16
v -0.710069 0.794336 0.052170
v -0.804405 0.968685 0.052170
v -0.804405 0.869321 -0.000000
v 0.053297 0.897435 0.052170
v -0.804405 0.869321 0.052170
v -0.710069 0.794336 -0.000000
v 1.442220 1.118268 -0.000000
v -0.289572 0.794336 0.052170
v -0.351741 0.969007 0.051879
v 0.001443 0.869321 0.052170
v 0.001443 0.794336 0.052170
v 0.001443 0.969007 0.051879
v -0.289572 0.671558 0.052170
v 0.001443 0.732506 0.052170
v -0.553708 0.794336 0.052170
v -0.686750 0.735224 0.040482
v -0.710069 0.741584 -0.000000
v -0.554144 0.656732 0.040482
v -0.554188 0.656431 -0.000000
v -0.916761 0.426776 0.040482
v -0.943260 0.420416 -0.000000
v -0.723301 0.380898 0.040482
v -0.698922 0.359699 -0.000000
v -0.887850 0.458255 0.040482
v -0.746776 0.409168 0.040482
v -0.911169 0.464614 -0.000000
v -0.719217 0.400688 -0.000000
v -0.763186 0.629951 0.040482
v -0.786505 0.636311 -0.000000
v -0.804405 1.016484 0.072448
v -0.352439 1.016484 0.072448
v -0.804405 1.058490 0.052170
v -0.352439 1.058490 0.052170
v 0.051621 1.118005 0.052170
v -0.716391 1.118005 0.033058
v -0.354116 1.118005 0.052170
v -0.000233 1.118005 0.052170
v 0.051621 1.218593 0.033058
v -0.633405 1.304932 0.033058
v -0.804405 1.058490 -0.000000
v -0.000233 1.259667 0.033058
v -0.716391 1.118005 -0.000000
v 0.051621 1.218593 -0.000000
v -0.657996 1.249608 -0.000000
v -0.000233 1.232956 -0.000000
v -0.000233 1.230062 0.033058
v -0.501170 1.118005 0.032766
v -0.466969 1.237103 0.033058
v -0.523299 1.155626 0.033058
v 0.032651 1.171720 0.042002
v -0.771574 1.143850 -0.000000
v -0.770876 1.081243 -0.000000
v -0.716391 1.118005 0.099949
v -0.771574 1.143850 0.099722
v -0.770876 1.081243 0.099722
v 1.442789 0.877699 -0.000000
v 0.157734 0.877699 -0.000000
v 0.157734 1.133493 -0.000000
v 1.442789 1.133493 -0.000000
v 2.401078 1.026621 0.035046
v 0.157734 1.005596 0.097715
v 1.439053 1.026621 0.035046
v 1.442789 1.005596 0.097715
v 2.401078 1.062400 -0.000000
v 1.439053 1.062400 -0.000000
v 1.439053 0.990842 -0.000000
v 2.401078 0.990842 -0.000000
v 0.137214 0.908276 -0.000000
v 0.137214 1.102916 -0.000000
v 0.137214 1.005596 0.082140
v 0.053524 0.887313 -0.000000
v 0.053524 1.123879 -0.000000
v 0.053524 1.005596 0.093936
v -1.993608 0.797299 0.082590
v -1.993608 0.511031 -0.000000
v 1.654415 0.924119 -0.000000
v 1.437881 1.063267 -0.000000
v 1.654415 1.289269 -0.000000
v -1.993608 1.056030 -0.000000
v 1.618483 0.979443 -0.000000
v 1.618483 1.303824 -0.000000
v 1.442220 1.118268 0.008382
v 1.618483 1.303824 0.008382
v -0.290191 0.794110 0.028458
v -0.290191 0.657090 0.028458
v -0.553530 0.669378 0.028458
v -0.553530 0.794110 0.028458
v -0.553530 0.657090 0.028458
v -0.290191 0.669383 0.028458
v -0.495578 0.794110 0.028458
v -0.494567 0.669379 0.028458
v -0.338793 0.794110 0.028458
v -0.328350 0.669382 0.028458
v -0.553530 0.731744 0.028458
v -0.530275 0.731744 0.028458
v -0.290191 0.731746 0.028458
v -0.301400 0.731746 0.028458
v -0.462910 0.839801 -0.000000
v -0.409631 0.839801 -0.000000
v -0.484517 0.726236 -0.000000
v -0.465234 0.726236 -0.000000
v -0.454866 0.676514 -0.000000
v -0.710069 0.794336 -0.052170
v -0.804405 0.968685 -0.052170
v 0.053297 0.897435 -0.052170
v -0.804405 0.869321 -0.052170
v -0.289572 0.794336 -0.052170
v 0.001443 0.969007 -0.051879
v 0.001443 0.869321 -0.052170
v 0.001443 0.794336 -0.052170
v -0.289572 0.671558 -0.052170
v 0.001443 0.732506 -0.052170
v -0.553708 0.794336 -0.052170
v -0.686750 0.735224 -0.040482
v -0.554144 0.656732 -0.040482
v -0.916761 0.426776 -0.040482
v -0.723301 0.380898 -0.040482
v -0.887850 0.458255 -0.040482
v -0.746776 0.409168 -0.040482
v -0.763186 0.629951 -0.040482
v -0.804405 1.016484 -0.072449
v 0.000947 1.016484 -0.072449
v -0.804405 1.058490 -0.052170
v 0.000511 1.058490 -0.052170
v 0.051621 1.118005 -0.052170
v -0.716391 1.118005 -0.033058
v -0.000233 1.118005 -0.052170
v 0.051621 1.218593 -0.033058
v -0.633405 1.304932 -0.033058
v -0.000233 1.259667 -0.033058
v -0.000233 1.230062 -0.033058
v -0.501170 1.118005 -0.032766
v -0.466969 1.237103 -0.033058
v -0.523299 1.155626 -0.033058
v 0.032651 1.171720 -0.042002
v -0.716391 1.118005 -0.099950
v -0.771574 1.143850 -0.099722
v -0.770876 1.081243 -0.099722
v 2.401078 1.026621 -0.035047
v 0.157734 1.005596 -0.097715
v 1.439053 1.026621 -0.035047
v 1.442789 1.005596 -0.097715
v 0.137214 1.005596 -0.082141
v 0.053524 1.005596 -0.093936
v -1.993608 0.797299 -0.082591
v 1.442220 1.118268 -0.008383
v 1.618483 1.303824 -0.008383
v -0.290191 0.794110 -0.028458
v -0.290191 0.657090 -0.028458
v -0.553530 0.669378 -0.028458
v -0.553530 0.794110 -0.028458
v -0.553530 0.657090 -0.028458
v -0.290191 0.669383 -0.028458
v -0.495578 0.794110 -0.028458
v -0.494567 0.669379 -0.028458
v -0.338793 0.794110 -0.028458
v -0.328350 0.669382 -0.028458
v -0.553530 0.731744 -0.028458
v -0.530275 0.731744 -0.028458
v -0.290191 0.731746 -0.028458
v -0.301400 0.731746 -0.028458
v -0.353613 1.118005 -0.042596
v 1.618483 1.086404 -0.000000
v 1.618483 1.263864 -0.000000
v 1.462420 1.086405 -0.000000
v 1.593807 1.277695 0.003857
v 1.618483 1.303824 -0.008240
v 1.593658 1.277647 -0.003971
v 1.593607 1.277636 -0.008383
v 1.593693 1.277662 -0.000000
v 1.593772 1.277723 0.008382
v -0.462910 0.839801 -0.000000
v -0.409631 0.839801 -0.000000
v -0.484517 0.726236 -0.000000
v -0.465234 0.726236 -0.000000
v -0.454866 0.676514 -0.000000
v 1.442220 1.118268 -0.000000
v 1.654415 0.924119 -0.000000
v 1.437881 1.063267 -0.000000
v 1.654415 1.289269 -0.000000
v 1.618483 0.979443 -0.000000
v 1.618483 1.303824 -0.000000
v 1.618483 1.086404 -0.000000
v 1.618483 1.263864 -0.000000
v 1.462420 1.086405 -0.000000
v 1.593693 1.277662 -0.000000
vn 0.4629 -0.2760 0.8423
vn 0.0008 0.0001 1.0000
vn 0.0002 -0.0986 0.9951
vn 0.0913 0.0936 0.9914
vn -0.7060 -0.3398 0.6214
vn -0.0000 -0.0000 1.0000
vn -0.3015 -0.3015 0.9045
vn -0.7550 -0.0000 0.6558
vn 0.2748 -0.3385 0.9000
vn -0.2531 -0.0811 0.9640
vn -0.2477 0.5526 0.7958
vn 0.6692 -0.2342 0.7052
vn -0.9739 -0.2270 -0.0000
vn -0.9837 0.1796 -0.0000
vn 0.2768 -0.3988 0.8742
vn -0.0295 0.6729 0.7391
vn -0.6217 0.0012 0.7833
vn 0.3331 -0.4648 0.8204
vn -0.7921 0.6104 -0.0000
vn -0.9529 -0.3032 -0.0000
vn -0.8092 0.5875 -0.0000
vn -0.0558 0.6661 0.7438
vn 0.2748 -0.3385 -0.9000
vn -0.3015 -0.3015 -0.9045
vn 0.8304 0.0148 0.5569
vn 0.8151 -0.5793 -0.0000
vn 0.7914 -0.6113 -0.0000
vn 0.0002 0.0204 0.9998
vn -0.1922 0.6070 0.7711
vn -0.9998 -0.0077 -0.0160
vn -0.1038 0.3369 0.9358
vn -0.0498 0.2619 0.9638
vn -0.0099 0.5336 0.8457
vn 0.0900 0.7964 0.5980
vn -0.2419 0.4998 0.8317
vn -0.0481 0.6902 0.7220
vn 0.5648 0.0949 0.8197
vn 0.4714 0.8819 -0.0000
vn 0.3136 0.9238 -0.2196
vn 0.2847 0.9394 0.1911
vn 0.0013 -0.0066 1.0000
vn -0.2682 0.9149 0.3016
vn -0.7916 0.6110 -0.0000
vn -0.3500 0.9368 -0.0000
vn 0.6848 0.0724 0.7251
vn -0.6485 0.3118 0.6944
vn 0.2528 -0.4291 0.8672
vn -0.5413 0.8408 -0.0000
vn -0.4743 -0.8405 -0.2619
vn -0.4565 -0.8081 0.3722
vn -0.4501 0.6985 0.5563
vn 0.9173 0.0986 0.3858
vn 0.5411 -0.8019 -0.2533
vn 0.6831 -0.4042 0.6083
vn -0.0000 -1.0000 -0.0000
vn 0.5763 -0.8172 -0.0000
vn 0.5784 -0.0000 0.8157
vn 0.5647 0.8253 -0.0000
vn -0.3506 0.9365 -0.0000
vn -0.3417 -0.0000 0.9398
vn 0.5926 -0.0000 0.8055
vn -0.3506 -0.9365 -0.0000
vn 0.5647 -0.8253 -0.0000
vn 0.5763 0.8172 -0.0000
vn -0.0000 1.0000 -0.0000
vn -0.4547 0.8906 -0.0000
vn -0.3630 -0.0000 0.9318
vn -0.4917 0.8708 -0.0000
vn -0.5251 -0.0000 0.8511
vn -0.4547 -0.8906 -0.0000
vn -0.4917 -0.8708 -0.0000
vn -0.6378 -0.0117 0.7701
vn -0.3738 -0.9275 -0.0000
vn -0.8402 -0.5423 -0.0000
vn -0.5048 0.8632 -0.0000
vn -0.6371 0.3378 -0.6929
vn -0.7248 0.6890 0.0009
vn -0.7255 0.6882 -0.0044
vn -0.7263 0.6874 -0.0018
vn -0.7253 0.6884 0.0081
vn -0.7171 -0.4300 0.5486
vn -0.5630 -0.0373 0.8256
vn -0.2860 0.4351 0.8537
vn 0.2728 0.4706 0.8391
vn -0.0000 -0.7071 0.7071
vn 0.5486 0.0034 0.8361
vn 0.7237 -0.4026 0.5605
vn 0.4622 -0.2758 -0.8428
vn -0.7062 -0.3402 -0.6209
vn 0.0914 -0.2502 -0.9639
vn -0.0005 -0.0989 -0.9951
vn 0.6831 -0.4042 -0.6083
vn 0.6866 0.0693 -0.7237
vn 1.0000 -0.0000 -0.0000
vn -0.2532 -0.0811 -0.9640
vn -0.0000 -0.0000 -1.0000
vn -0.7550 -0.0000 -0.6558
vn 0.6692 -0.2342 -0.7052
vn -0.4663 -0.5237 -0.7130
vn -0.0272 0.0008 -0.9996
vn 0.4844 -0.1260 -0.8657
vn -0.6216 0.0011 -0.7833
vn -0.6563 -0.1513 -0.7392
vn -0.0558 0.6661 -0.7438
vn -0.1923 -0.5719 -0.7975
vn 0.0001 0.0196 -0.9998
vn -0.9999 -0.0104 0.0001
vn -0.1037 0.3373 -0.9357
vn -0.0183 0.2055 -0.9785
vn -0.8619 -0.5070 -0.0000
vn -0.9993 0.0380 -0.0000
vn -0.5243 0.0219 0.8512
vn -0.7195 -0.4232 0.5507
vn 0.1102 0.7498 -0.6524
vn -0.0283 0.6821 -0.7307
vn -0.2569 0.4781 -0.8399
vn 0.3109 0.3278 -0.8921
vn -0.4247 0.7571 -0.4963
vn 0.4921 0.4709 -0.7322
vn -0.9900 0.0836 -0.1135
vn 0.2553 -0.4961 -0.8299
vn 0.5243 -0.0218 -0.8512
vn -0.5385 0.1812 -0.8229
vn -0.5049 -0.3822 -0.7740
vn -0.4577 0.8891 -0.0000
vn 0.0151 0.9999 -0.0000
vn 0.0107 0.7104 0.7037
vn -0.2555 0.4959 0.8299
vn -0.4501 0.6985 -0.5563
vn -0.4565 -0.8081 -0.3722
vn -0.4743 -0.8405 0.2619
vn 0.9173 0.0986 -0.3858
vn 0.5411 -0.8019 0.2533
vn 0.5784 -0.0000 -0.8157
vn 0.5926 -0.0000 -0.8055
vn -0.3417 -0.0000 -0.9398
vn -0.3630 -0.0000 -0.9318
vn -0.5251 -0.0000 -0.8511
vn -0.6378 -0.0117 -0.7701
vn -0.7249 0.6888 0.0027
vn -0.7254 0.6883 0.0032
vn -0.7255 0.6882 0.0056
vn -0.7250 0.6887 0.0046
vn -0.7171 -0.4300 -0.5486
vn -0.5630 -0.0373 -0.8256
vn -0.0000 -0.7071 -0.7071
vn 0.2728 0.4706 -0.8391
vn -0.2860 0.4351 -0.8537
vn 0.5486 0.0034 -0.8361
vn 0.7237 -0.4026 -0.5605
vn -0.7258 0.6877 0.0152
vn -0.7259 0.6878 0.0038
vn -0.7250 0.6887 0.0065
vn -0.7261 0.6875 -0.0098
vt 0.511069 0.702784
vt 0.511069 0.764094
vt 0.293848 0.764094
vt 0.015443 0.763896
vt 0.015443 0.702784
vt 0.511069 0.656666
vt 0.332084 0.656666
vt 0.332084 0.581153
vt 0.511069 0.618638
vt 0.628421 0.974804
vt 0.555741 0.924647
vt 0.585542 0.904650
vt 0.672359 0.910703
vt 0.572663 0.900126
vt 0.662233 0.733838
vt 0.580913 0.711400
vt 0.577572 0.687495
vt 0.682213 0.728227
vt 0.568034 0.706876
vt 0.567295 0.676038
vt 0.570903 0.826674
vt 0.583783 0.831198
vt 0.663118 0.221804
vt 0.559899 0.221804
vt 0.559899 0.262578
vt 0.663118 0.262578
vt 0.677763 0.738737
vt 0.672435 0.910549
vt 0.700345 0.726194
vt 0.020746 0.765748
vt 0.288954 0.765938
vt 0.288541 0.794017
vt 0.020746 0.794017
vt 0.052225 0.587098
vt 0.068221 0.620234
vt 0.068451 0.549646
vt 0.023379 0.819841
vt 0.289252 0.818251
vt 0.202367 0.853008
vt 0.070431 0.853008
vt 0.510038 0.855734
vt 0.292387 0.855734
vt 0.201944 0.855734
vt 0.293418 0.819130
vt 0.553880 0.617884
vt 0.587597 0.617884
vt 0.587597 0.632533
vt 0.553880 0.659778
vt 0.055328 0.869275
vt 0.178769 0.893326
vt 0.214780 0.945413
vt 0.108380 0.988775
vt 0.731860 0.034709
vt 0.552486 0.036655
vt 0.605918 0.067802
vt 0.732204 0.066432
vt 0.970628 0.550834
vt 0.969181 0.329845
vt 0.994261 0.329769
vt 0.995764 0.569415
vt 0.513159 0.869275
vt 0.546309 0.869275
vt 0.534182 0.903615
vt 0.023379 0.796431
vt 0.289252 0.797021
vt 0.546309 0.933580
vt 0.192916 0.869275
vt 0.513159 0.940912
vt 0.513159 0.959838
vt 0.842405 0.088916
vt 0.842403 0.088187
vt 0.738393 0.088364
vt 0.738394 0.089092
vt 0.807827 0.031417
vt 0.738060 0.031536
vt 0.842307 0.031359
vt 0.862656 0.094685
vt 0.863385 0.029328
vt 0.920263 0.067705
vt 0.073463 0.656666
vt 0.169631 0.656666
vt 0.542961 0.720075
vt 0.541929 0.855734
vt 0.467792 0.329356
vt 0.467996 0.013409
vt 0.496248 0.013432
vt 0.496044 0.329378
vt 0.447283 0.180114
vt 0.092374 0.180114
vt 0.092374 0.097248
vt 0.447283 0.097248
vt 0.092374 0.014382
vt 0.447283 0.014382
vt 0.524500 0.013455
vt 0.524296 0.329401
vt 0.143041 0.395000
vt 0.143041 0.499520
vt 0.091852 0.447260
vt 0.079079 0.160303
vt 0.079079 0.097248
vt 0.083951 0.370419
vt 0.083951 0.514048
vt 0.029085 0.442233
vt 0.024856 0.173884
vt 0.024856 0.097248
vt 0.079079 0.034193
vt 0.020036 0.279177
vt 0.079461 0.354005
vt 0.079461 0.204350
vt 0.024856 0.020612
vt 0.216436 0.286330
vt 0.216436 0.192155
vt 0.449578 0.310024
vt 0.449578 0.342712
vt 0.137233 0.217330
vt 0.115469 0.292768
vt 0.137233 0.360950
vt 0.795303 0.241750
vt 0.845093 0.149410
vt 0.795578 0.149410
vt 0.138791 0.543285
vt 0.148995 0.527574
vt 0.148995 0.631270
vt 0.138791 0.635404
vt 0.138791 0.624056
vt 0.138791 0.573660
vt 0.216436 0.371446
vt 0.449578 0.372256
vt 0.775843 0.287621
vt 0.795303 0.327932
vt 0.845368 0.327932
vt 0.088736 0.567089
vt 0.095109 0.573660
vt 0.131751 0.627992
vt 0.088736 0.582709
vt 0.037597 0.555662
vt 0.021554 0.555662
vt 0.021554 0.602315
vt 0.030215 0.605655
vt 0.037597 0.602290
vt 0.301811 0.656527
vt 0.324809 0.618171
vt 0.331703 0.618171
vt 0.331703 0.656527
vt 0.331703 0.579815
vt 0.308234 0.579815
vt 0.206005 0.579813
vt 0.169741 0.579812
vt 0.169741 0.572255
vt 0.331703 0.572255
vt 0.169741 0.618169
vt 0.184043 0.618170
vt 0.169741 0.656527
vt 0.205383 0.656527
vt 0.042880 0.909067
vt 0.033798 0.909067
vt 0.047763 0.885649
vt 0.043975 0.962555
vt 0.069068 0.962555
vt 0.541132 0.409824
vt 0.601400 0.409824
vt 0.601400 0.537228
vt 0.541132 0.537228
vt 0.541132 0.393585
vt 0.601400 0.393585
vt 0.541132 0.314559
vt 0.601400 0.314559
vt 0.672171 0.179690
vt 0.781971 0.179690
vt 0.781971 0.100782
vt 0.672171 0.100782
vt 0.559291 0.078915
vt 0.559291 0.213575
vt 0.660949 0.213575
vt 0.660949 0.078915
vt 0.560182 0.079507
vt 0.660057 0.079507
vt 0.986623 0.907606
vt 0.986623 0.928222
vt 0.698289 0.928222
vt 0.698075 0.907745
vt 0.986623 0.946340
vt 0.698477 0.946340
vt 0.685634 0.618292
vt 0.685221 0.632654
vt 0.728137 0.633322
vt 0.728171 0.618955
vt 0.855835 0.972009
vt 0.792193 0.972009
vt 0.698798 0.972009
vt 0.590361 0.595330
vt 0.552171 0.595330
vt 0.731974 0.034274
vt 0.732318 0.065997
vt 0.606031 0.067367
vt 0.552599 0.036220
vt 0.692283 0.252591
vt 0.761859 0.252591
vt 0.781971 0.189962
vt 0.672171 0.189962
vt 0.948661 0.972009
vt 0.674526 0.539011
vt 0.678103 0.309304
vt 0.745830 0.310359
vt 0.736043 0.539643
vt 0.623188 0.308449
vt 0.666104 0.309117
vt 0.672242 0.287863
vt 0.617715 0.287013
vt 0.618469 0.611409
vt 0.661385 0.612078
vt 0.617900 0.647973
vt 0.660816 0.648641
vt 0.685036 0.288062
vt 0.739563 0.288911
vt 0.795334 0.241830
vt 0.795711 0.149656
vt 0.844798 0.149656
vt 0.844798 0.327648
vt 0.795711 0.327648
vt 0.775877 0.287559
vt 0.029998 0.605609
vt 0.021554 0.602264
vt 0.662875 0.221724
vt 0.559969 0.221724
vt 0.559969 0.262657
vt 0.662875 0.262657
vt 0.685634 0.634660
vt 0.728171 0.635323
vt 0.534433 0.904305
vt 0.037597 0.609922
vt 0.021827 0.609922
vt 0.021554 0.609922
s 1
usemtl Material.001
f 10/1/1 12/2/2 9/3/3 2/4/4 5/5/5
f 11/6/6 8/7/7 13/8/8 14/9/6
f 15/10/9 1/11/10 16/12/11 18/13/12
f 6/11/13 17/14/14 16/12/11 1/11/10
f 25/15/15 24/16/16 20/17/17 22/18/18
f 26/19/19 21/20/20 20/17/17 24/16/16
f 29/21/21 26/19/19 24/16/16 28/22/22
f 18/13/12 28/22/22 24/16/16 25/15/15
f 18/13/12 16/12/11 28/22/22
f 17/14/14 29/21/21 28/22/22 16/12/11
f 8/23/7 15/24/9 113/25/23 107/26/24
f 27/27/25 19/28/26 18/13/12 25/15/15
f 22/18/18 23/29/27 27/27/25 25/15/15
f 21/20/20 23/29/27 22/18/18 20/17/17
f 2/30/4 9/31/3 31/32/28 30/33/29
f 31/34/30 33/35/30 9/36/30
f 32/37/31 33/38/32 47/39/33 35/40/34
f 9/3/3 12/2/2 37/41/35 36/42/36
f 47/43/33 33/44/32 36/42/36
f 38/45/37 43/46/38 45/47/39 41/48/40
f 35/49/34 49/50/41 48/51/6 39/52/42
f 35/53/34 39/54/42 44/55/43 42/56/44
f 39/57/42 41/58/40 45/59/39 44/60/43
f 37/61/35 34/62/45 50/63/46
f 30/64/29 31/65/28 33/38/32 32/37/31
f 34/62/45 38/66/37 50/63/46
f 47/67/33 49/50/41 35/49/34
f 39/52/42 48/51/6 46/68/47 41/69/40
f 51/70/48 52/71/49 55/72/50 54/73/51
f 35/74/34 51/70/48 54/73/51 53/75/52
f 42/76/44 51/70/48 35/74/34
f 51/70/53 42/76/53 53/75/52 55/72/50 52/71/49
f 54/77/51 55/78/50 53/79/52
f 10/1/1 5/5/5 1/80/10 15/81/9 8/7/7 11/6/6
f 4/82/54 34/83/45 37/41/35 12/2/2 10/1/1
f 66/84/55 67/85/56 60/86/57 62/87/6
f 59/88/58 58/89/59 61/90/60 63/91/61
f 57/92/62 56/93/63 63/91/61 61/90/60
f 64/94/64 65/95/65 62/87/6 60/86/57
f 67/96/56 64/97/64 60/98/57
f 61/90/60 58/89/59 69/99/66 70/100/67
f 56/101/63 59/102/58 63/103/61
f 70/100/67 69/99/66 72/104/68 73/105/69
f 57/92/62 61/90/60 70/100/67 68/106/70
f 73/107/69 72/108/68 71/109/71
f 68/106/70 70/100/67 73/105/69 71/110/71
f 74/111/72 75/112/73 3/113/74 2/114/4
f 75/115/73 74/116/72 79/117/75
f 2/118/4 3/119/74 5/120/5
f 80/121/6 76/122/6 78/123/6 81/124/6 164/125/6 163/126/6
f 79/127/75 74/111/72 2/114/4 40/128/76
f 2/118/4 30/129/29 32/130/31 40/131/76
f 77/132/6 80/121/6 163/126/6 165/133/6 164/125/6 81/124/6 170/134/6 7/135/6
f 7/136/77 82/137/77 171/138/78 166/139/79 170/140/80
f 92/141/81 97/142/82 96/143/6 84/144/6
f 89/145/6 93/146/83 91/147/84 86/148/6 88/149/85 85/150/85
f 94/151/6 86/148/6 91/147/84 95/152/86
f 87/153/6 94/151/6 95/152/86 90/154/87
f 97/142/82 93/146/83 89/145/6 96/143/6
f 101/155/6 100/156/6 102/157/6
f 98/158/6 100/156/6 101/155/6 99/159/6
f 109/1/88 106/5/89 104/4/90 108/2/91
f 4/160/54 105/161/92 125/162/93 34/163/45
f 10/164/1 109/165/88 105/161/92 4/160/54
f 109/165/88 10/164/1 14/166/94 112/167/94
f 5/168/5 106/169/89 103/170/95 1/171/10
f 110/6/96 112/9/96 111/8/97 107/7/24
f 13/172/8 8/173/7 107/174/24 111/175/97
f 113/10/23 115/13/98 114/12/99 103/11/95
f 6/11/13 103/11/95 114/12/99 17/14/14
f 119/15/100 117/18/101 116/17/102 118/16/103
f 26/19/19 118/16/103 116/17/102 21/20/20
f 29/21/21 120/22/104 118/16/103 26/19/19
f 115/13/98 119/15/100 118/16/103 120/22/104
f 115/13/98 120/22/104 114/12/99
f 17/14/14 114/12/99 120/22/104 29/21/21
f 15/173/9 18/176/12 115/177/98 113/174/23
f 27/27/25 119/15/100 115/13/98 19/28/26
f 117/18/101 119/15/100 27/27/25 23/29/27
f 21/20/20 116/17/102 117/18/101 23/29/27
f 104/178/90 121/179/105 122/180/106 108/181/91
f 122/34/107 108/36/107 124/35/107
f 122/180/106 121/179/105 123/182/108 124/183/109
f 47/184/110 49/185/111 134/186/112 132/187/113
f 124/183/109 132/188/114 162/189/115 127/190/116
f 128/191/117 38/192/37 34/163/45 125/162/93
f 128/45/117 130/48/118 45/47/39 43/46/38
f 126/49/119 129/52/120 133/51/121 134/50/122
f 126/193/119 42/194/44 44/195/43 129/196/120
f 129/57/120 44/60/43 45/59/39 130/58/118
f 35/197/34 126/198/119 123/199/108 32/200/31
f 135/63/123 125/62/93 127/61/116
f 123/182/108 126/201/119 132/188/114 124/183/109
f 135/63/123 131/68/124 130/69/118 128/66/117
f 128/66/117 125/62/93 135/63/123
f 132/67/114 126/49/119 134/50/122
f 129/52/120 130/69/118 131/68/124 133/51/121
f 36/202/36 37/203/35 127/204/116 162/205/115
f 46/206/47 131/207/124 135/208/123 50/209/46
f 48/210/125 46/206/126 131/207/127 133/211/128
f 49/212/111 48/210/125 133/211/128 134/213/112
f 50/214/46 135/215/123 127/204/116 37/203/35
f 51/70/48 137/73/129 138/72/130 52/71/131
f 126/74/119 136/75/132 137/73/129 51/70/48
f 42/76/44 126/74/119 51/70/48
f 51/70/133 52/71/131 138/72/130 136/75/132 42/76/133
f 137/73/129 136/75/132 138/72/130
f 109/1/88 110/6/96 107/7/24 113/81/23 103/80/95 106/5/89
f 105/82/92 109/1/88 108/2/91 127/41/116 125/83/93
f 66/84/55 141/87/96 139/86/134 67/85/56
f 59/88/58 142/91/135 140/90/136 58/89/59
f 57/92/62 140/90/136 142/91/135 56/93/63
f 64/94/64 139/86/134 141/87/96 65/95/65
f 67/96/56 139/98/134 64/97/64
f 140/90/136 143/100/137 69/99/66 58/89/59
f 56/101/63 142/103/135 59/102/58
f 143/100/137 144/105/138 72/104/68 69/99/66
f 57/92/62 68/106/70 143/100/137 140/90/136
f 144/107/138 71/109/71 72/108/68
f 68/106/70 71/110/71 144/105/138 143/100/137
f 145/111/139 104/114/90 3/113/74 75/112/73
f 75/115/73 79/117/75 145/116/139
f 104/216/90 106/217/89 3/218/74
f 79/127/75 40/128/76 104/114/90 145/111/139
f 104/216/90 40/219/76 123/220/108 121/221/105
f 7/136/140 170/140/141 168/222/142 169/223/143 146/137/140
f 156/141/144 148/144/96 160/143/96 161/142/145
f 153/145/96 149/150/146 152/149/146 150/148/96 155/147/147 157/146/148
f 158/151/96 159/152/149 155/147/147 150/148/96
f 85/224/85 88/225/85 152/226/146 149/227/146
f 151/153/96 154/154/150 159/152/149 158/151/96
f 161/142/145 160/143/96 153/145/96 157/146/148
f 47/228/33 36/202/36 162/205/115 132/229/114
f 41/69/40 46/68/47 50/230/46 38/66/37
f 166/139/79 81/231/151 170/140/80
f 170/140/141 81/231/152 168/222/142
f 168/222/142 167/232/153 147/233/153 169/223/143
f 171/138/78 83/233/154 166/139/79
f 175/155/96 176/157/96 174/156/96
f 172/158/96 173/159/96 175/155/96 174/156/96
f 161/142/145 97/142/82 92/141/81 156/141/144
f 97/142/82 161/142/145 157/146/148 93/146/83
f 93/146/83 157/146/148 155/147/147 91/147/84
f 159/152/149 95/152/86 91/147/84 155/147/147
f 154/154/150 90/154/87 95/152/86 159/152/149
f 181/121/96 183/126/96 184/125/96 182/124/96 180/123/96 178/122/96
f 179/132/96 177/135/96 186/134/96 182/124/96 184/125/96 185/133/96 183/126/96 181/121/96
o M16_Mag
v -0.282251 0.585067 0.046919
v -0.286151 0.982786 0.046919
v -0.013155 0.650325 0.046919
v -0.009255 0.982786 0.046919
v -0.282251 0.585067 -0.000000
v -0.286151 0.956633 -0.000000
v -0.013155 0.650325 -0.000000
v -0.009255 0.956633 -0.000000
v -0.187315 0.193593 0.046919
v 0.081781 0.258852 0.046919
v -0.282251 0.585067 -0.046919
v -0.286151 0.982786 -0.046919
v -0.013155 0.650325 -0.046919
v -0.009255 0.982786 -0.046919
v -0.187315 0.193593 -0.046919
v 0.081781 0.258852 -0.046919
vn 0.9999 -0.0122 -0.0000
vn 0.9999 -0.0122 0.0034
vn -0.0000 -0.0000 1.0000
vn -0.0000 0.8735 -0.4869
vn -0.9999 -0.0101 0.0028
vn -0.9999 -0.0101 -0.0000
vn 0.9999 -0.0122 -0.0034
vn -0.0000 -0.0000 -1.0000
vn -0.0000 0.8735 0.4869
vn -0.9999 -0.0101 -0.0028
vn 0.2357 -0.9718 -0.0000
vn -0.9718 -0.2357 -0.0000
vn 0.9718 0.2357 -0.0000
vt 0.973091 0.737420
vt 0.973091 0.862141
vt 0.953986 0.872789
vt 0.953986 0.737420
vt 0.876858 0.687634
vt 0.878722 0.846567
vt 0.746352 0.846567
vt 0.748216 0.656437
vt 0.793601 0.469293
vt 0.922242 0.500490
vt 0.878722 0.871925
vt 0.746352 0.871925
vt 0.746352 0.854978
vt 0.878722 0.854978
vt 0.910190 0.728699
vt 0.910190 0.878796
vt 0.927897 0.868926
vt 0.927897 0.728699
vt 0.992195 0.737420
vt 0.992195 0.872789
vt 0.945604 0.728699
vt 0.945604 0.878796
vt 0.933006 0.457236
vt 0.933006 0.410189
vt 0.798092 0.410189
vt 0.798092 0.457236
vt 0.910190 0.580960
vt 0.945604 0.580960
vt 0.992195 0.578022
vt 0.953986 0.578022
s 1
usemtl Material.002
f 193/234/155 194/235/155 190/236/156 189/237/156
f 189/238/157 190/239/157 188/240/157 187/241/157
f 189/238/157 187/241/157 195/242/157 196/243/157
f 194/244/158 192/245/158 188/246/158 190/247/158
f 187/248/159 188/249/159 192/250/160 191/251/160
f 193/234/155 199/252/161 200/253/161 194/235/155
f 199/238/162 197/241/162 198/240/162 200/239/162
f 199/238/162 202/243/162 201/242/162 197/241/162
f 194/244/163 200/247/163 198/246/163 192/245/163
f 197/254/164 191/251/160 192/250/160 198/255/164
f 202/256/165 196/257/165 195/258/165 201/259/165
f 195/260/166 187/248/166 197/254/166 201/261/166
f 202/262/167 199/252/167 189/237/167 196/263/167
