# Blender 3.3.1
# www.blender.org
mtllib BackSaw.mtl
o BackSaw
v -1.332764 0.047513 0.000000
v 0.707217 0.047513 0.000000
v -1.332764 0.708074 0.000000
v 0.707217 0.708074 0.000000
v 1.194245 0.978846 0.056889
v 1.387158 0.377143 0.056889
v 0.396195 0.710396 0.056889
v 0.551797 0.323493 0.056889
v 0.632874 0.722607 0.056889
v 0.736665 0.387684 0.056889
v 0.965536 0.292346 0.056889
v 0.694441 0.859919 0.056889
v 0.399799 0.404589 0.056889
v 0.724500 0.718210 0.056889
v 0.812868 0.430734 0.056889
v 0.879708 0.824974 0.056889
v 1.021887 0.706968 0.056889
v 1.143782 0.447278 0.056889
v 1.004147 0.357920 0.056889
v 0.762126 0.718210 0.000000
v 0.850495 0.430734 0.000000
v 0.879708 0.799184 0.000000
v 0.985492 0.706968 0.000000
v 1.107387 0.447278 0.000000
v 1.004147 0.382409 0.000000
v 0.398845 0.406302 0.000000
v 0.551656 0.324155 0.000000
v 1.061363 0.816539 0.056889
v 1.263398 0.430260 0.056889
v 1.194245 0.978846 -0.056889
v 1.387158 0.377143 -0.056889
v 0.396195 0.710396 -0.056889
v 0.551797 0.323493 -0.056889
v 0.632874 0.722607 -0.056889
v 0.736665 0.387684 -0.056889
v 0.965536 0.292346 -0.056889
v 0.694441 0.859919 -0.056889
v 0.399799 0.404589 -0.056889
v 0.724500 0.718210 -0.056889
v 0.812868 0.430734 -0.056889
v 0.879708 0.824974 -0.056889
v 1.021887 0.706968 -0.056889
v 1.143782 0.447278 -0.056889
v 1.004147 0.357920 -0.056889
v 1.061363 0.816539 -0.056889
v 1.263398 0.430260 -0.056889
v -1.332764 0.047513 0.000000
v 0.707217 0.047513 0.000000
v -1.332764 0.708074 0.000000
v 0.707217 0.708074 0.000000
vn -0.0000 -0.0000 1.0000
vn -0.9999 -0.0103 -0.0000
vn -0.4734 -0.8808 -0.0000
vn 0.1972 -0.9804 -0.0000
vn 0.3944 0.9189 -0.0000
vn 0.3280 -0.9447 -0.0000
vn -0.3845 -0.9231 -0.0000
vn -0.9125 0.4091 -0.0000
vn 0.8079 0.2484 0.5344
vn 0.7738 -0.6335 -0.0000
vn 0.3163 0.9005 0.2984
vn -0.7834 -0.3677 0.5012
vn 0.5310 -0.7715 0.3505
vn -0.5055 0.7960 0.3330
vn -0.6045 -0.7131 0.3550
vn -0.0515 0.9987 -0.0000
vn 0.8861 0.4635 -0.0000
vn -0.0000 -0.0000 -1.0000
vn 0.8079 0.2484 -0.5344
vn 0.3163 0.9005 -0.2984
vn -0.7834 -0.3677 -0.5012
vn 0.5310 -0.7715 -0.3505
vn -0.5055 0.7960 -0.3330
vn -0.6045 -0.7131 -0.3550
vn -0.2315 0.9728 -0.0000
vt 0.048168 0.037394
vt 0.627633 0.037394
vt 0.044546 0.692863
vt 0.632358 0.697312
vt 0.859590 0.676095
vt 0.854022 0.857320
vt 0.857621 0.881424
vt 0.870553 0.459481
vt 0.914361 0.480461
vt 0.946026 0.384016
vt 0.639022 0.699746
vt 0.643302 0.664779
vt 0.653365 0.633139
vt 0.693046 0.306816
vt 0.694473 0.294228
vt 0.868587 0.447465
vt 0.734778 0.676179
vt 0.723365 0.712544
vt 0.744335 0.698447
vt 0.735443 0.605973
vt 0.759876 0.386683
vt 0.768289 0.392146
vt 0.842895 0.645655
vt 0.845059 0.685613
vt 0.829466 0.691773
vt 0.841416 0.300975
vt 0.877869 0.447122
vt 0.843152 0.295869
vt 0.745305 0.856463
vt 0.777659 0.815932
vt 0.925539 0.359961
vt 0.745801 0.823635
vt 0.638880 0.391813
vt 0.640306 0.379225
vt 0.756016 0.707936
vt 0.837012 0.659433
vt 0.840407 0.686474
vt 0.750808 0.742223
vt 0.778082 0.428513
vt 0.772130 0.430702
vt 0.869321 0.464264
vt 0.845833 0.636282
vt 0.872204 0.512580
vt 0.836194 0.690644
vt 0.806312 0.769754
vt 0.846896 0.689492
vt 0.871850 0.527833
vt 0.843121 0.662849
vt 0.898258 0.371843
vt 0.890334 0.417308
vt 0.860491 0.610341
vt 0.879884 0.429011
vt 0.851513 0.320612
vt 0.869813 0.433692
vt 0.872802 0.440398
vt 0.846136 0.663622
vt 0.838947 0.647271
vt 0.854459 0.606087
vt 0.878444 0.468453
vt 0.850250 0.643158
vt 0.833427 0.664868
vt 0.863068 0.515523
vt 0.833923 0.677504
vt 0.833925 0.689492
vt 0.859481 0.539319
vt 0.832869 0.680192
vt 0.857196 0.547317
vt 0.877364 0.417308
vt 0.855931 0.574631
vt 0.869796 0.448810
vt 0.859104 0.554865
vt 0.876495 0.450203
vt 0.864633 0.449424
vt 0.875034 0.490884
vt 0.868221 0.429914
vt 0.639967 0.381020
vt 0.891833 0.481138
vt 0.855690 0.809233
vt 0.859194 0.802241
vt 0.900035 0.565254
vt 0.929230 0.406609
vt 0.927687 0.404369
vt 0.923999 0.434582
vt 0.881371 0.681781
vt 0.837845 0.832649
vt 0.876082 0.921198
vt 0.879099 0.468587
vt 0.911349 0.428076
vt 0.965199 0.378654
vt 0.639022 0.699746
vt 0.653365 0.677544
vt 0.643302 0.664779
vt 0.694473 0.294228
vt 0.874627 0.463007
vt 0.693046 0.306816
vt 0.731154 0.701971
vt 0.737708 0.645937
vt 0.734778 0.676179
vt 0.728990 0.697838
vt 0.847425 0.656756
vt 0.837069 0.677618
vt 0.759876 0.386683
vt 0.765977 0.389081
vt 0.836752 0.697576
vt 0.869689 0.427820
vt 0.843787 0.300185
vt 0.829330 0.300350
vt 0.766275 0.842365
vt 0.750305 0.814184
vt 0.908763 0.359961
vt 0.752494 0.831792
vt 0.640306 0.379225
vt 0.638880 0.391813
vt 0.756016 0.707936
vt 0.837012 0.659433
vt 0.840407 0.686474
vt 0.754818 0.722034
vt 0.776258 0.426849
vt 0.787508 0.406628
vt 0.869321 0.464264
vt 0.841099 0.671981
vt 0.872204 0.512580
vt 0.837244 0.702708
vt 0.807552 0.757670
vt 0.843895 0.680192
vt 0.869290 0.533531
vt 0.842366 0.667289
vt 0.897950 0.370507
vt 0.880822 0.448810
vt 0.863546 0.590704
vt 0.877501 0.392885
vt 0.835672 0.318758
vt 0.868655 0.473366
vt 0.876420 0.421122
vt 0.905430 0.502429
vt 0.840711 0.802184
vt 0.852095 0.810995
vt 0.882327 0.568549
vt 0.913307 0.395558
vt 0.931738 0.394326
vt 0.928885 0.416705
vt 0.048168 0.037394
vt 0.627633 0.037394
vt 0.044546 0.692863
vt 0.632358 0.697312
s 1
usemtl Material.007
f 1/1/1 2/2/1 4/4/1 3/3/1
f 38/112/2 26/76/2 13/34/2 7/11/2 32/90/2
f 10/21/1 9/17/1 7/12/1 13/33/1 8/14/1
f 26/76/3 38/112/3 33/93/3 8/15/3 13/34/3
f 11/25/4 36/104/4 31/87/4 6/8/4
f 6/9/5 31/88/5 46/138/5 29/80/5
f 11/26/1 15/39/1 14/35/1 12/29/1 9/18/1 10/22/1
f 8/16/6 33/94/6 35/100/6 10/23/6
f 10/24/7 35/101/7 36/105/7 11/27/7
f 6/10/1 29/81/1 18/49/1 19/53/1 15/40/1 11/28/1
f 12/30/8 37/108/8 34/96/8 9/19/8
f 14/36/9 15/41/9 21/59/9 20/56/9
f 45/135/10 30/84/10 5/5/10 28/77/10
f 15/42/11 19/54/11 25/72/11 21/58/11
f 18/50/12 17/46/12 23/64/12 24/68/12
f 16/43/13 14/37/13 20/57/13 22/62/13
f 19/55/14 18/51/14 24/69/14 25/73/14
f 17/47/15 16/44/15 22/61/15 23/65/15
f 9/20/16 34/97/16 32/91/16 7/13/16
f 46/139/17 45/136/17 28/78/17 29/82/17
f 35/102/18 33/95/18 38/113/18 32/92/18 34/98/18
f 36/106/18 35/103/18 34/99/18 37/109/18 39/114/18 40/118/18
f 31/89/18 36/107/18 40/119/18 44/132/18 43/128/18 46/140/18
f 39/115/19 20/56/19 21/59/19 40/120/19
f 40/121/20 21/60/20 25/74/20 44/133/20
f 43/129/21 24/70/21 23/66/21 42/125/21
f 41/122/22 22/62/22 20/57/22 39/116/22
f 44/134/23 25/75/23 24/71/23 43/130/23
f 42/126/24 23/67/24 22/63/24 41/123/24
f 5/6/25 30/85/25 37/110/25 12/31/25
f 18/52/1 29/83/1 28/79/1 5/7/1 12/32/1 14/38/1 16/45/1 17/48/1
f 46/141/18 43/131/18 42/127/18 41/124/18 39/117/18 37/111/18 30/86/18 45/137/18
f 47/142/18 49/144/18 50/145/18 48/143/18
