# Blender 3.3.1
# www.blender.org
mtllib HeavyPlires.mtl
o Plires
v 0.434666 1.134205 0.065940
v 0.203006 2.347715 0.065940
v 0.434666 1.134205 -0.056571
v 0.203006 2.347715 -0.056571
v 0.332598 1.160768 -0.056571
v 0.000000 2.127532 -0.056571
v 0.332598 1.160768 0.065940
v 0.000000 2.127532 0.065940
v 0.117271 2.600962 0.066520
v 0.117271 2.600962 -0.056636
v 0.065196 2.600962 -0.056636
v 0.065196 2.600962 0.066520
v 0.154520 1.819728 -0.056571
v 0.154520 1.819728 0.065940
v 0.000000 1.819728 0.065940
v 0.000000 1.819728 -0.056571
v 0.409334 0.570318 0.065940
v 0.409334 0.570318 -0.056571
v 0.355328 0.570318 -0.056571
v 0.355328 0.570318 0.065940
v -0.434666 1.134205 0.065940
v -0.203006 2.347715 0.065940
v -0.434666 1.134205 -0.056571
v -0.203006 2.347715 -0.056571
v -0.332598 1.160768 -0.056571
v -0.332598 1.160768 0.065940
v -0.117271 2.600962 0.066520
v -0.117271 2.600962 -0.056636
v -0.065196 2.600962 -0.056636
v -0.065196 2.600962 0.066520
v -0.154520 1.819728 -0.056571
v -0.154520 1.819728 0.065940
v -0.409334 0.570318 0.065940
v -0.409334 0.570318 -0.056571
v -0.355328 0.570318 -0.056571
v -0.355328 0.570318 0.065940
vn -0.0000 -0.0000 -1.0000
vn 0.9958 -0.0914 -0.0000
vn 0.9990 -0.0449 -0.0000
vn 0.0013 -0.0016 1.0000
vn -0.0000 -0.0000 1.0000
vn -0.0000 1.0000 -0.0000
vn 0.9472 0.3207 -0.0000
vn 0.0002 -0.0002 -1.0000
vn 0.9257 0.3783 -0.0000
vn -0.0000 -1.0000 -0.0000
vn -0.9993 -0.0385 -0.0000
vn -0.8927 -0.4506 -0.0000
vn -0.9907 0.1364 -0.0000
vn -0.9958 -0.0914 -0.0000
vn -0.9990 -0.0449 -0.0000
vn -0.0013 -0.0016 1.0000
vn -0.9472 0.3207 -0.0000
vn -0.0002 -0.0002 -1.0000
vn -0.9257 0.3783 -0.0000
vn 0.9993 -0.0385 -0.0000
vn 0.8927 -0.4506 -0.0000
vn 0.9907 0.1364 -0.0000
vt 0.355531 0.253708
vt 0.355531 0.248069
vt 0.361781 0.217993
vt 0.815057 0.393068
vt 0.809432 0.429722
vt 0.361781 0.229272
vt 0.361781 0.223633
vt 0.361781 0.217993
vt 0.815057 0.393068
vt 0.370278 0.270294
vt 0.374028 0.251497
vt 0.720522 0.467080
vt 0.723015 0.480608
vt 0.721240 0.503602
vt 0.714365 0.511121
vt 0.704720 0.552973
vt 0.370278 0.270294
vt 0.374028 0.264655
vt 0.719272 0.473659
vt 0.723015 0.480608
vt 0.721865 0.509241
vt 0.721240 0.503602
vt 0.704720 0.552973
vt 0.905082 0.442021
vt 0.891332 0.468337
vt 0.869647 0.437284
vt 0.896957 0.444840
vt 0.905082 0.442021
vt 0.881632 0.470171
vt 0.901740 0.455624
vt 0.901444 0.448052
vt 0.901740 0.455624
vt 0.904468 0.470171
vt 0.901444 0.448052
vt 0.617139 0.414619
vt 0.725020 0.407514
vt 0.610517 0.406613
vt 0.611767 0.397215
vt 0.722520 0.436650
vt 0.617139 0.414619
vt 0.611767 0.397215
vt 0.608017 0.425410
vt 0.613587 0.456772
vt 0.615318 0.498147
vt 0.608587 0.464291
vt 0.623587 0.432336
vt 0.616087 0.428577
vt 0.615318 0.498147
vt 0.608587 0.464291
vt 0.612337 0.454892
vt 0.135003 0.221103
vt 0.135003 0.204186
vt 0.135003 0.204186
vt 0.140841 0.223578
vt 0.133341 0.236736
vt 0.139591 0.238615
vt 0.133341 0.236736
vt 0.363529 0.239757
vt 0.361781 0.217993
vt 0.809647 0.624760
vt 0.813584 0.592788
vt 0.362537 0.259152
vt 0.361781 0.217993
vt 0.810434 0.618839
vt 0.809647 0.624760
vt 0.370278 0.270294
vt 0.370278 0.270294
vt 0.371528 0.240219
vt 0.901693 0.591362
vt 0.887519 0.588993
vt 0.900118 0.566495
vt 0.867833 0.584257
vt 0.901693 0.584257
vt 0.901693 0.591362
vt 0.888133 0.560844
vt 0.899826 0.577758
vt 0.888827 0.585269
vt 0.899826 0.577758
vt 0.894432 0.575053
vt 0.888827 0.585269
vt 0.613496 0.580490
vt 0.661531 0.559176
vt 0.603235 0.431198
vt 0.611767 0.397215
vt 0.674918 0.523652
vt 0.613496 0.581674
vt 0.611767 0.397215
vt 0.610849 0.398755
vt 0.138153 0.211291
vt 0.135003 0.204186
vt 0.140137 0.232178
vt 0.135003 0.204186
vt 0.133341 0.236736
vt 0.133341 0.216059
vt 0.133341 0.236736
s 0
usemtl Material.001
f 16/48/1 6/14/1 4/9/1 13/35/1
f 13/36/2 4/9/2 2/5/2 14/39/2
f 3/6/3 1/1/3 17/51/3 18/53/3
f 8/19/4 2/4/4 9/24/4 12/32/4
f 14/40/5 2/4/5 8/22/5 15/44/5
f 10/26/6 11/29/6 12/33/6 9/24/6
f 2/5/7 4/9/7 10/27/7 9/25/7
f 4/9/8 6/12/8 11/30/8 10/28/8
f 1/3/5 14/41/5 15/45/5 7/17/5
f 3/7/9 13/37/9 14/42/9 1/2/9
f 5/10/1 16/49/1 13/38/1 3/8/1
f 19/55/10 18/53/10 17/52/10 20/57/10
f 7/18/11 5/11/11 19/54/11 20/56/11
f 1/3/5 7/17/5 20/57/5 17/52/5
f 5/10/1 3/8/1 18/53/1 19/55/1
f 5/11/12 7/18/12 15/43/12 16/47/12
f 6/13/13 8/20/13 12/34/13 11/31/13
f 16/48/1 31/81/1 24/65/1 6/14/1
f 31/82/14 32/85/14 22/61/14 24/64/14
f 23/62/15 34/91/15 33/89/15 21/58/15
f 8/21/16 30/78/16 27/69/16 22/60/16
f 32/86/5 15/44/5 8/22/5 22/60/5
f 28/72/6 27/70/6 30/79/6 29/75/6
f 22/61/17 27/71/17 28/73/17 24/64/17
f 24/65/18 28/74/18 29/76/18 6/15/18
f 21/59/5 26/67/5 15/45/5 32/87/5
f 23/62/19 21/58/19 32/88/19 31/83/19
f 25/66/1 23/63/1 31/84/1 16/49/1
f 35/93/10 36/95/10 33/90/10 34/92/10
f 26/68/20 36/94/20 35/93/20 25/66/20
f 21/59/5 33/90/5 36/95/5 26/67/5
f 25/66/1 35/93/1 34/92/1 23/63/1
f 25/66/21 16/50/21 15/46/21 26/68/21
f 6/16/22 29/77/22 30/80/22 8/23/22
